<svg width="16" height="17" viewBox="0 0 16 17" fill="none" xmlns="http://www.w3.org/2000/svg">
<path d="M8.3937 7.62798C8.37589 7.52962 8.3219 7.44149 8.24236 7.38095C8.16283 7.32041 8.0635 7.29184 7.96395 7.30088C7.86441 7.30991 7.77185 7.35588 7.7045 7.42975C7.63716 7.50362 7.59991 7.60002 7.6001 7.69998V11.3016L7.6065 11.3736C7.62431 11.4719 7.67829 11.5601 7.75783 11.6206C7.83737 11.6811 7.93669 11.7097 8.03624 11.7007C8.13579 11.6916 8.22835 11.6457 8.29569 11.5718C8.36303 11.4979 8.40028 11.4015 8.4001 11.3016V7.69998L8.3937 7.62798ZM8.6393 5.89998C8.6393 5.74085 8.57608 5.58823 8.46356 5.47571C8.35104 5.36319 8.19843 5.29998 8.0393 5.29998C7.88017 5.29998 7.72756 5.36319 7.61503 5.47571C7.50251 5.58823 7.4393 5.74085 7.4393 5.89998C7.4393 6.05911 7.50251 6.21172 7.61503 6.32424C7.72756 6.43676 7.88017 6.49998 8.0393 6.49998C8.19843 6.49998 8.35104 6.43676 8.46356 6.32424C8.57608 6.21172 8.6393 6.05911 8.6393 5.89998ZM14.4001 8.49998C14.4001 6.80259 13.7258 5.17473 12.5256 3.97449C11.3253 2.77426 9.69748 2.09998 8.0001 2.09998C6.30271 2.09998 4.67485 2.77426 3.47461 3.97449C2.27438 5.17473 1.6001 6.80259 1.6001 8.49998C1.6001 10.1974 2.27438 11.8252 3.47461 13.0255C4.67485 14.2257 6.30271 14.9 8.0001 14.9C9.69748 14.9 11.3253 14.2257 12.5256 13.0255C13.7258 11.8252 14.4001 10.1974 14.4001 8.49998ZM2.4001 8.49998C2.4001 7.76457 2.54495 7.03637 2.82637 6.35695C3.1078 5.67753 3.52029 5.06019 4.0403 4.54018C4.56031 4.02017 5.17765 3.60768 5.85707 3.32625C6.53649 3.04482 7.2647 2.89998 8.0001 2.89998C8.7355 2.89998 9.4637 3.04482 10.1431 3.32625C10.8225 3.60768 11.4399 4.02017 11.9599 4.54018C12.4799 5.06019 12.8924 5.67753 13.1738 6.35695C13.4552 7.03637 13.6001 7.76457 13.6001 8.49998C13.6001 9.98519 13.0101 11.4096 11.9599 12.4598C10.9097 13.51 9.48531 14.1 8.0001 14.1C6.51489 14.1 5.0905 13.51 4.0403 12.4598C2.9901 11.4096 2.4001 9.98519 2.4001 8.49998Z" fill="#909090"/>
</svg>
