<svg width="345" height="345" viewBox="0 0 345 345" fill="none" xmlns="http://www.w3.org/2000/svg">
<path fill-rule="evenodd" clip-rule="evenodd" d="M72.9988 45.0872C70.1933 45.3112 67.1799 46.0183 64.4359 47.0964C55.0016 50.8033 47.9526 59.0091 45.7499 68.8486C43.7129 77.9485 45.8745 87.4235 51.6405 94.6691C55.3978 99.3905 60.5683 102.976 66.2174 104.779L67.205 105.094V105.446C67.205 105.769 66.8919 111.173 66.5658 116.477C66.4573 118.241 66.1931 122.69 65.7992 129.385C65.7744 129.806 65.6965 131.091 65.6262 132.239C65.556 133.387 65.3461 136.933 65.1599 140.12C64.8542 145.35 64.6514 148.744 64.5123 150.96L64.4629 151.747L63.853 152.084C62.4293 152.87 61.1328 153.97 58.3818 156.726C56.5816 158.53 55.8611 159.315 54.4511 161.009C49.5387 166.911 46.4722 173.159 45.6468 178.946C45.4973 179.995 45.7455 180.938 46.3717 181.703C46.6377 182.027 46.6576 182.088 46.5831 182.348C46.3612 183.122 46.5311 184.943 46.9717 186.512C47.7407 189.252 48.3975 190.394 49.5224 190.948C50.0033 191.185 50.1506 191.216 50.7924 191.216C52.1238 191.216 53.6781 190.522 55.5536 189.092C55.8784 188.844 56.0435 188.761 56.0435 188.845C56.0435 188.915 55.9274 189.461 55.7854 190.059C54.6815 194.705 53.931 198.679 53.8539 200.285C53.8086 201.227 53.8204 201.352 53.9864 201.691C54.5055 202.748 56.2061 203.951 58.131 204.622C58.5059 204.753 58.8242 204.868 58.8383 204.878C58.8524 204.888 58.6526 205.677 58.3942 206.632C56.71 212.854 55.629 219.114 55.1079 225.663C55.0594 226.272 55.0012 226.905 54.9785 227.069C54.9438 227.319 54.8381 229.023 54.5552 233.885C54.3145 238.022 54.2851 252.969 54.5052 259.232C54.6259 262.664 54.9127 269.04 55.0246 270.777C55.4247 276.989 55.8463 282.321 55.9591 282.595C56.0109 282.721 56.1722 282.823 56.4447 282.902L56.8529 283.021L56.9078 283.779C56.938 284.196 56.9668 285.002 56.9717 285.569L56.9807 286.601L56.7672 286.56C56.4791 286.505 56.3541 286.625 55.7645 287.519C54.6067 289.276 53.7133 291.561 52.9465 294.727C52.2916 297.431 52.2293 298.06 52.5458 298.776C52.8701 299.51 53.4122 299.927 54.2458 300.085C55.1111 300.249 58.4561 300.348 60.0558 300.257C61.8526 300.154 62.1206 300.072 62.7288 299.437C63.2171 298.927 63.5039 298.349 63.6759 297.529C63.8295 296.795 63.7736 296.222 63.3853 294.548C63.1582 293.57 63.1579 293.565 63.1579 290.006C63.1579 286.624 63.1499 286.438 62.9999 286.354C62.868 286.28 62.7723 286.334 62.4247 286.676C62.1954 286.902 62.0077 287.066 62.0077 287.041C62.0077 286.923 62.5272 283.333 62.5563 283.25C62.5756 283.195 62.9152 283.137 63.3716 283.111C63.8751 283.083 64.1919 283.025 64.2609 282.95C64.3272 282.878 64.4056 282.316 64.4673 281.47C64.694 278.361 65.4636 273.603 66.9136 266.347C67.2648 264.589 67.6483 262.711 67.7659 262.172C67.8835 261.633 68.0545 260.847 68.146 260.425C68.9775 256.59 70.0869 251.666 70.8283 248.518C71.5874 245.296 72.616 240.996 73.3814 237.847C73.9027 235.701 76.0719 227.025 76.4914 225.407C76.6737 224.704 76.9062 223.803 77.008 223.405C77.1099 223.007 77.2039 222.669 77.2167 222.655C77.2779 222.586 78.144 225.045 78.6516 226.728C80.6612 233.391 83.6767 246.934 86.7897 263.279C87.4741 266.873 88.3303 271.45 88.7103 273.546C89.4831 277.809 89.8839 280.031 89.9555 280.448C90.4294 283.209 90.7365 284.794 90.8157 284.89C90.8778 284.964 91.0988 285.006 91.4342 285.007C91.7214 285.008 92.0071 285.041 92.0693 285.08C92.1865 285.154 92.254 285.581 92.4675 287.596C92.5365 288.247 92.6176 288.966 92.6478 289.194L92.7026 289.607L92.4361 289.554C92.0954 289.485 91.9648 289.596 91.652 290.215C91.0023 291.502 90.7219 293.15 90.66 296.045C90.6084 298.455 90.6734 298.895 91.1624 299.452C91.6651 300.025 91.9445 300.106 93.6604 300.18C96.808 300.315 106.199 300.447 108.954 300.394C111.801 300.34 111.81 300.339 112.262 300.119C113.112 299.705 113.496 298.846 113.252 297.907C113.059 297.167 112.59 296.468 111.683 295.571C110.334 294.235 108.514 293.055 105.461 291.535C101.598 289.611 101.125 289.436 99.7845 289.436C99.3506 289.436 98.9782 289.408 98.957 289.372C98.9359 289.337 98.9048 288.312 98.8881 287.093L98.8577 284.878L99.3153 284.822C99.5669 284.791 99.8223 284.715 99.8829 284.652C100.052 284.475 100.205 279.287 100.204 273.759C100.203 268.017 100.042 261.832 99.7474 256.122C99.6019 253.306 99.2533 247.372 99.1144 245.344C98.907 242.318 98.4031 236.045 98.0879 232.564C97.586 227.021 97.5069 226.209 96.8536 219.912C96.642 217.871 95.8803 211.187 95.5514 208.483L95.3581 206.894L96.1281 206.855C97.1615 206.803 97.7757 206.563 98.3521 205.987C99.038 205.301 99.1966 204.807 99.1885 203.382C99.1848 202.75 99.1186 201.3 99.0411 200.16C98.9637 199.02 98.9004 198.052 98.9004 198.009C98.9004 197.961 100.414 197.93 102.695 197.93C106.877 197.93 106.843 197.933 107.407 197.393C107.563 197.243 107.744 197.018 107.81 196.892C107.876 196.767 108.202 195.559 108.534 194.208C108.867 192.858 109.195 191.557 109.262 191.317L109.385 190.882L109.943 190.79C110.672 190.669 111.462 190.291 111.92 189.844C112.928 188.859 113.6 187.175 113.776 185.192C113.821 184.685 113.886 184.445 114.027 184.255C114.279 183.917 114.685 183.091 114.885 182.508C115.015 182.131 115.046 181.799 115.043 180.804L115.04 179.568L114.647 178.546C114.431 177.984 114.036 176.971 113.77 176.296L113.286 175.068L113.847 172.802C114.155 171.556 114.407 170.365 114.406 170.154C114.405 169.408 113.859 168.604 113.153 168.309C112.967 168.231 112.488 168.194 111.662 168.193C110.993 168.192 110.402 168.163 110.349 168.129C110.296 168.094 109.994 167.549 109.678 166.916C109.026 165.613 107.823 163.45 107.174 162.414L106.738 161.719H114.523C119.141 161.719 122.483 161.685 122.739 161.637C123.696 161.455 124.477 160.862 124.876 160.015C125.172 159.386 125.189 158.306 124.913 157.699C124.658 157.138 124.099 156.565 123.536 156.289L123.055 156.053L112.664 156.03L102.274 156.008L101.503 155.256C100.477 154.257 99.5638 153.546 98.7087 153.082C97.1236 152.222 94.973 151.496 93.277 151.247C92.3832 151.117 88.5525 150.728 88.1568 150.728C87.9096 150.728 87.7531 150.66 87.5146 150.451C87.0763 150.066 86.8749 149.561 86.822 148.713L86.7778 148.005L87.885 148.018C89.7883 148.041 89.9171 147.864 90.2535 144.764C90.3221 144.131 90.3787 143.413 90.3792 143.168C90.38 142.758 90.4104 142.69 90.7489 142.337C91.0585 142.014 91.1693 141.952 91.4389 141.952C91.8746 141.952 92.3203 141.725 92.4755 141.425C92.591 141.202 92.5868 141.04 92.4321 139.797C92.3377 139.037 92.2345 138.023 92.2028 137.543L92.145 136.669L92.3489 136.67C92.461 136.671 93.032 136.804 93.6178 136.968C94.2036 137.131 94.8593 137.265 95.0749 137.265C95.8024 137.266 96.2433 136.793 96.62 135.604C96.8872 134.761 96.8834 133.377 96.6116 132.547C96.2531 131.451 95.6329 130.707 94.7363 130.296L94.2709 130.083L93.8219 130.236C93.2717 130.423 92.948 130.38 92.2216 130.022C91.6194 129.725 90.1875 128.678 88.9876 127.657C88.0204 126.834 87.7804 126.666 87.3765 126.535C86.7089 126.319 86.2286 126.656 85.7287 127.693C85.5674 128.027 85.3847 128.343 85.3228 128.395C85.2363 128.466 85.0443 128.346 84.4904 127.871C82.9989 126.594 82.7094 126.422 81.7368 126.236C81.0278 126.1 80.786 126.139 80.1997 126.483C79.692 126.78 79.1848 127.382 78.8195 128.121C78.4115 128.947 78.3666 129.597 78.6207 131.003C78.8546 132.299 78.9322 134.221 78.7979 135.395C78.7419 135.885 78.5617 136.957 78.3973 137.777C78.0538 139.492 78.0623 139.845 78.4564 140.239C78.5941 140.377 78.822 140.515 78.9627 140.546C79.1035 140.577 79.2186 140.642 79.2186 140.691C79.2186 140.74 79.048 141.954 78.8396 143.39C78.6311 144.825 78.3798 146.574 78.2813 147.277C78.0717 148.77 77.8491 149.326 77.2895 149.753L76.9386 150.02L73.8397 150.074C69.1395 150.154 68.0441 150.301 65.8889 151.14C65.5165 151.285 65.1934 151.386 65.171 151.363C65.1486 151.341 65.1781 150.527 65.2365 149.555C65.4322 146.301 65.5843 143.721 65.755 140.759C65.8483 139.142 65.9631 137.225 66.0103 136.499C66.0575 135.773 66.1731 133.856 66.2671 132.239C66.3612 130.622 66.4955 128.341 66.5654 127.169C66.6354 125.998 66.7122 124.694 66.736 124.272C66.7598 123.851 66.8365 122.585 66.9066 121.461C66.9765 120.336 67.1103 118.093 67.2038 116.477C67.2974 114.86 67.433 112.559 67.5054 111.364C67.5776 110.169 67.6873 108.338 67.749 107.294C67.8108 106.251 67.8826 105.376 67.9085 105.35C67.9344 105.324 68.4086 105.404 68.9622 105.529C72.9688 106.427 77.616 106.477 81.6718 105.664C86.4599 104.704 90.9759 102.586 94.8532 99.482C95.8915 98.6508 98.0018 96.6024 98.8943 95.5594C102.363 91.5057 104.68 86.7148 105.718 81.4515C106.389 78.0455 106.432 74.0086 105.835 70.4249C105.049 65.7038 103.056 61.1051 100.084 57.1547L99.3305 56.1536L193.839 56.155C276.827 56.1564 288.421 56.1719 288.945 56.2822C291.169 56.7511 292.885 58.2838 293.247 60.1237C293.351 60.6484 293.332 61.0844 292.949 67.0168C292.88 68.0946 292.746 70.2417 292.651 71.7881C292.556 73.3345 292.422 75.4816 292.352 76.5594C292.282 77.6372 292.205 78.8641 292.181 79.2859C292.157 79.7076 292.081 80.9345 292.011 82.0123C291.941 83.0901 291.73 86.4641 291.543 89.5101C291.356 92.5561 291.145 95.9301 291.075 97.0079C291.004 98.0857 290.793 101.46 290.606 104.506C290.419 107.552 290.209 110.926 290.14 112.003C290.07 113.081 289.975 114.596 289.928 115.369C289.702 119.057 289.317 125.239 289.203 126.999C289.133 128.077 289.038 129.591 288.99 130.364C288.849 132.685 288.404 139.807 288.264 141.994C288.192 143.119 287.981 146.512 287.796 149.535C287.61 152.557 287.419 155.605 287.371 156.308C287.322 157.011 287.226 158.564 287.156 159.759C287.087 160.954 286.991 162.488 286.943 163.167C286.895 163.847 286.779 165.687 286.686 167.257C286.593 168.827 286.478 170.667 286.431 171.347C286.383 172.026 286.288 173.56 286.219 174.755C286.15 175.95 286.054 177.483 286.006 178.163C285.959 178.842 285.843 180.683 285.749 182.252C285.655 183.822 285.521 185.969 285.452 187.024C285.383 188.078 285.288 189.612 285.24 190.432C285.192 191.252 285.114 192.498 285.066 193.201C285.019 193.904 284.904 195.725 284.81 197.248C284.651 199.854 284.474 202.706 284.171 207.557C283.914 211.655 283.888 211.927 283.706 212.456C283.12 214.152 281.486 215.413 279.403 215.777C278.992 215.848 278.526 215.907 278.368 215.907H278.081L278.081 208.857C278.08 201.697 277.983 196.296 277.823 194.521C277.617 192.237 276.85 189.851 275.056 185.916C274.005 183.61 273.784 183.115 273.426 182.255C273.222 181.764 273.054 181.33 273.054 181.29C273.054 181.25 273.321 180.942 273.646 180.606C277.611 176.513 280.532 168.541 281.91 158.055C282.761 151.578 282.895 144.443 282.25 139.864C281.494 134.493 279.622 128.918 275.886 120.907C275.065 119.147 271.563 112.125 270.245 109.597C269.775 108.696 269.391 107.939 269.391 107.916C269.391 107.893 269.63 107.753 269.923 107.605C272.762 106.174 275.37 103.851 277.181 101.14C280.52 96.1449 281.896 90.2339 280.89 85.2115C280.544 83.4869 279.855 81.8044 278.918 80.3935C278.273 79.4223 276.861 78.0331 275.818 77.3434C274.83 76.6896 274.132 76.3558 273.078 76.0326C272.376 75.8171 272.228 75.8029 270.669 75.801C269.097 75.7992 268.91 75.817 267.218 76.1303C265.621 76.4259 265.278 76.4621 264.023 76.4672C262.5 76.4734 262.074 76.4095 260.829 75.988C259.122 75.4099 257.107 74.1009 255.597 72.5897C254.565 71.557 253.82 70.5006 252.691 68.4686C251.898 67.0398 251.661 66.6987 251.035 66.0796C249.854 64.9134 247.579 64.2023 245.747 64.4268C244.755 64.5483 243.99 64.7815 242.125 65.5313C239.047 66.7687 237.66 67.07 234.884 67.105C232.921 67.1297 232.513 67.19 231.688 67.5768C230.117 68.3141 229.033 69.83 228.7 71.7568C228.338 73.8493 229.051 75.8203 230.611 77.0363L230.895 77.2576L230.793 77.9306C230.662 78.791 230.403 79.502 229.995 80.1162C229.563 80.7665 229.605 80.9344 230.371 81.62C230.697 81.9116 230.98 82.2343 231 82.337C231.256 83.642 231.689 85.1347 231.975 85.6958C232.201 86.139 232.473 86.2267 233.859 86.3034L234.837 86.3576L235.105 87.5079C235.912 90.9751 236.007 91.4498 235.908 91.5112C235.853 91.5451 235.207 91.7672 234.472 92.0046C233.5 92.3188 232.893 92.4622 232.242 92.5317C231.75 92.5842 231.223 92.6489 231.071 92.6756C230.801 92.7229 230.794 92.7163 230.794 92.4194C230.794 92.0013 230.646 91.9461 229.771 92.0374C227.636 92.2603 225.58 93.1354 224.476 94.2922C224.258 94.5206 223.61 95.3784 223.037 96.1985C221.959 97.74 220.663 99.4741 220.284 99.8834L220.066 100.118H217.988C215.972 100.118 215.9 100.124 215.627 100.309C215.471 100.415 215.267 100.651 215.173 100.834C215.013 101.143 215.008 101.216 215.105 101.883C215.162 102.277 215.228 102.703 215.252 102.829C215.292 103.038 215.254 103.077 214.792 103.289C214.039 103.635 213.472 104.19 213.099 104.946C212.824 105.503 212.778 105.683 212.747 106.333L212.711 107.08L212.189 107.384C210.074 108.614 208.036 109.233 206.096 109.234C204.267 109.235 202.558 108.793 200.611 107.818C200.004 107.514 199.425 107.277 199.324 107.291C199.198 107.309 199.054 107.483 198.859 107.85L198.577 108.384L198.178 108.111C197.585 107.708 196.699 106.833 195.892 105.854C194.488 104.154 194.043 103.898 192.277 103.779C190.628 103.668 189.574 103.207 188.278 102.029C187.512 101.333 187.042 101.06 186.607 101.057C186.087 101.053 185.724 101.569 185.722 102.312C185.722 102.639 185.671 102.651 185.361 102.396C185.154 102.227 185.112 102.103 184.997 101.311C183.724 92.558 178.233 84.8369 170.282 80.6175C168.436 79.6383 166.063 78.7422 164.08 78.2762C158.84 77.0446 153.502 77.4056 148.428 79.335C141.323 82.037 135.321 88.0666 132.618 95.2186C131.386 98.4801 130.854 101.38 130.852 104.847C130.851 108.009 131.342 110.697 132.473 113.714C133.92 117.576 135.999 120.759 139.366 124.264C141.073 126.042 142.011 127.181 142.988 128.66C144.806 131.414 145.58 133.163 146.872 137.436C147.363 139.062 148.134 140.448 149.153 141.537L149.673 142.093L149.213 142.548C148.36 143.39 147.957 144.481 148.151 145.424C148.206 145.693 148.402 146.201 148.587 146.553C148.976 147.292 148.974 147.508 148.567 148.168C148.184 148.792 148.015 149.586 148.136 150.194C148.344 151.229 149.041 152.168 150.171 152.93L150.703 153.29V153.781C150.703 155.32 152.581 156.757 155.335 157.326C157.621 157.798 160.114 157.644 162.189 156.902C163.25 156.523 163.832 156.171 164.513 155.499C165.138 154.882 165.355 154.415 165.362 153.673C165.366 153.244 165.369 153.239 165.833 152.945C166.384 152.597 167.059 151.954 167.392 151.462C168.121 150.384 168.134 149.16 167.427 148.077C167.076 147.54 167.085 147.268 167.481 146.505C167.947 145.608 168.053 145.017 167.873 144.317C167.715 143.7 167.413 143.139 167.01 142.716L166.723 142.415L167.281 141.821C168.635 140.378 169.43 138.865 170.078 136.499C170.694 134.246 171.728 131.811 172.928 129.786C174.088 127.829 175.129 126.502 177.147 124.41C179.691 121.772 181.086 119.86 182.451 117.139C183.938 114.174 184.937 110.617 185.178 107.424C185.215 106.941 185.27 106.678 185.335 106.678C185.39 106.678 185.989 106.958 186.665 107.299L187.894 107.919L187.867 108.448C187.835 109.059 188.016 109.775 188.328 110.269C188.646 110.772 189.684 111.831 190.159 112.135C191.088 112.732 192.553 112.921 193.843 112.611C194.57 112.437 195.275 112.434 195.846 112.603L196.287 112.734L196.074 113.135C195.957 113.355 195.861 113.613 195.862 113.707C195.864 113.918 197.396 115.71 198.301 116.559C200.947 119.041 204.295 120.652 208.428 121.433C209.817 121.695 213.146 121.719 214.478 121.476C215.503 121.289 216.739 120.969 217.527 120.689C217.953 120.537 218.113 120.51 218.137 120.588C218.154 120.646 218.328 121.71 218.523 122.952C218.718 124.194 219.087 126.492 219.344 128.06L219.809 130.911L219.596 131.809C219.035 134.173 218.49 137.418 218.038 141.1C217.822 142.856 217.823 148.433 218.04 150.813C218.655 157.562 219.798 163.172 221.517 167.884C221.888 168.899 222.071 169.357 222.587 170.557C222.622 170.641 219.551 170.668 207.777 170.685L192.921 170.708L192.502 170.914C192.271 171.028 191.942 171.26 191.771 171.432C190.597 172.606 190.817 174.693 192.208 175.571C192.975 176.055 192.117 176.032 209.618 176.037L225.724 176.042L226.278 176.768C226.968 177.673 228.522 179.251 229.333 179.869L229.944 180.335L217.099 180.378L204.253 180.421L203.766 180.66C202.864 181.102 202.251 182.075 202.251 183.062C202.251 184.049 202.864 185.021 203.766 185.464L204.253 185.703L219.51 185.725L234.767 185.747L234.872 187.344C234.931 188.222 235.001 189.161 235.028 189.43L235.078 189.918L214.383 189.941C194.681 189.962 193.672 189.97 193.347 190.116C192.483 190.504 191.972 191.073 191.726 191.92C191.363 193.166 191.97 194.474 193.177 195.046L193.688 195.288L214.582 195.288L235.477 195.288L235.516 195.48C235.538 195.585 235.617 196.362 235.692 197.205C235.767 198.049 235.85 198.921 235.878 199.143L235.928 199.547L214.425 199.569L192.921 199.591L192.486 199.821C190.504 200.866 190.526 203.656 192.524 204.637L193.007 204.873H214.478C226.287 204.873 236.063 204.854 236.203 204.831L236.457 204.788L236.558 205.64C236.614 206.109 236.742 207.202 236.843 208.069C237.39 212.78 238.61 221.638 238.79 222.206C238.832 222.338 238.962 222.449 239.149 222.512L239.442 222.61L239.466 223.476L239.49 224.342H238.049H236.607L235.596 225.251C235.04 225.751 234.259 226.455 233.861 226.814C233.463 227.174 229.437 230.795 224.915 234.861C220.393 238.927 215.987 242.891 215.125 243.671C214.263 244.451 213.507 245.127 213.445 245.174C213.353 245.244 213.33 250.067 213.32 272.439L213.307 299.618L216.278 299.67C217.912 299.699 230.272 299.747 243.745 299.777C257.217 299.807 270.353 299.856 272.935 299.885L277.63 299.939L278.473 299.177C278.937 298.758 281.215 296.709 283.534 294.623C285.854 292.537 287.963 290.639 288.22 290.405C289.143 289.57 297.216 282.306 298.104 281.513C298.602 281.067 299.458 280.301 300.005 279.809L300.999 278.914L301 251.718C301.001 230.342 300.978 224.509 300.896 224.458C300.839 224.423 295.753 224.372 289.593 224.347L278.395 224.3L278.156 223.587C277.879 222.764 277.794 222.638 277.517 222.638H277.314V220.312V217.986L277.698 217.8L278.081 217.613V217.058V216.504H278.542C280.127 216.504 281.811 215.809 283.054 214.643C283.53 214.197 283.548 214.187 283.292 214.518C282.962 214.946 282.139 215.579 281.487 215.908C280.909 216.2 279.918 216.507 279.28 216.593C279.019 216.628 280.627 216.648 282.853 216.639C286.827 216.622 286.91 216.618 287.496 216.425C289.032 215.918 290.221 215.039 290.902 213.905C291.442 213.006 291.517 212.588 291.712 209.389C291.808 207.796 291.943 205.649 292.01 204.618C292.078 203.587 292.156 202.341 292.184 201.849C292.211 201.357 292.288 200.13 292.355 199.122C292.422 198.115 292.555 196.006 292.651 194.436C292.746 192.866 292.901 190.374 292.995 188.898C293.23 185.196 293.385 182.693 293.587 179.398C293.681 177.852 293.797 176.011 293.845 175.308C293.925 174.134 294.149 170.547 294.359 167.086C294.405 166.313 294.557 163.898 294.695 161.719C294.834 159.54 294.986 157.086 295.034 156.266C295.082 155.446 295.161 154.2 295.209 153.497C295.258 152.794 295.449 149.746 295.635 146.723C295.82 143.701 296.011 140.653 296.06 139.95C296.108 139.247 296.185 138.02 296.231 137.223C296.311 135.846 296.758 128.664 297.036 124.272C297.108 123.148 297.204 121.614 297.25 120.864C297.52 116.495 297.861 111.05 297.976 109.277C298.201 105.801 298.695 97.853 298.784 96.2837C298.83 95.4636 298.888 94.5817 298.912 94.324C298.936 94.0663 298.994 93.1653 299.041 92.3218C299.088 91.4783 299.184 89.9063 299.253 88.8285C299.323 87.7507 299.456 85.6228 299.549 84.0998C299.643 82.5768 299.759 80.7556 299.806 80.0527C299.854 79.3498 299.95 77.797 300.02 76.602C300.089 75.4071 300.185 73.8734 300.233 73.1939C300.281 72.5145 300.418 70.3674 300.537 68.4226C300.656 66.4779 300.809 64.0433 300.877 63.0123C301.037 60.5808 301.034 59.7065 300.865 59.1298C300.429 57.6449 299.259 56.4446 297.559 55.737C296.201 55.1714 299.983 55.2038 251.723 55.3435C227.676 55.4131 183.428 55.4704 153.392 55.471L98.7827 55.4719L97.6273 54.2981C93.2205 49.8206 88.1191 46.9886 82.0303 45.6396C79.5345 45.0865 75.8387 44.8606 72.9988 45.0872ZM77.0804 58.3632C77.7175 58.5943 79.1014 59.0898 80.1558 59.4641C85.6941 61.4303 88.5049 62.4303 89.6559 62.844C91.3757 63.4621 93.8421 64.3413 96.2165 65.1825C99.9887 66.519 100.136 66.5782 100.136 66.7603C100.136 66.9351 100.281 66.8806 91.072 70.1574L88.3134 71.139L86.1729 70.3422C84.9957 69.904 83.0356 69.1757 81.8173 68.7241C80.5989 68.2723 78.7293 67.5762 77.6625 67.1771C76.5958 66.778 75.6373 66.4636 75.5325 66.4785C75.386 66.4993 75.3419 66.5619 75.3419 66.7488C75.3419 67.0204 74.8535 66.8244 83.8797 70.1747C85.7638 70.8741 87.2783 71.4684 87.2452 71.4956C87.1825 71.547 86.1443 71.9211 80.88 73.7889C79.1462 74.4041 77.3124 75.0587 76.805 75.2436C76.2976 75.4284 75.7618 75.5796 75.6143 75.5796C75.4669 75.5796 74.0992 75.1352 72.575 74.5921C71.0508 74.0489 67.6183 72.8254 64.9472 71.8732C62.2761 70.921 59.4772 69.9248 58.7274 69.6595C57.9776 69.3941 56.6165 68.9098 55.7027 68.5832C54.7889 68.2567 53.447 67.7781 52.7206 67.5198C50.9644 66.8954 50.9997 66.9117 51.0328 66.739C51.0529 66.6336 51.3937 66.4713 52.2104 66.1781C55.1388 65.1263 55.8939 64.8568 59.409 63.6085C61.4709 62.8762 63.6755 62.0904 64.3081 61.8623C64.9408 61.6341 66.877 60.9436 68.6109 60.3279C70.3447 59.7122 72.5494 58.9253 73.51 58.5794C74.5109 58.2189 75.3987 57.9488 75.5894 57.9466C75.7831 57.9444 76.4059 58.1184 77.0804 58.3632ZM158.209 59.4698C158.077 59.5533 157.988 62.4885 157.932 68.593L157.903 71.7029H158.159H158.414L158.472 70.8509C158.504 70.3823 158.572 67.6643 158.622 64.8108C158.69 60.9667 158.688 59.5927 158.617 59.507C158.507 59.3735 158.38 59.3619 158.209 59.4698ZM254.459 65.1066C254.282 65.2095 254.264 65.4666 254.423 65.5992C254.505 65.6667 257.476 65.6999 264.882 65.7161L275.227 65.7388L275.653 65.9484C276.249 66.2416 276.729 66.7119 277.022 67.29C277.246 67.7331 277.272 67.8665 277.272 68.593C277.272 69.3535 277.254 69.4351 276.979 69.9421C276.657 70.537 276.2 70.9591 275.561 71.254L275.142 71.4473L266.098 71.4701C256.371 71.4947 256.769 71.4755 256.908 71.9133L256.963 72.0893L266.18 72.0665L275.397 72.0437L275.887 71.814C276.845 71.3653 277.59 70.4554 277.865 69.3995C278.035 68.7484 278.03 68.4128 277.841 67.6926C277.479 66.3189 276.394 65.3297 275.002 65.1037C274.26 64.9834 254.666 64.9861 254.459 65.1066ZM62.6893 73.4371C69.0102 75.6835 72.1429 76.7996 73.6378 77.3381C74.752 77.7393 75.2879 77.8904 75.5975 77.8904C75.9262 77.8905 76.6751 77.6577 78.8778 76.8703C80.4476 76.3092 83.1507 75.3458 84.8845 74.7295C86.6184 74.1133 88.2383 73.5353 88.4843 73.4453L88.9317 73.2815L88.9283 76.0281L88.9251 78.7747L88.6586 78.9451C88.512 79.0388 88.32 79.2133 88.2319 79.3328C88.0572 79.5698 88.0508 79.6406 87.6118 86.0594C87.4917 87.8167 87.3656 89.6379 87.3318 90.1065L87.2702 90.9585L86.759 91.2074C85.5594 91.7913 83.1409 92.4746 81.0372 92.824C79.1341 93.1401 77.7621 93.2467 75.5975 93.2467C73.4382 93.2467 72.055 93.1396 70.1871 92.828C65.856 92.1051 62.5089 90.675 60.5515 88.7109C59.7686 87.9254 59.4663 87.4763 59.1175 86.5809L58.8978 86.0168L58.8726 79.1656C58.8588 75.3973 58.8673 72.2628 58.8914 72.2C58.9278 72.1052 58.9903 72.1067 59.2573 72.2088C59.4345 72.2765 60.9789 72.8293 62.6893 73.4371ZM92.3381 78.6682C92.337 82.6281 92.3022 85.4875 92.2506 85.8464C92.2034 86.1744 92.052 86.6839 91.9143 86.9786C91.6725 87.4963 91.1476 88.3037 91.0902 88.2463C91.0541 88.2103 90.9376 86.6829 90.7215 83.4182C90.4725 79.6539 90.4708 79.6383 90.2953 79.3497C90.2086 79.207 90.0196 79.0206 89.8755 78.9353L89.6133 78.7805V75.9113V73.0421L90.5292 72.7202C91.0329 72.5432 91.6177 72.3302 91.8285 72.247C92.0394 72.1638 92.2408 72.0936 92.2759 72.091C92.311 72.0884 92.339 75.0482 92.3381 78.6682ZM122.345 74.8852C122.282 74.9263 122.244 75.0507 122.26 75.1618C122.282 75.318 122.462 75.4572 123.055 75.7761C124.846 76.7389 129.254 79.1324 130.012 79.5534C130.464 79.8046 130.913 80.0101 131.01 80.0101C131.244 80.0101 131.391 79.7375 131.253 79.5621C131.196 79.4902 130.268 78.9539 129.19 78.3703C128.112 77.7867 126.223 76.763 124.992 76.0952C123.761 75.4276 122.688 74.8654 122.607 74.8459C122.525 74.8265 122.408 74.8441 122.345 74.8852ZM190.194 76.565C185.226 79.2543 184.776 79.5072 184.726 79.6364C184.669 79.7871 184.847 80.0101 185.025 80.0101C185.158 80.0101 186.194 79.4674 190.11 77.3453C193.582 75.4635 193.816 75.3261 193.816 75.1658C193.816 75 193.66 74.8128 193.521 74.8128C193.471 74.8128 191.974 75.6012 190.194 76.565ZM234.969 75.2066C236.289 75.4286 236.584 75.5467 237.073 76.0495C237.513 76.501 237.91 77.1946 238.291 78.1782C238.634 79.0633 238.963 79.2467 239.674 78.9495C240.22 78.7212 240.684 79.0019 240.887 79.6833C241.097 80.3919 240.797 80.9985 239.747 81.9855C239.064 82.6273 239.058 82.6358 239.058 83.0584C239.058 84.0826 239.562 85.8785 240.209 87.167C241.313 89.363 243.266 91.0625 245.696 91.9434L246.242 92.1411L245.98 92.3592C245.231 92.9847 243.596 93.7787 242.445 94.0761C240.677 94.5332 237.827 94.3895 236.228 93.7627C235.626 93.527 234.695 93.0163 234.552 92.8437C234.444 92.7145 234.639 92.6208 235.809 92.2382C236.287 92.0818 236.514 91.8901 236.59 91.5787C236.615 91.4767 236.532 90.9312 236.404 90.3665C236.277 89.8018 235.996 88.5556 235.78 87.5972C235.564 86.6389 235.349 85.8084 235.302 85.7516C235.243 85.6815 234.909 85.6497 234.262 85.6525C233.737 85.6547 233.143 85.6286 232.943 85.5946C232.628 85.541 232.561 85.4901 232.447 85.2209C232.272 84.81 231.764 83.0002 231.642 82.3531C231.552 81.8763 231.506 81.8042 230.95 81.2807L230.355 80.7196L230.618 80.3297C231.165 79.5197 231.388 78.6391 231.566 76.602C231.63 75.8664 231.699 75.4918 231.79 75.3911C232.158 74.9839 233.263 74.9198 234.969 75.2066ZM215.353 78.2617C214.418 78.5191 213.607 79.211 213.148 80.1425C212.872 80.7036 212.859 80.7741 212.859 81.6697C212.859 82.5115 212.882 82.6595 213.088 83.0989C213.355 83.6682 214.042 84.4288 214.566 84.736C215.369 85.2065 215.383 85.2074 222.238 85.2074C229.026 85.2074 228.845 85.2191 228.709 84.7895C228.656 84.6211 228.57 84.6186 222.205 84.5937L215.756 84.5684L215.265 84.3702C214.634 84.1157 213.987 83.4891 213.688 82.8448C213.367 82.1527 213.363 81.198 213.679 80.5174C213.952 79.9285 214.348 79.4719 214.829 79.19C215.604 78.7361 215.633 78.7342 221.951 78.7331C227.472 78.7321 227.81 78.7235 227.887 78.5807C227.938 78.4848 227.938 78.3757 227.886 78.2825C227.809 78.1455 227.398 78.1362 221.779 78.1432C217.118 78.1492 215.664 78.1759 215.353 78.2617ZM160.374 78.3088C170.862 79.2915 180.019 86.7731 183.366 97.0931C183.856 98.6063 184.406 101.077 184.343 101.488C184.313 101.684 184.609 101.887 170.726 92.1417C167.188 89.6582 164.044 87.4522 163.739 87.2395C163.435 87.0267 162.285 86.2216 161.183 85.4505C158.781 83.7677 159.005 83.9062 158.792 83.9738C158.665 84.0142 158.624 84.0887 158.644 84.2487C158.665 84.4314 159.228 84.8593 161.993 86.7969C163.82 88.0778 165.795 89.463 166.381 89.8753C166.967 90.2877 171.289 93.3211 175.987 96.6165C183.019 101.549 184.529 102.642 184.529 102.8C184.529 102.983 184.492 102.994 183.68 103.033C183.003 103.065 182.748 103.116 182.423 103.281C181.267 103.869 181.639 105.179 183.182 105.951C183.514 106.116 183.828 106.253 183.88 106.253C183.932 106.253 184.123 106.294 184.304 106.345L184.633 106.436L184.575 107.09C184.204 111.243 183.134 114.713 181.152 118.192C179.98 120.248 178.862 121.693 176.742 123.889C175.951 124.709 174.98 125.783 174.585 126.275C172.146 129.315 170.455 132.695 169.321 136.797C168.256 140.646 165.649 143.246 161.78 144.317C160.991 144.535 160.905 144.541 158.414 144.546C155.658 144.551 155.471 144.53 154.069 144.062C152.496 143.538 151.219 142.738 150.013 141.524C148.652 140.153 147.84 138.662 147.216 136.386C146.298 133.038 144.747 129.872 142.669 127.102C141.683 125.787 141.126 125.147 139.497 123.459C135.445 119.258 132.939 114.605 131.881 109.32C130.52 102.516 132.407 94.7286 136.847 88.8285C141.315 82.891 148.292 78.9461 155.448 78.3112C156.579 78.2109 159.315 78.2095 160.374 78.3088ZM89.6804 79.6231C89.8097 79.7874 89.8573 80.0307 89.9013 80.752C89.9323 81.2577 90.015 82.4767 90.0852 83.4608C90.1554 84.4449 90.3079 86.6494 90.424 88.3599C90.5402 90.0703 90.6594 91.8053 90.689 92.2153L90.7429 92.9608H89.2462H87.7496L87.7864 92.6839C87.8066 92.5316 87.8813 91.506 87.9523 90.4047C88.0233 89.3035 88.1385 87.5973 88.2083 86.6132C88.5275 82.1084 88.6764 79.9591 88.6762 79.861C88.6759 79.6685 89.012 79.4137 89.2663 79.4137C89.4298 79.4137 89.5725 79.4858 89.6804 79.6231ZM147.057 85.0828C141.95 87.7938 138.018 92.7069 136.433 98.3569C135.546 101.517 135.378 105.133 135.966 108.352C136.63 111.978 138.164 115.294 140.546 118.249C141.091 118.926 141.217 119.038 141.407 119.016C141.815 118.968 141.734 118.682 141.094 117.899C136.751 112.586 135.234 105.733 136.912 99.0101C137.598 96.2592 139.094 93.2866 140.962 90.9585C141.771 89.95 143.483 88.2686 144.445 87.5372C145.353 86.8463 146.663 85.9973 147.529 85.5376C148.085 85.2428 148.232 85.1253 148.232 84.9761C148.233 84.5718 147.975 84.5952 147.057 85.0828ZM256.402 91.3485C257.767 91.7057 259.025 92.4854 260.29 93.759C261.014 94.4884 262.129 95.922 262.75 96.9227C262.953 97.2507 263.335 97.8066 263.599 98.1581C265.335 100.47 266.512 102.64 267.368 105.102C267.64 105.885 268.119 106.91 269.001 108.595C270.363 111.197 274.35 119.14 275.117 120.779C278.75 128.542 280.584 133.778 281.443 138.842C281.9 141.533 281.954 142.362 281.956 146.766C281.957 150.776 281.903 152.101 281.614 155.03C280.581 165.521 278.036 173.928 274.464 178.655C273.797 179.537 272.912 180.548 272.805 180.548C272.733 180.548 272.296 179.289 272.038 178.333C271.629 176.819 271.403 175.064 271.056 170.708C270.707 166.34 270.584 164.781 270.54 164.19C270.389 162.151 269.93 157.296 269.682 155.116C268.809 147.43 267.718 142.635 265.118 135.051C264.741 133.949 264.354 132.816 264.258 132.533L264.084 132.017L264.295 131.681C264.878 130.749 264.85 130.263 264.069 127.723L263.767 126.743L264.358 126.209C265.743 124.956 266.88 123.302 267.681 121.378C268.066 120.454 268.081 120.376 267.904 120.229C267.642 120.012 267.474 120.213 267.017 121.287C265.297 125.324 262.194 127.851 257.633 128.929C256.941 129.093 256.582 129.121 255.162 129.123C253.635 129.125 253.426 129.106 252.587 128.895C249.432 128.1 246.486 126.202 243.775 123.216C242.997 122.36 242.893 122.208 242.894 121.938C242.895 121.405 243.599 119.971 244.288 119.096C244.613 118.684 244.765 118.686 246.052 119.113C247.427 119.57 247.899 119.649 248.586 119.539C249.685 119.364 251.105 118.749 251.999 118.061C253.937 116.57 255.036 114.436 255.563 111.143C255.81 109.597 255.747 105.359 255.456 103.979C255.435 103.877 255.347 103.77 255.261 103.743C255.133 103.703 255.063 103.46 254.877 102.414C254.641 101.09 254.491 100.655 251.644 93.0243C251.386 92.3328 251.2 91.7524 251.23 91.7346C251.294 91.6969 252.23 91.4725 253.032 91.3025C253.919 91.1145 255.596 91.1374 256.402 91.3485ZM214.35 91.4122C213.496 91.7305 212.947 92.1559 212.516 92.833C212.072 93.5301 211.939 94.0558 211.98 94.9506C212.01 95.621 212.054 95.8098 212.298 96.3026C212.795 97.3069 213.753 98.0332 214.858 98.2426C215.107 98.2899 216.146 98.3285 217.167 98.3285C218.741 98.3285 219.044 98.3081 219.158 98.1946C219.319 98.0334 219.33 97.8524 219.185 97.7584C219.126 97.7205 218.101 97.6703 216.906 97.6469C214.777 97.6051 214.724 97.5998 214.252 97.3787C212.916 96.7524 212.292 95.3246 212.727 93.8921C212.89 93.3534 212.984 93.203 213.441 92.7475C214.345 91.8452 213.87 91.9024 220.868 91.8532L226.917 91.8106V91.5549V91.2993L220.825 91.2843C215.31 91.2708 214.697 91.2829 214.35 91.4122ZM250.515 91.8319C250.6 92.0501 252.347 96.7438 253.044 98.6267C253.374 99.5171 253.93 101.012 254.279 101.95C254.659 102.969 254.896 103.726 254.869 103.833C254.844 103.932 254.878 104.546 254.944 105.197C255.146 107.178 255.182 108.285 255.083 109.533C254.827 112.763 254.146 114.792 252.753 116.477C251.689 117.764 249.785 118.808 248.293 118.923C247.739 118.966 247.579 118.936 246.461 118.581C244.972 118.109 244.632 118.051 244.322 118.215C244.1 118.333 244.071 118.324 243.69 118.009C243.053 117.483 242.981 117.311 242.887 116.121C242.69 113.597 242.233 112.711 240.777 112.023C240.48 111.882 240.225 111.725 240.209 111.673C240.194 111.62 239.945 110.101 239.656 108.297C238.537 101.313 238.508 101.16 238.232 100.819C237.665 100.119 237.943 100.163 233.972 100.136L230.431 100.112L230.491 98.8157C230.523 98.1025 230.585 96.9823 230.628 96.3263C230.671 95.6702 230.707 94.7861 230.707 94.3616C230.708 93.8746 230.748 93.5401 230.815 93.4551C230.91 93.3358 232.141 93.1395 233.478 93.0304C233.671 93.0147 233.851 93.1014 234.199 93.3762C235.025 94.029 236.142 94.5078 237.525 94.8008C238.436 94.9939 241.203 95.0212 241.998 94.8449C243.839 94.4362 245.522 93.6179 246.876 92.4738C247.122 92.2658 247.323 92.041 247.323 91.9744C247.323 91.9077 247.333 91.8477 247.344 91.841C247.368 91.8273 249.348 91.7215 250.019 91.6981C250.367 91.6859 250.469 91.7136 250.515 91.8319ZM230.108 93.3655C230.102 94.4411 229.811 100.022 229.758 100.075C229.733 100.099 227.748 100.109 225.346 100.097L220.98 100.075L221.507 99.3935C221.797 99.0186 222.497 98.0601 223.063 97.2635C224.593 95.1097 224.829 94.8103 225.33 94.3836C226.357 93.508 228.016 92.8907 230.048 92.6282C230.083 92.6237 230.11 92.9555 230.108 93.3655ZM116.388 95.1472C116.222 95.2143 116.262 95.5857 116.446 95.6843C116.553 95.7412 117.929 95.7724 120.329 95.7724C122.728 95.7724 124.105 95.7412 124.211 95.6843C124.397 95.5848 124.427 95.3466 124.274 95.1931C124.197 95.1164 123.212 95.0925 120.333 95.0976C118.222 95.1012 116.447 95.1236 116.388 95.1472ZM191.788 95.1931C191.635 95.3466 191.665 95.5848 191.851 95.6843C191.957 95.7412 193.333 95.7724 195.733 95.7724C198.133 95.7724 199.509 95.7412 199.615 95.6843C199.801 95.5848 199.831 95.3466 199.678 95.1931C199.531 95.0459 191.935 95.0459 191.788 95.1931ZM156.967 98.0382C156.173 98.2159 155.303 98.6297 154.598 99.1656L154.019 99.6052L153.405 99.4289C152.53 99.1778 151.108 99.1193 150.241 99.2987C148.977 99.5605 147.759 100.335 147.087 101.303C146.735 101.811 146.456 102.665 146.351 103.552C146.248 104.428 146.32 104.914 146.559 104.96C146.858 105.017 146.955 104.815 146.955 104.13C146.955 102.904 147.366 101.815 148.1 101.098C148.997 100.222 150.481 99.7089 151.811 99.8143C152.458 99.8656 153.393 100.053 153.491 100.15C153.52 100.18 153.465 100.29 153.368 100.395C152.511 101.329 151.465 103.692 151.176 105.351C151.013 106.285 151.012 106.726 151.173 107.486C151.346 108.304 151.68 108.919 152.213 109.407C152.849 109.988 153.444 110.198 154.325 110.152C155.162 110.108 155.654 109.904 156.24 109.356C156.801 108.831 157.142 108.221 157.363 107.345C157.924 105.128 156.784 101.493 155.133 100.237L154.696 99.9047L154.972 99.6732C155.417 99.3009 156.343 98.8535 156.975 98.7051C157.859 98.498 159.324 98.5727 160.148 98.867C160.643 99.0439 161.485 99.4763 161.684 99.6556C161.701 99.6714 161.506 99.9157 161.25 100.199C159.979 101.603 158.9 104.583 159.095 106.147C159.255 107.424 159.805 108.392 160.708 108.982C161.76 109.669 163.087 109.724 164.092 109.121C164.91 108.63 165.274 107.949 165.449 106.579C165.701 104.604 164.793 101.972 163.292 100.329C163.023 100.035 162.802 99.7711 162.802 99.744C162.802 99.6685 163.559 99.306 164.038 99.1526C164.727 98.9315 165.746 98.8403 166.492 98.9333C168.569 99.1919 169.829 100.341 170.384 102.48C170.517 102.994 170.558 103.06 170.758 103.084C171.064 103.121 171.119 102.933 170.99 102.298C170.454 99.6731 168.212 98.0708 165.358 98.2736C164.4 98.3418 163.76 98.5132 162.909 98.9299L162.205 99.2742L161.928 99.0625C161.54 98.7666 160.471 98.2747 159.863 98.1119C159.115 97.9119 157.694 97.8757 156.967 98.0382ZM163.418 101.513C163.92 102.246 164.403 103.333 164.646 104.275C164.83 104.988 164.855 105.237 164.823 106.082C164.777 107.324 164.583 107.885 164.029 108.372C163.572 108.774 163.004 108.936 162.276 108.87C161.279 108.779 160.461 108.178 160.002 107.2C159.797 106.762 159.778 106.629 159.778 105.656C159.778 104.436 159.914 103.882 160.544 102.533C160.977 101.606 161.402 100.946 161.885 100.448L162.237 100.086L162.656 100.549C162.886 100.804 163.229 101.238 163.418 101.513ZM155.142 101.134C156.147 102.255 156.859 104.309 156.856 106.078C156.853 107.77 156.181 108.95 154.953 109.417C154.25 109.684 153.578 109.601 152.935 109.169C151.823 108.423 151.441 106.79 151.931 104.879C152.313 103.39 153.053 101.826 153.857 100.808L154.205 100.368L154.466 100.52C154.61 100.603 154.914 100.88 155.142 101.134ZM237.38 100.873C237.72 101.097 237.886 101.367 237.959 101.815C237.995 102.03 238.18 103.164 238.371 104.335C238.692 106.298 239.328 110.265 239.75 112.941C239.846 113.55 239.926 114.167 239.926 114.313C239.929 114.932 239.393 115.453 238.753 115.454C238.562 115.454 237.145 115.225 235.603 114.945C232.573 114.394 232.496 114.391 231.898 114.794C231.445 115.099 231.261 115.49 231.269 116.136C231.282 117.305 232.013 118.09 234.389 119.488C236.557 120.764 238.336 121.333 240.157 121.333C240.973 121.333 241.098 121.352 241.138 121.482C241.177 121.609 241.58 124.058 241.997 126.701C242.06 127.099 242.233 128.165 242.381 129.07C242.633 130.612 242.641 130.729 242.511 130.927C242.435 131.044 242.276 131.175 242.158 131.22C242.027 131.27 237.979 131.302 231.632 131.302C222.294 131.302 221.292 131.289 221.028 131.163C220.419 130.874 220.477 131.107 219.512 125.124C219.346 124.094 219.038 122.196 218.829 120.907C218.619 119.618 218.311 117.72 218.145 116.69C217.879 115.044 217.548 112.994 216.78 108.255C216.666 107.552 216.435 106.114 216.266 105.059C216.097 104.005 215.904 102.833 215.836 102.454C215.649 101.409 215.669 101.102 215.938 100.891C216.162 100.714 216.168 100.714 226.652 100.715C236.713 100.715 237.151 100.722 237.38 100.873ZM187.128 101.894C187.268 101.981 187.685 102.327 188.054 102.663C189.34 103.833 190.496 104.307 192.416 104.45C193.099 104.501 193.538 104.576 193.73 104.676C194.143 104.889 194.848 105.578 195.564 106.465C196.279 107.352 196.87 107.93 197.65 108.503C197.955 108.727 198.217 108.923 198.234 108.938C198.25 108.954 197.889 109.682 197.431 110.555C196.692 111.967 196.579 112.138 196.422 112.092C195.944 111.951 195.105 111.793 194.838 111.794C194.674 111.794 194.214 111.869 193.816 111.961C192.427 112.279 191.25 112.121 190.362 111.498C189.745 111.065 188.818 109.959 188.651 109.457C188.363 108.594 188.645 107.653 189.461 106.745C190.365 105.739 191.354 105.709 192.215 106.663C192.648 107.142 192.91 107.747 192.949 108.36C192.982 108.873 192.973 108.901 192.684 109.19C192.519 109.355 192.328 109.49 192.259 109.49C192.063 109.49 191.921 109.716 191.986 109.922C192.037 110.081 192.09 110.1 192.38 110.061C193.132 109.961 193.607 109.301 193.597 108.373C193.592 107.91 193.536 107.697 193.288 107.18C192.88 106.332 192.476 105.891 191.81 105.562C191.322 105.322 191.202 105.297 190.75 105.338C190.428 105.367 190.093 105.466 189.839 105.608L189.438 105.833L188.567 105.4C187.603 104.921 187.16 104.518 186.785 103.779C186.553 103.32 186.302 102.322 186.367 102.112C186.387 102.046 186.421 101.935 186.443 101.864C186.498 101.69 186.818 101.704 187.128 101.894ZM185.52 103.833L186.128 103.959L186.438 104.462C186.837 105.107 187.257 105.462 188.147 105.905L188.863 106.262L188.558 106.789C188.39 107.08 188.241 107.331 188.228 107.347C188.214 107.364 187.923 107.223 187.58 107.035C186.62 106.507 185.441 106.013 184.464 105.731C183.975 105.589 183.388 105.359 183.159 105.217C182.419 104.763 182.18 104.184 182.614 103.9C183.04 103.621 184.356 103.59 185.52 103.833ZM215.503 104.362L215.601 104.9L214.997 105.39C214 106.199 213.411 106.62 213.356 106.564C213.271 106.48 213.48 105.581 213.676 105.19C213.774 104.993 213.973 104.705 214.117 104.551C214.444 104.201 215.116 103.769 215.282 103.801C215.362 103.816 215.441 104.016 215.503 104.362ZM216.062 107.8C216.79 112.305 217.363 115.846 217.677 117.794C217.858 118.917 217.995 119.846 217.983 119.858C217.89 119.952 215.975 120.509 215.15 120.684C211.302 121.496 207.056 120.94 203.231 119.123C201.443 118.273 200.074 117.336 198.689 116.012C197.957 115.313 196.542 113.746 196.542 113.635C196.542 113.609 196.786 113.136 197.083 112.583C197.381 112.03 198.038 110.791 198.545 109.831C199.051 108.87 199.478 108.069 199.494 108.049C199.51 108.03 200.019 108.251 200.626 108.54C201.948 109.17 203.028 109.535 204.075 109.704C205.092 109.869 207.029 109.866 207.989 109.698C210.172 109.317 212.605 108.102 215.031 106.181C215.383 105.903 215.683 105.686 215.698 105.7C215.714 105.714 215.877 106.659 216.062 107.8ZM179.717 107.978C179.698 108.036 179.582 108.468 179.458 108.936C179.1 110.299 178.684 111.396 177.971 112.855C176.34 116.197 173.885 119.034 170.777 121.167C170.068 121.653 169.916 121.88 170.174 122.069C170.38 122.22 170.729 122.029 172.024 121.06C173.284 120.118 175.376 118.051 176.242 116.893C177.182 115.637 178.023 114.262 178.659 112.945C179.499 111.201 180.396 108.41 180.243 108.012C180.18 107.847 179.769 107.82 179.717 107.978ZM240.744 112.7C241.135 112.942 241.621 113.436 241.79 113.764C242.02 114.21 242.119 114.724 242.25 116.152C242.381 117.592 242.448 117.752 243.198 118.421L243.662 118.834L243.289 119.401C243.084 119.713 242.792 120.253 242.64 120.601L242.365 121.233L241.782 120.954C241.221 120.685 241.169 120.676 240.4 120.716C239.036 120.788 237.686 120.434 235.775 119.506C234.598 118.933 233.02 117.93 232.535 117.445C232.126 117.036 231.901 116.555 231.901 116.088C231.901 115.749 231.944 115.65 232.202 115.393C232.485 115.109 232.526 115.095 232.947 115.136C233.192 115.16 233.91 115.277 234.543 115.395C238.596 116.156 238.766 116.178 239.254 116.024C239.717 115.879 240.175 115.508 240.378 115.115C240.626 114.636 240.623 114.132 240.368 112.792C240.316 112.518 240.412 112.495 240.744 112.7ZM242.076 121.811C242.152 121.84 242.211 121.961 242.211 122.088C242.212 122.398 242.417 122.698 243.248 123.601C247.327 128.032 251.792 130.16 256.194 129.77C258.322 129.582 260.968 128.672 262.617 127.561C262.898 127.372 263.156 127.216 263.189 127.214C263.262 127.211 263.699 128.585 263.951 129.614C264.113 130.273 264.12 130.399 264.022 130.752C263.806 131.524 262.784 132.65 261.608 133.413C259.223 134.96 256.399 135.371 253.783 134.552C252.936 134.287 252.496 134.066 250.902 133.106C248.349 131.568 245.885 130.404 243.831 129.765L243.106 129.539L242.871 128.099C242.742 127.306 242.464 125.599 242.253 124.304C242.043 123.009 241.87 121.907 241.87 121.854C241.87 121.745 241.892 121.74 242.076 121.811ZM76.6056 125.239C75.473 125.632 74.7892 126.535 74.72 127.731C74.6759 128.492 74.8261 129.049 75.2232 129.597C75.4292 129.881 75.5224 129.944 75.7076 129.922C76.0233 129.886 76.0438 129.655 75.7668 129.255C74.9441 128.068 75.2611 126.662 76.5071 125.972L76.9607 125.721H99.8376C121.675 125.721 122.733 125.728 123.112 125.875C123.557 126.046 124.15 126.631 124.34 127.087C124.406 127.246 124.46 127.637 124.459 127.955C124.458 128.421 124.412 128.614 124.225 128.955C123.961 129.435 123.415 129.89 122.947 130.02C122.735 130.079 118.548 130.108 110.356 130.108C100.924 130.109 98.0587 130.132 97.9802 130.211C97.8257 130.366 97.8574 130.603 98.0459 130.704C98.162 130.766 102.032 130.787 110.592 130.771L122.97 130.748L123.451 130.522C123.716 130.398 124.094 130.135 124.291 129.938C124.488 129.741 124.75 129.364 124.875 129.099C125.19 128.427 125.196 127.373 124.889 126.743C124.623 126.199 123.982 125.557 123.462 125.314L123.055 125.124L100.051 125.106C78.1407 125.088 77.025 125.094 76.6056 125.239ZM220.718 131.728C221.027 131.893 221.198 131.898 226.928 131.898C232.108 131.898 232.826 131.914 232.87 132.027C232.897 132.098 232.923 133.238 232.928 134.562C232.934 135.885 232.971 138.175 233.011 139.651C233.052 141.128 233.127 144.214 233.178 146.51C233.229 148.806 233.308 151.874 233.352 153.326C233.397 154.779 233.473 157.271 233.52 158.864C233.697 164.777 234.098 174.521 234.331 178.513C234.474 180.985 234.489 181.826 234.387 181.826C234.198 181.826 233.057 181.384 232.421 181.064C228.911 179.297 226.147 176.293 223.9 171.801C221.139 166.281 219.474 159.56 218.68 150.733C218.415 147.784 218.414 143.312 218.679 141.1C219.132 137.316 220.147 131.557 220.36 131.557C220.382 131.557 220.543 131.634 220.718 131.728ZM89.7411 133.061C90.0691 133.148 90.6442 133.375 91.0191 133.566C91.558 133.84 91.6948 133.947 91.6721 134.077C91.6563 134.167 91.6233 135.033 91.5987 136.001C91.5634 137.39 91.587 138.046 91.7105 139.111C91.7967 139.854 91.8681 140.633 91.8692 140.844L91.8711 141.228L91.3308 141.271C90.8306 141.31 90.7714 141.337 90.5344 141.633C90.2266 142.017 90.1318 142.024 88.7549 141.777C87.2084 141.5 86.2549 141.159 85.8676 140.743C85.7144 140.578 85.6941 140.446 85.6952 139.614C85.6959 139.096 85.7516 137.896 85.8189 136.948C85.8895 135.955 85.9199 134.799 85.8909 134.22L85.8403 133.215L86.4275 133.07C86.7504 132.99 87.1105 132.907 87.2276 132.886C87.6732 132.805 89.1693 132.909 89.7411 133.061ZM83.8724 134.587C84.2148 134.95 84.5213 135.87 84.5347 136.575L84.5437 137.052L84.0956 137.162C83.3233 137.351 82.6704 137.056 82.3622 136.378C81.9323 135.431 82.4213 134.285 83.2556 134.284C83.5246 134.284 83.6398 134.34 83.8724 134.587ZM97.9802 135.579C97.8266 135.732 97.857 135.971 98.0427 136.07C98.1542 136.13 102.391 136.158 111.149 136.158C122.683 136.158 124.133 136.173 124.482 136.292C125.022 136.476 125.599 137.103 125.775 137.697C125.943 138.261 125.943 138.4 125.774 138.976C125.606 139.546 124.917 140.269 124.406 140.411C124.179 140.474 119.737 140.503 110.047 140.503C97.4052 140.503 96.0024 140.517 95.8817 140.637C95.7134 140.806 95.7136 140.883 95.883 141.052C96.0054 141.175 97.3452 141.185 110.176 141.165L124.333 141.142L124.866 140.897C125.475 140.615 126.005 140.09 126.279 139.496C126.538 138.934 126.54 137.732 126.284 137.176C125.926 136.401 125.294 135.86 124.459 135.611C124.053 135.491 122.623 135.477 111.043 135.477C101.076 135.477 98.0588 135.5 97.9802 135.579ZM238.524 136.219C238.554 136.3 238.48 136.754 238.359 137.228C237.91 138.981 237.382 139.972 236.233 141.219C235.735 141.759 235.588 141.871 235.405 141.85C235.245 141.831 235.174 141.767 235.154 141.625C235.132 141.474 235.269 141.276 235.714 140.815C236.809 139.679 237.324 138.729 237.746 137.064C237.865 136.593 237.982 136.177 238.005 136.14C238.083 136.013 238.467 136.071 238.524 136.219ZM257.022 137.298C258.36 139.001 259.818 140.187 261.692 141.098C262.601 141.54 262.745 141.704 262.442 141.955C262.333 142.046 262.227 142.031 261.825 141.868C259.853 141.066 257.502 139.159 256.324 137.406C256.152 137.15 256.122 137.042 256.189 136.916C256.344 136.626 256.579 136.734 257.022 137.298ZM81.4082 140.811C81.5395 140.908 81.7332 141.138 81.8389 141.321C82.024 141.642 82.0301 141.72 82.0093 143.485C81.9884 145.253 81.9946 145.332 82.1856 145.719C82.445 146.246 83.1799 146.909 83.869 147.238C84.1725 147.383 84.7909 147.595 85.2432 147.71C85.6954 147.824 86.0763 147.929 86.0896 147.942C86.1028 147.956 86.1498 148.35 86.1939 148.82C86.2883 149.824 86.4996 150.344 87.0258 150.871C87.5159 151.361 87.8877 151.531 89.1571 151.844C89.7595 151.993 90.2815 152.14 90.3172 152.172C90.3962 152.242 88.7473 153.488 88.037 153.896C84.8636 155.716 81.0736 155.817 77.7337 154.17C77.2331 153.924 76.3709 153.357 75.4537 152.671C74.6424 152.065 73.947 151.538 73.9084 151.5C73.8698 151.462 74.0999 151.369 74.4196 151.295C74.7394 151.22 75.442 151.057 75.9809 150.932C77.1358 150.665 77.4852 150.504 77.9571 150.021C78.5566 149.408 78.6614 149.06 79.0421 146.425C79.7452 141.558 79.8198 141.052 79.8682 140.814L79.9177 140.571L80.5436 140.603C81.0086 140.626 81.231 140.68 81.4082 140.811ZM92.442 145.803C92.296 145.949 92.3157 146.27 92.4746 146.331C92.5487 146.359 99.5575 146.382 108.05 146.382H123.49L123.931 146.602C124.92 147.095 125.373 148.193 125.043 149.296C124.908 149.745 124.379 150.328 123.885 150.571L123.481 150.77L110.301 150.793C97.1423 150.816 97.1215 150.816 97.0667 150.989C96.9249 151.436 96.166 151.413 110.478 151.389L123.737 151.367L124.272 151.076C125.277 150.532 125.776 149.697 125.779 148.555C125.781 147.985 125.743 147.797 125.551 147.404C125.121 146.526 124.392 145.967 123.445 145.787C122.741 145.654 92.5761 145.669 92.442 145.803ZM162.664 146.998C162.821 147.249 162.559 147.394 161.458 147.666C160.179 147.981 159.585 148.022 159.449 147.804C159.369 147.677 159.387 147.62 159.553 147.485C159.663 147.394 159.874 147.317 160.021 147.314C160.168 147.311 160.711 147.199 161.226 147.066C162.272 146.795 162.53 146.783 162.664 146.998ZM163.724 151.178C163.749 151.394 163.705 151.436 163.213 151.658C162.428 152.013 160.869 152.489 159.83 152.69C157.995 153.046 155.532 153.221 155.321 153.011C155.188 152.877 155.19 152.606 155.326 152.562C155.384 152.543 156.046 152.484 156.795 152.43C159.108 152.267 160.841 151.906 162.51 151.242C163.494 150.85 163.685 150.84 163.724 151.178ZM252.772 160.313C255.273 167.76 258.298 176.894 259.68 181.171C259.746 181.376 259.736 181.404 259.611 181.368C256.554 180.5 252.816 179.952 249.948 179.952C249.063 179.952 248.772 179.925 248.772 179.845C248.774 179.582 249.031 175.709 249.113 174.712C249.581 168.998 250.019 164.105 250.52 158.992C250.933 154.777 250.913 154.944 250.988 155.08C251.025 155.146 251.827 157.501 252.772 160.313ZM123.242 156.84C124.041 157.267 124.456 157.944 124.459 158.826C124.462 159.798 123.909 160.593 123.01 160.91C122.701 161.019 121.492 161.037 114.46 161.037L106.27 161.037L106.019 160.639C105.647 160.049 104.501 158.539 103.809 157.725C103.476 157.333 103.132 156.92 103.046 156.808L102.888 156.603L112.887 156.626L122.885 156.649L123.242 156.84ZM138.764 162.613C137.881 162.761 136.827 163.11 136.006 163.525C135.198 163.934 135.007 164.06 134.204 164.714C133.605 165.201 133.59 165.208 133.352 165.084C133.072 164.938 132.533 164.917 132.297 165.043C132.163 165.115 132.045 165.058 131.629 164.723C130.644 163.929 129.402 163.366 128.21 163.173C127.453 163.05 127 163.059 126.113 163.214C123.654 163.642 122.205 165.411 121.32 169.059C120.974 170.482 120.762 171.934 120.454 174.968C120.17 177.762 119.889 179.959 119.555 181.992C118.288 189.7 116.158 196.016 113.76 199.174C113.507 199.508 113.3 199.818 113.3 199.864C113.3 200.052 113.631 200.225 114.153 200.309C116.048 200.617 121.077 200.178 124.796 199.38C125.238 199.285 125.613 199.208 125.629 199.208C125.645 199.208 125.648 199.811 125.635 200.549L125.611 201.891L123.183 201.941C121.454 201.975 120.569 202.029 120.108 202.125C117.997 202.569 116.171 203.559 114.662 205.08C112.876 206.879 111.834 209.104 111.581 211.66C111.442 213.073 111.556 213.951 112.362 217.654C113.225 221.624 113.227 221.631 113.59 223.32C113.755 224.093 114.258 226.413 114.706 228.474C115.155 230.536 115.653 232.837 115.814 233.587C115.975 234.336 116.319 235.927 116.579 237.122C116.839 238.317 117.207 240.019 117.396 240.903C117.585 241.788 117.872 242.915 118.034 243.408C119.457 247.751 123.025 251.31 127.358 252.706C129.257 253.318 129.393 253.333 133.642 253.373L137.497 253.41V273.127V292.844L130.745 292.845C124.296 292.846 123.961 292.853 123.284 293.015C120.432 293.699 118.497 296.166 118.497 299.119C118.497 299.96 118.505 300 118.689 300.044C118.794 300.07 128.886 300.08 141.114 300.067L163.348 300.044L163.399 299.831L163.449 299.618L172.732 299.575C179.57 299.544 182.06 299.507 182.186 299.434C182.403 299.307 182.776 298.906 182.9 298.665C183.309 297.869 182.472 296.346 181.086 295.362C180.224 294.751 177.564 293.476 174.174 292.05C172.333 291.275 171.113 290.8 170.964 290.798C170.621 290.794 170.625 290.703 171.064 288.625C171.3 287.506 171.493 286.58 171.493 286.565C171.493 286.551 171.724 286.54 172.007 286.54C172.625 286.54 172.979 286.401 173.338 286.017C173.663 285.67 173.642 285.731 174.759 281.811C179.069 266.686 181.171 256.805 181.901 248.241C182.063 246.34 182.041 242.283 181.861 240.938C181.402 237.504 180.529 235.776 178.335 233.965C174.905 231.132 169.661 229.131 162.291 227.845C161.476 227.703 158.316 227.239 158.162 227.239C158.137 227.239 158.116 227.182 158.116 227.112C158.116 227.043 157.953 226.883 157.754 226.758C156.617 226.043 156.212 225.75 155.538 225.16C153.906 223.729 152.821 222.127 152.284 220.358L152.225 220.166L170.06 220.188L187.894 220.21L188.381 220.449C189.036 220.77 189.511 221.324 189.724 222.011L189.891 222.553L189.6 227.473C189.44 230.179 189.249 233.391 189.175 234.609C189.101 235.827 188.888 239.431 188.703 242.618C188.517 245.804 188.306 249.389 188.234 250.584C188.162 251.779 187.951 255.364 187.766 258.551C187.581 261.737 187.39 264.958 187.342 265.708C187.294 266.457 187.216 267.78 187.168 268.647C187.029 271.178 186.501 280.153 186.404 281.64C186.355 282.39 186.258 284.039 186.189 285.304C186.119 286.569 186.024 288.199 185.977 288.925C185.929 289.652 185.815 291.607 185.722 293.27C185.63 294.934 185.536 296.534 185.513 296.825L185.473 297.356L186.385 297.31C186.887 297.284 188.093 297.235 189.064 297.201C190.035 297.166 190.85 297.117 190.875 297.092C190.933 297.034 191.056 295.696 191.173 293.867C191.222 293.094 191.319 291.713 191.389 290.8C191.459 289.886 191.612 287.758 191.729 286.071C191.967 282.654 192.133 280.301 192.327 277.636C192.583 274.101 193.047 267.556 193.132 266.261C193.18 265.535 193.259 264.442 193.307 263.833C193.41 262.533 193.854 256.283 194.03 253.652C194.098 252.644 194.193 251.321 194.241 250.712C194.289 250.103 194.481 247.419 194.668 244.748C194.855 242.077 195.067 239.086 195.139 238.102C195.21 237.118 195.42 234.166 195.606 231.542C195.791 228.917 196.003 225.946 196.076 224.939C196.567 218.142 196.608 217.452 196.535 217.065C196.494 216.844 196.438 216.627 196.411 216.583C196.381 216.534 202.433 216.503 212.236 216.502C220.967 216.501 228.161 216.468 228.224 216.429C228.287 216.389 228.325 216.265 228.309 216.153L228.28 215.95L212.191 215.928L196.102 215.907L195.74 215.61C195.541 215.447 195.19 215.227 194.959 215.121L194.54 214.927L181.273 214.885L168.006 214.842L168.415 214.416C172.125 210.551 175.454 202.835 177.285 193.853C177.432 193.133 177.54 192.443 177.526 192.319C177.501 192.1 177.48 192.092 176.874 192.068C176.427 192.05 176.261 192.014 176.292 191.94C177.022 190.183 177.234 189.61 177.415 188.895C178.331 185.283 177.878 182.094 176.248 180.675L175.864 180.342L176.02 179.742C176.327 178.563 176.144 177.672 175.477 177.086C174.813 176.503 175.505 176.536 164.506 176.562C154.634 176.586 154.578 176.587 154.197 176.765C153.788 176.955 153.317 177.386 153.134 177.737C153.017 177.961 152.96 178.183 151.893 182.581C151.526 184.097 151.209 185.354 151.19 185.373C151.17 185.392 150.814 185.276 150.397 185.115C148.895 184.536 147.252 184.156 145.806 184.053L145.041 183.999L144.929 183.53C144.779 182.898 144.762 181.159 144.898 180.402C145.008 179.792 145.012 179.786 145.313 179.73C145.479 179.698 146.003 179.697 146.477 179.727C146.981 179.759 147.466 179.746 147.647 179.695C148.206 179.539 148.345 179.304 148.946 177.499C149.482 175.885 149.647 175.498 150.276 174.37C150.617 173.758 150.598 173.603 150.108 172.986C149.463 172.177 148.86 170.751 148.525 169.246L148.382 168.601L148.603 168.419C148.841 168.223 148.999 167.878 148.999 167.557C148.999 166.971 147.244 164.989 145.98 164.148C143.9 162.764 141.234 162.197 138.764 162.613ZM73.1032 165.503C73.9595 165.664 75.8296 166.013 77.2589 166.28C80.2206 166.832 80.267 166.851 80.2236 167.501C80.2037 167.8 80.1484 167.916 79.958 168.058C79.7377 168.222 79.6058 168.237 78.3817 168.237C77.647 168.237 76.7834 168.217 76.4625 168.194L75.8792 168.151L75.6512 168.79C75.1233 170.271 74.0436 171.223 72.4024 171.658C72.0003 171.764 71.5248 171.803 70.6671 171.8L69.4856 171.796L69.2187 172.183C62.8421 181.437 56.8139 188.081 53.104 189.942C51.2763 190.86 50.0022 190.814 49.0694 189.798C48.6172 189.306 48.3422 188.712 47.8359 187.137C46.7407 183.73 46.8474 182.138 48.2752 180.583C48.7341 180.084 49.8892 179.06 50.6331 178.495C52.4298 177.128 56.4445 174.642 62.5615 171.109C64.3891 170.053 66.2283 168.956 66.6487 168.671C67.082 168.376 67.9573 167.624 68.6697 166.934C70.0708 165.576 70.3788 165.388 71.4843 165.221C71.5182 165.216 72.2467 165.343 73.1032 165.503ZM133.198 165.762C133.313 165.877 133.407 166.031 133.407 166.105C133.407 166.337 132.056 169.914 131.906 170.08C131.642 170.371 131.082 170.239 130.935 169.851C130.871 169.684 130.974 169.322 131.456 168.007C132.224 165.913 132.277 165.787 132.447 165.659C132.668 165.492 132.97 165.534 133.198 165.762ZM112.899 168.906C113.287 169.068 113.698 169.567 113.763 169.955C113.806 170.211 113.596 171.172 112.788 174.414C112.221 176.687 111.637 179.045 111.489 179.654C111.314 180.373 111.152 180.845 111.027 180.999C110.823 181.25 110.803 181.311 110.442 182.806C110.317 183.322 110.206 183.753 110.195 183.765C110.184 183.777 109.545 183.574 108.776 183.314C107.139 182.759 105.921 182.193 104.416 181.284C103.103 180.492 102.671 180.37 101.93 180.586C101.248 180.784 100.779 181.267 100.509 182.047C100.335 182.552 100.307 182.794 100.309 183.743C100.311 184.758 100.331 184.898 100.545 185.405C101.448 187.539 103.566 189.098 107.208 190.308C108.004 190.573 108.669 190.802 108.685 190.818C108.745 190.874 107.328 196.424 107.198 196.644C107.124 196.77 106.926 196.966 106.758 197.081L106.453 197.29L96.947 197.316C90.3802 197.333 87.3434 197.313 87.1261 197.25C86.7384 197.138 86.2433 196.583 86.1668 196.175C86.1265 195.961 86.24 195.361 86.581 193.987C86.8393 192.945 87.8594 188.834 88.8477 184.851C89.836 180.868 91.086 175.826 91.6253 173.647C92.5597 169.873 92.7041 169.405 93.015 169.148C93.4504 168.788 93.1934 168.797 103.142 168.794C110.918 168.791 112.673 168.811 112.899 168.906ZM148.011 169.825C148.373 171.292 148.905 172.439 149.801 173.686C149.852 173.757 149.735 174.042 149.445 174.551C149.149 175.07 148.822 175.871 148.407 177.098C148.073 178.082 147.737 178.935 147.66 178.993C147.562 179.067 147.142 179.1 146.297 179.1C144.81 179.1 144.536 179.182 144.407 179.669C144.098 180.836 144.068 182.174 144.315 183.691C144.552 185.142 144.612 186.132 144.489 186.581C144.358 187.065 143.902 187.556 143.376 187.782C142.206 188.286 139.318 188.353 137.771 187.912C137.243 187.762 136.715 187.322 136.454 186.816C136.149 186.225 136.212 185.658 136.757 184.084C137.479 181.997 137.622 181.347 137.801 179.329C137.848 178.8 137.872 178.742 138.08 178.666C139.087 178.297 139.917 177.533 140.455 176.479C140.88 175.646 140.86 175.482 140.295 175.211C139.324 174.742 138.837 173.592 139.151 172.509C139.377 171.732 139.934 171.532 140.722 171.945L141.092 172.139L142.554 171.424C143.357 171.03 144.839 170.298 145.847 169.798C146.854 169.297 147.701 168.885 147.728 168.881C147.755 168.878 147.882 169.303 148.011 169.825ZM130.804 170.673L131.107 170.852V171.727C131.107 173.711 131.7 175.54 132.827 177.033C133.816 178.342 134.951 178.929 136.493 178.929H137.156L137.155 179.334C137.152 179.981 136.924 181.41 136.692 182.237C136.403 183.265 135.976 184.406 135.852 184.486C135.796 184.521 135.501 184.552 135.197 184.555C134.471 184.56 133.527 184.734 132.691 185.015C132.321 185.14 131.991 185.212 131.958 185.174C131.786 184.979 130.964 182.566 130.348 180.448C129.166 176.387 128.916 173.257 129.642 171.602C129.836 171.16 130.304 170.495 130.421 170.495C130.465 170.495 130.637 170.575 130.804 170.673ZM223.085 171.645C223.679 172.817 224.312 173.954 224.711 174.566C224.964 174.954 225.17 175.289 225.17 175.311C225.17 175.4 193.344 175.349 193.022 175.26C192.622 175.149 192.071 174.664 191.849 174.228C191.444 173.436 191.596 172.539 192.244 171.891C192.911 171.224 191.675 171.271 208.173 171.288L222.913 171.304L223.085 171.645ZM174.612 177.303C175.069 177.511 175.394 177.868 175.508 178.29C175.639 178.774 175.392 179.932 175.071 180.335C174.877 180.58 174.714 181.136 174.092 183.677C173.681 185.354 173.288 186.85 173.219 187.002C173.047 187.379 172.852 187.353 172.484 186.904C171.864 186.147 170.907 185.954 170.033 186.41C169.692 186.587 169.569 186.701 169.551 186.857C169.534 187.002 169.858 187.616 170.607 188.856C171.839 190.894 172.087 191.383 172.088 191.774L172.089 192.051H171.589H171.088L169.983 194.117C167.772 198.251 165.682 201.596 164.607 202.722C164.261 203.084 163.881 203.147 163.585 202.893C163.486 202.807 163.114 201.963 162.716 200.923C161.882 198.738 160.874 196.444 160.036 194.82C157.71 190.312 155.786 188.057 152.732 186.256C152.343 186.026 151.971 185.806 151.906 185.767C151.806 185.707 151.809 185.612 151.924 185.146C151.999 184.843 152.294 183.637 152.578 182.465C152.862 181.294 153.213 179.856 153.356 179.27C153.64 178.11 153.874 177.654 154.303 177.42C154.559 177.28 155.037 177.265 160.502 177.224C173.871 177.125 174.224 177.127 174.612 177.303ZM253.33 180.805C255.465 181.032 257.833 181.493 259.592 182.022L259.976 182.137L260.344 183.239C260.718 184.357 261.983 188.27 262.572 190.134C262.75 190.696 263.115 191.846 263.383 192.69C266.981 204.022 270.08 214.787 270.582 217.696C270.731 218.56 270.705 218.526 271.257 218.59L271.754 218.648L271.85 219.471C271.902 219.924 272.003 220.793 272.072 221.403C272.142 222.012 272.218 222.617 272.242 222.747C272.28 222.958 272.267 222.974 272.121 222.896C271.911 222.783 271.897 222.785 271.747 222.935C271.672 223.01 271.596 223.32 271.561 223.702L271.501 224.342H258.176H244.852L244.853 224.108C244.856 223.631 244.94 223.497 245.266 223.446C245.437 223.419 245.814 223.356 246.105 223.307L246.634 223.217L246.685 222.821C246.713 222.603 246.792 222.022 246.86 221.53C247.399 217.636 248.92 205.685 249.36 201.891C249.857 197.615 249.899 196.984 249.851 194.521C249.805 192.124 249.773 191.807 249.241 188.387C249.12 187.614 248.963 186.502 248.891 185.916C248.743 184.707 248.631 181.338 248.723 180.848L248.784 180.523L250.29 180.582C251.118 180.615 252.486 180.715 253.33 180.805ZM175.769 181.081C176.468 181.587 177.039 182.952 177.215 184.542C177.304 185.343 177.298 185.638 177.173 186.653C176.996 188.081 176.71 189.263 176.303 190.249C176.135 190.654 175.9 191.226 175.781 191.52L175.563 192.055L174.146 192.031L172.728 192.008L172.678 191.539C172.616 190.976 172.543 190.828 171.286 188.737C170.744 187.836 170.3 187.064 170.3 187.022C170.3 186.98 170.453 186.899 170.641 186.843C171.159 186.688 171.575 186.846 172.012 187.364C172.694 188.173 173.433 188.11 173.823 187.211C173.898 187.038 174.29 185.544 174.695 183.893C175.1 182.241 175.447 180.889 175.468 180.889C175.488 180.889 175.624 180.975 175.769 181.081ZM231.825 181.477C232.585 181.872 233.811 182.36 234.299 182.46C234.516 182.505 234.527 182.536 234.579 183.21C234.608 183.597 234.654 184.173 234.681 184.489L234.73 185.064H219.596C202.882 185.064 204.147 185.106 203.543 184.527C202.483 183.512 202.758 181.827 204.083 181.22C204.409 181.07 205.005 181.063 217.724 181.061L231.025 181.06L231.825 181.477ZM103.895 181.714C105.787 182.872 106.538 183.218 108.868 184.005C109.97 184.377 110.486 184.514 110.585 184.461C110.683 184.409 110.823 183.973 111.042 183.042C111.409 181.478 111.488 181.315 111.879 181.315C112.227 181.315 112.616 181.692 112.876 182.28C113.262 183.155 113.276 185.126 112.907 186.666C112.559 188.115 111.648 189.465 110.713 189.915C109.686 190.411 108.167 190.145 105.603 189.022C102.34 187.593 100.688 185.597 100.894 183.333C101.031 181.833 101.612 181.104 102.617 181.171C102.973 181.194 103.207 181.294 103.895 181.714ZM146.997 184.863C150.966 185.513 154.454 187.597 156.781 190.71C158.699 193.274 160.789 197.456 162.505 202.162C162.866 203.152 162.988 203.333 163.433 203.549C163.875 203.763 164.107 203.766 164.556 203.562C165.405 203.176 167.752 199.632 170.29 194.902C170.767 194.013 171.231 193.152 171.321 192.988L171.484 192.69L174.179 192.667L176.875 192.645L176.819 192.923C175.59 199.002 173.878 204.205 171.727 208.397C170.465 210.853 169.204 212.658 167.661 214.214C166.763 215.119 166.492 215.339 165.955 215.599C164.864 216.129 163.742 216.278 162.632 216.042C161.702 215.844 158.847 214.508 157.727 213.745C157.43 213.543 156.349 212.499 155.182 211.286C153.328 209.361 153.13 209.18 152.891 209.199C152.648 209.217 152.57 209.14 151.815 208.138C150.432 206.3 149.389 204.504 148.483 202.403C148.027 201.344 147.995 201.295 147.757 201.295C147.532 201.295 147.509 201.321 147.52 201.564C147.527 201.712 147.77 202.373 148.061 203.033C149.017 205.199 150.55 207.678 152.045 209.481C152.598 210.146 152.663 210.263 152.663 210.586C152.663 211.195 152.413 212.309 151.967 213.692C151.254 215.898 151.105 217.122 151.335 218.87C151.471 219.907 151.883 221.344 152.256 222.082C153.094 223.744 154.774 225.561 156.604 226.786L157.435 227.342L157.16 227.866C156.796 228.561 155.845 229.508 155.091 229.928C154.334 230.35 153.376 230.689 152.475 230.856C151.394 231.056 146.358 231.255 146.358 231.097C146.358 231.064 146.24 230.498 146.095 229.841C145.951 229.183 145.738 228.204 145.623 227.665C145.507 227.126 145.282 226.091 145.122 225.365C144.962 224.638 144.655 223.22 144.438 222.212C144.221 221.205 143.969 220.035 143.877 219.613C143.785 219.192 143.637 218.502 143.549 218.08C142.93 215.119 142.483 213.747 141.538 211.899C138.852 206.646 133.473 202.83 127.741 202.11C127.32 202.057 126.812 201.994 126.612 201.969L126.25 201.924V200.833C126.25 200.233 126.274 199.573 126.302 199.366L126.354 198.99L127.048 198.744C129.552 197.859 131.527 196.199 132.426 194.223C132.851 193.287 132.999 192.544 133.044 191.113C133.091 189.609 132.934 188.438 132.475 186.853C132.332 186.361 132.215 185.935 132.215 185.905C132.215 185.876 132.579 185.732 133.025 185.584C133.693 185.362 134.841 185.169 135.59 185.151C135.655 185.15 135.672 185.333 135.644 185.724C135.595 186.426 135.709 186.88 136.071 187.418C136.423 187.941 136.959 188.347 137.522 188.516C137.766 188.59 138.512 188.711 139.18 188.787C140.298 188.913 140.49 188.913 141.608 188.786C142.276 188.71 143.038 188.585 143.301 188.509C143.911 188.331 144.535 187.86 144.864 187.327C145.114 186.924 145.123 186.872 145.142 185.795C145.153 185.182 145.163 184.669 145.164 184.655C145.166 184.614 146.168 184.728 146.997 184.863ZM235.256 192.455C235.339 193.475 235.414 194.385 235.422 194.479C235.437 194.649 235.378 194.649 214.818 194.673C200.285 194.69 194.089 194.67 193.825 194.605C193.231 194.459 192.754 194.078 192.491 193.539C191.971 192.477 192.377 191.294 193.429 190.804L193.859 190.604L214.482 190.603L235.106 190.602L235.256 192.455ZM235.719 200.197C235.971 200.247 235.982 200.268 236.035 200.815C236.065 201.126 236.145 201.839 236.211 202.4C236.386 203.873 236.376 204.118 236.14 204.181C236.035 204.209 226.325 204.232 214.563 204.231C193.923 204.231 193.165 204.225 192.829 204.073C191.392 203.42 191.21 201.455 192.504 200.565C192.711 200.423 193.043 200.274 193.242 200.235C193.652 200.154 235.318 200.117 235.719 200.197ZM91.5729 201.16C92.1587 201.261 92.9529 201.427 93.3377 201.527C93.9543 201.689 94.0429 201.737 94.0834 201.929C94.1314 202.157 94.7363 206.988 95.103 210.071C95.6115 214.348 96.265 220.301 96.6415 224.087C96.7603 225.281 96.8954 226.623 96.9416 227.069C97.3677 231.172 98.2417 241.77 98.5577 246.665C98.653 248.141 98.7688 249.905 98.8152 250.584C98.9479 252.532 99.3087 260.288 99.4255 263.705C99.6197 269.385 99.5463 283.713 99.3211 284.077C99.1572 284.342 94.3835 284.585 92.2593 284.435L91.2842 284.367L91.0892 283.217C90.9819 282.584 90.8184 281.645 90.7258 281.129C90.6332 280.614 90.3422 278.984 90.079 277.508C88.9714 271.296 87.3604 262.711 86.1536 256.591C82.5896 238.517 79.6257 226.429 77.7004 222.118L77.4634 221.587L77.694 220.771C77.8207 220.322 78.0286 219.571 78.156 219.102C78.4236 218.118 78.6686 217.646 79.1602 217.169C79.6503 216.693 80.1952 216.441 81.1586 216.244C82.0398 216.064 82.261 215.923 82.1092 215.64C82.0625 215.553 81.9394 215.482 81.8356 215.483C81.4586 215.487 80.1234 215.824 79.6764 216.029C79.0753 216.304 78.3677 216.982 78.0395 217.598C77.6422 218.344 76.8922 221.126 74.3681 231.217C73.3488 235.292 72.7566 237.706 71.5607 242.661C70.157 248.476 68.5847 255.378 67.2032 261.788C65.455 269.902 64.1539 277.428 63.8533 281.168L63.7543 282.4L63.4561 282.466C63.2921 282.502 62.2377 282.557 61.113 282.588C59.1138 282.642 57.6541 282.563 56.8776 282.358C56.5021 282.259 56.5242 282.346 56.3414 280.235C55.2153 267.228 54.6949 249.958 55.064 237.847C55.4383 225.568 56.4405 216.921 58.3873 209.175C58.7599 207.693 59.4522 205.143 59.4932 205.102C59.5106 205.084 59.7863 205.128 60.106 205.199C61.2311 205.449 62.321 205.551 63.7969 205.546C66.3768 205.536 68.1676 205.184 71.2947 204.07C75.2966 202.645 79.9708 201.541 83.7343 201.131C84.4138 201.057 85.1039 200.982 85.268 200.963C85.432 200.945 86.6781 200.94 88.037 200.952C90.1144 200.972 90.6775 201.005 91.5729 201.16ZM127.741 202.741C133.477 203.599 138.473 207.211 141.061 212.371C141.941 214.124 142.23 215.032 142.918 218.208C143.177 219.403 143.46 220.706 143.547 221.104C143.705 221.832 144.597 225.944 145.304 229.199C145.512 230.159 145.718 231.118 145.76 231.329C146.028 232.657 146.463 234.44 146.609 234.81C147.884 238.046 150.618 240.194 153.984 240.606C154.438 240.662 156.314 240.701 158.592 240.701C162.111 240.701 162.488 240.715 163.079 240.866C165.233 241.417 166.994 243.234 167.443 245.371C167.611 246.171 167.61 247.348 167.441 248.087C167.156 249.33 166.237 250.769 165.253 251.512C164.707 251.924 163.699 252.409 163.032 252.58C162.608 252.689 160.36 252.715 147.057 252.766C135.296 252.81 131.325 252.799 130.535 252.722C127.234 252.398 124.344 251.014 121.99 248.629C120.859 247.483 120.091 246.41 119.396 245.004C118.646 243.487 118.404 242.646 117.557 238.613C117.468 238.192 117.22 237.041 117.004 236.057C116.789 235.073 116.427 233.405 116.199 232.351C115.83 230.639 114.845 226.095 114.398 224.044C114.306 223.622 114.099 222.664 113.939 221.914C113.778 221.164 113.334 219.132 112.953 217.398C112.298 214.425 112.256 214.173 112.216 212.968C112.167 211.522 112.283 210.682 112.706 209.413C113.21 207.902 113.955 206.718 115.166 205.502C116.88 203.782 118.781 202.891 121.394 202.583C122.176 202.49 126.844 202.607 127.741 202.741ZM89.782 205.216C89.5371 205.511 89.8493 207.024 90.3792 208.111C90.9726 209.328 91.8914 210.252 93.2217 210.969C93.7637 211.262 93.8935 211.301 94.0449 211.22C94.3955 211.033 94.2244 210.786 93.4474 210.359C92.2019 209.675 91.2733 208.683 90.7794 207.51C90.5671 207.006 90.2949 205.871 90.2949 205.49C90.2949 205.131 89.9889 204.967 89.782 205.216ZM67.7208 207.658C67.6756 207.767 67.521 208.146 67.3772 208.502C66.6175 210.379 64.848 212.172 62.7897 213.148C62.0016 213.522 60.8153 213.913 60.0665 214.045C59.4277 214.158 59.2812 214.237 59.2812 214.466C59.2812 214.747 59.5423 214.8 60.2251 214.659C63.7547 213.931 66.4992 211.859 67.9031 208.863C68.0962 208.451 68.2577 207.979 68.262 207.815C68.2691 207.549 68.2436 207.512 68.0364 207.488C67.8586 207.467 67.7833 207.508 67.7208 207.658ZM157.686 214.5L158.321 214.885H155.283H152.245L152.36 214.523C152.424 214.323 152.574 213.881 152.693 213.539C152.929 212.866 153.26 211.44 153.26 211.095C153.26 210.939 153.305 210.88 153.425 210.88C153.516 210.88 153.618 210.835 153.652 210.78C153.692 210.716 154.317 211.301 155.383 212.398C156.679 213.733 157.193 214.202 157.686 214.5ZM276.633 220.423V222.638H275.414C274.593 222.638 274.163 222.671 274.096 222.738C274.04 222.794 273.891 223.292 273.765 223.846C273.638 224.4 273.512 224.853 273.486 224.852C273.459 224.852 273.353 224.72 273.249 224.56C273.088 224.311 273.014 223.875 272.735 221.515L272.409 218.761L273.761 218.66C274.972 218.568 276.339 218.36 276.45 218.249C276.603 218.096 276.633 218.452 276.633 220.423ZM240.976 223.011C241.484 223.137 242.826 223.347 243.773 223.45L244.27 223.504L244.215 224.243C244.133 225.356 244.103 225.465 243.914 225.364C243.698 225.248 240.91 225.255 240.655 225.371C240.544 225.421 240.39 225.565 240.312 225.691C240.177 225.908 240.171 225.847 240.168 224.358C240.166 222.911 240.177 222.8 240.315 222.841C240.397 222.865 240.694 222.942 240.976 223.011ZM277.865 224.662C278.855 227.367 279.315 228.373 280.428 230.272C281.9 232.785 283.036 235.494 283.049 236.526C283.064 237.579 282.544 238.49 281.707 238.88C281.313 239.063 281.167 239.08 279.998 239.076C279.295 239.074 278.203 239.042 277.57 239.006C275.508 238.887 275.463 238.838 273.592 234.566C272.748 232.64 272.209 231.207 271.991 230.315C271.862 229.787 271.845 229.462 271.885 228.313C271.945 226.631 272.129 224.171 272.196 224.174C272.223 224.175 272.523 224.597 272.863 225.111C273.476 226.038 273.68 226.204 273.882 225.94C273.926 225.881 274.092 225.268 274.249 224.576L274.536 223.32H275.955H277.374L277.865 224.662ZM239.484 225.42C239.484 225.884 239.479 225.897 239.326 225.759C239.074 225.53 238.89 225.681 238.57 226.379C237.508 228.696 234.884 236.789 234.884 237.749C234.884 238.493 235.433 239.351 236.135 239.704C236.947 240.112 240.775 240.416 243.288 240.272C244.99 240.174 245.35 240.104 245.83 239.776C246.373 239.406 246.676 238.833 246.712 238.11C246.737 237.597 246.459 234.466 245.919 229.199C245.85 228.519 245.752 227.522 245.702 226.983C245.586 225.729 245.551 225.56 245.395 225.5C245.176 225.416 244.973 225.594 244.849 225.977C244.749 226.29 244.727 226.313 244.703 226.131C244.688 226.014 244.706 225.707 244.744 225.45L244.812 224.981L258.102 225.013C265.412 225.03 271.405 225.055 271.42 225.068C271.434 225.081 271.405 225.609 271.355 226.242C271.214 228.004 271.231 229.937 271.394 230.577C271.615 231.45 272.254 233.122 273.098 235.035C274.598 238.436 274.828 238.815 275.68 239.278C276.249 239.588 276.969 239.668 279.445 239.697L281.447 239.721L282.02 239.44C282.674 239.119 283.065 238.697 283.424 237.926C283.629 237.486 283.659 237.316 283.659 236.611C283.658 235.726 283.6 235.51 282.915 233.838C282.408 232.602 281.637 231.058 280.907 229.817C280.102 228.449 279.758 227.748 279.182 226.302L278.689 225.066L283.966 225.044C286.868 225.032 291.614 225.032 294.513 225.044L299.783 225.066L298.794 225.925C297.501 227.049 292.62 231.446 287.453 236.14C285.181 238.206 281.925 241.154 280.218 242.692L277.115 245.489L257.171 245.426C246.201 245.392 232.072 245.34 225.771 245.311L214.316 245.259L220.997 239.252C224.671 235.949 228.062 232.897 228.532 232.47C229.247 231.822 232.399 228.987 235.477 226.225C235.874 225.869 236.353 225.435 236.542 225.26L236.886 224.943L238.185 224.941L239.484 224.939V225.42ZM300.404 252.017V278.583L299.318 279.562C298.72 280.101 293.621 284.69 287.986 289.761L277.74 298.981L277.746 272.418L277.751 245.856L279.599 244.174C280.615 243.249 281.543 242.405 281.66 242.298C281.777 242.191 283.809 240.34 286.175 238.185C295.063 230.09 300.225 225.45 300.34 225.45C300.375 225.45 300.404 237.405 300.404 252.017ZM243.673 225.982C243.746 226.041 243.909 226.376 244.036 226.728C244.428 227.814 244.629 227.98 244.938 227.473C245.072 227.255 245.107 227.232 245.107 227.367C245.107 227.539 245.682 233.421 245.915 235.631C246.157 237.925 246.166 238.253 246.003 238.576C245.635 239.304 245.338 239.464 244.134 239.585C241.616 239.838 237.18 239.536 236.302 239.052C235.881 238.819 235.551 238.265 235.547 237.783C235.539 236.839 238.828 226.728 239.143 226.728C239.174 226.728 239.291 226.922 239.402 227.16C239.593 227.568 239.776 227.75 239.995 227.75C240.085 227.75 240.575 226.768 240.718 226.302C240.846 225.885 240.878 225.876 242.248 225.876C243.156 225.876 243.581 225.908 243.673 225.982ZM273.73 231.549C273.624 231.677 273.723 231.915 274.589 233.609C275.879 236.134 276.461 236.895 277.507 237.43C277.903 237.632 277.953 237.637 279.679 237.614L281.447 237.591V237.335V237.08L279.7 237.037C277.664 236.988 277.684 236.994 276.785 236.02C276.344 235.542 276.084 235.117 275.313 233.618C274.797 232.617 274.336 231.721 274.288 231.627C274.175 231.406 273.882 231.366 273.73 231.549ZM238.905 233.05C238.849 233.106 238.803 233.213 238.803 233.288C238.803 233.607 238.952 233.629 241.072 233.629C242.835 233.629 243.156 233.61 243.27 233.495C243.344 233.422 243.404 233.328 243.404 233.288C243.404 233.248 243.344 233.155 243.27 233.081C243.156 232.967 242.835 232.947 241.072 232.947C239.58 232.947 238.979 232.976 238.905 233.05ZM276.551 233.242C276.494 233.31 276.462 233.434 276.478 233.519C276.505 233.66 276.662 233.673 278.566 233.695C280.582 233.717 280.626 233.714 280.681 233.541C280.806 233.146 280.667 233.118 278.592 233.118C277.002 233.118 276.635 233.14 276.551 233.242ZM237.227 237.23C237.068 237.319 237.06 237.581 237.213 237.707C237.399 237.862 238.936 238.145 240.081 238.235C241.268 238.329 242.549 238.278 243.702 238.092C245.225 237.846 245.691 237.61 245.293 237.288C245.142 237.165 245.046 237.171 244.159 237.364C243.287 237.553 242.995 237.574 241.231 237.574C239.472 237.574 239.173 237.553 238.313 237.366C237.733 237.24 237.304 237.186 237.227 237.23ZM275.845 246.123L277.059 246.172V272.716V299.26L258.08 299.205C247.642 299.174 233.436 299.124 226.512 299.094L213.924 299.039V272.511V245.984L244.277 246.029C260.972 246.053 275.177 246.096 275.845 246.123ZM164.591 253.424C164.591 253.814 164.535 255.645 164.466 257.492C164.397 259.34 164.244 263.65 164.126 267.071C164.009 270.492 163.874 274.268 163.826 275.463C163.679 279.183 163.558 283.19 163.542 284.878L163.526 286.497L163.896 286.523L164.265 286.55L164.216 286.949C164.19 287.169 164.105 288.116 164.029 289.053C163.953 289.99 163.886 290.757 163.879 290.757C163.873 290.757 163.714 290.834 163.527 290.927C163.109 291.136 162.86 291.568 162.371 292.93C162.177 293.469 162.004 293.958 161.987 294.018C161.961 294.104 161.896 294.1 161.675 294.002C161.522 293.934 160.572 293.507 159.565 293.054C158.557 292.601 157.311 292.057 156.795 291.845C156.28 291.633 155.628 291.364 155.347 291.248C155.066 291.132 154.625 290.968 154.367 290.884C154.086 290.792 153.904 290.685 153.913 290.616C153.921 290.553 154.073 289.615 154.251 288.533L154.574 286.564L154.868 286.403C155.454 286.082 155.615 285.762 156.11 283.935C156.364 283.001 156.876 281.125 157.249 279.766C159.773 270.575 161.384 263.416 162.159 257.954C162.387 256.34 162.632 254.106 162.632 253.63C162.632 253.354 162.643 253.346 163.207 253.199C163.523 253.116 163.935 252.977 164.123 252.889C164.31 252.8 164.492 252.725 164.528 252.721C164.563 252.717 164.591 253.034 164.591 253.424ZM143.823 273.397L143.845 293.398L150.661 293.445C157.192 293.491 157.502 293.5 158.076 293.666C160.618 294.404 162.423 296.459 162.759 299L162.813 299.405H140.94H119.068L119.119 298.745C119.231 297.305 119.775 296.147 120.832 295.1C121.341 294.596 121.689 294.335 122.161 294.105C123.482 293.461 123.01 293.496 130.936 293.445L138.051 293.398L138.072 273.504C138.083 262.562 138.111 253.561 138.133 253.502C138.164 253.42 138.814 253.396 140.988 253.396H143.802L143.823 273.397ZM145.166 253.46C145.166 253.495 145.203 253.754 145.248 254.035C145.515 255.703 145.871 259.56 145.978 261.959C146.005 262.568 146.044 263.277 146.063 263.535C146.181 265.075 146.203 273.581 146.103 279.068L145.991 285.239L146.183 285.636C146.42 286.124 146.837 286.455 147.292 286.516C147.611 286.559 147.636 286.581 147.635 286.828C147.635 287.16 147.309 290.647 147.276 290.668C147.263 290.677 147.09 290.73 146.892 290.787C146.359 290.94 146.139 291.184 145.764 292.035L145.427 292.802H144.934H144.441L144.419 273.205C144.407 262.427 144.416 253.561 144.438 253.502C144.481 253.389 145.165 253.349 145.166 253.46ZM263.605 261.114C258.69 262.441 257.134 262.892 256.982 263.035C256.743 263.259 256.639 263.727 256.766 264.006C256.817 264.118 257.18 264.565 257.573 265.001C257.966 265.436 258.331 265.877 258.386 265.979C258.536 266.261 258.505 266.548 258.293 266.848C258.187 266.997 256.456 268.594 254.445 270.396C250.955 273.525 250.773 273.674 250.456 273.674C250.273 273.674 250.054 273.637 249.968 273.591C249.883 273.545 248.342 271.871 246.545 269.869C244.747 267.868 243.238 266.19 243.191 266.139C243.144 266.089 242.825 265.733 242.481 265.348C241.792 264.575 241.478 264.426 241.015 264.653C240.836 264.74 238.165 267.072 236.977 268.178C236.927 268.225 236.368 268.724 235.735 269.286C235.103 269.848 234.566 270.329 234.543 270.354C234.506 270.395 229.013 275.313 226.364 277.678C220.82 282.628 221.251 282.203 221.251 282.719C221.251 283.173 221.02 282.878 223.633 285.764C224.391 286.601 224.711 286.81 225.113 286.734C225.252 286.707 225.7 286.378 226.178 285.951C226.631 285.546 228.266 284.085 229.811 282.703C231.355 281.322 233.195 279.677 233.9 279.048C234.605 278.419 236.362 276.847 237.805 275.555C240.644 273.013 240.794 272.911 241.301 273.199C241.45 273.283 241.936 273.761 242.381 274.261C244.497 276.638 249.014 281.67 249.253 281.917C249.616 282.292 250.153 282.309 250.576 281.96C250.832 281.749 252.676 280.098 258.825 274.575C262.13 271.607 262.265 271.489 262.477 271.378C262.91 271.151 263.188 271.315 264.125 272.348C265.039 273.357 265.349 273.563 265.802 273.463C265.936 273.434 266.124 273.325 266.22 273.222C266.315 273.119 267.05 271.29 267.853 269.158C268.656 267.026 269.367 265.147 269.434 264.983C269.703 264.322 271.036 260.747 271.109 260.489C271.255 259.976 270.759 259.345 270.229 259.369C270.12 259.375 267.138 260.16 263.605 261.114ZM61.8937 283.246C61.9012 283.253 61.8755 283.451 61.8366 283.685C61.7976 283.92 61.7026 284.59 61.6254 285.176C61.4402 286.581 61.4454 286.565 61.2138 286.433C60.9501 286.282 58.7341 286.288 58.373 286.44C58.156 286.532 58.0658 286.655 57.9079 287.078C57.7339 287.543 57.7053 287.578 57.6531 287.39C57.6206 287.274 57.5903 286.278 57.5856 285.176L57.5771 283.174L59.7285 283.204C60.9117 283.22 61.8861 283.239 61.8937 283.246ZM98.219 285.879C98.2192 286.406 98.2442 287.438 98.2746 288.171L98.3298 289.504L97.543 289.534C96.778 289.563 96.7493 289.572 96.5076 289.842C96.3095 290.064 96.2591 290.2 96.2591 290.512C96.2591 290.827 96.2339 290.893 96.1297 290.853C96.0585 290.826 95.4355 290.607 94.7452 290.366C94.0548 290.125 93.4634 289.904 93.4309 289.874C93.3983 289.844 93.313 289.341 93.2413 288.755C93.0868 287.493 92.851 285.363 92.851 285.228C92.851 285.162 93.4242 285.128 94.7467 285.116C95.7894 285.107 96.9492 285.064 97.3241 285.022C97.699 284.979 98.0537 284.939 98.1122 284.933C98.1918 284.924 98.2188 285.163 98.219 285.879ZM153.882 286.603C153.901 286.639 153.77 287.53 153.591 288.584C153.412 289.639 153.264 290.549 153.262 290.608C153.26 290.691 152.673 290.714 150.618 290.714H147.977V290.445C147.977 290.171 148.203 287.562 148.284 286.902L148.328 286.54H151.087C152.604 286.54 153.862 286.568 153.882 286.603ZM170.811 286.638C170.811 286.747 170.065 290.332 169.993 290.565C169.951 290.703 169.745 290.714 167.248 290.714H164.548L164.6 290.011C164.629 289.625 164.703 288.686 164.765 287.924L164.878 286.54H167.845C170.025 286.54 170.811 286.565 170.811 286.638ZM60.8649 286.987C60.8787 287.001 60.9301 287.333 60.9792 287.724C61.1222 288.865 61.2604 288.916 61.9986 288.094L62.5156 287.519L62.5188 290.459L62.5219 293.398L62.8183 294.889C63.1411 296.513 63.1732 297.007 62.9988 297.662C62.8554 298.2 62.7445 298.414 62.3648 298.884C61.8334 299.541 61.6018 299.596 59.187 299.643C57.132 299.683 54.6425 299.565 54.0718 299.402C53.5351 299.248 52.9758 298.5 52.9766 297.939C52.9769 297.784 53.0728 297.161 53.1897 296.554C53.6789 294.013 54.62 291.017 55.4655 289.309C55.7617 288.71 56.5724 287.392 56.6443 287.392C56.6715 287.392 56.8946 287.679 57.14 288.031C57.3854 288.382 57.6193 288.67 57.6599 288.67C57.8891 288.67 58.0167 288.502 58.2655 287.875C58.4175 287.492 58.577 287.133 58.6201 287.076C58.6631 287.02 58.8774 286.958 59.0963 286.937C59.4878 286.901 60.8159 286.938 60.8649 286.987ZM100.855 290.172C101.828 290.414 106.066 292.47 108.062 293.669C109.547 294.562 110.66 295.413 111.491 296.29C112.816 297.69 113.04 298.775 112.143 299.458L111.821 299.703L104.402 299.692C96.3357 299.681 92.5077 299.582 92.11 299.375C91.8392 299.234 91.5638 298.951 91.3925 298.638C91.2383 298.356 91.2366 294.841 91.3903 293.696C91.5435 292.554 91.8654 291.247 92.1322 290.684C92.2574 290.419 92.3685 290.203 92.3791 290.203C92.3899 290.203 93.3152 290.53 94.4353 290.93C95.5556 291.33 96.5488 291.646 96.6425 291.633C96.7916 291.612 96.8183 291.527 96.8555 290.955C96.8789 290.596 96.9219 290.278 96.9511 290.249C97.0133 290.187 98.6458 290.062 99.6191 290.045C100.002 290.038 100.538 290.093 100.855 290.172ZM99.1276 291.027C99.0963 291.058 99.0708 291.167 99.0708 291.27C99.0708 291.415 99.4633 291.739 100.834 292.726C103.524 294.663 103.494 294.643 103.681 294.544C103.897 294.428 103.885 294.19 103.65 293.981C103.157 293.54 99.4786 290.97 99.3406 290.97C99.2546 290.97 99.1588 290.996 99.1276 291.027ZM155.325 291.933C156.109 292.252 156.942 292.597 157.175 292.7L157.6 292.887L151.921 292.864C148.797 292.851 146.222 292.822 146.199 292.799C146.176 292.776 146.27 292.499 146.409 292.183C146.81 291.267 146.633 291.303 150.576 291.33L153.899 291.353L155.325 291.933ZM173.154 292.306C177.028 293.946 179.577 295.136 180.509 295.738C181.27 296.23 181.852 296.844 182.146 297.466C182.438 298.083 182.444 298.133 182.265 298.479C181.997 298.997 182.304 298.979 173.666 298.979H165.78L165.91 298.728C166.498 297.59 165.166 295.733 162.973 294.634C162.762 294.529 162.576 294.43 162.559 294.416C162.503 294.366 162.995 292.977 163.316 292.279C163.491 291.898 163.706 291.544 163.793 291.492C163.905 291.426 165.03 291.404 167.531 291.418L171.109 291.44L173.154 292.306ZM56.0605 293.543C56.0043 293.599 55.9583 293.707 55.9583 293.782C55.9583 294.097 56.1154 294.122 58.0258 294.122C59.9282 294.122 60.2184 294.079 60.2184 293.796C60.2184 293.464 60.08 293.441 58.0884 293.441C56.7043 293.441 56.1341 293.47 56.0605 293.543ZM162.058 294.9C163.933 295.837 164.823 296.567 165.243 297.512C165.497 298.082 165.495 298.302 165.234 298.584C164.946 298.894 164.68 298.979 163.993 298.979H163.406L163.354 298.659C163.119 297.231 162.504 296.032 161.451 294.953C161.142 294.637 160.918 294.378 160.953 294.378C160.987 294.378 161.485 294.613 162.058 294.9ZM92.9149 297.066C92.7963 297.19 92.8499 297.512 92.9986 297.569C93.0798 297.6 93.6837 297.68 94.3405 297.747C98.6933 298.189 103.821 298.375 107.67 298.231C110.421 298.128 110.572 298.1 110.45 297.717C110.396 297.545 110.362 297.544 106.544 297.591C102.349 297.643 99.293 297.549 96.1673 297.272C93.1798 297.008 92.9828 296.996 92.9149 297.066ZM54.4033 297.409C54.264 297.55 54.3412 297.876 54.5312 297.948C55.31 298.24 59.3132 298.402 60.8226 298.202C61.588 298.101 61.7521 298.026 61.7521 297.78C61.7521 297.543 61.5346 297.47 61.0453 297.542C60.8014 297.578 59.9692 297.633 59.196 297.663C57.8811 297.715 56.8734 297.652 54.8507 297.393C54.6398 297.366 54.4385 297.373 54.4033 297.409Z" fill="#CFCFCF"/>
</svg>
