<svg width="28" height="21" viewBox="0 0 28 21" fill="none" xmlns="http://www.w3.org/2000/svg">
<path d="M2.92188 18.6486C3.39434 19.0918 4.01878 19.3368 4.66654 19.3333H23.3332C24.8059 19.3333 25.9999 18.1393 25.9999 16.3333V10.6666H13.6665L2.92188 18.6486Z" fill="#D7141A"/>
<path d="M23.3335 2H4.66683C4.01651 1.99983 3.38877 2.23849 2.90283 2.67067L13.6668 10.6667H26.0002V4.66667C26.0002 3.95942 25.7192 3.28115 25.2191 2.78105C24.719 2.28095 24.0407 2 23.3335 2Z" fill="#EEEEEE"/>
<path d="M2.922 18.6487L13.6667 10.6667L2.90267 2.67065C2.61895 2.92006 2.39168 3.22709 2.23603 3.57128C2.08037 3.91547 1.99991 4.2889 2 4.66665V16.3333C2 17.32 2.358 18.122 2.922 18.6487Z" fill="#11457E"/>
</svg>
