<svg width="60" height="60" viewBox="0 0 60 60" fill="none" xmlns="http://www.w3.org/2000/svg">
<path d="M49.6291 46.7969C48.0624 44.0969 45.9569 41.7482 43.4436 39.8968C40.9303 38.0454 38.0629 36.7309 35.0198 36.0352C37.8699 34.8717 40.2274 32.7542 41.6891 30.0448C43.1507 27.3353 43.6257 24.2023 43.0329 21.1814C42.44 18.1605 40.8161 15.4393 38.4389 13.4833C36.0617 11.5272 33.0788 10.4578 30.0002 10.4578C26.9217 10.4578 23.9388 11.5272 21.5615 13.4833C19.1843 15.4393 17.5604 18.1605 16.9676 21.1814C16.3747 24.2023 16.8497 27.3353 18.3114 30.0448C19.773 32.7542 22.1305 34.8717 24.9807 36.0352C21.9376 36.7309 19.0702 38.0454 16.5568 39.8968C14.0435 41.7482 11.938 44.0969 10.3713 46.7969C10.2677 46.9782 10.2404 47.1932 10.2953 47.3947C10.3503 47.5961 10.483 47.7675 10.6643 47.8711C10.8456 47.9747 11.0606 48.0021 11.2621 47.9471C11.4635 47.8922 11.6349 47.7595 11.7385 47.5782C13.5867 44.3693 16.2477 41.7042 19.4537 39.851C22.6596 37.9978 26.2972 37.0221 30.0002 37.0221C33.7032 37.0221 37.3409 37.9978 40.5468 39.851C43.7527 41.7042 46.4138 44.3693 48.2619 47.5782C48.3326 47.6966 48.4327 47.7948 48.5524 47.8633C48.6722 47.9317 48.8076 47.9681 48.9455 47.9688C49.0815 47.9662 49.215 47.9328 49.3362 47.8711C49.5148 47.7651 49.6452 47.5937 49.6999 47.3933C49.7546 47.1928 49.7292 46.979 49.6291 46.7969ZM18.2815 23.75C18.2815 21.4323 18.9688 19.1666 20.2564 17.2394C21.5441 15.3123 23.3743 13.8103 25.5156 12.9233C27.657 12.0364 30.0132 11.8043 32.2864 12.2565C34.5597 12.7086 36.6477 13.8247 38.2866 15.4636C39.9255 17.1025 41.0416 19.1906 41.4938 21.4638C41.946 23.737 41.7139 26.0933 40.8269 28.2346C39.94 30.3759 38.438 32.2061 36.5108 33.4938C34.5837 34.7815 32.318 35.4688 30.0002 35.4688C26.8922 35.4688 23.9115 34.2341 21.7138 32.0364C19.5161 29.8387 18.2815 26.858 18.2815 23.75Z" fill="#181818"/>
<circle cx="30" cy="30" r="29.5" stroke="#181818"/>
</svg>
