<svg width="16" height="17" viewBox="0 0 16 17" fill="none" xmlns="http://www.w3.org/2000/svg">
<g clip-path="url(#clip0_36_1647)">
<path d="M12.0622 15.6112H3.93775C3.76673 15.6072 3.59817 15.5695 3.44172 15.5003C3.28527 15.4311 3.14398 15.3317 3.02594 15.2079C2.9079 15.0841 2.81541 14.9382 2.75376 14.7786C2.69211 14.6191 2.66251 14.4489 2.66664 14.2779V5.49121H3.55553V14.2779C3.55129 14.3322 3.55782 14.3868 3.57476 14.4386C3.5917 14.4904 3.6187 14.5383 3.65422 14.5796C3.68974 14.6209 3.73308 14.6548 3.78174 14.6793C3.8304 14.7038 3.88342 14.7184 3.93775 14.7223H12.0622C12.1165 14.7184 12.1696 14.7038 12.2182 14.6793C12.2669 14.6548 12.3102 14.6209 12.3457 14.5796C12.3812 14.5383 12.4082 14.4904 12.4252 14.4386C12.4421 14.3868 12.4487 14.3322 12.4444 14.2779V5.49121H13.3333V14.2779C13.3374 14.4489 13.3078 14.6191 13.2462 14.7786C13.1845 14.9382 13.092 15.0841 12.974 15.2079C12.856 15.3317 12.7147 15.4311 12.5582 15.5003C12.4018 15.5695 12.2332 15.6072 12.0622 15.6112Z" fill="#909090"/>
<path d="M13.6801 4.49997H2.22228C2.1044 4.49997 1.99136 4.45315 1.90801 4.3698C1.82466 4.28645 1.77783 4.1734 1.77783 4.05553C1.77783 3.93765 1.82466 3.82461 1.90801 3.74126C1.99136 3.65791 2.1044 3.61108 2.22228 3.61108H13.6801C13.7979 3.61108 13.911 3.65791 13.9943 3.74126C14.0777 3.82461 14.1245 3.93765 14.1245 4.05553C14.1245 4.1734 14.0777 4.28645 13.9943 4.3698C13.911 4.45315 13.7979 4.49997 13.6801 4.49997Z" fill="#909090"/>
<path d="M9.33325 6.27783H10.2221V12.9445H9.33325V6.27783Z" fill="#909090"/>
<path d="M5.77783 6.27783H6.66672V12.9445H5.77783V6.27783Z" fill="#909090"/>
<path d="M10.2223 3.10447H9.37783V2.2778H6.62228V3.10447H5.77783V2.2778C5.77755 2.04956 5.86507 1.82995 6.02228 1.66447C6.17948 1.49899 6.39432 1.40033 6.62228 1.38892H9.37783C9.60579 1.40033 9.82063 1.49899 9.97783 1.66447C10.135 1.82995 10.2226 2.04956 10.2223 2.2778V3.10447Z" fill="#909090"/>
</g>
<defs>
<clipPath id="clip0_36_1647">
<rect width="16" height="16" fill="white" transform="translate(0 0.5)"/>
</clipPath>
</defs>
</svg>
