<svg width="16" height="16" viewBox="0 0 16 16" fill="none" xmlns="http://www.w3.org/2000/svg">
<path d="M0.5 9.8999C0.632608 9.8999 0.759785 9.95258 0.853553 10.0463C0.947322 10.1401 1 10.2673 1 10.3999V12.8999C1 13.1651 1.10536 13.4195 1.29289 13.607C1.48043 13.7945 1.73478 13.8999 2 13.8999H14C14.2652 13.8999 14.5196 13.7945 14.7071 13.607C14.8946 13.4195 15 13.1651 15 12.8999V10.3999C15 10.2673 15.0527 10.1401 15.1464 10.0463C15.2402 9.95258 15.3674 9.8999 15.5 9.8999C15.6326 9.8999 15.7598 9.95258 15.8536 10.0463C15.9473 10.1401 16 10.2673 16 10.3999V12.8999C16 13.4303 15.7893 13.939 15.4142 14.3141C15.0391 14.6892 14.5304 14.8999 14 14.8999H2C1.46957 14.8999 0.960859 14.6892 0.585786 14.3141C0.210714 13.939 0 13.4303 0 12.8999V10.3999C0 10.2673 0.0526784 10.1401 0.146447 10.0463C0.240215 9.95258 0.367392 9.8999 0.5 9.8999Z" fill="#181818"/>
<path d="M7.64614 1.14592C7.69259 1.09935 7.74777 1.06241 7.80851 1.0372C7.86926 1.012 7.93438 0.999023 8.00014 0.999023C8.06591 0.999023 8.13103 1.012 8.19178 1.0372C8.25252 1.06241 8.3077 1.09935 8.35414 1.14592L11.3541 4.14592C11.448 4.2398 11.5008 4.36714 11.5008 4.49992C11.5008 4.63269 11.448 4.76003 11.3541 4.85392C11.2603 4.9478 11.1329 5.00055 11.0001 5.00055C10.8674 5.00055 10.74 4.9478 10.6461 4.85392L8.50014 2.70692V11.4999C8.50014 11.6325 8.44747 11.7597 8.3537 11.8535C8.25993 11.9472 8.13275 11.9999 8.00014 11.9999C7.86754 11.9999 7.74036 11.9472 7.64659 11.8535C7.55282 11.7597 7.50014 11.6325 7.50014 11.4999V2.70692L5.35414 4.85392C5.30766 4.90041 5.25247 4.93728 5.19173 4.96244C5.13099 4.9876 5.06589 5.00055 5.00014 5.00055C4.9344 5.00055 4.8693 4.9876 4.80856 4.96244C4.74782 4.93728 4.69263 4.90041 4.64614 4.85392C4.59966 4.80743 4.56278 4.75224 4.53762 4.6915C4.51246 4.63076 4.49951 4.56566 4.49951 4.49992C4.49951 4.43417 4.51246 4.36907 4.53762 4.30833C4.56278 4.24759 4.59966 4.19241 4.64614 4.14592L7.64614 1.14592Z" fill="#181818"/>
</svg>
