<svg width="16" height="16" viewBox="0 0 16 16" fill="none" xmlns="http://www.w3.org/2000/svg">
<g clip-path="url(#clip0_152_5678)">
<path d="M14.7376 3.8316L12.1815 1.2624C12.0126 1.09434 11.784 1 11.5457 1C11.3074 1 11.0788 1.09434 10.9099 1.2624L1.84807 10.3112L1.0207 13.8819C0.992163 14.0125 0.993142 14.1477 1.02357 14.2778C1.054 14.4079 1.1131 14.5296 1.19657 14.6339C1.28004 14.7383 1.38576 14.8226 1.50601 14.8809C1.62626 14.9391 1.75801 14.9698 1.89162 14.9706C1.95388 14.9769 2.01661 14.9769 2.07887 14.9706L5.6888 14.1432L14.7376 5.10313C14.9057 4.93422 15 4.70564 15 4.46736C15 4.22909 14.9057 4.00051 14.7376 3.8316V3.8316ZM5.25335 13.3594L1.86985 14.0692L2.6406 10.751L9.42067 3.99707L12.0334 6.60981L5.25335 13.3594ZM12.6169 5.9784L10.0042 3.36566L11.5196 1.85898L14.0888 4.47172L12.6169 5.9784Z" fill="#909090"/>
</g>
<defs>
<clipPath id="clip0_152_5678">
<rect width="16" height="16" fill="white"/>
</clipPath>
</defs>
</svg>
