<svg width="28" height="21" viewBox="0 0 28 21" fill="none" xmlns="http://www.w3.org/2000/svg">
<path d="M2 17C2 17.7956 2.28095 18.5587 2.78105 19.1213C3.28115 19.6839 3.95942 20 4.66667 20H23.3333C24.0406 20 24.7189 19.6839 25.219 19.1213C25.719 18.5587 26 17.7956 26 17V14H2V17Z" fill="#FFCD05"/>
<path d="M2 8H26V14H2V8Z" fill="#ED1F24"/>
<path d="M23.3333 2H4.66667C3.95942 2 3.28115 2.28095 2.78105 2.78105C2.28095 3.28115 2 3.95942 2 4.66667L2 8H26V4.66667C26 3.95942 25.719 3.28115 25.219 2.78105C24.7189 2.28095 24.0406 2 23.3333 2Z" fill="#141414"/>
</svg>
