<svg width="16" height="17" viewBox="0 0 16 17" fill="none" xmlns="http://www.w3.org/2000/svg">
<path fill-rule="evenodd" clip-rule="evenodd" d="M8.5 2.3335C8.5 2.20089 8.44732 2.07371 8.35355 1.97994C8.25978 1.88617 8.13261 1.8335 8 1.8335C7.86739 1.8335 7.74021 1.88617 7.64644 1.97994C7.55268 2.07371 7.5 2.20089 7.5 2.3335V3.50016H6.184C5.9498 3.50006 5.72098 3.57044 5.52733 3.70216L4.39733 4.4715C4.36959 4.49028 4.33683 4.50027 4.30333 4.50016H1.56866C1.43606 4.50016 1.30888 4.55284 1.21511 4.64661C1.12134 4.74038 1.06866 4.86755 1.06866 5.00016C1.06866 5.13277 1.12134 5.25995 1.21511 5.35372C1.30888 5.44748 1.43606 5.50016 1.56866 5.50016H2.62L0.375332 10.6202C0.332932 10.7201 0.32365 10.8309 0.348844 10.9365C0.374038 11.0421 0.432384 11.1368 0.515332 11.2068C0.568665 11.2495 0.622665 11.2902 0.721332 11.3542C0.845332 11.4348 1.02266 11.5395 1.24933 11.6428C1.70266 11.8502 2.35733 12.0562 3.16666 12.0562C3.82802 12.0574 4.48191 11.9165 5.084 11.6428C5.31066 11.5395 5.488 11.4348 5.612 11.3542C5.712 11.2895 5.76533 11.2488 5.81866 11.2055C5.90228 11.1363 5.96109 11.0417 5.98623 10.9361C6.01137 10.8305 6.00146 10.7196 5.958 10.6202L3.71266 5.50016H4.30333C4.53733 5.50016 4.766 5.4295 4.95933 5.29816L6.09 4.52883C6.11755 4.51017 6.15006 4.50019 6.18333 4.50016H7.5V14.1668H4.50866C4.37606 14.1668 4.24888 14.2195 4.15511 14.3133C4.06134 14.407 4.00866 14.5342 4.00866 14.6668C4.00866 14.7994 4.06134 14.9266 4.15511 15.0204C4.24888 15.1142 4.37606 15.1668 4.50866 15.1668H11.4913C11.6239 15.1668 11.7511 15.1142 11.8449 15.0204C11.9387 14.9266 11.9913 14.7994 11.9913 14.6668C11.9913 14.5342 11.9387 14.407 11.8449 14.3133C11.7511 14.2195 11.6239 14.1668 11.4913 14.1668H8.5V4.50016H9.816C9.84933 4.50016 9.88266 4.51016 9.90933 4.52883L11.0407 5.29816C11.234 5.4295 11.4627 5.50016 11.6967 5.50016H12.2873L10.042 10.6202C9.9971 10.7225 9.98781 10.837 10.0156 10.9453C10.0434 11.0536 10.1067 11.1494 10.1953 11.2175C10.2033 11.2235 10.1953 11.2175 10.1967 11.2175C10.2628 11.2673 10.3318 11.3132 10.4033 11.3548C10.5267 11.4295 10.7033 11.5255 10.93 11.6215C11.5328 11.8735 12.18 12.0022 12.8333 12.0002C13.487 12.0021 14.1344 11.8731 14.7373 11.6208C14.9627 11.5255 15.14 11.4295 15.264 11.3548C15.3353 11.3127 15.4043 11.2669 15.4707 11.2175C15.5593 11.1494 15.6226 11.0536 15.6504 10.9453C15.6782 10.837 15.6689 10.7225 15.624 10.6202L13.38 5.50016H14.432C14.5646 5.50016 14.6918 5.44748 14.7856 5.35372C14.8793 5.25995 14.932 5.13277 14.932 5.00016C14.932 4.86755 14.8793 4.74038 14.7856 4.64661C14.6918 4.55284 14.5646 4.50016 14.432 4.50016H11.6973C11.6641 4.50014 11.6315 4.49015 11.604 4.4715L10.4727 3.70216C10.2792 3.57057 10.0506 3.50019 9.81666 3.50016H8.5V2.3335ZM1.462 10.6322C1.98673 10.9114 2.57227 11.0568 3.16666 11.0555C3.76106 11.0568 4.3466 10.9114 4.87133 10.6322L3.16666 6.7455L1.462 10.6322ZM11.1353 10.6162C11.19 10.6428 11.2513 10.6715 11.3187 10.7002C11.672 10.8488 12.1887 11.0002 12.8333 11.0002C13.421 11.0018 14.0015 10.8706 14.5313 10.6162L12.8333 6.74483L11.1353 10.6162Z" fill="#909090"/>
</svg>
