<svg width="16" height="17" viewBox="0 0 16 17" fill="none" xmlns="http://www.w3.org/2000/svg">
<path d="M1.6 4.4999C1.6 4.07556 1.76857 3.66859 2.06863 3.36853C2.36869 3.06847 2.77565 2.8999 3.2 2.8999H12.8C13.2243 2.8999 13.6313 3.06847 13.9314 3.36853C14.2314 3.66859 14.4 4.07556 14.4 4.4999V7.0167C14.1589 6.80083 13.8898 6.61839 13.6 6.4743V4.4999C13.6 4.28773 13.5157 4.08425 13.3657 3.93422C13.2157 3.78419 13.0122 3.6999 12.8 3.6999H3.2C2.98783 3.6999 2.78434 3.78419 2.63431 3.93422C2.48428 4.08425 2.4 4.28773 2.4 4.4999V10.8999C2.4 11.1121 2.48428 11.3156 2.63431 11.4656C2.78434 11.6156 2.98783 11.6999 3.2 11.6999H9.0064C9.0672 11.7903 9.132 11.8783 9.2 11.9631V12.4999H3.2C2.77565 12.4999 2.36869 12.3313 2.06863 12.0313C1.76857 11.7312 1.6 11.3242 1.6 10.8999V4.4999ZM14.8 9.6999C14.8 10.4631 14.4952 11.1543 14 11.6599V14.8999C14 14.9742 13.9793 15.047 13.9403 15.1102C13.9012 15.1734 13.8453 15.2245 13.7789 15.2577C13.7124 15.2909 13.6381 15.305 13.5641 15.2983C13.4901 15.2916 13.4194 15.2645 13.36 15.2199L12.24 14.3799C12.1708 14.328 12.0865 14.2999 12 14.2999C11.9135 14.2999 11.8292 14.328 11.76 14.3799L10.64 15.2199C10.5806 15.2645 10.5099 15.2916 10.4359 15.2983C10.3619 15.305 10.2876 15.2909 10.2211 15.2577C10.1547 15.2245 10.0988 15.1734 10.0597 15.1102C10.0207 15.047 10 14.9742 10 14.8999V11.6599C9.6786 11.3319 9.44282 10.9298 9.31343 10.4892C9.18404 10.0486 9.16502 9.58287 9.25804 9.13316C9.35106 8.68344 9.55327 8.2635 9.84684 7.91036C10.1404 7.55721 10.5164 7.2817 10.9415 7.10809C11.3667 6.93449 11.828 6.86812 12.2849 6.91484C12.7417 6.96156 13.1801 7.11993 13.5613 7.376C13.9425 7.63207 14.2549 7.97798 14.4709 8.38324C14.6869 8.78849 14.7999 9.24067 14.8 9.6999ZM12 12.4999C11.5704 12.4999 11.164 12.4039 10.8 12.2303V13.8999L11.7944 13.3031C11.8565 13.2659 11.9276 13.2462 12 13.2462C12.0724 13.2462 12.1435 13.2659 12.2056 13.3031L13.2 13.8999V12.2303C12.825 12.4084 12.4151 12.5005 12 12.4999ZM12 11.6999C12.5304 11.6999 13.0391 11.4892 13.4142 11.1141C13.7893 10.739 14 10.2303 14 9.6999C14 9.16947 13.7893 8.66076 13.4142 8.28569C13.0391 7.91062 12.5304 7.6999 12 7.6999C11.4696 7.6999 10.9609 7.91062 10.5858 8.28569C10.2107 8.66076 10 9.16947 10 9.6999C10 10.2303 10.2107 10.739 10.5858 11.1141C10.9609 11.4892 11.4696 11.6999 12 11.6999ZM4 5.6999C4 5.59382 4.04214 5.49207 4.11716 5.41706C4.19217 5.34205 4.29391 5.2999 4.4 5.2999H11.6C11.7061 5.2999 11.8078 5.34205 11.8828 5.41706C11.9579 5.49207 12 5.59382 12 5.6999C12 5.80599 11.9579 5.90773 11.8828 5.98275C11.8078 6.05776 11.7061 6.0999 11.6 6.0999H4.4C4.29391 6.0999 4.19217 6.05776 4.11716 5.98275C4.04214 5.90773 4 5.80599 4 5.6999ZM4.4 9.2999C4.29391 9.2999 4.19217 9.34205 4.11716 9.41706C4.04214 9.49207 4 9.59382 4 9.6999C4 9.80599 4.04214 9.90773 4.11716 9.98275C4.19217 10.0578 4.29391 10.0999 4.4 10.0999H7.6C7.70609 10.0999 7.80783 10.0578 7.88284 9.98275C7.95786 9.90773 8 9.80599 8 9.6999C8 9.59382 7.95786 9.49207 7.88284 9.41706C7.80783 9.34205 7.70609 9.2999 7.6 9.2999H4.4Z" fill="#909090"/>
</svg>
