<svg width="345" height="345" viewBox="0 0 345 345" fill="none" xmlns="http://www.w3.org/2000/svg">
<path fill-rule="evenodd" clip-rule="evenodd" d="M80.5538 46.0786C74.7748 46.471 68.8602 48.4722 63.7837 51.7527C54.9718 57.447 48.9218 66.884 47.4009 77.3074C46.4396 83.8952 47.21 90.4475 49.6802 96.6956C50.2682 98.1825 51.6503 100.91 52.5216 102.303C56.1956 108.176 61.2554 112.812 67.2833 115.827C71.3645 117.868 75.7677 119.104 80.301 119.481C81.6188 119.591 84.8458 119.591 86.2156 119.481C93.1955 118.92 100.008 116.217 105.563 111.804C107.032 110.636 108.796 108.974 110.073 107.552C111.068 106.445 112.936 104.083 113.524 103.19C114.152 102.235 115.569 99.5983 116.157 98.2913C118.067 94.0432 119.13 89.8497 119.435 85.3581C120.167 74.5872 116.304 64.2232 108.742 56.6636C107.882 55.8045 106.838 54.8175 106.421 54.4703C101.095 50.0363 94.8688 47.2475 88.2337 46.3237C85.9923 46.0116 82.9642 45.915 80.5538 46.0786ZM199.694 46.4068C198.646 46.512 197.068 46.8181 196.369 47.0519C193.244 48.0961 190.735 50.9991 189.909 54.5258C189.674 55.5302 189.694 57.5473 189.949 58.52C190.197 59.4671 191.005 61.0716 191.707 62.0096C192.598 63.2012 194.88 65.4119 196.222 66.3832L196.456 66.5525L196.248 67.4343C195.71 69.7164 195.656 70.1398 195.652 72.1001C195.65 73.8188 195.663 73.9915 195.846 74.5353C196.406 76.2033 197.354 76.8882 199.354 77.069C199.962 77.1241 199.971 77.1281 200.017 77.3873C200.043 77.5317 200.277 78.6336 200.537 79.8361C201.302 83.3754 201.421 83.9424 201.421 84.0574C201.421 84.1203 201.323 84.1668 201.189 84.1669C201.062 84.1672 200.44 84.2597 199.808 84.3725C193.588 85.4832 188.235 88.3511 185.047 92.281C184.671 92.7435 183.589 94.0868 182.642 95.2661C178.325 100.642 176.229 102.675 173.719 103.922C172.403 104.576 171.005 104.818 169.782 104.606C168.151 104.322 166.64 103.129 165.693 101.377C165.426 100.882 165.302 100.732 165.164 100.732C165.054 100.732 164.759 100.954 164.41 101.299C164.043 101.663 163.815 101.832 163.776 101.771C163.743 101.718 162.617 99.9487 161.273 97.8396C159.201 94.5862 158.801 94.0048 158.636 94.0048C158.497 94.0048 158.151 94.3014 157.438 95.0319C156.887 95.5969 156.419 96.0415 156.398 96.0199C156.377 95.9984 156.094 95.2808 155.77 94.4252C153.099 87.375 150.485 81.6098 148.921 79.3231C148.564 78.8017 141.15 71.6051 140.933 71.57C140.584 71.5133 140.066 72.4341 139.949 73.3193C139.845 74.1057 140.374 75.6818 141.089 76.7198C141.23 76.9242 141.345 77.1073 141.345 77.1265C141.345 77.1459 140.616 77.2074 139.724 77.2632C137.226 77.4194 136.819 77.2859 135.022 75.7199C133.212 74.1423 132.041 73.3165 130.898 72.8113C130.512 72.6411 130.298 72.6064 129.627 72.6055C128.849 72.6046 128.796 72.6169 128.111 72.9562C127.35 73.333 127.022 73.5847 127.022 73.791C127.022 73.9123 130.76 78.9232 131.536 79.8424C133.156 81.7608 135.084 83.0523 137.476 83.8212C138.052 84.0062 139.394 84.4077 140.46 84.7133C141.525 85.019 142.622 85.3834 142.897 85.5232C144.249 86.2085 145.264 87.3945 145.77 88.8774C145.926 89.3368 146.051 90.0815 146.234 91.6501C146.372 92.8296 146.521 94.0973 146.567 94.4673C146.612 94.8372 146.727 95.8116 146.82 96.6325C147.033 98.4991 147.264 100.493 147.542 102.871L147.758 104.716L142.15 110.314C139.066 113.393 136.543 115.953 136.543 116.003C136.543 116.112 137.113 116.651 139.113 118.436C139.53 118.808 140.605 119.77 141.501 120.574L143.131 122.035L141.48 123.625C140.33 124.733 139.829 125.271 139.829 125.397C139.83 125.509 139.935 125.649 140.103 125.76C144.25 128.496 147.379 130.231 151.035 131.82C155.467 133.746 159.289 134.812 163.674 135.343C165.393 135.551 168.906 135.551 170.583 135.343C175.941 134.677 180.825 132.653 184.991 129.371L185.791 128.74L185.858 129.682C185.895 130.201 185.904 132.195 185.879 134.114C185.707 147.233 185.72 148.709 186.048 153.434C186.296 156.999 186.749 160.086 187.191 161.212C187.661 162.409 188.789 163.621 189.964 164.191C190.585 164.493 190.874 164.584 191.782 164.767C191.958 164.803 191.96 164.834 192.01 168.273C192.098 174.324 192.522 178.231 193.375 180.855C193.646 181.69 193.659 181.782 193.581 182.295C193.535 182.596 193.346 183.959 193.16 185.323C192.974 186.688 192.766 188.201 192.698 188.687C192.511 190.01 192.237 192.042 192.237 192.104C192.237 192.134 181.488 192.14 168.351 192.116C149.937 192.083 144.433 192.096 144.327 192.173C144.143 192.307 144.246 192.626 144.49 192.677C144.874 192.757 260.052 192.87 260.499 192.791C261.517 192.61 262.819 191.732 263.425 190.819C263.924 190.068 263.985 189.762 264.568 185.148C264.875 182.724 265.22 180.003 265.336 179.101C265.452 178.199 265.775 175.664 266.053 173.467C266.331 171.27 266.634 168.887 266.726 168.17C266.818 167.453 266.928 166.583 266.971 166.236C267.014 165.889 267.24 164.101 267.474 162.263C267.895 158.961 268.431 154.743 269.085 149.586C269.27 148.13 269.555 145.885 269.719 144.598C270.032 142.141 270.029 142.019 269.657 142.019C269.568 142.019 269.465 142.102 269.426 142.208C269.388 142.312 269.217 143.513 269.047 144.878C268.878 146.242 268.663 147.945 268.57 148.661C268.41 149.889 267.929 153.678 266.973 161.232C266.261 166.861 265.716 171.149 265.408 173.551C265.084 176.083 264.62 179.75 263.903 185.45C263.647 187.485 263.395 189.301 263.343 189.486C263.082 190.424 262.18 191.435 261.186 191.905L260.612 192.177L254.035 192.2L247.459 192.223L247.308 190.938C246.395 183.126 245.23 176.076 244.006 170.953C243.846 170.286 243.731 169.727 243.749 169.709C243.846 169.612 246.296 173.205 247.447 175.132C248.146 176.301 248.235 176.416 248.431 176.393C248.583 176.376 248.655 176.311 248.675 176.174C248.711 175.922 248.12 173.053 247.581 170.86C246.582 166.799 245.636 163.745 244.486 160.872C244.311 160.434 244.31 160.429 244.477 160.518C244.592 160.58 244.695 160.581 244.806 160.522C245.254 160.283 245.125 155.868 244.593 153.202C244.247 151.468 243.156 147.799 242.596 146.481L242.474 146.193L243.117 145.323L243.76 144.453L245.53 144.504C249.027 144.603 252.805 144.298 256.705 143.601L257.265 143.501L257.854 143.903C258.18 144.125 258.514 144.292 258.601 144.276C258.701 144.257 258.869 144.016 259.066 143.606C259.354 143.007 259.395 142.961 259.695 142.905C260.242 142.803 263.173 141.811 264.193 141.383C270.953 138.549 274.825 134.122 275.394 128.577C275.552 127.038 275.479 124.953 275.19 122.721C274.75 119.325 274.659 116.568 274.928 114.816C275.263 112.636 275.949 110.745 277.109 108.804C278.255 106.887 279.515 105.536 281.802 103.772C284.264 101.872 285.157 100.591 285.697 98.178C285.861 97.4483 285.888 97.0911 285.885 95.6865C285.882 93.9599 285.799 93.3028 285.378 91.634C284.867 89.6114 283.738 87.0959 282.498 85.2177C280.463 82.1358 277.813 79.7079 275.02 78.3674C273.11 77.4509 271.444 77.0712 269.332 77.0711C267.599 77.0711 266.036 77.3101 263.35 77.9862C258.3 79.2575 255.704 79.0437 252.776 77.1157C252.002 76.6063 250.598 75.203 250.085 74.4263C249.43 73.4349 248.838 72.2249 248.06 70.2922C246.649 66.786 245.751 65.5889 243.86 64.6949C242.858 64.2213 242.067 64.0539 240.811 64.0499C238.993 64.044 237.825 64.3896 234.175 66.0131C230.778 67.524 229.711 67.8128 227.765 67.7485C226.754 67.7151 226.476 67.6751 225.948 67.4876C224.592 67.0065 223.504 66.2548 221.975 64.7424C220.013 62.8011 218.084 60.256 216.398 57.3849C215.325 55.5576 214.366 54.073 213.574 53.0126C212.726 51.8758 211.184 50.2275 210.286 49.497C208.453 48.0051 206.484 47.0657 204.244 46.6139C203.116 46.3864 200.901 46.2856 199.694 46.4068ZM136.374 46.469C135.239 46.6615 134.081 47.479 133.592 48.4346C133.4 48.8079 133.205 49.5761 133.134 50.2374C133.078 50.7545 132.767 53.3655 132.537 55.2406C132.425 56.1571 132.108 58.7801 131.603 62.9665C131.429 64.4031 131.493 64.9764 131.919 65.8134C132.248 66.4607 132.961 67.1495 133.653 67.4885L134.141 67.7275L153.319 67.7493L172.497 67.771L173.303 69.2629C173.747 70.0833 174.754 71.9466 175.541 73.4034C176.683 75.5147 177.011 76.0579 177.158 76.0803C177.516 76.1347 177.47 76.3751 178.041 71.4274C178.249 69.6237 178.438 68.0652 178.461 67.9642C178.502 67.7852 178.542 67.7798 179.957 67.7539C181.393 67.7279 181.417 67.7243 181.981 67.4577C182.707 67.1145 183.395 66.4388 183.723 65.7469C183.98 65.2026 184.035 64.9268 184.312 62.7664C184.407 62.0264 184.676 59.9453 184.91 58.1416C185.993 49.7838 185.947 50.2054 185.842 49.5647C185.618 48.2045 184.713 47.1336 183.348 46.6138C182.937 46.4576 182.334 46.4532 159.756 46.4434C147.012 46.4378 136.49 46.4494 136.374 46.469ZM85.2301 46.6663C89.7535 46.9246 94.7085 48.1852 98.3042 49.9923C98.964 50.3239 98.9657 50.3289 98.7429 51.314C98.4973 52.3997 97.9748 53.1883 97.2368 53.587C96.9445 53.7449 96.7655 53.7691 95.8886 53.7691C94.9954 53.7691 94.7955 53.741 94.1733 53.5279C93.1073 53.1628 92.551 53.282 92.0768 53.9771C91.7904 54.3973 91.7087 54.7684 91.6603 55.8712C91.5803 57.6913 91.9722 59.6743 92.4872 60.0555C92.7689 60.264 92.9781 60.2019 93.4472 59.7704C93.7973 59.4484 94.0035 59.1516 94.8113 57.8064C95.2506 57.0751 95.4923 56.9088 95.9052 57.0537C96.0303 57.0976 96.2103 57.2657 96.3055 57.4273C96.4606 57.6908 96.4779 57.8557 96.4731 59.0245C96.4687 60.1017 96.4412 60.3829 96.3152 60.6449C95.9935 61.3138 95.4926 61.4796 93.7504 61.4942C92.2341 61.5068 91.8422 61.6219 91.4158 62.1798C91.1871 62.479 91.171 62.5558 91.1179 63.5983C91.0441 65.0494 90.8442 65.6046 90.117 66.3773C89.5503 66.9796 89.3401 67.4363 89.2921 68.1698C89.2626 68.6206 89.2899 68.8788 89.3963 69.1569C89.9072 70.492 91.167 69.9183 92.9532 67.5372C93.8924 66.2853 94.5912 65.5508 95.0577 65.3254C95.3704 65.1744 95.54 65.1485 96.0011 65.1814C96.4939 65.2166 96.7125 65.2977 97.7715 65.8378C98.8734 66.3999 99.0255 66.4547 99.4986 66.46C100.492 66.4712 100.948 65.9387 101.195 64.4812C101.371 63.4388 101.459 63.2289 101.716 63.2289C102.503 63.2289 103.852 64.7549 103.851 65.6439C103.85 66.037 103.602 66.4592 103.146 66.8444C102.415 67.4618 101.84 68.0746 101.784 68.2966C101.622 68.9404 102.075 69.6722 102.866 70.0457C103.153 70.1812 103.432 70.2921 103.487 70.2921C103.541 70.2922 103.722 70.4197 103.887 70.5754C104.291 70.9557 104.286 71.2228 103.868 71.6401C103.435 72.0725 102.788 72.2594 101.902 72.2082C101.322 72.1747 101.147 72.1216 100.426 71.7598C99.4795 71.2845 99.0202 71.2352 98.3742 71.5394C98.1657 71.6376 97.9099 71.7188 97.8058 71.7198C97.5288 71.7225 97.0074 71.2108 96.6144 70.5507C96.2165 69.8823 95.8439 69.5354 95.5241 69.5355C95.1689 69.5356 94.3538 69.9633 93.5369 70.5783C92.4004 71.434 92.174 71.5781 91.0894 72.1368C89.4002 73.0069 88.5979 73.6786 88.2915 74.4793C88.151 74.8465 88.1534 74.8971 88.376 76.2536C88.6418 77.8736 88.6455 77.99 88.4641 79.1323C88.2841 80.267 88.3356 81.7439 88.5786 82.4149C89.2249 84.1989 90.603 84.7472 93.4275 84.3443C94.8899 84.1357 95.4282 84.1255 96.2142 84.2918C96.946 84.4465 97.4718 84.7528 97.7652 85.195L97.9951 85.5414L98.0482 87.9442C98.0776 89.2657 98.1469 90.574 98.2024 90.8515C98.2643 91.1612 98.4482 91.5996 98.6786 91.9867C99.2006 92.8638 99.3435 93.3747 99.3375 94.3411C99.3315 95.3026 99.1524 95.8816 98.5251 96.9688C97.6814 98.431 97.3926 99.7289 97.4746 101.689C97.5551 103.61 97.9465 104.727 98.5961 104.889C99.1173 105.02 100.028 104.231 101.636 102.255C102.224 101.533 103.243 100.412 103.9 99.7648C105.191 98.4936 105.59 97.9522 106.335 96.4622C107.446 94.2381 108.078 92.0597 108.087 90.4311C108.09 89.7813 108.056 89.591 107.845 89.0857C107.327 87.8412 107.531 87.1145 108.905 85.3018C109.811 84.1068 110.002 83.6235 110.002 82.5192C110.002 81.8315 109.991 81.795 109.564 80.9936C109.138 80.1962 109.126 80.1529 109.131 79.4997C109.138 78.5517 109.441 77.7889 110.301 76.5567C110.736 75.935 110.875 75.5209 110.826 75.0038C110.766 74.3816 110.453 73.8424 109.734 73.12C109.047 72.4302 108.946 72.2342 109.264 72.2144C110.57 72.1335 111.735 72.9589 112.499 74.5075C112.959 75.4387 113.224 76.3024 113.581 78.0309C114.072 80.4101 114.486 81.7264 114.851 82.0688C115.125 82.3251 115.218 82.2695 115.792 81.5109L116.231 80.9292L116.213 79.6259C116.193 78.1752 116.204 78.1344 116.835 77.3082C117.185 76.8488 117.784 75.6331 117.878 75.1912C117.909 75.0414 117.963 74.9018 117.997 74.8808C118.06 74.8415 118.336 76.2644 118.549 77.7339C118.787 79.3678 118.879 80.7837 118.879 82.7791C118.878 87.0404 118.304 90.5414 116.937 94.6119C116.466 96.0163 116.465 96.0178 116.162 96.1131C115.162 96.4266 113.492 97.8397 113.082 98.7175C112.964 98.9698 112.867 99.3086 112.865 99.4705C112.861 99.8806 112.541 100.775 112.192 101.355C111.766 102.06 111.006 102.795 110.035 103.441C108.238 104.637 107.926 105.33 108.134 107.669L108.216 108.594L107.529 109.252C102.938 113.652 97.0349 116.788 90.749 118.165C79.1216 120.713 67.0239 117.184 58.4779 108.752C52.7774 103.128 49.1202 95.8712 47.9943 87.9505C47.5159 84.5842 47.5286 80.7522 48.0295 77.3886C48.9365 71.2974 51.2757 65.734 55.0263 60.7483C55.7286 59.8148 57.1243 58.1614 57.2464 58.1183C57.3758 58.0726 57.1405 59.5591 56.9031 60.2858C56.805 60.5864 56.4082 61.4413 56.0214 62.1854C54.5618 64.9938 54.1304 66.8395 53.9983 70.8414C53.9544 72.1736 53.9695 72.5539 54.0888 73.1117C54.5824 75.4194 56.2692 78.8126 58.2048 81.3917C58.9022 82.3209 59.7288 83.208 60.054 83.3762C60.8206 83.7727 61.2707 83.1126 61.3609 81.4597C61.4389 80.032 61.114 78.5196 60.326 76.6408C59.7685 75.3115 59.6343 74.9029 59.5454 74.2626C59.4046 73.2484 59.622 72.5167 60.126 72.3084C60.4971 72.155 60.8476 72.2659 61.3141 72.6844C61.9206 73.2287 62.5665 73.5194 63.2555 73.5582C63.7914 73.5885 63.8368 73.5764 64.0718 73.342C64.3822 73.0321 64.4729 72.6946 64.5793 71.4517C64.6256 70.9101 64.7199 70.3582 64.7888 70.2254C64.8576 70.0926 65.21 69.7801 65.5719 69.531C66.4564 68.9222 66.9302 68.4323 67.3157 67.7275C67.4928 67.4038 67.7689 66.9783 67.9291 66.7821C68.4759 66.1125 69.7478 65.342 71.657 64.5237C72.1857 64.2972 72.7197 64.0172 72.8438 63.9016C73.0579 63.7019 73.0718 63.6388 73.1229 62.6403C73.1825 61.4771 73.2729 61.1069 73.8282 59.7538C74.0367 59.2458 74.2275 58.6345 74.2522 58.3954C74.2939 57.9921 74.2766 57.9373 74.0138 57.6385C73.4887 57.0417 72.8068 56.8768 71.934 57.1354C71.6918 57.2072 71.0478 57.5642 70.4817 57.9405C68.7949 59.0616 68.3994 59.1678 67.9072 58.6316C67.5374 58.2285 67.4202 57.853 67.4753 57.2466C67.5568 56.35 68.2002 55.2925 68.9971 54.7454C69.5378 54.3741 70.0929 54.2267 71.2415 54.1497C72.4633 54.0677 73.0943 53.8726 73.4916 53.4539C74.223 52.6832 73.9373 51.7612 72.8039 51.2345C72.1275 50.9201 71.8567 50.9633 70.5693 51.5907C67.8323 52.9245 66.5598 53.3761 65.0092 53.5636C64.0741 53.6767 62.4528 53.6001 62.5045 53.4453C62.5489 53.3118 64.6621 51.9088 65.7995 51.2576C71.7274 47.8637 78.437 46.2782 85.2301 46.6663ZM183.168 47.2484C184.442 47.6858 185.244 48.8056 185.243 50.1457C185.243 50.4274 185.017 52.3984 184.741 54.5258C184.465 56.6533 184.124 59.302 183.983 60.4119C183.442 64.6631 183.403 64.91 183.19 65.3743C182.909 65.9855 182.36 66.5557 181.75 66.8699C181.245 67.1298 181.229 67.1322 179.626 67.1774C178.738 67.2025 177.985 67.2487 177.954 67.28C177.923 67.3113 177.844 67.7654 177.78 68.2891C177.517 70.4133 177.138 73.6458 177.094 74.1392C177.069 74.4283 177.024 74.6641 176.996 74.6633C176.967 74.6625 176.796 74.3882 176.615 74.0537C176.434 73.7192 175.549 72.0833 174.648 70.4183C173.748 68.7534 172.972 67.3442 172.924 67.2868C172.856 67.2043 168.8 67.1779 153.616 67.1607L134.394 67.1389L133.914 66.9144C133.004 66.4885 132.328 65.5793 132.167 64.5636C132.116 64.2414 132.162 63.599 132.338 62.1424C132.471 61.0519 132.635 59.6867 132.704 59.1086C132.772 58.5305 132.907 57.4142 133.002 56.628C133.311 54.0772 133.415 53.2109 133.638 51.3404C133.773 50.209 133.921 49.3295 134.024 49.057C134.333 48.2304 135.027 47.5593 135.884 47.2552C136.319 47.1011 137.013 47.0962 159.511 47.0903C182.295 47.0842 182.698 47.0869 183.168 47.2484ZM76.3671 48.0067C75.2102 48.1536 74.336 48.5134 73.911 49.0174C73.7246 49.2385 73.7078 49.3054 73.7841 49.5238C73.9423 49.9767 74.2809 50.133 75.2248 50.1889C76.0534 50.2379 76.069 50.2427 76.3043 50.5241C76.6532 50.9412 76.7201 51.4213 76.7201 53.5095C76.7201 54.5415 76.7588 55.5891 76.806 55.8376C76.9715 56.7087 77.6313 57.6618 78.1983 57.8485C78.8018 58.0472 79.2001 57.6161 79.5735 56.3597C79.9653 55.0413 79.9916 55.0042 80.933 54.4432C82.3757 53.5833 83.6908 52.409 84.0443 51.665C84.3795 50.9592 84.2789 50.072 83.7938 49.4567C83.4898 49.0709 82.8615 48.6862 82.1899 48.4744C81.0425 48.1127 77.6675 47.8416 76.3671 48.0067ZM109.069 51.0853C108.989 51.1819 108.983 51.257 109.047 51.3586C109.129 51.4879 109.893 51.5004 118.9 51.5204C127.883 51.5403 128.673 51.531 128.767 51.4037C128.838 51.3073 128.843 51.2177 128.785 51.1087C128.704 50.9574 128.373 50.9521 118.94 50.9521C110.137 50.9521 109.169 50.9652 109.069 51.0853ZM216.245 51.0846C216.164 51.1819 216.158 51.2569 216.222 51.3586C216.304 51.4888 218.385 51.5017 245.581 51.5408L274.851 51.5828L275.517 51.8177C277.647 52.5693 279.303 54.3418 279.861 56.4659C280.049 57.1838 280.083 58.1906 279.951 59.1086C279.907 59.4092 279.644 61.4525 279.365 63.6493C279.087 65.8461 278.647 69.3084 278.387 71.3433C277.761 76.2459 277.795 75.8663 277.966 76.0078C278.147 76.1575 278.358 76.0406 278.437 75.7477C278.468 75.6335 278.639 74.3782 278.818 72.9582L279.144 70.3763L282.306 70.3775C285.83 70.3789 286.108 70.4105 287.153 70.9276C288.796 71.741 290.011 73.1143 290.617 74.8438C290.88 75.5919 290.963 76.728 290.833 77.776C290.784 78.1691 290.515 80.2881 290.235 82.4848C289.956 84.6816 289.554 87.8412 289.343 89.5061C289.132 91.171 288.807 93.7252 288.621 95.182C288.436 96.6388 288.097 99.3065 287.869 101.11C286.953 108.336 286.607 111.056 285.509 119.693C285.321 121.173 284.959 124.03 284.705 126.042C284.45 128.054 284.146 130.438 284.029 131.34C283.912 132.241 283.782 133.263 283.741 133.61C283.699 133.957 283.491 135.603 283.278 137.268C283.065 138.933 282.704 141.771 282.476 143.574C281.532 151.041 281.111 154.357 280.876 156.187C280.739 157.251 280.416 159.786 280.159 161.821C279.902 163.856 279.561 166.543 279.401 167.791C279.242 169.04 278.919 171.575 278.685 173.425C278.45 175.275 278.05 178.435 277.794 180.446C277.539 182.458 277.143 185.58 276.915 187.384C276.197 193.052 275.568 198.003 275.354 199.66C275.241 200.539 274.953 202.809 274.715 204.706C274.439 206.911 274.226 208.305 274.125 208.574C273.793 209.462 272.811 210.409 271.803 210.814L271.312 211.012L253.366 210.997C243.495 210.988 218.256 210.955 197.279 210.923L159.14 210.865L158.254 209.383C156.72 206.816 154.906 204.211 153.465 202.507C149.463 197.775 141.276 193.829 129.595 191.001C127.154 190.41 123.358 189.653 121.316 189.35L120.624 189.247L120.58 188.904C120.434 187.772 120.209 180.41 120.308 180.014C120.388 179.698 120.697 179.606 121.68 179.606C124.132 179.606 126.089 178.867 127.568 177.384C129.095 175.853 129.996 173.653 130.346 170.608C130.511 169.172 130.512 166.309 130.349 164.512C130.282 163.772 130.226 163.135 130.225 163.096C130.224 163.058 130.631 162.612 131.129 162.105C132.24 160.976 132.437 160.62 132.388 159.832C132.351 159.224 132.282 159.08 131.514 158.007L131.071 157.388L131.31 157.04C132.532 155.259 132.673 152.421 131.701 149.124C131.282 147.701 130.664 146.155 130.474 146.053C130.349 145.987 130.072 146.09 129.124 146.559C128.468 146.883 127.921 147.148 127.909 147.148C127.897 147.148 127.864 146.949 127.835 146.706C127.687 145.446 126.627 142.826 125.233 140.277L124.764 139.419L125.24 139.064C126.505 138.12 127.365 137.2 128.24 135.856C129.975 133.192 130.933 129.379 130.647 126.273C130.389 123.477 129.421 121.357 127.909 120.281C125.998 118.92 123.111 118.595 119.797 119.366C117.819 119.827 114.931 120.921 111.763 122.409C111.373 122.592 110.441 123.029 109.69 123.381C107.284 124.509 105.672 124.886 100.649 125.495C94.2486 126.272 91.361 126.994 88.0395 128.647L86.7623 129.283L86.4807 129.089C85.8144 128.631 86.1771 128.644 75.2826 128.668L65.219 128.691L64.7794 128.922C64.221 129.216 63.8067 129.629 63.5132 130.186C63.308 130.575 63.2819 130.715 63.2819 131.424C63.2819 132.128 63.3086 132.273 63.5085 132.652C63.7903 133.186 64.4604 133.797 64.9878 134.001C65.3641 134.147 65.8464 134.158 73.2081 134.179L81.0287 134.203L80.7606 134.558C79.8962 135.703 78.8184 137.602 78.3163 138.865C78.1692 139.235 78.0362 139.552 78.0209 139.569C78.0054 139.585 77.8676 139.523 77.7146 139.429C76.9987 138.993 76.9761 138.991 70.4787 138.991C64.664 138.991 64.4156 138.998 63.8879 139.16C63.1924 139.375 62.5836 139.901 62.2531 140.572C61.933 141.223 61.9174 142.251 62.2176 142.919C62.4511 143.439 63.0817 144.058 63.6419 144.316C64.0392 144.499 64.0419 144.499 70.4287 144.499H76.818L76.7704 144.835C76.7442 145.02 76.6981 146.126 76.6679 147.293L76.6129 149.415L69.61 149.437L62.607 149.46L62.2455 149.653C61.7268 149.929 61.2337 150.455 60.9788 151.003C60.6791 151.648 60.6693 152.614 60.956 153.261C61.2165 153.849 61.8847 154.47 62.507 154.703C62.9904 154.883 63.0242 154.884 70.2338 154.884H77.4752L77.5292 155.115C77.7338 155.991 78.1388 157.377 78.4939 158.418C78.7232 159.089 78.9108 159.666 78.9108 159.7C78.9108 159.733 75.0448 159.761 70.3197 159.761C61.86 159.761 61.7215 159.764 61.2661 159.934C60.6141 160.177 60.0338 160.726 59.7409 161.375C59.4092 162.111 59.4065 162.994 59.7337 163.661C60.009 164.223 60.5064 164.732 61.0318 164.99L61.4274 165.185L71.4832 165.227L81.539 165.269L82.129 166.278C83.358 168.379 85.1588 170.954 86.7755 172.921C88.7203 175.286 91.6959 178.312 94.0771 180.346C94.9856 181.122 95.3866 181.518 95.3944 181.648C95.4006 181.75 95.4531 182.231 95.511 182.717C95.5841 183.331 95.5991 184.176 95.5601 185.492C95.5097 187.19 95.3573 188.96 95.2536 189.049C95.2321 189.068 94.6459 189.185 93.9507 189.309C89.2668 190.147 85.3915 191.375 81.6766 193.199C75.8998 196.036 71.3955 199.997 68.1855 205.064C67.6055 205.979 66.1804 208.773 65.6656 210.003L65.3842 210.676L64.3748 210.671C63.522 210.667 63.2869 210.635 62.8598 210.468C62.1833 210.204 61.4728 209.49 61.223 208.823C60.8907 207.937 60.8997 207.601 61.3463 204.243C61.4725 203.295 61.5886 202.4 62.0122 199.114C62.1285 198.212 62.3388 196.585 62.4797 195.498C62.6206 194.411 62.7596 193.305 62.7887 193.039L62.8416 192.556L70.0547 192.534L77.2678 192.513V192.261V192.008L64.8398 191.951C50.4237 191.885 50.6103 191.889 50.0948 191.655C49.1863 191.242 48.4798 190.28 48.3347 189.257C48.2442 188.619 48.2437 188.625 48.9994 182.843C49.1077 182.015 49.4687 179.225 49.6741 177.63C49.7694 176.89 49.9622 175.395 50.1026 174.308C50.2431 173.221 50.4871 171.329 50.6448 170.104C50.8025 168.878 51.0268 167.138 51.143 166.236C51.2594 165.334 51.4325 163.991 51.5278 163.251C51.7583 161.459 52.1406 158.509 52.4102 156.44C52.5307 155.515 52.7405 153.887 52.8764 152.824C53.0122 151.76 53.3138 149.414 53.5466 147.61C53.9356 144.596 54.0847 143.446 54.4359 140.757C54.5053 140.225 54.8459 137.577 55.1926 134.871C55.5394 132.166 55.8996 129.366 55.9931 128.649C56.0867 127.932 56.2193 126.91 56.2877 126.378C56.4124 125.409 56.619 123.818 56.9262 121.459C57.0166 120.766 57.1465 119.763 57.2148 119.231C57.2831 118.699 57.415 117.677 57.5078 116.961C57.6007 116.244 57.746 115.12 57.8309 114.464C57.9898 113.235 57.9669 113.008 57.6841 113.008C57.4632 113.008 57.372 113.161 57.3073 113.639C57.276 113.87 57.0627 115.516 56.8334 117.297C56.6039 119.077 56.3595 120.969 56.29 121.501C55.6967 126.044 55.506 127.518 55.0231 131.297C54.769 133.286 54.4847 135.5 54.3912 136.217C54.2979 136.933 54.165 137.955 54.0961 138.487C54.0271 139.019 53.8945 140.04 53.8015 140.757C53.537 142.794 53.3059 144.58 53.1702 145.634C53.1018 146.166 52.9689 147.188 52.875 147.905C52.7052 149.201 51.6787 157.169 51.1957 160.938C51.0565 162.025 50.8834 163.368 50.811 163.923C50.3404 167.532 50.1282 169.175 49.7568 172.08C49.4422 174.541 48.7035 180.275 48.538 181.54C48.4685 182.071 48.333 183.112 48.237 183.852C48.141 184.592 47.9885 185.746 47.8982 186.417C47.5629 188.906 47.5912 189.525 48.0869 190.534C48.575 191.528 49.5458 192.261 50.6408 192.464C50.9662 192.524 53.0481 192.555 56.6917 192.555H62.2466L62.1973 192.828C62.1701 192.979 62.0344 193.991 61.8956 195.078C61.6476 197.02 61.5221 197.995 61.0892 201.342C60.3521 207.041 60.3082 207.463 60.3888 208.069C60.5303 209.133 61.1105 210.114 61.9324 210.679C62.5773 211.122 63.2594 211.306 64.2575 211.306C64.7168 211.306 65.0926 211.324 65.0926 211.346C65.0926 211.368 64.8431 212.134 64.5383 213.047C63.1122 217.319 62.2569 221.87 62.0877 226.085C62.0576 226.836 62.0155 227.451 61.9944 227.451C61.9731 227.451 61.5785 227.224 61.1173 226.946C59.9731 226.256 59.4229 226.079 58.5626 226.123C56.714 226.218 55.3187 227.693 55.3187 229.552C55.3187 230.095 56.0266 232.873 57.7288 239.009C60.7129 249.766 65.339 258.502 72.2465 266.426C73.6161 267.997 77.2765 271.599 78.9595 273.032C90.1828 282.591 104.153 288.869 121.448 292.126C123.402 292.494 123.609 292.497 123.609 292.15C123.609 291.916 123.309 291.812 121.924 291.57C117.227 290.747 111.836 289.371 107.053 287.773C104.443 286.901 104.163 286.798 101.538 285.747C87.6465 280.186 76.3589 271.593 68.5344 260.624C64.2776 254.656 60.8474 247.543 58.7615 240.359C58.0015 237.741 55.9803 230.156 55.9352 229.751C55.9002 229.439 55.9364 229.156 56.0657 228.731C56.3803 227.697 57.2357 226.962 58.3509 226.766C59.0954 226.635 59.6529 226.815 61.0717 227.647C72.5266 234.361 87.4401 238.382 104.019 239.227C106.975 239.378 113.292 239.385 116.827 239.241C120.399 239.096 120.676 239.116 121.687 239.596C122.487 239.975 123.42 240.871 123.803 241.627C123.99 241.998 124.354 243.318 125.124 246.42C126.795 253.154 127.352 255.089 128.751 259.026C132.058 268.327 137.405 277.997 143.442 285.597C145.714 288.457 150.168 293.96 150.333 294.112C150.497 294.262 150.573 294.283 150.703 294.214C150.793 294.166 150.867 294.057 150.867 293.972C150.867 293.887 150.569 293.444 150.206 292.987C149.388 291.959 149.17 291.589 147.836 288.961C144.976 283.327 142.961 277.854 141.986 273.068C141.472 270.544 141.391 269.717 141.389 266.972C141.388 265.211 141.422 264.221 141.498 263.813L141.608 263.219L141.254 262.468C141.059 262.055 140.389 260.638 139.766 259.32C137.101 253.683 136.206 251.75 136.206 251.632C136.206 251.478 136.511 251.302 136.64 251.382C136.749 251.449 137.005 251.981 140.103 258.553C140.896 260.235 141.624 261.73 141.722 261.875C141.82 262.019 142.103 262.516 142.353 262.978C142.602 263.44 142.869 263.932 142.947 264.071C143.024 264.21 143.417 264.934 143.821 265.681C144.799 267.493 145.327 267.982 146.732 268.371L147.246 268.514L147.762 269.53C148.046 270.089 148.4 270.773 148.55 271.05C148.7 271.328 149.459 272.785 150.236 274.288C151.826 277.36 152.171 277.989 152.96 279.249C157.25 286.104 163.793 291.228 171.504 293.769C173.572 294.451 176.038 294.985 178.503 295.285C179.981 295.465 183.713 295.478 189.625 295.322C191.733 295.267 195.961 295.164 199.02 295.095C202.078 295.026 207.595 294.894 211.279 294.803C214.963 294.712 219.57 294.6 221.516 294.554C223.463 294.508 226.268 294.433 227.751 294.386C229.234 294.34 231.832 294.263 233.523 294.216C237.192 294.114 238.257 294.076 240.811 293.954C242.945 293.852 243.52 293.883 244.369 294.144C245.074 294.361 245.388 294.517 246.457 295.183C248.828 296.661 251.268 297.568 253.614 297.841C254.66 297.963 256.884 297.894 257.916 297.707C259.601 297.401 261.179 296.931 263.155 296.144C264.957 295.427 265.682 295.003 267.292 293.723L268.13 293.056L269.089 293.558C269.617 293.835 270.466 294.281 270.975 294.55C273.505 295.885 272.819 295.674 279.721 297.242C283.635 298.131 283.744 298.145 283.738 297.759C283.736 297.63 283.543 297.397 281.971 295.633C276.986 290.037 276.698 289.733 275.89 289.201C275.458 288.916 274.323 288.173 273.369 287.549L271.634 286.415L271.582 285.754C271.554 285.39 271.473 284.93 271.403 284.731C270.92 283.369 269.391 282.531 266.862 282.243L266.034 282.149L265.761 281.424C264.632 278.428 262.113 276.476 258.744 275.987C257.946 275.871 257.682 275.865 257.016 275.951C256.584 276.007 256.155 276.073 256.062 276.097C255.941 276.128 255.096 275.62 253.093 274.31C244.426 268.645 243.12 267.801 242.849 267.688C242.685 267.62 242.33 267.539 242.06 267.509C241.285 267.421 240.945 267.175 240.479 266.365C240.353 266.147 240.13 265.868 239.983 265.745C239.012 264.932 227.916 257.991 226.993 257.619C226.687 257.495 226.373 257.448 225.848 257.445C225.212 257.443 225.056 257.474 224.573 257.699C223.889 258.019 223.412 258.442 223.045 259.056C221.494 261.653 220.37 263.645 220.251 264.009C220.036 264.665 220.109 265.841 220.403 266.49C220.802 267.368 221.188 267.654 225.477 270.259C227.655 271.581 230.005 272.959 230.7 273.32C232.015 274.004 232.527 274.274 233.845 274.979C234.553 275.357 234.703 275.405 235.362 275.46C236.255 275.535 236.541 275.675 236.965 276.244C237.145 276.486 237.364 276.746 237.451 276.822C237.538 276.897 239.031 277.708 240.769 278.623C245.568 281.152 246.153 281.47 246.167 281.561C246.192 281.729 245.766 281.94 244.985 282.147L244.187 282.358L241.741 282.235C234.307 281.861 223.615 280.751 215.366 279.498C195.121 276.421 181.871 272.138 176.375 266.895C175.13 265.707 175.034 265.548 173.762 262.558C173.132 261.078 171.937 258.277 171.106 256.333C170.275 254.389 169.569 252.718 169.538 252.619L169.481 252.44L174.603 252.399C180.01 252.357 180.126 252.35 181.768 251.927C182.771 251.67 183.417 251.426 185.918 250.364C187.146 249.842 189.951 248.65 192.153 247.716C194.354 246.782 196.667 245.798 197.292 245.531C197.918 245.263 199.567 244.562 200.958 243.974C206.069 241.812 207.129 241.346 207.722 241C210.753 239.233 212.736 236.284 213.127 232.959C213.185 232.466 213.217 228.602 213.217 221.884L213.217 211.566L242.223 211.616L271.228 211.666L271.866 211.444L272.505 211.222H275.281C277.712 211.222 278.126 211.203 278.613 211.068C279.883 210.717 280.96 209.744 281.337 208.607C281.405 208.404 281.573 207.329 281.711 206.219C281.85 205.109 282.061 203.444 282.181 202.519C282.301 201.594 282.605 199.21 282.857 197.222C283.108 195.233 283.43 192.698 283.572 191.588C283.713 190.478 284.057 187.773 284.336 185.576C284.614 183.379 284.917 180.995 285.01 180.278C285.102 179.561 285.212 178.691 285.254 178.344C285.297 177.997 285.542 176.068 285.798 174.056C286.054 172.044 286.417 169.187 286.606 167.707C286.794 166.227 287.078 163.995 287.237 162.746C287.397 161.497 287.697 159.132 287.906 157.491C288.114 155.849 288.439 153.295 288.627 151.815C288.815 150.335 289.156 147.648 289.385 145.845C289.614 144.041 289.88 141.96 289.976 141.22C290.071 140.48 290.376 138.077 290.654 135.88C290.932 133.683 291.271 131.016 291.408 129.952C291.545 128.888 291.868 126.353 292.125 124.318C292.383 122.283 292.669 120.032 292.761 119.315C292.853 118.598 292.963 117.728 293.006 117.381C293.049 117.034 293.293 115.104 293.549 113.093C293.806 111.081 294.169 108.224 294.358 106.744C294.546 105.264 294.83 103.032 294.989 101.783C295.148 100.534 295.449 98.1692 295.657 96.5274C295.866 94.8856 296.19 92.3315 296.378 90.8515C296.567 89.3716 296.908 86.685 297.137 84.8813C297.366 83.0777 297.71 80.41 297.9 78.9532C298.361 75.4305 298.39 74.8326 298.15 73.8638C297.656 71.87 296.208 70.2759 294.399 69.7357C293.926 69.5945 293.417 69.5864 286.584 69.611C280.017 69.6346 279.275 69.624 279.275 69.5066C279.275 69.3881 279.79 65.2726 280.466 59.9915C280.698 58.1798 280.715 57.8961 280.633 57.2166C280.414 55.3988 279.413 53.6125 277.971 52.4674C277.36 51.9823 276.421 51.4652 275.652 51.19L275.104 50.9942L245.73 50.9725C218.95 50.9526 216.346 50.9626 216.245 51.0846ZM141.427 52.5708C140.389 53.0943 140.316 54.4715 141.288 55.1908C141.52 55.3625 141.619 55.3673 145.448 55.3902L149.369 55.4136L149.731 55.2022C150.511 54.7458 150.691 53.5599 150.082 52.8961C149.98 52.7859 149.746 52.6259 149.561 52.5405C149.249 52.3972 148.94 52.3852 145.513 52.3835C141.831 52.3816 141.8 52.3831 141.427 52.5708ZM155.536 52.5411C154.651 52.9425 154.389 54.1013 155.013 54.8569C155.491 55.4362 155.113 55.4088 162.622 55.4088C170.008 55.4088 169.618 55.4336 170.093 54.9327C170.375 54.6348 170.499 54.3171 170.499 53.8864C170.499 53.5262 170.277 53.0163 170.02 52.7842C169.566 52.3746 169.693 52.3815 162.56 52.3835C156.239 52.3852 155.861 52.3937 155.536 52.5411ZM140.292 59.0596C139.758 59.2976 139.408 59.8497 139.408 60.454C139.408 60.8754 139.532 61.1941 139.813 61.4944C140.287 61.9997 139.097 61.9676 157.331 61.9676C168.021 61.9676 174.185 61.9377 174.369 61.8852C175.159 61.659 175.61 60.6357 175.269 59.8417C175.129 59.5144 174.755 59.1516 174.432 59.0299C174.267 58.9678 169.06 58.9414 157.37 58.9437C143.501 58.9464 140.501 58.9668 140.292 59.0596ZM200.958 60.6322C202.611 61.0809 204.639 61.4156 206.266 61.5087C207.793 61.5962 208.363 61.8832 208.809 62.7891C209.036 63.2501 209.046 63.3236 209.046 64.4902C209.046 65.5603 209.016 65.8295 208.799 66.6909C208.503 67.8626 208.52 67.9085 209.243 67.9152C210.329 67.9255 210.753 68.5039 210.586 69.7446C210.446 70.7804 209.935 71.3714 208.975 71.6078C208.479 71.7298 208.31 71.7355 207.754 71.6482C207.162 71.5553 207.099 71.5593 207.001 71.6973C206.943 71.7801 206.703 72.1403 206.47 72.4977C205.6 73.829 204.101 75.1835 202.813 75.8016C201.89 76.245 201.051 76.4306 199.971 76.4306C197.899 76.4306 197.019 75.9196 196.466 74.3947C196.254 73.8116 196.244 73.7043 196.247 72.1842C196.25 70.8972 196.287 70.3821 196.442 69.5354C196.94 66.8048 197.817 63.9057 199.233 60.3142L199.305 60.1323L199.836 60.3022C200.129 60.3956 200.633 60.5441 200.958 60.6322ZM207.688 72.3065C207.842 72.3647 207.934 72.4983 208.024 72.79C208.092 73.0117 208.735 74.9149 209.452 77.0192C210.17 79.1235 211.027 81.6398 211.358 82.611C211.688 83.5822 212.024 84.4389 212.103 84.5146C212.183 84.5905 213.942 85.5919 216.012 86.74C218.083 87.888 219.76 88.8541 219.74 88.8868C219.638 89.0517 216.594 89.9554 214.818 90.3483C208.008 91.8543 200.818 91.2059 195.145 88.5743L194.64 88.3403L194.934 88.2183C195.251 88.0866 200.097 86.2787 201.439 85.7913C201.937 85.6106 202.275 85.4398 202.301 85.3558C202.325 85.2799 201.952 83.4014 201.473 81.1815C200.707 77.6343 200.617 77.1388 200.737 77.0919C200.812 77.0626 201.12 76.9934 201.421 76.9381C203.4 76.5751 205.596 74.9542 207.038 72.7938C207.246 72.4817 207.43 72.2262 207.446 72.2262C207.463 72.2262 207.572 72.2624 207.688 72.3065ZM144.623 75.8927C148.817 79.9615 148.554 79.6233 150.32 83.1996C151.828 86.253 153.153 89.3738 155.087 94.4252L155.908 96.5694L152.147 100.33C150.078 102.399 148.362 104.064 148.334 104.03C148.305 103.997 148.218 103.383 148.139 102.666C148.009 101.473 147.772 99.4047 147.456 96.6956C147.389 96.1175 147.256 94.9729 147.162 94.1519C146.601 89.261 146.578 89.1249 146.174 88.1609C145.847 87.3814 145.279 86.5912 144.573 85.9337C143.645 85.0688 142.93 84.7538 139.997 83.92C137.378 83.1753 136.435 82.8322 135.405 82.2504C133.501 81.174 132.62 80.2876 129.966 76.774C128.833 75.2749 127.878 74.001 127.843 73.9433C127.684 73.6792 129.288 73.088 129.9 73.1856C130.915 73.3476 132.476 74.3326 134.423 76.039C136.397 77.7694 136.982 78.0064 139.05 77.9144C142.198 77.7745 142.357 77.7532 142.357 77.4705C142.357 77.4064 142.14 77.0621 141.876 76.7056C141.027 75.5603 140.59 74.5029 140.588 73.5943C140.587 73.0741 140.785 72.3944 140.938 72.3944C140.982 72.3944 142.64 73.9687 144.623 75.8927ZM65.1544 81.9827C64.1992 82.2225 63.8296 82.641 63.8291 83.4831C63.8283 84.7074 63.3573 86.9674 62.9251 87.8207C62.8069 88.0539 62.5482 88.4529 62.3501 88.7073C61.6248 89.6389 61.5098 90.2883 61.6181 92.8412C61.6915 94.5752 61.7063 94.6852 61.9252 95.1316C62.288 95.8719 62.8136 96.2269 64.8595 97.1139C66.2461 97.715 66.5553 98.1875 66.6494 99.8488C66.9456 105.077 67.1604 107.752 67.3751 108.888C67.632 110.247 69.021 113.586 69.7978 114.713C70.2461 115.363 70.9591 115.681 71.3687 115.413C71.6982 115.198 71.6594 114.62 71.2355 113.429C70.4134 111.119 70.2991 110.715 70.2959 110.107C70.292 109.392 70.4028 109.112 71.0514 108.195C71.6936 107.287 72.2103 106.443 72.7881 105.357C73.442 104.127 73.7333 103.387 73.9335 102.444C74.2069 101.157 74.6296 100.6 75.5251 100.344C76.1613 100.163 77.1371 99.7056 77.3731 99.4783C77.6426 99.2187 77.6164 98.8907 77.2285 97.6715C76.7839 96.2743 76.7205 95.6602 76.9682 95.1495C77.1634 94.7472 77.6417 94.3429 78.321 94.0061C79.1076 93.6161 79.4452 93.1309 79.4386 92.4003C79.4336 91.8609 79.2288 91.3956 78.7763 90.8957C78.3259 90.3981 77.7874 90.0991 76.678 89.7305C75.4438 89.3204 74.6432 88.889 74.0493 88.3137C73.4391 87.7226 73.2698 87.3247 73.2674 86.4767C73.2647 85.4824 73.1074 85.3297 71.6225 84.8801C70.3443 84.4929 69.9581 84.2324 69.2637 83.2884C68.5584 82.3299 67.8085 81.98 66.3565 81.9321C65.8699 81.9162 65.329 81.9389 65.1544 81.9827ZM201.622 84.8859C201.683 85.0448 201.796 84.996 198.725 86.1297C193.281 88.1389 193.627 87.9945 193.627 88.2567C193.627 88.4659 193.708 88.5331 194.385 88.8893C196.969 90.2472 200.874 91.3089 204.581 91.6614C205.974 91.794 209.057 91.7935 210.479 91.6608C213.203 91.4061 216.158 90.7781 218.888 89.8737C220.766 89.2516 220.903 89.1847 220.868 88.9078C220.846 88.7258 220.441 88.4748 217.872 87.0488C216.238 86.142 214.916 85.386 214.933 85.3688C214.988 85.3146 217.574 85.9129 219.199 86.3555C222.39 87.2245 232.198 90.6731 237.315 92.7254C246.002 96.2096 253.358 100.126 257.621 103.536C260.233 105.627 261.741 107.344 262.837 109.477C265.635 114.923 266.693 121.863 265.83 129.111C265.698 130.221 265.361 132.185 265.203 132.771L265.117 133.092L264.633 132.902C264.368 132.797 263.771 132.564 263.308 132.384C262.845 132.205 262.409 131.994 262.339 131.917C262.233 131.799 259.055 130.57 250.838 127.471C250.143 127.209 248.152 126.452 246.414 125.79C244.677 125.128 242.857 124.436 242.37 124.252C241.883 124.069 241.258 123.832 240.98 123.726C240.702 123.62 240.235 123.445 239.942 123.337C239.456 123.158 239.413 123.123 239.45 122.931C239.472 122.815 239.573 122.342 239.675 121.88C239.826 121.192 239.851 120.878 239.813 120.156C239.754 119.052 239.603 118.472 239.117 117.49C238.512 116.265 237.597 115.361 236.219 114.625C234.792 113.863 232.286 112.51 230.743 111.668C228.837 110.628 228.82 110.621 228.668 110.747C228.502 110.884 228.518 111.029 228.852 112.404C229.851 116.508 231.096 120.598 232.494 124.369C233.509 127.106 236.093 133.235 237.662 136.628C237.842 137.016 237.989 137.373 237.989 137.421C237.989 137.506 235.28 142.673 235.083 142.962C234.995 143.093 234.812 143.007 233.222 142.092C231.303 140.987 230.222 140.423 229.539 140.169C228.006 139.601 226.223 139.607 224.787 140.187C223.937 140.53 218.696 143.684 216.419 145.223C214.056 146.819 213.625 147.309 213.619 148.401C213.616 149.076 213.764 149.452 214.23 149.957C214.811 150.586 215.267 150.718 216.84 150.713C217.818 150.71 218.4 150.661 219.157 150.521C220.433 150.284 222.48 149.776 223.791 149.369C225.603 148.808 226.544 148.853 230.995 149.712C234.505 150.39 235.84 150.56 237.092 150.49C237.515 150.467 238.025 150.39 238.225 150.319C238.971 150.057 239.847 149.297 241.11 147.82C241.587 147.262 242.003 146.836 242.036 146.872C242.215 147.073 243.293 150.428 243.664 151.941C244.28 154.452 244.615 157.711 244.423 159.314L244.37 159.75L243.939 159.575C240.912 158.35 237.557 157.948 234.239 158.411C233.544 158.508 232.577 158.642 232.091 158.709C231.604 158.776 229.557 159.06 227.541 159.341C225.525 159.621 223.477 159.905 222.991 159.971C222.504 160.038 221.007 160.246 219.663 160.434C218.319 160.622 216.821 160.83 216.335 160.896C215.848 160.963 213.933 161.228 212.08 161.487C210.226 161.745 208.178 162.029 207.53 162.118C206.881 162.206 204.833 162.49 202.98 162.748C201.126 163.006 199.211 163.272 198.725 163.338C198.238 163.404 196.741 163.611 195.398 163.796C194.056 163.982 192.677 164.134 192.335 164.134C190.103 164.134 188.135 162.543 187.557 160.271C187.117 158.545 186.733 155.031 186.495 150.553C186.379 148.376 186.375 139.984 186.487 136.003C186.576 132.842 186.484 128.024 186.33 127.839C186.163 127.638 186.019 127.708 185.192 128.392C183.421 129.855 181.677 130.976 179.556 132.014C173.565 134.945 166.924 135.604 159.629 133.99C154.499 132.854 148.866 130.465 143.326 127.073C141.947 126.229 140.774 125.467 140.72 125.379C140.68 125.315 141.8 124.193 145.222 120.872C146.079 120.04 147.652 118.51 148.718 117.471C149.784 116.431 151.376 114.879 152.257 114.021C153.137 113.163 154.692 111.646 155.711 110.651C160.016 106.45 164.251 102.336 164.645 101.974L165.068 101.585L165.441 102.189C165.646 102.52 166.119 103.097 166.492 103.47C167.918 104.896 169.57 105.493 171.455 105.264C173.751 104.986 175.948 103.636 178.717 100.804C179.989 99.5033 180.926 98.4084 183.315 95.4343C184.262 94.2549 185.28 92.9914 185.578 92.6264C188.649 88.8541 193.963 86.0361 200.029 84.9636C201.368 84.7267 201.557 84.7175 201.622 84.8859ZM160.97 98.5318C162.277 100.582 163.334 102.29 163.32 102.326C163.306 102.362 160.754 104.862 157.649 107.882C154.544 110.901 151.151 114.205 150.108 115.225C147.313 117.96 145.105 120.11 144.291 120.891L143.571 121.581L142.052 120.217C141.217 119.466 139.824 118.216 138.958 117.438C138.092 116.66 137.399 115.997 137.42 115.964C137.487 115.855 158.558 94.7572 158.576 94.7807C158.585 94.7933 159.663 96.4813 160.97 98.5318ZM185.189 108.342C185.163 108.412 185.184 109.651 185.237 111.096C185.289 112.541 185.37 114.934 185.416 116.414C185.674 124.772 185.749 126.414 185.878 126.543C185.975 126.64 186.04 126.648 186.151 126.578C186.279 126.497 186.297 126.327 186.297 125.192C186.297 124.48 186.245 122.384 186.183 120.534C186.12 118.684 186.004 115.202 185.925 112.795C185.846 110.388 185.753 108.373 185.718 108.317C185.628 108.173 185.248 108.191 185.189 108.342ZM243.465 125.347C244.508 125.743 245.892 126.268 246.541 126.513C247.19 126.758 248.308 127.182 249.026 127.456C250.605 128.058 260.68 131.877 261.318 132.115L261.771 132.285L261.713 132.919C261.535 134.877 260.628 138.063 259.302 141.388C258.534 143.313 258.473 143.448 258.382 143.448C258.339 143.448 256.927 142.507 255.245 141.356C250.647 138.212 250.209 137.913 248.521 136.763C247.663 136.179 246.223 135.195 245.319 134.577C244.415 133.958 243.297 133.195 242.833 132.88C241.597 132.041 238.962 130.233 238.929 130.202C238.898 130.173 239.369 128.907 240.351 126.378C240.683 125.523 240.988 124.738 241.028 124.635C241.093 124.468 241.128 124.457 241.335 124.537C241.464 124.586 242.423 124.951 243.465 125.347ZM85.8188 129.453L86.1969 129.626L85.5426 130.066C84.5343 130.745 83.3346 131.745 82.4091 132.678L81.5681 133.526H73.5981C64.7508 133.526 65.1514 133.55 64.5516 132.969C63.9707 132.406 63.7365 131.653 63.9132 130.918C64.1073 130.111 64.7861 129.458 65.569 129.324C65.7935 129.286 70.3566 129.261 75.709 129.267C85.3432 129.279 85.4445 129.281 85.8188 129.453ZM244.564 134.825C246.257 135.984 247.732 136.99 247.841 137.062L248.04 137.192L246.931 138.849C243.751 143.6 240.995 147.206 239.363 148.752C238.494 149.574 238.254 149.709 237.419 149.847C236.483 150.001 234.341 149.752 231.29 149.133C228.429 148.553 226.319 148.274 225.423 148.357C225.114 148.385 224.411 148.542 223.862 148.705C220.748 149.628 218.388 150.091 216.791 150.091C215.279 150.091 214.684 149.839 214.359 149.062C214.19 148.659 214.193 148.131 214.366 147.767C214.584 147.309 215.316 146.716 217.261 145.427C218.984 144.285 222.984 141.847 224.339 141.113C225.358 140.561 226.066 140.379 227.204 140.379C228.769 140.379 229.437 140.647 233.05 142.725C234.143 143.354 235.091 143.868 235.155 143.868C235.219 143.868 235.309 143.821 235.355 143.763C235.436 143.661 236.292 142.074 237.272 140.211C237.54 139.702 237.863 139.097 237.989 138.865C238.116 138.634 238.477 137.953 238.79 137.352C239.103 136.751 239.464 136.069 239.591 135.838C239.718 135.607 240.021 135.039 240.263 134.577C241.207 132.78 241.307 132.611 241.395 132.665C241.445 132.695 242.871 133.667 244.564 134.825ZM123.52 139.253C123.703 139.303 123.949 139.449 124.068 139.577C124.32 139.85 125.658 142.427 126.207 143.7C126.89 145.28 127.378 147.009 127.242 147.362C127.2 147.472 119.839 151.157 119.356 151.31C119.187 151.363 119.186 151.336 119.187 146.922C119.188 142.11 119.207 141.881 119.656 140.997C120.052 140.215 120.847 139.565 121.756 139.277C122.178 139.144 123.082 139.131 123.52 139.253ZM76.9463 139.753C77.0768 139.802 77.321 139.936 77.4892 140.052L77.7948 140.261L77.6028 140.867C77.4972 141.2 77.3076 141.964 77.1816 142.565C77.0555 143.166 76.9392 143.706 76.9232 143.763C76.9001 143.846 75.5456 143.868 70.5087 143.868L64.1236 143.867L63.6889 143.618C62.9825 143.214 62.6244 142.591 62.6244 141.767C62.6244 140.911 63.0974 140.171 63.869 139.821C64.1873 139.677 64.5871 139.668 70.4585 139.666C74.6447 139.665 76.7875 139.693 76.9463 139.753ZM130.803 148.399C132.16 152.451 131.988 155.528 130.309 157.23C130.031 157.512 129.771 157.743 129.732 157.743C129.692 157.743 129.575 157.431 129.471 157.049C129.2 156.056 128.653 154.702 127.919 153.212C127.568 152.5 127.239 151.714 127.188 151.465C127.071 150.907 127.16 150.284 127.558 148.874L127.841 147.867L129.008 147.307L130.175 146.747L130.322 147.075C130.403 147.256 130.62 147.852 130.803 148.399ZM127.022 148.372C127.022 148.397 126.908 148.855 126.769 149.39C126.501 150.419 126.447 151.227 126.608 151.803C126.657 151.982 126.927 152.606 127.208 153.191C128.144 155.142 128.368 155.651 128.621 156.405C128.985 157.49 129.212 158.704 129.301 160.051C129.345 160.701 129.417 161.516 129.462 161.863C129.872 165.019 129.973 169.004 129.69 170.895C129.356 173.128 128.857 174.609 128.026 175.833C126.57 177.979 124.408 179.014 121.376 179.017C120.401 179.018 120.097 179.126 119.801 179.577C119.664 179.786 119.652 179.993 119.673 181.662C119.722 185.428 119.938 189.56 120.21 191.924C120.436 193.892 120.398 194.45 119.982 195.291C119.622 196.019 118.97 196.674 118.301 196.98C117.8 197.209 115.935 197.72 114.078 198.137C107.654 199.578 101.848 199.757 97.6159 198.644C96.08 198.241 95.3882 197.764 94.8986 196.772C94.6546 196.277 94.6248 196.139 94.6248 195.5C94.6248 194.91 94.6817 194.597 94.9451 193.732C95.8323 190.821 96.3854 186.157 96.1829 183.296C96.1338 182.604 96.1162 182.001 96.1436 181.956C96.1711 181.912 96.2854 181.876 96.3978 181.876C96.9461 181.876 99.6902 181.212 101.294 180.691C104.701 179.585 106.96 178.315 108.979 176.371C112.271 173.2 114.035 168.854 113.946 164.129L113.92 162.712L114.279 163.122C114.996 163.941 116.231 164.554 117.164 164.554C117.626 164.554 118.545 164.291 118.982 164.035C119.303 163.845 119.347 163.594 119.087 163.432C118.979 163.364 118.839 163.396 118.497 163.569C117.286 164.178 116.135 163.981 115.048 162.977C114.35 162.331 113.755 161.39 113.578 160.651C113.5 160.323 113.327 159.676 113.195 159.213C112.698 157.468 112.542 156.201 112.697 155.178C112.954 153.492 113.965 151.672 114.851 151.303C115.487 151.038 116.308 151.279 117.031 151.944C117.501 152.377 117.914 152.532 118.338 152.437C118.626 152.373 119.971 151.733 124.957 149.289C126.886 148.343 127.022 148.283 127.022 148.372ZM76.7974 150.953C76.8906 151.782 77.113 153.208 77.2769 154.025L77.331 154.295H70.2983C64.5284 154.295 63.1956 154.274 62.8755 154.178C60.8743 153.577 60.8925 150.695 62.9014 150.085C63.0175 150.05 66.1677 150.018 69.9017 150.014L76.691 150.007L76.7974 150.953ZM131.148 158.581C132.101 159.898 132.047 160.354 130.787 161.598L130.161 162.216L130.106 161.923C130.076 161.762 129.994 160.916 129.925 160.044L129.8 158.458L129.988 158.331C130.091 158.262 130.272 158.123 130.389 158.023C130.507 157.923 130.611 157.849 130.621 157.859C130.631 157.869 130.868 158.194 131.148 158.581ZM239.016 158.961C240.631 159.149 243.133 159.804 243.432 160.117C243.807 160.509 245.32 164.887 246.244 168.254C246.696 169.901 247.678 173.951 247.678 174.167C247.678 174.217 247.466 173.92 247.207 173.509C243.577 167.739 239.763 163.801 236.871 162.839C234.598 162.082 232.655 162.958 229.437 166.189C228.287 167.343 227.69 168.007 224.217 171.998C222.343 174.153 220.304 176.23 219.41 176.895C218.32 177.706 217.215 178.165 216.639 178.046C215.424 177.794 213.732 175.576 211.831 171.743C211.071 170.211 210.079 167.966 209.453 166.362C209.291 165.946 209.068 165.378 208.959 165.101C208.449 163.809 208.088 162.744 208.143 162.696C208.176 162.666 208.564 162.596 209.004 162.539C209.444 162.483 210.715 162.31 211.827 162.155C212.939 162 214.967 161.719 216.335 161.531C217.702 161.342 219.199 161.133 219.663 161.066C220.126 160.999 221.624 160.79 222.991 160.602C224.358 160.414 226.405 160.131 227.541 159.973C233.446 159.149 234.555 158.997 235.13 158.93C236.142 158.813 237.868 158.827 239.016 158.961ZM79.4971 161.043C79.7085 161.563 80.7507 163.766 81.1673 164.575C81.1852 164.61 76.8458 164.636 71.5242 164.634C63.6617 164.631 61.7895 164.61 61.5326 164.518C61.0665 164.352 60.661 164.011 60.3971 163.563C60.1936 163.218 60.1635 163.079 60.1635 162.483C60.1635 161.831 60.178 161.779 60.4788 161.343C60.7827 160.902 61.2186 160.579 61.7076 160.432C61.8316 160.395 65.8213 160.361 70.5738 160.357L79.2147 160.35L79.4971 161.043ZM203.652 163.608C203.325 165.61 202.928 167.166 202.305 168.885C200.886 172.799 198.782 176.831 195.668 181.606C195.297 182.174 194.954 182.626 194.906 182.61C194.769 182.564 194.293 181.657 194.06 180.999C193.248 178.703 192.854 175.536 192.652 169.683C192.571 167.323 192.59 164.931 192.69 164.83C192.705 164.816 193.831 164.65 195.194 164.461C196.557 164.272 198.961 163.935 200.536 163.713C202.112 163.491 203.469 163.305 203.552 163.301C203.681 163.294 203.696 163.34 203.652 163.608ZM198.538 211.559H207.156L207.129 221.082C207.099 231.457 207.132 230.704 206.632 232.244C205.979 234.25 204.381 236.293 202.469 237.563C201.44 238.247 201.297 238.313 196.375 240.398C194.215 241.313 190.779 242.772 188.74 243.64C183.68 245.794 182.747 246.169 181.938 246.377C180.294 246.8 180.159 246.809 175.063 246.85L170.233 246.888L170.287 246.525C170.367 245.983 170.192 243.883 169.956 242.545C169.053 237.432 167.571 231.636 165.826 226.4C164.133 221.315 162.469 217.307 160.298 213.079L159.46 211.447L174.69 211.503C183.066 211.533 193.798 211.559 198.538 211.559ZM212.543 222.133C212.542 233.576 212.548 233.421 212.084 234.809C211.571 236.347 210.723 237.666 209.473 238.872C208.357 239.949 207.325 240.602 205.592 241.326C205.128 241.52 203.612 242.163 202.221 242.754C200.831 243.346 198.025 244.538 195.986 245.403C193.947 246.269 191.047 247.5 189.541 248.14C182.395 251.174 182.754 251.03 181.585 251.335C180.145 251.712 179.494 251.749 174.352 251.751L169.484 251.752L169.526 251.563C169.549 251.459 169.644 251.033 169.736 250.617C169.937 249.71 170.13 248.61 170.204 247.947L170.258 247.464H174.783C179.259 247.464 180.051 247.427 181.365 247.158C182.653 246.894 183.411 246.6 189.456 244.014C190.082 243.747 191.731 243.047 193.122 242.458C194.512 241.87 196.806 240.899 198.219 240.301C201.349 238.975 202.095 238.61 203.036 237.937C205.481 236.192 207.009 233.906 207.57 231.157C207.735 230.353 207.74 230.019 207.74 220.998C207.74 215.868 207.766 211.646 207.796 211.615C207.827 211.584 208.908 211.559 210.198 211.559H212.543L212.543 222.133ZM227.836 220.311C225.5 220.71 223.376 222.477 222.527 224.727C222.063 225.958 221.92 228.02 222.198 229.481C222.642 231.818 224.188 233.763 226.325 234.673L226.903 234.919L224.462 234.955C221.839 234.994 221.624 235.025 220.674 235.501C219.613 236.033 218.747 236.964 218.287 238.065C217.877 239.049 217.836 239.657 217.87 244.273C217.9 248.336 217.905 248.444 218.093 249.02C218.649 250.716 220.02 252.031 221.684 252.463C222.131 252.579 226.014 252.593 258.273 252.593C288.752 252.593 294.405 252.575 294.64 252.477C295.202 252.243 295.552 251.49 295.374 250.898C295.251 250.49 294.901 250.078 294.553 249.933C294.402 249.87 294.012 249.818 293.687 249.818C293.111 249.818 293.095 249.812 293.043 249.587C293.014 249.46 292.938 249.167 292.875 248.935C292.012 245.793 292.065 241.903 293.02 238.361L293.196 237.71L293.839 237.709C294.333 237.709 294.547 237.67 294.758 237.542C295.076 237.348 295.345 236.946 295.42 236.55C295.477 236.247 295.275 235.607 295.069 235.436C295.001 235.38 294.947 235.302 294.947 235.261C294.947 235.22 295.687 235.187 296.593 235.187H298.239L298.589 234.861C298.918 234.555 298.942 234.502 298.973 233.999C299.001 233.543 298.977 233.421 298.809 233.178C298.524 232.764 298.124 232.58 297.507 232.58H296.988L296.781 232.139C296.094 230.68 295.771 229.245 295.771 227.661C295.771 226.048 296.021 224.933 296.724 223.41L296.986 222.843L297.645 222.813C298.208 222.788 298.337 222.753 298.529 222.574C299.239 221.912 299.129 220.775 298.315 220.367C298.037 220.228 296.192 220.22 263.139 220.23C243.954 220.235 228.067 220.272 227.836 220.311ZM296.21 222.909C296.21 222.955 296.077 223.314 295.914 223.706C295.752 224.099 295.516 224.828 295.391 225.326C295.186 226.143 295.165 226.376 295.169 227.703C295.173 229.063 295.193 229.249 295.428 230.143C295.569 230.675 295.802 231.407 295.947 231.768C296.092 232.129 296.21 232.46 296.21 232.503C296.21 232.55 289.53 232.58 279.127 232.579C260.204 232.578 261.443 232.615 260.474 232.027C259.926 231.695 259.335 231.067 259.068 230.532C258.688 229.774 258.614 229.23 258.649 227.462C258.678 226.006 258.704 225.757 258.867 225.351C259.397 224.03 260.526 223.117 261.918 222.884C262.398 222.804 296.21 222.829 296.21 222.909ZM262.985 225.657C262.869 225.773 262.935 226.103 263.092 226.187C263.267 226.281 291.879 226.315 292.227 226.222C292.453 226.161 292.555 225.891 292.416 225.723C292.327 225.617 290.37 225.601 277.678 225.601C269.628 225.601 263.016 225.626 262.985 225.657ZM294.556 235.829C294.867 236.14 294.858 236.55 294.532 236.875L294.286 237.121H265.776C234.555 237.121 236.815 237.085 235.867 237.6C235.298 237.909 234.659 238.615 234.34 239.286L234.071 239.854V243.806V247.758L234.332 248.305C234.862 249.416 235.901 250.213 237.065 250.402C237.437 250.462 246.607 250.49 265.987 250.49L294.365 250.491L294.572 250.714C294.866 251.03 294.85 251.441 294.532 251.759L294.286 252.005H258.39C232.671 252.005 222.367 251.978 222.047 251.912C221.274 251.753 220.413 251.285 219.842 250.715C219.258 250.131 218.749 249.207 218.61 248.478C218.56 248.212 218.525 246.278 218.525 243.728C218.525 239.025 218.532 238.948 219.027 237.969C219.545 236.945 220.663 236.043 221.805 235.729C222.112 235.644 229.52 235.621 258.262 235.615L294.334 235.608L294.556 235.829ZM292.502 237.773C292.501 237.807 292.425 238.12 292.333 238.467C292.241 238.813 292.068 239.646 291.948 240.316C291.68 241.814 291.582 244.491 291.737 246.076C291.835 247.068 292.176 248.94 292.337 249.362C292.382 249.48 292.419 249.632 292.419 249.698C292.419 249.804 288.792 249.817 264.635 249.798L236.851 249.776L236.43 249.57C235.804 249.265 235.186 248.641 234.903 248.029L234.66 247.506L234.632 244.142C234.613 241.816 234.635 240.603 234.704 240.209C234.918 238.983 235.928 238.013 237.219 237.795C237.719 237.711 292.504 237.689 292.502 237.773ZM239.944 241.51C239.799 241.655 239.818 241.971 239.976 242.031C240.049 242.059 250.814 242.082 263.899 242.082C285.693 242.082 287.7 242.071 287.825 241.946C287.944 241.828 287.946 241.788 287.841 241.631L287.722 241.452L263.883 241.43C245.412 241.414 240.022 241.432 239.944 241.51ZM239.875 245.567C239.849 245.634 239.841 245.757 239.857 245.84C239.886 245.986 240.658 245.993 259.57 246.014C280.828 246.036 279.544 246.062 279.402 245.618L279.348 245.446H259.634C242.544 245.446 239.915 245.462 239.875 245.567ZM170.366 256.188C171.01 257.703 171.681 259.282 171.856 259.699C172.032 260.115 172.683 261.644 173.304 263.097L174.432 265.738L175.11 266.508C179.877 271.929 192.761 276.476 212.374 279.662C214.362 279.985 217.887 280.508 219.199 280.674C219.547 280.719 220.553 280.849 221.435 280.964C227.292 281.731 234.833 282.454 240.811 282.823C243.681 283 244.242 282.99 245.233 282.739C246.751 282.355 247.293 282.263 247.989 282.272C248.507 282.278 248.696 282.25 248.747 282.159C248.856 281.968 250.903 281.823 252.649 281.883C254.357 281.942 255.586 282.128 257.241 282.58L258.421 282.902L262.252 282.881C267.081 282.854 268.221 282.964 269.475 283.581C270.506 284.087 270.935 284.779 270.931 285.928C270.929 286.649 270.859 286.975 270.415 288.33C269.666 290.618 268.944 291.603 266.72 293.37C265.58 294.277 264.719 294.8 263.561 295.292C260.911 296.418 258.884 297 256.738 297.252C255.651 297.38 253.698 297.3 252.634 297.084C250.818 296.716 248.761 295.864 246.946 294.73C244.752 293.358 243.862 293.129 241.328 293.286C238.159 293.481 220.475 293.992 206.308 294.298C204.153 294.344 200.911 294.421 199.104 294.468C192.147 294.65 184.022 294.817 182.126 294.816C176.731 294.815 171.673 293.6 166.838 291.145C163.71 289.557 160.945 287.544 158.358 284.97C155.546 282.174 153.686 279.568 151.541 275.423C151.062 274.498 150.569 273.552 150.444 273.321C150.036 272.561 148.086 268.766 148.086 268.73C148.086 268.711 148.702 268.709 149.455 268.724C150.931 268.755 152.21 268.649 153.475 268.392C158.794 267.311 163.444 264.135 166.45 259.53C167.46 257.983 168.664 255.3 169 253.847C169.052 253.62 169.118 253.434 169.145 253.434C169.173 253.434 169.722 254.673 170.366 256.188ZM237.527 264.857C238.638 265.589 239.626 266.28 239.723 266.391C239.82 266.503 239.999 266.769 240.122 266.984C240.534 267.706 241.092 268.044 242.051 268.15C242.578 268.209 242.694 268.264 243.778 268.975C244.417 269.395 246.532 270.777 248.479 272.048C255.915 276.904 259.054 278.955 260.275 279.754C260.97 280.21 262.079 280.934 262.739 281.363C263.4 281.793 263.94 282.172 263.94 282.205C263.94 282.291 260.673 282.33 259.302 282.26C258.674 282.228 257.992 282.145 257.785 282.076C257.199 281.88 256.145 281.633 255.177 281.464C253.992 281.256 249.857 281.248 248.563 281.45L247.72 281.582L247.004 281.203C246.61 280.996 246.061 280.703 245.782 280.553C245.504 280.403 244.784 280.023 244.182 279.708C238.592 276.783 238.027 276.469 237.706 276.117C237.528 275.92 237.272 275.637 237.137 275.488C236.772 275.082 236.424 274.941 235.602 274.865C234.786 274.79 234.985 274.879 231.565 273.052L230.238 272.343L230.385 272.066C230.987 270.931 235.353 263.528 235.421 263.526C235.468 263.525 236.416 264.124 237.527 264.857ZM225.316 266.092C226.563 266.865 227.931 267.711 228.357 267.971C228.782 268.231 229.149 268.511 229.171 268.592C229.208 268.731 229.034 268.99 228.902 268.99C228.816 268.99 227.893 268.435 225.098 266.701C223.459 265.685 222.603 265.105 222.582 265C222.549 264.827 222.799 264.591 222.954 264.65C223.006 264.67 224.068 265.319 225.316 266.092ZM240.04 269.055C239.987 269.089 239.331 270.136 238.583 271.382C237.156 273.757 237.025 274.077 237.483 274.077C237.669 274.077 237.858 273.803 239.105 271.724C239.881 270.429 240.516 269.344 240.516 269.312C240.516 269.237 240.268 268.99 240.194 268.991C240.163 268.992 240.094 269.021 240.04 269.055ZM243.154 271.23C243.125 271.306 243.136 271.423 243.179 271.49C243.32 271.714 253.189 277.908 253.366 277.884C253.49 277.867 253.534 277.798 253.534 277.617C253.534 277.386 253.27 277.206 248.576 274.233C245.553 272.318 243.537 271.092 243.412 271.092C243.3 271.092 243.184 271.154 243.154 271.23ZM258.381 276.561C259.279 276.67 260.43 276.993 261.228 277.361C262.993 278.175 264.375 279.597 265.065 281.31C265.372 282.072 265.4 282.192 265.272 282.192C265.211 282.192 264.327 281.647 263.307 280.98C262.288 280.314 260.905 279.41 260.233 278.971C257.199 276.991 256.778 276.706 256.778 276.639C256.778 276.599 256.977 276.553 257.22 276.536C257.464 276.519 257.664 276.498 257.665 276.49C257.666 276.481 257.988 276.513 258.381 276.561ZM272.998 288.065C273.739 288.548 274.718 289.186 275.173 289.482C275.628 289.778 275.988 290.047 275.972 290.079C275.957 290.112 275.547 290.914 275.062 291.862C273.99 293.955 273.995 293.944 274.158 294.107C274.43 294.379 274.596 294.165 275.533 292.324C276.038 291.332 276.475 290.519 276.502 290.518C276.53 290.517 276.931 290.942 277.393 291.463C278.255 292.432 278.821 293.065 281.157 295.67C281.894 296.493 282.484 297.178 282.466 297.191C282.449 297.205 281.392 296.978 280.117 296.686C278.843 296.395 277.023 295.98 276.073 295.764C273.662 295.217 273.461 295.146 271.654 294.198C269.41 293.019 268.793 292.689 268.727 292.629C268.695 292.6 268.95 292.24 269.293 291.829C269.889 291.115 270.544 289.996 270.761 289.318C270.817 289.145 270.881 289.003 270.904 289.003C270.927 289.003 271.593 289.406 272.383 289.899C273.879 290.832 274.054 290.887 274.12 290.447C274.141 290.304 273.998 290.175 273.378 289.783C272.956 289.516 272.299 289.099 271.919 288.857C271.539 288.614 271.194 288.404 271.153 288.39C271.111 288.376 271.136 288.177 271.208 287.948C271.28 287.719 271.363 287.426 271.392 287.297C271.426 287.141 271.478 287.083 271.547 287.124C271.603 287.159 272.256 287.582 272.998 288.065Z" fill="#181818"/>
</svg>
