<svg width="14" height="13" viewBox="0 0 14 13" fill="none" xmlns="http://www.w3.org/2000/svg">
<path d="M5.14286 1.07052C5.10497 1.07052 5.06863 1.08557 5.04184 1.11236C5.01505 1.13915 5 1.17549 5 1.21338V4.07166C5 4.18533 4.95485 4.29434 4.87448 4.37471C4.7941 4.45508 4.68509 4.50024 4.57143 4.50024H1.71429C1.6764 4.50024 1.64006 4.51529 1.61327 4.54208C1.58648 4.56887 1.57143 4.60521 1.57143 4.64309V8.35738C1.57143 8.43624 1.63543 8.50024 1.71429 8.50024H4.57143C4.68509 8.50024 4.7941 8.54539 4.87448 8.62576C4.95485 8.70613 5 8.81514 5 8.92881V11.7865C5 11.8654 5.064 11.9294 5.14286 11.9294H8.85714C8.89503 11.9294 8.93137 11.9143 8.95816 11.8875C8.98495 11.8607 9 11.8244 9 11.7865V8.92881C9 8.81514 9.04515 8.70613 9.12553 8.62576C9.2059 8.54539 9.31491 8.50024 9.42857 8.50024H12.2857C12.3236 8.50024 12.3599 8.48519 12.3867 8.4584C12.4135 8.4316 12.4286 8.39527 12.4286 8.35738V4.64309C12.4286 4.60521 12.4135 4.56887 12.3867 4.54208C12.3599 4.51529 12.3236 4.50024 12.2857 4.50024H9.42857C9.31491 4.50024 9.2059 4.45508 9.12553 4.37471C9.04515 4.29434 9 4.18533 9 4.07166V1.21395C9 1.17606 8.98495 1.13973 8.95816 1.11294C8.93137 1.08614 8.89503 1.07109 8.85714 1.07109H5.14286V1.07052ZM4.14286 1.21338C4.14286 0.661379 4.59086 0.213379 5.14286 0.213379H8.85714C9.40914 0.213379 9.85714 0.661379 9.85714 1.21338V3.64309H12.2857C12.8377 3.64309 13.2857 4.09052 13.2857 4.64309V8.35738C13.2857 8.6226 13.1804 8.87695 12.9928 9.06449C12.8053 9.25202 12.5509 9.35738 12.2857 9.35738H9.85714V11.7865C9.85714 12.0517 9.75179 12.3061 9.56425 12.4936C9.37671 12.6812 9.12236 12.7865 8.85714 12.7865H5.14286C4.87764 12.7865 4.62329 12.6812 4.43575 12.4936C4.24821 12.3061 4.14286 12.0517 4.14286 11.7865V9.35738H1.71429C1.44907 9.35738 1.19472 9.25202 1.00718 9.06449C0.819644 8.87695 0.714287 8.6226 0.714287 8.35738V4.64309C0.714287 4.09109 1.16229 3.64309 1.71429 3.64309H4.14286V1.21395V1.21338Z" fill="#909090"/>
</svg>
