<svg width="70" height="71" viewBox="0 0 70 71" fill="none" xmlns="http://www.w3.org/2000/svg">
<path fill-rule="evenodd" clip-rule="evenodd" d="M25.1413 5.57816C18.4032 6.42715 12.538 10.024 8.81834 15.5884C2.49461 25.0483 4.1757 37.7582 12.7487 45.303C17.4147 49.4094 23.9018 51.4921 29.9676 50.8311C33.5561 50.4402 37.1543 49.1968 40.0097 47.361L40.9147 46.7792L41.7151 47.5799C42.4606 48.3256 42.5023 48.3956 42.3227 48.6001C42.026 48.9379 41.9479 49.3349 42.0923 49.7723C42.1843 50.0518 44.3875 52.3296 49.4694 57.3999C57.3697 65.282 57.2002 65.1377 58.9061 65.43C61.4503 65.8659 64.0845 64.2219 64.8029 61.75C65.2265 60.2924 64.9512 58.4672 64.1309 57.2934C63.9302 57.0063 60.555 53.5648 56.6304 49.6455C49.687 42.7114 49.4823 42.5195 49.027 42.5195C48.7697 42.5195 48.3991 42.6141 48.2035 42.7297L47.8479 42.9398L47.0656 42.1643L46.2834 41.3887L46.8949 40.4555C48.2517 38.3848 49.4403 35.4586 50.0033 32.8024C50.2543 31.6184 50.3292 30.8529 50.3817 28.9366C50.4961 24.7543 49.8774 21.7799 48.156 18.2363C44.9393 11.6147 38.8703 7.05925 31.5221 5.75065C30.2263 5.51993 26.4203 5.41704 25.1413 5.57816ZM29.3336 6.31363C32.2486 6.54863 34.626 7.17718 37.1553 8.38131C47.1648 13.1466 52.0136 24.5076 48.5653 35.1155C48.0701 36.6388 46.8864 39.0498 45.9515 40.4399C42.4878 45.5889 37.0857 48.9873 30.8764 49.9236C29.3426 50.1549 26.1193 50.1549 24.5855 49.9236C18.7946 49.0505 13.6739 46.0207 10.2108 41.4185C5.19015 34.7466 4.38165 25.8539 8.11733 18.3921C11.5474 11.5408 18.3236 6.9401 25.8965 6.32072C27.6757 6.17515 27.6184 6.17527 29.3336 6.31363ZM25.3461 8.46927C22.3172 8.86184 19.0408 10.115 16.4815 11.8598C15.082 12.8137 12.963 14.8551 11.8965 16.2765C6.48797 23.4854 6.5611 33.3019 12.0761 40.3787C14.9543 44.072 19.0503 46.6165 23.8303 47.6806C24.8732 47.9128 25.4119 47.9502 27.7309 47.9524C30.0584 47.9545 30.5889 47.9183 31.6625 47.6841C40.443 45.7687 46.6969 38.72 47.5057 29.8274C47.8274 26.2917 47.1585 22.78 45.5309 19.4596C42.8198 13.9292 37.8577 10.0683 31.7667 8.7504C30.8 8.54121 30.0441 8.4782 28.159 8.44982C26.8473 8.43 25.5816 8.43881 25.3461 8.46927ZM29.723 9.25123C33.9314 9.70766 37.7883 11.4914 40.7848 14.3671C44.0358 17.487 45.9431 21.1295 46.5759 25.4267C46.844 27.2471 46.7553 30.4446 46.3907 32.1027C45.0584 38.163 40.9731 43.1861 35.3709 45.6524C32.8807 46.7486 30.5885 47.2166 27.7309 47.2121C25.6343 47.2088 24.1081 47.0034 22.4163 46.497C19.1388 45.5157 16.6291 43.9957 14.156 41.4946C11.5756 38.885 9.99899 36.0015 9.12567 32.2952C8.80476 30.9336 8.78189 30.662 8.78189 28.2065C8.78189 25.7514 8.80488 25.4786 9.12628 24.1083C9.70352 21.6477 10.6132 19.5592 12.0328 17.4346C12.9325 16.0881 15.0682 13.8746 16.4252 12.8821C20.3081 10.0425 25.0587 8.74526 29.723 9.25123ZM15.2744 16.1995C14.7806 16.7055 14.7178 17.0988 15.1187 17.176C15.4303 17.2361 16.3165 16.3582 16.2703 16.0355C16.2093 15.6103 15.7807 15.681 15.2744 16.1995ZM25.0404 18.0408C24.0716 18.4909 23.6235 19.1199 23.5229 20.1711L23.4505 20.9276L20.2528 20.9888C17.3824 21.0437 17.03 21.0727 16.8091 21.2729C16.2957 21.7382 16.2866 21.8793 16.3227 28.8839L16.3573 35.6077L16.6769 36.2805C17.0833 37.1364 17.7642 37.8175 18.6198 38.224L19.2925 38.5437H27.7309H36.1694L36.8526 38.2232C37.6847 37.8329 38.3211 37.2166 38.7682 36.3682L39.1045 35.73L39.14 28.9471C39.1778 21.7232 39.176 21.6964 38.5823 21.2293C38.2968 21.0046 38.0737 20.9888 35.1926 20.9888H32.1087L31.9744 20.1783C31.798 19.1141 31.408 18.5372 30.5891 18.129C29.9652 17.8179 29.8777 17.8082 27.7375 17.8108C25.8467 17.8131 25.4593 17.8462 25.0404 18.0408ZM13.2337 18.7941C12.5839 19.7515 11.4952 22.0199 11.5497 22.3031C11.6012 22.5702 12.1328 22.5933 12.2692 22.3345C12.3224 22.2335 12.5854 21.683 12.8539 21.1111C13.1223 20.5392 13.5692 19.7209 13.8471 19.2929C14.3886 18.4579 14.4321 18.1363 14.0113 18.0761C13.8058 18.0467 13.6326 18.2067 13.2337 18.7941ZM30.4898 18.9951C30.9514 19.3835 31.2164 19.9532 31.2164 20.5567V20.9888H27.7309H24.2455L24.2457 20.53C24.246 19.9147 24.5828 19.2804 25.0891 18.9421C25.4842 18.678 25.6172 18.6644 27.8008 18.6644H30.097L30.4898 18.9951ZM38.1334 21.8969C38.3431 22.0506 38.3695 22.2182 38.3607 23.3343C38.349 24.7997 38.1092 25.5065 37.3558 26.2944C36.8304 26.8438 35.848 27.3472 35.2976 27.3489C34.9861 27.3499 34.8863 27.281 34.761 26.9783C34.5279 26.4156 34.1993 26.2491 33.3214 26.2491C32.3868 26.2491 32.107 26.3814 31.877 26.9318L31.7023 27.3501H27.8648H24.0274L23.9515 27.0477C23.8014 26.4494 23.4274 26.2491 22.4599 26.2491C21.6238 26.2491 21.5598 26.2692 21.2601 26.6256C21.0859 26.8326 20.9435 27.0803 20.9435 27.1761C20.9435 27.4612 19.8783 27.3928 19.1702 27.0623C18.5294 26.7632 17.8053 26.0552 17.4389 25.3696C17.2772 25.067 17.2102 24.5953 17.1739 23.505C17.1305 22.206 17.1494 22.0274 17.3455 21.884C17.6861 21.6348 37.793 21.6473 38.1334 21.8969ZM18.8946 27.7809C19.2812 27.9574 19.9003 28.133 20.2705 28.1713L20.9435 28.2407V28.7835C20.9435 29.2204 21.0133 29.3962 21.3009 29.6839C21.6244 30.0075 21.7358 30.0415 22.4722 30.0415C23.2085 30.0415 23.3199 30.0075 23.6434 29.6839C23.9344 29.3929 24.0009 29.2221 24.0009 28.7664V28.2065H27.8532H31.7056V28.5856C31.7056 29.1168 32.0281 29.7374 32.3898 29.9022C32.8191 30.0979 33.8532 30.0755 34.2666 29.8617C34.6339 29.6718 34.8853 29.1407 34.8853 28.5553C34.8853 28.2944 34.9438 28.2065 35.1171 28.2065C35.2445 28.2065 35.7092 28.0952 36.1497 27.959C36.7478 27.7743 37.1195 27.5571 37.6168 27.1027C37.9831 26.7678 38.3205 26.4938 38.3667 26.4938C38.4128 26.4938 38.4312 28.4894 38.4073 30.9284C38.3684 34.8983 38.3404 35.4176 38.1396 35.8839C37.8631 36.526 36.8543 37.4549 36.2512 37.6225C35.5804 37.8088 19.8341 37.7924 19.2077 37.6047C18.5775 37.4158 17.7261 36.6551 17.4071 35.9958C17.163 35.4913 17.1523 35.2797 17.1523 30.9561V26.4429L17.672 26.9515C17.9579 27.2312 18.508 27.6045 18.8946 27.7809ZM23.1203 27.1299C23.2722 27.2819 23.3254 28.6462 23.1929 28.9916C23.1381 29.1344 22.9489 29.1852 22.4722 29.1852C21.9955 29.1852 21.8063 29.1344 21.7515 28.9916C21.6189 28.6462 21.6721 27.2819 21.824 27.1299C21.9047 27.0492 22.1964 26.9831 22.4722 26.9831C22.7479 26.9831 23.0396 27.0492 23.1203 27.1299ZM33.9681 28.0842V29.124H33.2954H32.6228L32.5865 28.218C32.5372 26.9885 32.5529 26.9628 33.3247 27.0072L33.9681 27.0443V28.0842ZM47.2373 43.5569C47.2373 43.627 46.3017 44.619 45.1581 45.7615L43.0791 47.8385L42.3147 47.0711L41.5505 46.3038L42.1008 45.8531C43.0253 45.0963 44.5351 43.6016 45.1935 42.7917L45.8175 42.024L46.5274 42.7267C46.9178 43.1132 47.2373 43.4867 47.2373 43.5569ZM56.362 50.5018C64.5716 58.7387 64.1591 58.2265 64.1695 60.1968C64.1747 61.1584 64.1309 61.3942 63.8239 62.0589C63.4108 62.9537 62.4427 63.9327 61.5767 64.3315C61.1024 64.55 60.7709 64.5993 59.7727 64.5999C57.6802 64.6014 58.2507 65.055 50.0195 56.8462C45.2752 52.1148 42.8346 49.5973 42.8346 49.4347C42.8346 49.1427 48.6619 43.2535 48.9509 43.2535C49.0536 43.2535 52.3885 46.5153 56.362 50.5018Z" fill="#909090"/>
</svg>
