<svg width="70" height="71" viewBox="0 0 70 71" fill="none" xmlns="http://www.w3.org/2000/svg">
<g clip-path="url(#clip0_292_9244)">
<path fill-rule="evenodd" clip-rule="evenodd" d="M15.3153 0.657237C14.0212 1.07442 13.1029 1.83785 12.4744 3.01916L12 3.91067V35.0163V66.122L12.3679 66.8322C12.8607 67.7834 13.7198 68.6326 14.671 69.1086L15.4535 69.5H35H54.5465L55.329 69.1086C56.2802 68.6326 57.1393 67.7834 57.6321 66.8322L58 66.122V35.0163V3.91067L57.5256 3.01916C57.0026 2.03644 56.2629 1.33917 55.2262 0.852035L54.5465 0.532674L35.2072 0.505932C19.933 0.484819 15.7517 0.516629 15.3153 0.657237ZM54.9057 1.69625C55.7298 2.10991 56.5124 2.90445 56.8791 3.69954L57.1712 4.33291L57.2069 34.7296C57.2383 61.312 57.2169 65.2169 57.0369 65.8475C56.7702 66.7825 55.8765 67.8203 54.9662 68.2521L54.2703 68.5823H35H15.7297L15.0338 68.2521C14.1342 67.8254 13.2351 66.7872 12.9663 65.8647C12.7857 65.2451 12.7603 61.3582 12.7643 34.9555C12.7685 6.4999 12.7828 4.71378 13.0119 4.03861C13.1456 3.64437 13.4078 3.12979 13.5945 2.89488C14.1037 2.25432 15.1127 1.59899 15.8052 1.45909C16.1464 1.39012 24.851 1.34424 35.3453 1.35592L54.2703 1.37717L54.9057 1.69625ZM33.2713 5.86582C30.2367 6.45612 27.7149 8.40128 26.3843 11.1779C25 14.0666 24.9924 16.9244 26.3611 19.8154C27.4241 22.0606 29.3182 23.7887 31.716 24.7011C32.6965 25.0742 33.0944 25.1449 34.5165 25.1986C36.534 25.2751 37.6071 25.0551 39.2511 24.2279C42.2926 22.6979 44.3365 19.4924 44.4998 15.9961C44.6862 12.0026 42.6839 8.54231 39.1321 6.71961C37.4066 5.83401 35.1351 5.50311 33.2713 5.86582ZM37.1396 6.93636C38.6415 7.32779 39.8536 8.05813 41.0911 9.31756C43.5912 11.8619 44.3419 15.6255 42.995 18.8638L42.7468 19.4605L42.3614 19.0954C41.5053 18.2846 39.5034 17.5549 38.5953 17.7228C38.2161 17.7929 37.7639 18.1576 36.5567 19.3668L35.0051 20.9207L33.5059 19.431C31.8172 17.7531 31.4308 17.5566 30.2627 17.7824C29.3456 17.9596 28.2698 18.4695 27.6575 19.0173L27.1655 19.4574L26.9342 18.9327C26.2853 17.4596 26.0959 14.9851 26.5057 13.3353C27.2683 10.2659 29.8765 7.61745 32.8605 6.88245C34.0832 6.58125 35.8631 6.60377 37.1396 6.93636ZM33.7442 8.41381C32.968 8.66772 31.9166 9.58541 31.5062 10.3671C31.0432 11.2492 31.0834 13.1464 31.5919 14.3982C32.8685 17.542 35.3054 18.4187 37.1101 16.3835C38.5576 14.7509 39.1378 12.1244 38.404 10.5259C37.5797 8.73022 35.5662 7.81759 33.7442 8.41381ZM36.2274 9.46197C36.9377 9.83116 37.5785 10.606 37.7755 11.3334C38.254 13.1016 36.6977 16.3025 35.2223 16.5845C33.3428 16.9438 31.3001 12.8514 32.3388 10.8074C32.8876 9.72714 33.7208 9.20271 34.9019 9.19441C35.4302 9.19075 35.8801 9.28153 36.2274 9.46197ZM14.8412 11.1415C14.6302 11.5431 14.6592 12.4656 14.8928 12.7862C15.0523 13.0049 15.1417 13.0283 15.3417 12.9033C15.5408 12.779 15.5916 12.5641 15.5916 11.8477C15.5916 11.0303 15.5641 10.9442 15.2902 10.9044C15.0998 10.8768 14.9343 10.9642 14.8412 11.1415ZM14.8412 14.6603C14.6509 15.0226 14.6471 18.6897 14.8367 19.0505C15.0348 19.4275 15.4985 19.4003 15.5941 19.0061C15.6362 18.8318 15.6529 17.7393 15.6312 16.5781C15.5928 14.5297 15.5826 14.4656 15.2902 14.4231C15.0998 14.3955 14.9343 14.4829 14.8412 14.6603ZM32.997 20.308C33.9276 21.2369 34.8025 21.997 34.9413 21.997C35.0801 21.997 35.9572 21.2279 36.8901 20.2882L38.5866 18.5792L39.2712 18.6618C40.2081 18.7748 41.2277 19.2466 41.7719 19.8188L42.2259 20.2959L41.6335 21.0783C40.5047 22.5691 38.5546 23.7803 36.5984 24.2054C34.7194 24.6138 32.3327 24.2056 30.6172 23.1825C29.843 22.7209 28.6311 21.5928 28.0714 20.813C27.6919 20.2842 27.6859 20.2517 27.9192 19.9885C28.5407 19.2878 29.94 18.6339 30.8387 18.6241C31.2511 18.6196 31.501 18.8145 32.997 20.308ZM17.2302 30.3716C17.0144 30.9444 17.2191 31.005 19.3713 31.005C21.0764 31.005 21.4467 30.9685 21.5125 30.7938C21.7281 30.221 21.5234 30.1605 19.3713 30.1605C17.6662 30.1605 17.2959 30.1969 17.2302 30.3716ZM25.1042 30.3709C25.0604 30.4874 25.0604 30.678 25.1042 30.7945C25.1746 30.9815 26.8016 31.0022 38.9673 30.9705L52.7508 30.9346V30.5827V30.2308L38.9673 30.195C26.8016 30.1633 25.1746 30.184 25.1042 30.3709ZM17.2302 36.1423C17.0155 36.7121 17.2236 36.7757 19.3 36.7757C20.8932 36.7757 21.3245 36.7339 21.4609 36.5664C21.5547 36.4513 21.5955 36.2613 21.5513 36.1442C21.4326 35.8287 17.3488 35.8271 17.2302 36.1423ZM25.1042 36.1416C25.0604 36.2582 25.0604 36.4487 25.1042 36.5653C25.1746 36.7522 26.8016 36.7729 38.9673 36.7412L52.7508 36.7053V36.3535V36.0016L38.9673 35.9657C26.8016 35.934 25.1746 35.9547 25.1042 36.1416ZM17.3459 41.7301C17.0774 42.0037 17.1528 42.3935 17.491 42.4787C17.662 42.522 18.6033 42.539 19.5828 42.5166C21.1265 42.4814 21.3841 42.4421 21.5168 42.2215C21.6391 42.0178 21.6161 41.9264 21.4015 41.764C21.0514 41.4991 17.6009 41.4703 17.3459 41.7301ZM25.2198 41.7301C24.9858 41.9685 25.014 42.36 25.2726 42.461C25.5581 42.5726 52.3158 42.5726 52.6013 42.461C52.8599 42.36 52.8881 41.9685 52.6541 41.7301C52.4137 41.4852 25.4602 41.4852 25.2198 41.7301ZM17.3529 47.4233C17.1335 47.5159 17.1296 47.9279 17.3459 48.1483C17.6009 48.4081 21.0514 48.3792 21.4015 48.1144C21.6161 47.9519 21.6391 47.8606 21.5168 47.6569C21.3823 47.4331 21.1311 47.3992 19.4447 47.3763C18.3892 47.3621 17.4479 47.3832 17.3529 47.4233ZM25.2267 47.4251C25.0074 47.5153 25.0034 47.9277 25.2198 48.1483C25.4602 48.3932 52.4137 48.3932 52.6541 48.1483C52.8881 47.9098 52.8599 47.5184 52.6013 47.4174C52.3401 47.3152 25.4755 47.3228 25.2267 47.4251ZM17.2302 53.3138C17.1864 53.4299 17.1864 53.6199 17.2302 53.736C17.3488 54.0513 21.4326 54.0496 21.5513 53.7342C21.5955 53.6171 21.5547 53.4271 21.4609 53.312C21.2086 53.002 17.3469 53.0037 17.2302 53.3138ZM25.1042 53.3131C25.0604 53.4296 25.0604 53.6202 25.1042 53.7367C25.1746 53.9237 26.8016 53.9444 38.9673 53.9127L52.7508 53.8768V53.5249V53.173L38.9673 53.1372C26.8016 53.1055 25.1746 53.1262 25.1042 53.3131ZM33.5618 59.3065C33.2158 59.7254 33.2042 59.8011 33.2042 61.6352C33.2042 63.4459 33.219 63.546 33.5341 63.8671C33.7156 64.052 34.073 64.2422 34.3284 64.2899C34.5838 64.3374 38.077 64.3576 42.091 64.3343L49.3892 64.2923L49.8026 63.8208L50.2161 63.3491L50.1712 61.4507C50.1265 59.5691 50.1227 59.549 49.7385 59.2128L49.3509 58.8734H41.6352H33.9195L33.5618 59.3065ZM49.1592 61.5476V63.307L41.7085 63.3435C35.8397 63.3722 34.2346 63.3422 34.1477 63.2027C33.9653 62.9101 34.01 60.0792 34.2 59.8855C34.3273 59.7559 36.1254 59.7241 41.7631 59.7518L49.1592 59.7883V61.5476Z" fill="#7A7A7A"/>
</g>
<defs>
<clipPath id="clip0_292_9244">
<rect width="70" height="70" fill="white" transform="translate(0 0.5)"/>
</clipPath>
</defs>
</svg>
