<svg width="70" height="71" viewBox="0 0 70 71" fill="none" xmlns="http://www.w3.org/2000/svg">
<path fill-rule="evenodd" clip-rule="evenodd" d="M19.8532 5.61635C19.283 5.75129 18.783 6.11919 18.3961 6.68889C18.103 7.1203 18.0945 7.22798 18.0945 10.5288C18.0945 12.3967 18.0474 13.954 17.9899 13.9898C17.9323 14.0253 15.2763 14.6928 12.0877 15.4728C8.89907 16.2529 6.17453 16.9531 6.03315 17.0289C5.56985 17.2773 5.06421 18.0829 5.00042 18.6745C4.92202 19.4009 15.8152 64.0284 16.2006 64.5601C16.6299 65.1522 17.276 65.5 17.9469 65.5C18.2953 65.5 23.6929 64.2431 30.357 62.6101C36.8433 61.0208 44.0199 59.2625 46.3048 58.7029C49.0681 58.0261 50.6205 57.5815 50.941 57.3753C51.5005 57.0149 51.8665 56.3312 51.8665 55.6463C51.8665 54.9851 49.3564 44.8012 49.1399 44.5844C48.9467 44.3908 48.5728 44.481 48.4715 44.7457C48.4354 44.8395 48.9735 47.2302 49.6671 50.0583C50.3608 52.8862 50.9284 55.3765 50.9284 55.5923C50.9284 56.0855 50.7346 56.4547 50.3743 56.6479C50.1022 56.7939 21.8253 63.7886 21.7801 63.7211C21.7281 63.6436 10.4306 17.3163 10.4105 17.0989C10.3919 16.896 10.9315 16.7259 14.0741 15.944C16.1011 15.4397 17.835 15.0244 17.927 15.0211C18.1448 15.013 18.1719 20.4562 17.9548 20.5907C17.8778 20.6384 17.2662 20.8082 16.5954 20.9681C15.2548 21.2878 14.9118 21.5511 15.3127 21.9526C15.5468 22.1871 15.8694 22.1467 17.7968 21.6409L18.1021 21.5608L18.0648 23.4849L18.0275 25.4088L17.2535 25.598C16.3762 25.8123 16.0806 26.1363 16.4369 26.4933C16.5569 26.6135 16.7429 26.6779 16.8503 26.6365C16.958 26.5953 17.2819 26.5236 17.5701 26.4774L18.0945 26.3934V27.9348C18.0945 29.3158 18.1263 29.5235 18.3993 29.9292C18.5668 30.1784 18.908 30.52 19.1573 30.6884L19.6107 30.9945L30.6124 30.9601L41.6143 30.9258V30.5901V30.2544L30.7281 30.1873L19.8418 30.1202L19.4037 29.6812L18.9656 29.2423V18.3894C18.9656 9.36313 18.9971 7.47772 19.1526 7.18663C19.5865 6.37417 18.2006 6.4217 41.4713 6.4217C64.4847 6.4217 63.3672 6.38639 63.8528 7.12889C64.0447 7.42254 64.0628 8.57175 64.0307 18.4304L63.9949 29.405L63.6188 29.729C63.3488 29.9617 63.0821 30.053 62.6728 30.053C62.0042 30.053 61.5996 30.3007 61.6715 30.6661C61.7162 30.8931 61.8402 30.9258 62.6577 30.9258C63.7794 30.9258 64.3514 30.5982 64.7447 29.7306C64.9812 29.2086 64.9942 28.6202 64.9971 18.2994L65 7.41851L64.6985 6.82719C64.3433 6.13087 63.9036 5.77842 63.1805 5.61031C62.5306 5.45939 20.4922 5.46517 19.8532 5.61635ZM22.3495 8.71501C22.1405 8.83706 22.115 9.10385 22.115 11.1681C22.115 12.7905 22.1631 13.5324 22.2758 13.6454C22.3974 13.7671 24.3938 13.8065 30.4398 13.8065C34.8415 13.8065 38.5384 13.7698 38.6549 13.725C38.8373 13.6549 38.867 13.3083 38.867 11.2457C38.867 9.01255 38.8491 8.8384 38.6078 8.70897C38.2537 8.51911 22.6753 8.52489 22.3495 8.71501ZM48.339 8.73784C48.1286 8.89251 48.1136 9.41495 48.1459 15.4177L48.181 21.9298L54.4711 21.9647C59.4141 21.9921 60.784 21.9633 60.8682 21.8304C60.9271 21.7373 60.9763 18.8107 60.9775 15.3265C60.9793 9.74512 60.9545 8.9669 60.769 8.78094C60.5838 8.59551 59.8346 8.57 54.5629 8.57C49.9775 8.57 48.5137 8.60948 48.339 8.73784ZM37.9959 11.1882V12.7995L30.5245 12.8341L23.0531 12.8689V11.1882V9.5076L30.5245 9.54238L37.9959 9.57702V11.1882ZM60.0414 15.2834V21.057H54.5468H49.0521V15.2834V9.50988H54.5468H60.0414V15.2834ZM22.2544 16.0155C22.1655 16.1228 22.1138 16.3191 22.1393 16.4519C22.1834 16.6813 22.6924 16.695 32.4644 16.7276C42.5125 16.7613 42.7462 16.7562 42.8821 16.5021C42.987 16.3054 42.9697 16.1906 42.8106 16.0312C42.6231 15.8435 41.4986 15.8205 32.5081 15.8205C23.8492 15.8205 22.393 15.8482 22.2544 16.0155ZM15.1627 40.5612L20.875 63.9559L19.7192 64.2592C18.1201 64.6791 17.6141 64.6769 17.1866 64.2486C16.8805 63.9418 16.2573 61.5106 11.375 41.5746C8.36716 29.2931 5.90462 19.0816 5.90261 18.8827C5.89618 18.2215 6.39164 17.8422 7.71115 17.4979C8.37292 17.3254 9.03509 17.1801 9.18251 17.1753C9.42856 17.1672 9.91839 19.0828 15.1627 40.5612ZM22.327 19.4882C22.1944 19.5854 22.1083 19.7817 22.1358 19.9246C22.1843 20.1769 22.364 20.1843 28.4826 20.1843H34.7795L34.8202 19.8326C34.8516 19.561 34.7906 19.462 34.5522 19.398C34.3824 19.3525 31.6166 19.3143 28.4058 19.3134C23.7887 19.3119 22.5179 19.3484 22.327 19.4882ZM36.2646 19.4882C36.132 19.5854 36.0459 19.7817 36.0734 19.9246C36.1211 20.173 36.268 20.1843 39.47 20.1843C42.6721 20.1843 42.8189 20.173 42.8667 19.9246C42.9717 19.3782 42.6017 19.3115 39.47 19.3115C37.2309 19.3115 36.4469 19.3547 36.2646 19.4882ZM22.1638 23.1374C22.1212 23.2485 22.1212 23.4306 22.1638 23.5418C22.232 23.72 23.4682 23.74 32.5308 23.7096L42.8204 23.6752V23.3396V23.0039L32.5308 22.9695C23.4682 22.9392 22.232 22.9592 22.1638 23.1374ZM50.2592 24.6978C48.1328 25.0206 46.5528 25.8469 44.8829 27.5093C43.9252 28.4627 43.6229 28.8736 43.1041 29.9261C42.2868 31.5849 42.0414 32.7683 42.1174 34.6853C42.1629 35.8318 42.2578 36.4023 42.5415 37.2351C43.5858 40.2995 45.8913 42.5175 49.0521 43.4987C50.4883 43.9445 52.846 43.9442 54.2754 43.498C57.4571 42.5048 59.7505 40.3006 60.7903 37.2364C61.2612 35.849 61.3766 33.7092 61.0618 32.2013C60.4683 29.3574 58.2203 26.5973 55.5247 25.403C54.033 24.742 51.8733 24.4528 50.2592 24.6978ZM53.9073 25.8305C56.8328 26.5869 59.2919 29.0639 60.0448 32.0128C61.2935 36.9046 58.2642 41.7601 53.3457 42.7503C49.091 43.6071 44.7539 41.0561 43.4 36.9007C43.013 35.7126 42.9217 33.5313 43.2077 32.3047C43.8112 29.7164 45.5236 27.578 47.913 26.4291C48.5027 26.1455 49.3168 25.8487 49.7222 25.7692C50.1276 25.6898 50.5799 25.597 50.7273 25.5632C51.206 25.4531 53.0455 25.6078 53.9073 25.8305ZM22.2052 26.5165C22.0263 26.6958 22.1205 27.0925 22.3742 27.2287C22.693 27.3996 42.4634 27.42 42.7316 27.2498C42.8302 27.187 42.8905 26.9917 42.8656 26.8154L42.8204 26.4949L32.5579 26.4605C26.9134 26.4416 22.2548 26.4667 22.2052 26.5165ZM53.0627 33.49L50.4017 36.144L48.9364 34.6972C47.4591 33.2388 47.0241 33.0033 46.9362 33.6145C46.9086 33.8065 47.3594 34.3408 48.5075 35.4768C50.0445 36.9978 50.1373 37.066 50.5563 36.9828C50.8967 36.9151 51.6057 36.2855 53.7128 34.1792C56.4978 31.3956 56.7862 30.9867 56.0398 30.8809C55.7832 30.8445 55.2234 31.3352 53.0627 33.49ZM30.223 32.9287C27.1167 33.6485 24.7788 35.4765 23.3636 38.2923C22.6714 39.6694 22.3619 41.0124 22.3538 42.6743C22.3351 46.5122 24.4027 49.8534 27.8777 51.6004C29.456 52.3939 30.1451 52.5397 32.3002 52.5361C34.0715 52.5332 34.3383 52.5 35.3155 52.1611C38.5606 51.0352 40.9086 48.5547 41.8412 45.2669C42.2246 43.9151 42.2515 41.5679 41.8987 40.2575C40.976 36.8309 38.4699 34.2285 35.0475 33.1429C33.8489 32.7628 31.407 32.6543 30.223 32.9287ZM34.3828 33.884C35.2938 34.1184 37.2052 34.9851 37.0825 35.1081C37.0376 35.153 36.5482 35.2978 35.9947 35.43L34.9886 35.67L33.9946 34.6742C32.8912 33.5687 32.9212 33.5076 34.3828 33.884ZM31.7372 34.0804C32.4019 34.3827 33.3923 35.1624 33.6902 35.6178L33.895 35.9309L32.5625 36.2656L31.2298 36.6005L31.103 36.1128C30.7743 34.8487 30.558 33.9679 30.558 33.8939C30.558 33.7282 31.1786 33.8264 31.7372 34.0804ZM29.9977 35.3231C30.1608 36.0061 30.2933 36.6287 30.2921 36.7064C30.29 36.8453 27.7811 37.5201 27.6724 37.4111C27.572 37.3105 27.9015 36.3099 28.2879 35.5423C28.6254 34.8722 29.3377 34.0811 29.6038 34.0811C29.6573 34.0811 29.8346 34.6399 29.9977 35.3231ZM27.2907 35.5269C27.178 35.7451 26.9854 36.3243 26.8626 36.8141C26.615 37.8021 26.8151 37.6598 25.0163 38.127C24.7325 38.2007 24.4777 38.2386 24.4504 38.2111C24.3614 38.122 25.0823 37.1197 25.7178 36.4488C26.3707 35.7592 27.3463 34.9808 27.4399 35.0747C27.4704 35.1053 27.4033 35.3088 27.2907 35.5269ZM38.9826 36.7011C39.7197 37.4904 40.8772 39.4815 40.8772 39.9599C40.8772 40.0441 40.6511 40.1734 40.3746 40.2474C39.4657 40.4907 37.5965 40.9269 37.4598 40.9277C37.3861 40.9281 37.2159 40.5508 37.0816 40.0895C36.9475 39.628 36.5591 38.6764 36.2187 37.9749C35.8783 37.2733 35.596 36.6421 35.5916 36.5722C35.5849 36.4661 37.5182 35.8812 38.014 35.8395C38.0977 35.8324 38.5335 36.2201 38.9826 36.7011ZM35.2102 37.9077C35.7925 39.0152 36.537 41.0255 36.4114 41.1513C36.3723 41.1904 35.5123 41.4314 34.5002 41.6869C33.2618 41.9996 32.6309 42.1047 32.5714 42.0082C32.4129 41.7512 31.4517 37.5717 31.5326 37.4907C31.6758 37.3473 33.9694 36.7846 34.3104 36.8093C34.5842 36.8292 34.7487 37.03 35.2102 37.9077ZM31.1041 39.8546C31.3878 40.9993 31.6222 42.0341 31.625 42.1541C31.6289 42.3232 31.2436 42.4686 29.9214 42.7974C28.9817 43.0312 28.113 43.2523 27.9912 43.289C27.8089 43.3436 27.7441 43.1934 27.6265 42.4443C27.3829 40.8912 27.3093 39.7729 27.4049 39.0767L27.4965 38.4083L28.8597 38.0713C29.6096 37.886 30.3051 37.7433 30.4056 37.754C30.5256 37.7668 30.765 38.4871 31.1041 39.8546ZM26.5446 40.0225C26.5485 40.7794 26.6317 41.8821 26.7297 42.4729C26.8275 43.0637 26.8998 43.5548 26.8901 43.5642C26.8048 43.6479 23.3782 44.3874 23.3246 44.3339C23.2859 44.2949 23.2559 43.5582 23.2579 42.6967C23.2617 41.1426 23.5629 39.5669 23.8959 39.3608C24.015 39.2871 26.1743 38.6901 26.437 38.6584C26.4922 38.6517 26.5407 39.2656 26.5446 40.0225ZM41.2699 42.6192C41.278 43.675 40.917 45.7673 40.6869 45.9978C40.6346 46.0503 38.2187 46.6939 38.0524 46.6997C38.0098 46.7012 37.9661 46.0529 37.9552 45.259C37.9444 44.465 37.8738 43.4901 37.7982 43.0924C37.5394 41.7301 37.4469 41.8308 39.3695 41.3832C40.8661 41.0347 41.0895 41.011 41.1693 41.192C41.2195 41.3057 41.2646 41.948 41.2699 42.6192ZM36.9969 43.88C37.1469 45.1716 37.1307 46.7412 36.966 46.9063C36.9245 46.9477 36.2428 47.1374 35.4508 47.3279C34.4162 47.5767 33.9845 47.6314 33.9171 47.5221C33.7862 47.3099 32.7819 43.085 32.8487 43.0284C32.8787 43.0028 33.7476 42.7727 34.7795 42.5167C36.9731 41.9725 36.7604 41.8417 36.9969 43.88ZM32.5333 45.6618L33.0654 47.9109L32.5823 48.0373C32.3165 48.1068 31.6316 48.2819 31.06 48.4265L30.0209 48.6893L29.7704 48.3336C29.1705 47.4821 27.8666 44.3861 28.0362 44.2162C28.1639 44.0883 31.8348 43.2488 31.9161 43.329C31.9629 43.375 32.2406 44.4249 32.5333 45.6618ZM27.4507 45.4032C27.6184 45.944 28.0242 46.9373 28.3526 47.6104C28.6811 48.2836 28.9498 48.8633 28.9498 48.8986C28.9498 48.934 28.3785 49.0933 27.6803 49.2527C26.608 49.4973 26.3716 49.5148 26.158 49.3644C25.625 48.9891 24.6259 47.6702 24.1927 46.7695C23.4201 45.1635 23.3383 45.3147 25.2266 44.8529C26.1319 44.6317 26.9341 44.4436 27.0093 44.4351C27.0846 44.4266 27.2832 44.8623 27.4507 45.4032ZM40.0731 47.2194C40.0731 47.4955 38.6497 49.1807 37.955 49.7272C37.5353 50.0573 37.1533 50.3275 37.1063 50.3275C37.0592 50.3276 37.1626 49.9803 37.3358 49.5556C37.5091 49.1309 37.6894 48.532 37.7364 48.2246L37.8218 47.6656L38.8469 47.3984C40.0873 47.0751 40.0731 47.0772 40.0731 47.2194ZM36.7842 48.3472C36.5187 49.5836 35.1904 51.5532 34.8649 51.1934C34.6996 51.0108 34.1495 48.6989 34.2474 48.5988C34.3325 48.5118 36.3869 47.9462 36.6998 47.9237C36.8318 47.9141 36.8536 48.0241 36.7842 48.3472ZM33.6161 50.0926C33.9762 51.6008 33.9767 51.5363 33.6068 51.5347C33.0594 51.5323 31.9323 50.8988 31.2061 50.185L30.491 49.4824L31.6301 49.1793C33.3914 48.7109 33.2732 48.6565 33.6161 50.0926ZM30.9722 51.1732L31.6459 51.7638L30.8004 51.637C29.8551 51.4952 28.1162 50.8605 27.6204 50.4763L27.2962 50.2249L28.4245 49.9584L29.5529 49.6919L29.9257 50.1374C30.1308 50.3824 30.6017 50.8486 30.9722 51.1732Z" fill="#909090"/>
</svg>
