<svg width="70" height="71" viewBox="0 0 70 71" fill="none" xmlns="http://www.w3.org/2000/svg">
<g clip-path="url(#clip0_292_9339)">
<path fill-rule="evenodd" clip-rule="evenodd" d="M32.2212 0.613393C29.6406 0.895856 26.7961 1.59925 25.125 2.36809C22.5 3.57608 20.5013 5.52349 19.2815 8.06215C18.4271 9.84006 18.2074 10.9224 18.2199 13.2909C18.2306 15.3162 18.2548 15.488 18.983 18.6891C19.6429 21.5899 19.7094 22.0121 19.5253 22.1305C17.9934 23.1153 17.3982 24.037 17.3985 25.4242C17.3989 26.8993 18.1731 28.0703 19.5602 28.6938C19.8613 28.8292 20.3079 28.9412 20.5525 28.9428L20.9974 28.9458V29.7006C20.9974 30.1157 21.1223 31.0597 21.275 31.7983C21.8277 34.4725 22.9721 36.6419 24.8641 38.6027C25.5229 39.2853 26.0612 39.9576 26.0606 40.0966C26.0599 40.2358 25.675 40.7549 25.2051 41.2502C24.3862 42.1138 24.266 42.1861 22.2977 42.9998C18.1289 44.7232 12.9603 47.4775 10.9723 49.0352C8.48238 50.9859 6.52943 53.8069 5.4466 57.0166C5.05993 58.1626 5.05952 58.1676 5.01216 62.412C4.9789 65.4042 5.01284 66.8291 5.12686 67.231C5.32957 67.9449 6.06898 68.8097 6.81112 69.2009L7.3782 69.5H34.9587H62.5393L63.0961 69.2061C63.8118 68.8283 64.5766 67.9916 64.8154 67.3246C64.9584 66.9254 65.0022 65.8535 64.9999 62.8197C64.9969 59.0338 64.9806 58.7822 64.6688 57.6914C63.5549 53.7942 61.3122 50.6324 58.0614 48.3756C55.9345 46.8991 50.5117 44.1257 47.0039 42.7203C45.7011 42.1984 45.4869 42.0606 44.7124 41.247C44.2425 40.7535 43.8576 40.2255 43.8569 40.074C43.8562 39.9224 44.1379 39.5277 44.4829 39.1967C45.3597 38.3554 46.3125 37.1447 46.9897 36.0108C48.02 34.2862 48.9201 31.2995 48.9201 29.6057C48.9201 28.9514 48.924 28.9458 49.365 28.9444C50.4162 28.9413 51.8239 27.9156 52.3134 26.7963C52.5858 26.1732 52.5858 24.7006 52.3134 24.0775C52.0236 23.4149 51.3048 22.6374 50.7014 22.3339L50.1983 22.0808L50.9474 18.7318C51.6678 15.5112 51.6969 15.3024 51.7103 13.2909C51.7264 10.8957 51.5535 10.0259 50.7017 8.21397C50.0029 6.7277 49.2676 5.69988 48.1488 4.64547C46.4825 3.07512 44.7458 2.13529 42.305 1.48318C39.1999 0.653475 35.0919 0.299216 32.2212 0.613393ZM40.1591 1.88346C43.6394 2.60872 45.6278 3.49389 47.3551 5.08705C49.7281 7.27562 50.8635 9.88297 50.8691 13.1559C50.8717 14.7161 50.8085 15.1368 50.0268 18.7566C49.5621 20.9091 49.1271 22.7918 49.0601 22.9402C48.9813 23.1154 48.9346 22.571 48.9274 21.3882C48.9112 18.7836 48.54 17.4246 47.3423 15.5851C46.6733 14.5577 45.3018 13.2304 44.618 12.9486C43.6654 12.5563 42.9342 12.6797 41.3365 13.5022C37.359 15.5499 32.5474 15.5441 28.5513 13.4868C26.9045 12.639 26.1766 12.5415 25.1507 13.0312C24.1869 13.4912 22.7189 15.1637 22.0311 16.5854C21.2224 18.2567 21.0965 18.8304 21.0065 21.2533L20.9289 23.3451L20.0609 19.3651C19.0713 14.8278 18.9199 13.6881 19.0932 12.0763C19.3107 10.0529 19.8157 8.66189 20.9369 6.99883C22.6914 4.39648 25.1291 2.91115 29.078 2.03866C31.517 1.49978 32.3391 1.42826 35.5063 1.47954C38.0442 1.52057 38.6844 1.57617 40.1591 1.88346ZM28.0636 14.2375C29.1518 14.8665 31.0103 15.4863 32.5195 15.7237C33.1847 15.8283 34.3154 15.8635 35.5992 15.8198C38.1618 15.7324 39.3981 15.4321 41.605 14.3615C42.5127 13.9211 43.3709 13.5608 43.5123 13.5608C44.5033 13.5608 46.2401 15.2039 47.1235 16.9772C48.0598 18.8566 48.1321 19.5134 48.0661 25.5376C48.01 30.6562 48.0011 30.7956 47.6526 32.0775C46.2386 37.2779 42.3298 40.9525 37.1931 41.91C36.0528 42.1227 32.8117 42.0044 31.7505 41.7112C29.5643 41.1076 27.6638 40.0632 26.0952 38.6035C24.0114 36.6644 22.8367 34.6389 22.1378 31.7798C21.8511 30.606 21.7105 21.3684 21.9543 19.7152C22.2521 17.6962 23.2894 15.7043 24.695 14.4523C25.8718 13.4041 26.5473 13.3609 28.0636 14.2375ZM27.7727 21.6488C27.1701 21.7917 26.8193 22.0058 26.4188 22.4752C25.9901 22.9776 25.9691 23.2192 26.3377 23.4138C26.5685 23.5355 26.6751 23.4948 26.9879 23.1655C27.8788 22.2278 28.8838 22.2407 29.7254 23.2008C29.9811 23.4925 30.0835 23.5294 30.3071 23.4114C30.6716 23.219 30.6491 22.976 30.2202 22.4734C29.6218 21.7722 28.6431 21.4425 27.7727 21.6488ZM41.1063 21.6542C40.3333 21.7947 39.3388 22.6085 39.3388 23.1004C39.3388 23.1927 39.4629 23.3336 39.6147 23.4138C39.8455 23.5355 39.9521 23.4948 40.2649 23.1655C41.1558 22.2278 42.1608 22.2407 43.0024 23.2008C43.2581 23.4925 43.3605 23.5294 43.5841 23.4114C43.9486 23.219 43.9261 22.976 43.4972 22.4734C42.8965 21.7695 42.0559 21.4815 41.1063 21.6542ZM20.1813 24.1313C20.3456 24.8864 20.4586 25.1288 20.6946 25.2327C20.9789 25.3578 20.9974 25.4513 20.9974 26.7678V28.1698L20.5554 28.0826C18.7065 27.7181 17.7158 25.7943 18.5673 24.2223C18.8822 23.6408 19.7206 22.9196 19.8899 23.0844C19.9344 23.1277 20.0655 23.5988 20.1813 24.1313ZM50.6383 23.3414C51.9443 24.3235 51.9667 26.546 50.6802 27.4939C50.1557 27.8804 49.2668 28.1965 49.0597 28.0702C48.9806 28.022 48.9201 27.4271 48.9201 26.6983C48.9201 25.5285 48.9448 25.4053 49.1917 25.3416C49.4304 25.2801 49.7362 24.62 49.7414 24.1548C49.7444 23.8914 50.0294 23.0077 50.1114 23.0077C50.1571 23.0077 50.3943 23.1579 50.6383 23.3414ZM29.5332 33.3318C29.4057 33.6595 29.5625 33.8876 30.3232 34.4804C32.6715 36.3107 35.7055 36.6222 38.3474 35.3043C39.4243 34.7671 40.4602 33.8517 40.4067 33.4842C40.3368 33.0031 39.938 33.0847 39.1099 33.7498C37.2547 35.2397 34.9373 35.6443 32.7843 34.8541C31.8812 34.5228 31.5515 34.3313 30.6966 33.6416C30.0222 33.0975 29.6618 33.0016 29.5332 33.3318ZM28.6624 41.4852C32.8541 43.6156 37.9635 43.4229 42.1599 40.9759L42.8595 40.5679L42.2626 41.9919C41.3498 44.1699 40.7806 46.0792 39.9502 49.7488C39.1035 53.4906 38.6237 55.1798 37.9195 56.8982C37.0764 58.9559 35.2236 62.4148 34.9646 62.4148C34.6703 62.4148 32.6476 58.5651 31.88 56.5442C31.134 54.5804 30.7951 53.3987 30.1656 50.568C29.1797 46.1343 28.5354 43.951 27.5557 41.7234L27.0321 40.5331L27.4708 40.8178C27.7121 40.9744 28.2484 41.2748 28.6624 41.4852ZM27.3094 43.4785C27.9107 45.0568 28.5449 47.3707 29.2813 50.6737C30.1214 54.4422 30.7588 56.4245 31.9545 58.9884L32.5022 60.1631L31.357 58.961C26.035 53.3745 24.6959 51.9351 24.6945 51.7996C24.6937 51.7138 24.8808 51.2309 25.1102 50.7266C25.6119 49.6244 25.6098 48.9963 25.1037 48.6329C24.8803 48.4725 24.1214 48.2915 22.9191 48.1121C21.9058 47.9608 21.0163 47.7772 20.9422 47.7042C20.8539 47.6172 20.9269 47.4434 21.154 47.1995C21.3445 46.9948 22.5979 45.5899 23.9393 44.0774L26.3781 41.3276L26.5758 41.6992C26.6844 41.9038 27.0146 42.7044 27.3094 43.4785ZM45.0339 42.957C45.7948 43.824 47.0205 45.2194 47.7578 46.0582C48.5793 46.9931 49.0489 47.6316 48.9713 47.7081C48.9016 47.7768 47.9966 47.9646 46.96 48.1251C44.2268 48.5489 43.9625 48.8682 44.8138 50.7195C45.0397 51.2106 45.2245 51.6916 45.2245 51.7885C45.2245 51.9185 39.7214 57.8428 37.61 59.9856C37.5003 60.097 37.6982 59.5807 38.0497 58.8385C39.0392 56.7494 39.9342 53.8969 40.7809 50.1338C41.2069 48.2411 41.7403 46.1155 41.9661 45.4104C42.4999 43.7443 43.4401 41.359 43.5581 41.3713C43.6089 41.3765 44.273 42.0902 45.0339 42.957ZM22.8941 43.8921C22.7846 44.022 22.2646 44.6141 21.7384 45.2079C20.1691 46.9788 20.0392 47.1609 20.0392 47.5888C20.0392 48.5072 20.3133 48.6451 22.8452 49.0001C23.7486 49.1267 24.5445 49.2801 24.6138 49.3408C24.6881 49.406 24.5337 49.8846 24.2374 50.5071C23.961 51.0877 23.7349 51.6964 23.7349 51.8596C23.7349 52.2254 24.39 52.9524 30.0843 58.906L34.5376 63.5619L34.5429 66.0943L34.5481 68.6267L20.9525 68.5909L7.35685 68.5553L6.8541 68.1772C5.89597 67.4566 5.87763 67.3682 5.82876 63.2246C5.78195 59.2745 5.83821 58.6993 6.44689 56.9036C7.38258 54.1424 9.17497 51.5982 11.4515 49.7994C12.6757 48.8322 15.1615 47.3423 17.4386 46.2111C19.2055 45.3333 22.8003 43.6788 22.9691 43.6657C23.0372 43.6603 23.0034 43.7623 22.8941 43.8921ZM48.2448 44.1997C50.2261 45.0594 54.4615 47.1988 56.0752 48.155C58.4975 49.5904 60.1789 51.0981 61.5542 53.0678C62.3792 54.2494 63.3764 56.3963 63.7646 57.8263C64.0986 59.0564 64.1126 59.2614 64.1101 62.8872C64.1076 66.2725 64.0811 66.7221 63.8547 67.2057C63.5623 67.8303 63.1125 68.2742 62.5646 68.4788C62.3013 68.5772 57.937 68.6228 48.7743 68.6228H35.3694V66.1164V63.61L40.3999 58.3227C46.0976 52.3339 46.1826 52.2389 46.1826 51.8611C46.1826 51.7092 45.9609 51.1005 45.6897 50.5086C45.4187 49.9166 45.2492 49.3869 45.3133 49.3314C45.3773 49.2758 46.1689 49.1267 47.0723 49.0001C49.6302 48.6415 49.8821 48.5106 49.875 47.5448C49.8722 47.1852 49.6827 46.8853 48.909 46.0177C47.3986 44.3236 46.8354 43.656 46.9165 43.656C46.9579 43.656 47.5555 43.9006 48.2448 44.1997ZM13.9003 50.4046C13.2985 50.8344 13.2047 51.0761 13.535 51.3463C13.6993 51.4807 13.8504 51.447 14.3329 51.1681C15.0563 50.7502 15.305 50.4732 15.1997 50.2031C15.0734 49.8784 14.516 49.9649 13.9003 50.4046ZM11.1174 52.81C10.367 53.6091 9.51306 54.7895 9.20837 55.4488C9.06972 55.7491 9.07615 55.8471 9.24587 56.0144C9.55371 56.3179 9.85333 56.126 10.3061 55.335C10.5305 54.943 11.0414 54.2428 11.4415 53.7791C12.5543 52.4892 12.5717 52.4602 12.3742 52.2257C12.0932 51.8919 11.8914 51.9857 11.1174 52.81Z" fill="#909090"/>
</g>
<defs>
<clipPath id="clip0_292_9339">
<rect width="70" height="70" fill="white" transform="translate(0 0.5)"/>
</clipPath>
</defs>
</svg>
