<svg width="198" height="81" viewBox="0 0 198 81" fill="none" xmlns="http://www.w3.org/2000/svg">
<path d="M97.9113 16.6437V34.5411H92.9735V12.076H97.6245L97.9113 16.6437ZM97.1123 22.478L95.4322 22.4573C95.4322 20.907 95.6234 19.4744 96.0059 18.1594C96.3883 16.8445 96.9484 15.7025 97.686 14.7336C98.4236 13.7508 99.3387 12.9964 100.431 12.4705C101.538 11.9306 102.815 11.6607 104.263 11.6607C105.274 11.6607 106.196 11.813 107.029 12.1175C107.876 12.4082 108.607 12.8719 109.221 13.5086C109.85 14.1453 110.328 14.962 110.655 15.9586C110.997 16.9552 111.168 18.1594 111.168 19.5713V34.5411H106.23V20.0073C106.23 18.9138 106.066 18.0556 105.738 17.4327C105.424 16.8098 104.966 16.3669 104.365 16.1039C103.778 15.8271 103.075 15.6887 102.255 15.6887C101.326 15.6887 100.534 15.8686 99.8783 16.2285C99.2363 16.5884 98.7104 17.0798 98.3006 17.7026C97.8909 18.3255 97.5903 19.0453 97.3991 19.862C97.2079 20.6786 97.1123 21.5507 97.1123 22.478ZM110.86 21.1492L108.545 21.6683C108.545 20.3118 108.73 19.0315 109.098 17.8272C109.481 16.6091 110.034 15.5433 110.758 14.6298C111.496 13.7024 112.404 12.9757 113.483 12.4497C114.562 11.9237 115.798 11.6607 117.191 11.6607C118.325 11.6607 119.336 11.8199 120.224 12.1383C121.125 12.4428 121.89 12.9272 122.519 13.5916C123.147 14.256 123.625 15.1212 123.953 16.187C124.281 17.2389 124.445 18.5124 124.445 20.0073V34.5411H119.486V19.9865C119.486 18.8515 119.322 17.9726 118.994 17.3497C118.68 16.7268 118.23 16.2977 117.642 16.0624C117.055 15.8132 116.351 15.6887 115.532 15.6887C114.767 15.6887 114.091 15.834 113.503 16.1247C112.93 16.4015 112.445 16.796 112.049 17.3082C111.653 17.8065 111.352 18.3809 111.147 19.0315C110.956 19.682 110.86 20.3879 110.86 21.1492Z" fill="#181818"/>
<path d="M134.812 12.076V34.5411H129.854V12.076H134.812ZM129.526 6.17938C129.526 5.41808 129.772 4.78828 130.263 4.28998C130.769 3.77783 131.465 3.52176 132.353 3.52176C133.228 3.52176 133.917 3.77783 134.423 4.28998C134.928 4.78828 135.181 5.41808 135.181 6.17938C135.181 6.92683 134.928 7.54971 134.423 8.04801C133.917 8.54632 133.228 8.79547 132.353 8.79547C131.465 8.79547 130.769 8.54632 130.263 8.04801C129.772 7.54971 129.526 6.92683 129.526 6.17938Z" fill="#181818"/>
<path d="M154.42 12.076H158.907V33.9183C158.907 35.9392 158.484 37.6555 157.637 39.0674C156.79 40.4793 155.608 41.552 154.092 42.2856C152.576 43.0331 150.821 43.4068 148.826 43.4068C147.98 43.4068 147.037 43.2822 145.999 43.0331C144.975 42.7839 143.977 42.3825 143.008 41.8288C142.051 41.289 141.252 40.5761 140.61 39.6903L142.926 36.742C143.718 37.6971 144.592 38.3961 145.548 38.839C146.504 39.2819 147.508 39.5034 148.56 39.5034C149.694 39.5034 150.657 39.2889 151.449 38.8598C152.255 38.4445 152.876 37.8286 153.314 37.0119C153.751 36.1952 153.969 35.1986 153.969 34.0221V17.1628L154.42 12.076ZM139.361 23.5577V23.1217C139.361 21.4192 139.565 19.8689 139.975 18.4709C140.385 17.059 140.972 15.8478 141.737 14.8374C142.502 13.8131 143.431 13.031 144.524 12.4912C145.617 11.9375 146.853 11.6607 148.232 11.6607C149.666 11.6607 150.889 11.9237 151.9 12.4497C152.924 12.9757 153.778 13.7301 154.461 14.7128C155.144 15.6817 155.677 16.8445 156.059 18.2009C156.455 19.5436 156.749 21.0385 156.94 22.6857V24.0768C156.763 25.6824 156.462 27.1496 156.039 28.4785C155.615 29.8073 155.055 30.9561 154.358 31.925C153.662 32.894 152.801 33.6414 151.777 34.1674C150.766 34.6934 149.571 34.9564 148.191 34.9564C146.839 34.9564 145.617 34.6726 144.524 34.1051C143.445 33.5376 142.516 32.7417 141.737 31.7174C140.972 30.6931 140.385 29.4889 139.975 28.1047C139.565 26.7067 139.361 25.191 139.361 23.5577ZM144.298 23.1217V23.5577C144.298 24.582 144.394 25.5371 144.585 26.423C144.79 27.3088 145.097 28.0909 145.507 28.7691C145.931 29.4335 146.463 29.9595 147.105 30.3471C147.761 30.7208 148.533 30.9077 149.421 30.9077C150.582 30.9077 151.531 30.6585 152.269 30.1602C153.02 29.6619 153.594 28.9906 153.99 28.1462C154.399 27.2881 154.686 26.333 154.85 25.281V21.523C154.768 20.7063 154.598 19.945 154.338 19.2391C154.092 18.5331 153.757 17.9172 153.334 17.3912C152.911 16.8514 152.378 16.4361 151.736 16.1454C151.094 15.8409 150.336 15.6887 149.462 15.6887C148.574 15.6887 147.802 15.8825 147.146 16.27C146.491 16.6576 145.951 17.1905 145.528 17.8687C145.118 18.547 144.811 19.336 144.606 20.2357C144.401 21.1354 144.298 22.0974 144.298 23.1217Z" fill="#181818"/>
<path d="M168.988 16.3531V34.5411H164.05V12.076H168.762L168.988 16.3531ZM175.769 11.9306L175.728 16.5815C175.428 16.5261 175.1 16.4846 174.745 16.4569C174.404 16.4292 174.062 16.4154 173.721 16.4154C172.874 16.4154 172.129 16.5399 171.487 16.7891C170.845 17.0244 170.306 17.3704 169.869 17.8272C169.445 18.2702 169.117 18.81 168.885 19.4467C168.653 20.0834 168.516 20.7963 168.475 21.5853L167.348 21.6683C167.348 20.2564 167.485 18.9484 167.758 17.7442C168.031 16.5399 168.441 15.481 168.988 14.5675C169.548 13.6539 170.244 12.9411 171.077 12.4289C171.924 11.9168 172.901 11.6607 174.007 11.6607C174.308 11.6607 174.629 11.6884 174.97 11.7438C175.326 11.7991 175.592 11.8614 175.769 11.9306Z" fill="#181818"/>
<path d="M177.388 23.5577V23.0802C177.388 21.4607 177.62 19.9588 178.085 18.5747C178.549 17.1767 179.218 15.9655 180.093 14.9412C180.98 13.9031 182.06 13.1003 183.33 12.5327C184.614 11.9514 186.062 11.6607 187.674 11.6607C189.299 11.6607 190.747 11.9514 192.017 12.5327C193.301 13.1003 194.387 13.9031 195.275 14.9412C196.163 15.9655 196.839 17.1767 197.303 18.5747C197.768 19.9588 198 21.4607 198 23.0802V23.5577C198 25.1772 197.768 26.679 197.303 28.0632C196.839 29.4474 196.163 30.6585 195.275 31.6967C194.387 32.721 193.308 33.5238 192.038 34.1051C190.767 34.6726 189.326 34.9564 187.715 34.9564C186.089 34.9564 184.634 34.6726 183.35 34.1051C182.08 33.5238 181.001 32.721 180.113 31.6967C179.225 30.6585 178.549 29.4474 178.085 28.0632C177.62 26.679 177.388 25.1772 177.388 23.5577ZM182.326 23.0802V23.5577C182.326 24.5682 182.428 25.5232 182.633 26.423C182.838 27.3227 183.159 28.1116 183.596 28.7899C184.033 29.4681 184.593 30.001 185.276 30.3886C185.959 30.7762 186.772 30.97 187.715 30.97C188.63 30.97 189.422 30.7762 190.091 30.3886C190.774 30.001 191.334 29.4681 191.771 28.7899C192.208 28.1116 192.529 27.3227 192.734 26.423C192.953 25.5232 193.062 24.5682 193.062 23.5577V23.0802C193.062 22.0836 192.953 21.1423 192.734 20.2564C192.529 19.3567 192.202 18.5608 191.751 17.8687C191.314 17.1767 190.754 16.6368 190.071 16.2493C189.401 15.8478 188.602 15.6471 187.674 15.6471C186.745 15.6471 185.939 15.8478 185.256 16.2493C184.587 16.6368 184.033 17.1767 183.596 17.8687C183.159 18.5608 182.838 19.3567 182.633 20.2564C182.428 21.1423 182.326 22.0836 182.326 23.0802Z" fill="#181818"/>
<path d="M105.41 70.9796C105.41 70.4813 105.287 70.0314 105.042 69.63C104.796 69.2148 104.324 68.841 103.628 68.5088C102.945 68.1766 101.934 67.8721 100.595 67.5953C99.4207 67.3323 98.3416 67.0208 97.3581 66.6609C96.3883 66.2872 95.5551 65.8374 94.8585 65.3114C94.1619 64.7854 93.6223 64.1625 93.2399 63.4427C92.8574 62.723 92.6662 61.8925 92.6662 60.9512C92.6662 60.0377 92.8642 59.1726 93.2603 58.3559C93.6565 57.5392 94.2233 56.8195 94.9609 56.1966C95.6985 55.5737 96.5932 55.0823 97.645 54.7224C98.7104 54.3625 99.8988 54.1826 101.21 54.1826C103.068 54.1826 104.659 54.501 105.984 55.1377C107.323 55.7606 108.347 56.6118 109.057 57.6915C109.768 58.7573 110.123 59.9615 110.123 61.3042H105.185C105.185 60.709 105.035 60.1553 104.734 59.6432C104.447 59.1172 104.01 58.695 103.423 58.3767C102.836 58.0444 102.098 57.8783 101.21 57.8783C100.363 57.8783 99.6597 58.0168 99.0997 58.2936C98.5533 58.5566 98.1435 58.9026 97.8704 59.3317C97.6108 59.7608 97.4811 60.2314 97.4811 60.7436C97.4811 61.1173 97.5494 61.4564 97.686 61.761C97.8362 62.0516 98.0821 62.3216 98.4236 62.5707C98.765 62.806 99.2295 63.0275 99.8168 63.2351C100.418 63.4427 101.169 63.6434 102.071 63.8372C103.764 64.1971 105.219 64.6608 106.435 65.2283C107.664 65.782 108.607 66.5018 109.262 67.3876C109.918 68.2597 110.246 69.367 110.246 70.7097C110.246 71.7063 110.034 72.6198 109.611 73.4503C109.201 74.267 108.6 74.9798 107.808 75.5889C107.015 76.1841 106.066 76.6478 104.96 76.98C103.867 77.3122 102.637 77.4783 101.272 77.4783C99.2636 77.4783 97.563 77.1184 96.1698 76.3986C94.7765 75.665 93.7179 74.7307 92.994 73.5957C92.2837 72.4468 91.9286 71.2564 91.9286 70.0245H96.7025C96.7571 70.9519 97.0098 71.6924 97.4606 72.2461C97.925 72.7859 98.4987 73.1804 99.1817 73.4296C99.8783 73.6649 100.595 73.7825 101.333 73.7825C102.221 73.7825 102.965 73.6649 103.566 73.4296C104.167 73.1804 104.625 72.8482 104.939 72.433C105.253 72.0039 105.41 71.5194 105.41 70.9796Z" fill="#181818"/>
<path d="M124.731 54.5979V58.2521H112.233V54.5979H124.731ZM115.839 49.0958H120.777V70.855C120.777 71.5471 120.873 72.08 121.064 72.4537C121.269 72.8136 121.549 73.0558 121.904 73.1804C122.259 73.305 122.676 73.3673 123.154 73.3673C123.495 73.3673 123.823 73.3465 124.137 73.305C124.451 73.2635 124.704 73.2219 124.895 73.1804L124.916 77.0007C124.506 77.1253 124.028 77.236 123.482 77.3329C122.949 77.4298 122.334 77.4783 121.638 77.4783C120.504 77.4783 119.5 77.2776 118.626 76.8762C117.751 76.4609 117.069 75.7896 116.577 74.8622C116.085 73.9348 115.839 72.7029 115.839 71.1664V49.0958Z" fill="#181818"/>
<path d="M127.108 66.0796V65.6021C127.108 63.9826 127.34 62.4807 127.805 61.0966C128.269 59.6985 128.938 58.4874 129.813 57.4631C130.701 56.425 131.78 55.6221 133.05 55.0546C134.334 54.4733 135.782 54.1826 137.394 54.1826C139.019 54.1826 140.467 54.4733 141.737 55.0546C143.021 55.6221 144.107 56.425 144.995 57.4631C145.883 58.4874 146.559 59.6985 147.023 61.0966C147.488 62.4807 147.72 63.9826 147.72 65.6021V66.0796C147.72 67.6991 147.488 69.2009 147.023 70.5851C146.559 71.9693 145.883 73.1804 144.995 74.2185C144.107 75.2428 143.028 76.0457 141.758 76.627C140.487 77.1945 139.046 77.4783 137.435 77.4783C135.809 77.4783 134.354 77.1945 133.07 76.627C131.8 76.0457 130.721 75.2428 129.833 74.2185C128.945 73.1804 128.269 71.9693 127.805 70.5851C127.34 69.2009 127.108 67.6991 127.108 66.0796ZM132.046 65.6021V66.0796C132.046 67.09 132.148 68.0451 132.353 68.9448C132.558 69.8446 132.879 70.6335 133.316 71.3118C133.753 71.99 134.313 72.5229 134.996 72.9105C135.679 73.2981 136.492 73.4919 137.435 73.4919C138.35 73.4919 139.142 73.2981 139.811 72.9105C140.494 72.5229 141.054 71.99 141.491 71.3118C141.928 70.6335 142.249 69.8446 142.454 68.9448C142.673 68.0451 142.782 67.09 142.782 66.0796V65.6021C142.782 64.6054 142.673 63.6642 142.454 62.7783C142.249 61.8786 141.922 61.0827 141.471 60.3906C141.034 59.6985 140.474 59.1587 139.791 58.7711C139.121 58.3697 138.322 58.169 137.394 58.169C136.465 58.169 135.659 58.3697 134.976 58.7711C134.307 59.1587 133.753 59.6985 133.316 60.3906C132.879 61.0827 132.558 61.8786 132.353 62.7783C132.148 63.6642 132.046 64.6054 132.046 65.6021Z" fill="#181818"/>
<path d="M156.817 58.875V77.063H151.879V54.5979H156.592L156.817 58.875ZM163.599 54.4525L163.558 59.1033C163.258 59.048 162.93 59.0065 162.575 58.9788C162.233 58.9511 161.892 58.9372 161.55 58.9372C160.703 58.9372 159.959 59.0618 159.317 59.311C158.675 59.5463 158.135 59.8923 157.698 60.3491C157.275 60.792 156.947 61.3319 156.715 61.9686C156.482 62.6053 156.346 63.3182 156.305 64.1071L155.178 64.1902C155.178 62.7783 155.315 61.4703 155.588 60.2661C155.861 59.0618 156.271 58.0029 156.817 57.0894C157.377 56.1758 158.074 55.463 158.907 54.9508C159.754 54.4387 160.731 54.1826 161.837 54.1826C162.137 54.1826 162.458 54.2103 162.8 54.2656C163.155 54.321 163.421 54.3833 163.599 54.4525Z" fill="#181818"/>
<path d="M176.056 77.4783C174.417 77.4783 172.935 77.2084 171.61 76.6685C170.299 76.1149 169.179 75.3466 168.25 74.3639C167.335 73.3811 166.631 72.2253 166.14 70.8965C165.648 69.5677 165.402 68.1351 165.402 66.5987V65.7682C165.402 64.0102 165.655 62.4184 166.16 60.9927C166.666 59.567 167.369 58.349 168.27 57.3385C169.172 56.3142 170.237 55.5322 171.467 54.9923C172.696 54.4525 174.028 54.1826 175.462 54.1826C177.047 54.1826 178.433 54.4525 179.621 54.9923C180.81 55.5322 181.793 56.2935 182.572 57.2762C183.364 58.2452 183.951 59.4009 184.334 60.7436C184.73 62.0862 184.928 63.5673 184.928 65.1868V67.3253H167.799V63.7334H180.052V63.3389C180.024 62.4392 179.847 61.5949 179.519 60.8059C179.205 60.0169 178.72 59.3802 178.064 58.8957C177.409 58.4113 176.534 58.169 175.442 58.169C174.622 58.169 173.891 58.349 173.249 58.7089C172.621 59.0549 172.095 59.5601 171.672 60.2245C171.248 60.8889 170.92 61.6918 170.688 62.633C170.47 63.5604 170.36 64.6054 170.36 65.7682V66.5987C170.36 67.5814 170.49 68.495 170.75 69.3393C171.023 70.1698 171.419 70.8965 171.938 71.5194C172.457 72.1423 173.085 72.6337 173.823 72.9936C174.561 73.3396 175.401 73.5126 176.343 73.5126C177.532 73.5126 178.59 73.2704 179.519 72.7859C180.448 72.3015 181.254 71.6163 181.937 70.7304L184.539 73.2842C184.061 73.9902 183.439 74.6684 182.674 75.319C181.909 75.9557 180.974 76.4748 179.867 76.8762C178.774 77.2776 177.504 77.4783 176.056 77.4783Z" fill="#181818"/>
<path d="M188.985 74.5715C188.985 73.7964 189.244 73.1458 189.763 72.6198C190.282 72.08 190.986 71.8101 191.874 71.8101C192.775 71.8101 193.479 72.08 193.984 72.6198C194.503 73.1458 194.763 73.7964 194.763 74.5715C194.763 75.3466 194.503 75.9972 193.984 76.5232C193.479 77.0492 192.775 77.3122 191.874 77.3122C190.986 77.3122 190.282 77.0492 189.763 76.5232C189.244 75.9972 188.985 75.3466 188.985 74.5715Z" fill="#181818"/>
<rect width="81.3214" height="81" rx="20" fill="#181818"/>
<path d="M28.6034 33.0232V50.9139H24.75V28.5866H28.3962L28.6034 33.0232ZM27.8161 38.9042L26.0345 38.8423C26.0483 37.3153 26.2485 35.9052 26.6353 34.6121C27.022 33.3052 27.5951 32.1702 28.3548 31.2073C29.1144 30.2443 30.0605 29.5014 31.193 28.9787C32.3255 28.4421 33.6376 28.1739 35.1293 28.1739C36.1789 28.1739 37.1457 28.3252 38.0296 28.6279C38.9136 28.9168 39.6801 29.3776 40.3292 30.0104C40.9784 30.6432 41.4825 31.4549 41.8416 32.4454C42.2007 33.4359 42.3802 34.6327 42.3802 36.0359V50.9139H38.5476V36.2216C38.5476 35.0523 38.3473 34.1168 37.9468 33.4152C37.5601 32.7136 37.0076 32.2046 36.2894 31.8882C35.5712 31.5581 34.7287 31.393 33.7619 31.393C32.6294 31.393 31.6833 31.5925 30.9237 31.9914C30.1641 32.3903 29.5564 32.9406 29.1006 33.6422C28.6448 34.3438 28.3133 35.1486 28.1062 36.0565C27.9128 36.9507 27.8161 37.8999 27.8161 38.9042ZM42.3388 36.7994L39.7699 37.5835C39.7837 36.3592 39.984 35.183 40.3707 34.0549C40.7712 32.9269 41.3444 31.9226 42.0902 31.0422C42.8498 30.1617 43.7821 29.467 44.887 28.958C45.9919 28.4353 47.2556 28.1739 48.6782 28.1739C49.8798 28.1739 50.9433 28.3321 51.8687 28.6485C52.8078 28.9649 53.5951 29.4533 54.2304 30.1136C54.8795 30.7602 55.3698 31.5925 55.7013 32.6105C56.0328 33.6285 56.1985 34.8391 56.1985 36.2422V50.9139H52.3451V36.201C52.3451 34.9491 52.1449 33.9793 51.7443 33.2914C51.3576 32.5898 50.8052 32.1015 50.087 31.8263C49.3826 31.5374 48.5401 31.393 47.5595 31.393C46.717 31.393 45.9712 31.5374 45.3221 31.8263C44.6729 32.1152 44.1274 32.5142 43.6854 33.0232C43.2434 33.5184 42.9051 34.0893 42.6703 34.7359C42.4493 35.3824 42.3388 36.0703 42.3388 36.7994Z" fill="white"/>
</svg>
