<svg width="160" height="114" viewBox="0 0 160 114" fill="none" xmlns="http://www.w3.org/2000/svg">
<path d="M9.02453 20.2268V47.8147H1.5762V13.1859H8.59185L9.02453 20.2268ZM7.8192 29.2201L5.28491 29.1881C5.28491 26.7984 5.57337 24.5901 6.15028 22.5632C6.72719 20.5362 7.57195 18.776 8.68457 17.2824C9.79718 15.7675 11.1776 14.6047 12.826 13.7939C14.4949 12.9618 16.4214 12.5458 18.6054 12.5458C20.1301 12.5458 21.5208 12.7805 22.7777 13.2499C24.0551 13.6979 25.1574 14.4127 26.0846 15.3942C27.0324 16.3756 27.7535 17.6345 28.248 19.1707C28.7631 20.7069 29.0207 22.5632 29.0207 24.7395V47.8147H21.5723V25.4116C21.5723 23.726 21.3251 22.4031 20.8306 21.443C20.3567 20.4829 19.6665 19.8001 18.7599 19.3947C17.8739 18.968 16.8128 18.7546 15.5766 18.7546C14.1755 18.7546 12.9805 19.032 11.9915 19.5868C11.0231 20.1415 10.2299 20.8989 9.61174 21.8591C8.99363 22.8192 8.54034 23.9287 8.25188 25.1875C7.96343 26.4464 7.8192 27.7906 7.8192 29.2201ZM28.5571 27.1718L25.0647 27.9719C25.0647 25.881 25.3429 23.9074 25.8992 22.0511C26.4761 20.1735 27.3105 18.5306 28.4025 17.1224C29.5152 15.6929 30.8853 14.5727 32.513 13.7619C34.1408 12.9512 36.0054 12.5458 38.107 12.5458C39.8171 12.5458 41.3418 12.7911 42.6811 13.2819C44.041 13.7513 45.1948 14.498 46.1426 15.5222C47.0903 16.5463 47.8115 17.8798 48.306 19.5227C48.8005 21.1443 49.0477 23.1072 49.0477 25.4116V47.8147H41.5685V25.3796C41.5685 23.63 41.3212 22.2751 40.8267 21.315C40.3528 20.3549 39.6729 19.6934 38.7869 19.3307C37.901 18.9467 36.8399 18.7546 35.6036 18.7546C34.4498 18.7546 33.4299 18.9787 32.5439 19.4267C31.6786 19.8535 30.9471 20.4615 30.3496 21.251C29.7521 22.0191 29.2988 22.9045 28.9898 23.9074C28.7013 24.9102 28.5571 25.9983 28.5571 27.1718Z" fill="#181818"/>
<path d="M64.6861 13.1859V47.8147H57.2069V13.1859H64.6861ZM56.7124 4.09657C56.7124 2.92308 57.0833 1.95227 57.825 1.18417C58.5873 0.394722 59.6381 0 60.9774 0C62.2961 0 63.3366 0.394722 64.0989 1.18417C64.8612 1.95227 65.2424 2.92308 65.2424 4.09657C65.2424 5.24874 64.8612 6.20887 64.0989 6.97698C63.3366 7.74509 62.2961 8.12914 60.9774 8.12914C59.6381 8.12914 58.5873 7.74509 57.825 6.97698C57.0833 6.20887 56.7124 5.24874 56.7124 4.09657Z" fill="#181818"/>
<path d="M94.2631 13.1859H101.031V46.8546C101.031 49.9697 100.393 52.6154 99.1153 54.7917C97.8379 56.968 96.0556 58.6216 93.7686 59.7524C91.4816 60.9045 88.8339 61.4806 85.8258 61.4806C84.5483 61.4806 83.1266 61.2886 81.5607 60.9045C80.0154 60.5205 78.5114 59.9017 77.0485 59.0483C75.6062 58.2162 74.4009 57.1174 73.4325 55.7518L76.9249 51.2072C78.1199 52.6794 79.4385 53.7569 80.8808 54.4396C82.3231 55.1224 83.8375 55.4638 85.424 55.4638C87.1341 55.4638 88.5867 55.1331 89.7817 54.4716C90.9974 53.8316 91.9348 52.8821 92.5942 51.6232C93.2535 50.3644 93.5832 48.8282 93.5832 47.0146V21.027L94.2631 13.1859ZM71.5472 30.8843V30.2122C71.5472 27.5879 71.8563 25.1982 72.4744 23.0432C73.0925 20.8669 73.9785 19 75.1323 17.4424C76.2861 15.8636 77.6872 14.6581 79.3355 13.8259C80.9838 12.9725 82.8485 12.5458 84.9295 12.5458C87.0929 12.5458 88.937 12.9512 90.4617 13.7619C92.007 14.5727 93.2947 15.7355 94.3249 17.2504C95.3551 18.744 96.1586 20.5362 96.7356 22.6272C97.3331 24.6968 97.7761 27.0011 98.0645 29.5401V31.6844C97.7967 34.1595 97.3434 36.4211 96.7047 38.4694C96.0659 40.5177 95.2212 42.2886 94.1704 43.7821C93.1196 45.2757 91.8215 46.4278 90.2762 47.2386C88.7515 48.0494 86.9487 48.4548 84.8677 48.4548C82.8279 48.4548 80.9838 48.0174 79.3355 47.1426C77.7078 46.2678 76.3067 45.041 75.1323 43.4621C73.9785 41.8832 73.0925 40.027 72.4744 37.8933C71.8563 35.7383 71.5472 33.402 71.5472 30.8843ZM78.9956 30.2122V30.8843C78.9956 32.4632 79.1398 33.9354 79.4282 35.301C79.7373 36.6665 80.2009 37.872 80.819 38.9175C81.4577 39.9416 82.2613 40.7524 83.2297 41.3498C84.2187 41.9259 85.3828 42.2139 86.722 42.2139C88.4734 42.2139 89.9053 41.8299 91.018 41.0618C92.1512 40.2937 93.0165 39.2588 93.6141 37.9573C94.2322 36.6345 94.6649 35.1623 94.9121 33.5407V27.7479C94.7885 26.4891 94.5309 25.3156 94.1395 24.2274C93.7686 23.1392 93.2638 22.1898 92.6251 21.379C91.9864 20.5469 91.1828 19.9068 90.2144 19.4587C89.246 18.9893 88.1025 18.7546 86.7839 18.7546C85.4446 18.7546 84.2805 19.0533 83.2915 19.6508C82.3025 20.2482 81.4886 21.0696 80.8499 22.1151C80.2318 23.1606 79.7682 24.3768 79.4591 25.7636C79.1501 27.1505 78.9956 28.6334 78.9956 30.2122Z" fill="#181818"/>
<path d="M116.237 19.7788V47.8147H108.789V13.1859H115.897L116.237 19.7788ZM126.467 12.9618L126.405 20.1308C125.952 20.0455 125.457 19.9815 124.922 19.9388C124.407 19.8961 123.892 19.8748 123.376 19.8748C122.099 19.8748 120.976 20.0668 120.008 20.4509C119.039 20.8136 118.225 21.347 117.566 22.0511C116.927 22.7339 116.433 23.566 116.083 24.5474C115.732 25.5289 115.526 26.6277 115.465 27.8439L113.765 27.9719C113.765 25.7956 113.971 23.7793 114.383 21.9231C114.795 20.0668 115.413 18.4346 116.237 17.0264C117.082 15.6182 118.133 14.5194 119.39 13.7299C120.667 12.9405 122.14 12.5458 123.809 12.5458C124.262 12.5458 124.747 12.5884 125.262 12.6738C125.797 12.7591 126.199 12.8551 126.467 12.9618Z" fill="#181818"/>
<path d="M128.909 30.8843V30.1482C128.909 27.6519 129.259 25.3369 129.959 23.2033C130.66 21.0483 131.67 19.1814 132.988 17.6025C134.327 16.0022 135.955 14.7647 137.871 13.8899C139.808 12.9938 141.992 12.5458 144.423 12.5458C146.875 12.5458 149.059 12.9938 150.975 13.8899C152.912 14.7647 154.55 16.0022 155.89 17.6025C157.229 19.1814 158.249 21.0483 158.949 23.2033C159.65 25.3369 160 27.6519 160 30.1482V30.8843C160 33.3807 159.65 35.6957 158.949 37.8293C158.249 39.9629 157.229 41.8299 155.89 43.4301C154.55 45.009 152.923 46.2465 151.006 47.1426C149.09 48.0174 146.916 48.4548 144.485 48.4548C142.033 48.4548 139.839 48.0174 137.902 47.1426C135.986 46.2465 134.358 45.009 133.019 43.4301C131.68 41.8299 130.66 39.9629 129.959 37.8293C129.259 35.6957 128.909 33.3807 128.909 30.8843ZM136.357 30.1482V30.8843C136.357 32.4419 136.511 33.9141 136.821 35.301C137.13 36.6878 137.614 37.904 138.273 38.9495C138.932 39.9949 139.777 40.8164 140.807 41.4138C141.838 42.0112 143.064 42.3099 144.485 42.3099C145.866 42.3099 147.061 42.0112 148.07 41.4138C149.101 40.8164 149.945 39.9949 150.605 38.9495C151.264 37.904 151.748 36.6878 152.057 35.301C152.387 33.9141 152.552 32.4419 152.552 30.8843V30.1482C152.552 28.612 152.387 27.1611 152.057 25.7956C151.748 24.4088 151.254 23.1819 150.574 22.1151C149.914 21.0483 149.07 20.2162 148.039 19.6188C147.03 19 145.824 18.6906 144.423 18.6906C143.022 18.6906 141.807 19 140.777 19.6188C139.767 20.2162 138.932 21.0483 138.273 22.1151C137.614 23.1819 137.13 24.4088 136.821 25.7956C136.511 27.1611 136.357 28.612 136.357 30.1482Z" fill="#181818"/>
<path d="M20.3361 103.983C20.3361 103.214 20.1507 102.521 19.7798 101.902C19.4089 101.262 18.6981 100.686 17.6473 100.174C16.6171 99.662 15.0924 99.1926 13.0732 98.7659C11.3013 98.3605 9.67356 97.8804 8.19007 97.3257C6.72719 96.7496 5.47035 96.0562 4.41955 95.2454C3.36875 94.4346 2.55489 93.4745 1.97798 92.365C1.40107 91.2555 1.11261 89.9753 1.11261 88.5244C1.11261 87.1162 1.41137 85.7827 2.00889 84.5239C2.6064 83.265 3.46146 82.1555 4.57408 81.1954C5.68669 80.2353 7.03625 79.4778 8.62275 78.9231C10.2299 78.3683 12.0224 78.091 14.0004 78.091C16.8025 78.091 19.2029 78.5817 21.2015 79.5632C23.2207 80.5233 24.766 81.8355 25.8374 83.4997C26.9088 85.1426 27.4445 86.9989 27.4445 89.0685H19.9961C19.9961 88.151 19.7695 87.2976 19.3162 86.5081C18.8835 85.6974 18.2242 85.0466 17.3382 84.5559C16.4523 84.0438 15.3396 83.7878 14.0004 83.7878C12.7229 83.7878 11.6618 84.0011 10.8171 84.4278C9.99292 84.8332 9.3748 85.3666 8.96272 86.0281C8.57124 86.6895 8.37551 87.4149 8.37551 88.2044C8.37551 88.7805 8.47853 89.3032 8.68457 89.7726C8.91121 90.2207 9.28208 90.6367 9.79718 91.0208C10.3123 91.3835 11.0128 91.7249 11.8988 92.0449C12.8054 92.365 13.9386 92.6743 15.2984 92.9731C17.8533 93.5278 20.0476 94.2426 21.8814 95.1173C23.7358 95.9708 25.1574 97.0803 26.1464 98.4458C27.1354 99.79 27.6299 101.497 27.6299 103.567C27.6299 105.103 27.3105 106.511 26.6718 107.791C26.0537 109.05 25.1471 110.149 23.9521 111.088C22.7571 112.005 21.3251 112.72 19.6562 113.232C18.0079 113.744 16.1535 114 14.0931 114C11.0643 114 8.49913 113.445 6.39753 112.336C4.29592 111.205 2.69912 109.765 1.60711 108.015C0.535703 106.244 0 104.409 0 102.51H7.20108C7.2835 103.94 7.66467 105.081 8.3446 105.935C9.04514 106.767 9.9105 107.375 10.9407 107.759C11.9915 108.122 13.0732 108.303 14.1858 108.303C15.5251 108.303 16.648 108.122 17.5546 107.759C18.4611 107.375 19.1514 106.863 19.6253 106.223C20.0992 105.561 20.3361 104.815 20.3361 103.983Z" fill="#181818"/>
<path d="M49.4804 78.731V84.3638H30.6278V78.731H49.4804ZM36.0672 70.2499H43.5155V103.791C43.5155 104.857 43.6598 105.679 43.9482 106.255C44.2573 106.81 44.6797 107.183 45.2154 107.375C45.7511 107.567 46.3795 107.663 47.1006 107.663C47.6157 107.663 48.1102 107.631 48.5841 107.567C49.058 107.503 49.4392 107.439 49.7276 107.375L49.7585 113.264C49.1404 113.456 48.4193 113.627 47.5951 113.776C46.7916 113.925 45.8644 114 44.8136 114C43.1035 114 41.5891 113.691 40.2704 113.072C38.9518 112.432 37.9216 111.397 37.1798 109.967C36.4381 108.538 36.0672 106.639 36.0672 104.271V70.2499Z" fill="#181818"/>
<path d="M53.0655 96.4295V95.6934C53.0655 93.1971 53.4157 90.8821 54.1163 88.7485C54.8168 86.5935 55.8264 84.7266 57.1451 83.1477C58.4843 81.5474 60.112 80.3099 62.0282 79.4352C63.965 78.539 66.149 78.091 68.5803 78.091C71.0321 78.091 73.2161 78.539 75.1323 79.4352C77.0691 80.3099 78.7071 81.5474 80.0464 83.1477C81.3856 84.7266 82.4055 86.5935 83.106 88.7485C83.8066 90.8821 84.1568 93.1971 84.1568 95.6934V96.4295C84.1568 98.9259 83.8066 101.241 83.106 103.375C82.4055 105.508 81.3856 107.375 80.0464 108.975C78.7071 110.554 77.0794 111.792 75.1632 112.688C73.2471 113.563 71.0733 114 68.6421 114C66.1902 114 63.9959 113.563 62.0591 112.688C60.1429 111.792 58.5152 110.554 57.176 108.975C55.8367 107.375 54.8168 105.508 54.1163 103.375C53.4157 101.241 53.0655 98.9259 53.0655 96.4295ZM60.5138 95.6934V96.4295C60.5138 97.9871 60.6683 99.4593 60.9774 100.846C61.2865 102.233 61.7707 103.449 62.43 104.495C63.0893 105.54 63.9341 106.362 64.9643 106.959C65.9945 107.556 67.2204 107.855 68.6421 107.855C70.0225 107.855 71.2176 107.556 72.2272 106.959C73.2574 106.362 74.1021 105.54 74.7614 104.495C75.4208 103.449 75.905 102.233 76.214 100.846C76.5437 99.4593 76.7085 97.9871 76.7085 96.4295V95.6934C76.7085 94.1572 76.5437 92.7063 76.214 91.3408C75.905 89.954 75.4105 88.7271 74.7305 87.6603C74.0712 86.5935 73.2264 85.7614 72.1963 85.164C71.1867 84.5452 69.9813 84.2358 68.5803 84.2358C67.1792 84.2358 65.9636 84.5452 64.9334 85.164C63.9238 85.7614 63.0893 86.5935 62.43 87.6603C61.7707 88.7271 61.2865 89.954 60.9774 91.3408C60.6683 92.7063 60.5138 94.1572 60.5138 95.6934Z" fill="#181818"/>
<path d="M97.8791 85.324V113.36H90.4307V78.731H97.5391L97.8791 85.324ZM108.109 78.507L108.047 85.676C107.594 85.5907 107.099 85.5267 106.564 85.484C106.049 85.4413 105.533 85.42 105.018 85.42C103.741 85.42 102.618 85.612 101.65 85.9961C100.681 86.3588 99.8674 86.8922 99.208 87.5963C98.5693 88.2791 98.0748 89.1112 97.7245 90.0926C97.3743 91.0741 97.1682 92.1729 97.1064 93.3891L95.4066 93.5171C95.4066 91.3408 95.6126 89.3245 96.0247 87.4683C96.4368 85.612 97.0549 83.9798 97.8791 82.5716C98.7238 81.1634 99.7746 80.0646 101.031 79.2751C102.309 78.4857 103.782 78.091 105.451 78.091C105.904 78.091 106.389 78.1336 106.904 78.219C107.439 78.3043 107.841 78.4003 108.109 78.507Z" fill="#181818"/>
<path d="M126.9 114C124.427 114 122.192 113.584 120.193 112.752C118.215 111.898 116.526 110.714 115.125 109.199C113.744 107.684 112.683 105.903 111.941 103.855C111.2 101.806 110.829 99.598 110.829 97.2296V95.9495C110.829 93.2398 111.21 90.7861 111.972 88.5884C112.735 86.3908 113.796 84.5132 115.155 82.9556C116.515 81.3768 118.122 80.1713 119.977 79.3391C121.831 78.507 123.84 78.091 126.003 78.091C128.394 78.091 130.485 78.507 132.277 79.3391C134.07 80.1713 135.553 81.3447 136.728 82.8596C137.923 84.3532 138.809 86.1348 139.386 88.2044C139.983 90.274 140.282 92.557 140.282 95.0533V98.3498H114.445V92.813H132.926V92.2049C132.885 90.8181 132.617 89.5166 132.123 88.3004C131.649 87.0842 130.918 86.1028 129.929 85.356C128.94 84.6092 127.621 84.2358 125.973 84.2358C124.736 84.2358 123.634 84.5132 122.666 85.0679C121.718 85.6013 120.925 86.3801 120.286 87.4043C119.647 88.4284 119.153 89.6659 118.802 91.1168C118.473 92.5463 118.308 94.1572 118.308 95.9495V97.2296C118.308 98.7445 118.504 100.153 118.895 101.454C119.307 102.734 119.905 103.855 120.688 104.815C121.471 105.775 122.418 106.532 123.531 107.087C124.644 107.62 125.911 107.887 127.332 107.887C129.125 107.887 130.722 107.514 132.123 106.767C133.524 106.02 134.74 104.964 135.77 103.599L139.695 107.535C138.974 108.623 138.036 109.669 136.882 110.672C135.729 111.653 134.317 112.453 132.648 113.072C131 113.691 129.084 114 126.9 114Z" fill="#181818"/>
<path d="M146.401 109.519C146.401 108.325 146.793 107.322 147.576 106.511C148.359 105.679 149.42 105.263 150.759 105.263C152.119 105.263 153.18 105.679 153.942 106.511C154.725 107.322 155.117 108.325 155.117 109.519C155.117 110.714 154.725 111.717 153.942 112.528C153.18 113.339 152.119 113.744 150.759 113.744C149.42 113.744 148.359 113.339 147.576 112.528C146.793 111.717 146.401 110.714 146.401 109.519Z" fill="#181818"/>
</svg>
