<svg width="16" height="17" viewBox="0 0 16 17" fill="none" xmlns="http://www.w3.org/2000/svg">
<path d="M3.33325 2.5H7.33325C7.86369 2.5 8.37239 2.71071 8.74747 3.08579C9.12254 3.46086 9.33325 3.96957 9.33325 4.5V7.16667H8.66659V4.5C8.66659 4.14638 8.52611 3.80724 8.27606 3.55719C8.02601 3.30714 7.68687 3.16667 7.33325 3.16667H3.33325C2.97963 3.16667 2.64049 3.30714 2.39044 3.55719C2.14039 3.80724 1.99992 4.14638 1.99992 4.5V13.1667C1.99992 13.5203 2.14039 13.8594 2.39044 14.1095C2.64049 14.3595 2.97963 14.5 3.33325 14.5H7.33325C7.68687 14.5 8.02601 14.3595 8.27606 14.1095C8.52611 13.8594 8.66659 13.5203 8.66659 13.1667V10.5H9.33325V13.1667C9.33325 13.6971 9.12254 14.2058 8.74747 14.5809C8.37239 14.956 7.86369 15.1667 7.33325 15.1667H3.33325C2.80282 15.1667 2.29411 14.956 1.91904 14.5809C1.54397 14.2058 1.33325 13.6971 1.33325 13.1667V4.5C1.33325 3.96957 1.54397 3.46086 1.91904 3.08579C2.29411 2.71071 2.80282 2.5 3.33325 2.5ZM5.33325 8.5H12.8333L10.6666 6.33333L11.1093 5.83333L14.1093 8.83333L11.1093 11.8333L10.6666 11.3333L12.8333 9.16667H5.33325V8.5Z" fill="#909090"/>
</svg>
