<svg width="16" height="17" viewBox="0 0 16 17" fill="none" xmlns="http://www.w3.org/2000/svg">
<path d="M1 5.25C1 4.65326 1.23705 4.08097 1.65901 3.65901C2.08097 3.23705 2.65326 3 3.25 3H12.75C13.3467 3 13.919 3.23705 14.341 3.65901C14.7629 4.08097 15 4.65326 15 5.25V11.75C15 12.3467 14.7629 12.919 14.341 13.341C13.919 13.7629 13.3467 14 12.75 14H3.25C2.65326 14 2.08097 13.7629 1.65901 13.341C1.23705 12.919 1 12.3467 1 11.75V5.25ZM3.25 4C2.91848 4 2.60054 4.1317 2.36612 4.36612C2.1317 4.60054 2 4.91848 2 5.25V6H14V5.25C14 4.91848 13.8683 4.60054 13.6339 4.36612C13.3995 4.1317 13.0815 4 12.75 4H3.25ZM2 11.75C2 12.0815 2.1317 12.3995 2.36612 12.6339C2.60054 12.8683 2.91848 13 3.25 13H12.75C13.0815 13 13.3995 12.8683 13.6339 12.6339C13.8683 12.3995 14 12.0815 14 11.75V7H2V11.75ZM10.5 10H12C12.1326 10 12.2598 10.0527 12.3536 10.1464C12.4473 10.2402 12.5 10.3674 12.5 10.5C12.5 10.6326 12.4473 10.7598 12.3536 10.8536C12.2598 10.9473 12.1326 11 12 11H10.5C10.3674 11 10.2402 10.9473 10.1464 10.8536C10.0527 10.7598 10 10.6326 10 10.5C10 10.3674 10.0527 10.2402 10.1464 10.1464C10.2402 10.0527 10.3674 10 10.5 10Z" fill="#909090"/>
</svg>
