<svg width="16" height="17" viewBox="0 0 16 17" fill="none" xmlns="http://www.w3.org/2000/svg">
<path d="M5.625 6.5C5.625 6.40054 5.66451 6.30516 5.73484 6.23484C5.80516 6.16451 5.90054 6.125 6 6.125H10C10.0995 6.125 10.1948 6.16451 10.2652 6.23484C10.3355 6.30516 10.375 6.40054 10.375 6.5C10.375 6.59946 10.3355 6.69484 10.2652 6.76516C10.1948 6.83549 10.0995 6.875 10 6.875H6C5.90054 6.875 5.80516 6.83549 5.73484 6.76516C5.66451 6.69484 5.625 6.59946 5.625 6.5ZM6 8.875H10C10.0995 8.875 10.1948 8.83549 10.2652 8.76517C10.3355 8.69484 10.375 8.59946 10.375 8.5C10.375 8.40054 10.3355 8.30516 10.2652 8.23484C10.1948 8.16451 10.0995 8.125 10 8.125H6C5.90054 8.125 5.80516 8.16451 5.73484 8.23484C5.66451 8.30516 5.625 8.40054 5.625 8.5C5.625 8.59946 5.66451 8.69484 5.73484 8.76517C5.80516 8.83549 5.90054 8.875 6 8.875ZM8 10.125H6C5.90054 10.125 5.80516 10.1645 5.73484 10.2348C5.66451 10.3052 5.625 10.4005 5.625 10.5C5.625 10.5995 5.66451 10.6948 5.73484 10.7652C5.80516 10.8355 5.90054 10.875 6 10.875H8C8.09946 10.875 8.19484 10.8355 8.26517 10.7652C8.33549 10.6948 8.375 10.5995 8.375 10.5C8.375 10.4005 8.33549 10.3052 8.26517 10.2348C8.19484 10.1645 8.09946 10.125 8 10.125ZM13.875 3.5V10.2937C13.873 10.5254 13.7811 10.7473 13.6187 10.9125L10.4125 14.1187C10.2473 14.2811 10.0254 14.373 9.79375 14.375H3C2.76794 14.375 2.54538 14.2828 2.38128 14.1187C2.21719 13.9546 2.125 13.7321 2.125 13.5V3.5C2.125 3.26794 2.21719 3.04538 2.38128 2.88128C2.54538 2.71719 2.76794 2.625 3 2.625H13C13.2321 2.625 13.4546 2.71719 13.6187 2.88128C13.7828 3.04538 13.875 3.26794 13.875 3.5ZM3 13.625H9.625V10.5C9.625 10.4005 9.66451 10.3052 9.73483 10.2348C9.80516 10.1645 9.90054 10.125 10 10.125H13.125V3.5C13.125 3.46685 13.1118 3.43505 13.0884 3.41161C13.0649 3.38817 13.0332 3.375 13 3.375H3C2.96685 3.375 2.93505 3.38817 2.91161 3.41161C2.88817 3.43505 2.875 3.46685 2.875 3.5V13.5C2.875 13.5332 2.88817 13.5649 2.91161 13.5884C2.93505 13.6118 2.96685 13.625 3 13.625ZM12.5938 10.875H10.375V13.0938L12.5938 10.875Z" fill="#909090"/>
</svg>
