<svg width="256" height="256" viewBox="0 0 256 256" fill="none" xmlns="http://www.w3.org/2000/svg">
<path fill-rule="evenodd" clip-rule="evenodd" d="M27.9988 0.0871975C25.1933 0.311193 22.1799 1.01828 19.4359 2.09643C10.0016 5.80331 2.95258 14.0091 0.749929 23.8486C-1.28709 32.9485 0.874494 42.4235 6.64049 49.6691C10.3978 54.3905 15.5683 57.9764 21.2174 59.7787L22.205 60.0938V60.4459C22.205 60.769 21.8919 66.1726 21.5658 71.4765C21.4573 73.241 21.1931 77.6899 20.7992 84.3846C20.7744 84.8063 20.6965 86.0908 20.6262 87.2389C20.556 88.387 20.3461 91.9335 20.1599 95.12C19.8542 100.35 19.6514 103.744 19.5123 105.96L19.4629 106.747L18.853 107.084C17.4293 107.87 16.1328 108.97 13.3818 111.726C11.5816 113.53 10.8611 114.315 9.45106 116.009C4.53871 121.911 1.47219 128.159 0.646832 133.946C0.497301 134.995 0.745496 135.938 1.37173 136.703C1.63765 137.027 1.65759 137.088 1.58312 137.348C1.36117 138.122 1.53115 139.943 1.97173 141.512C2.74068 144.252 3.39751 145.394 4.52244 145.948C5.00332 146.185 5.15064 146.216 5.79238 146.216C7.12384 146.216 8.67811 145.522 10.5536 144.092C10.8784 143.844 11.0435 143.761 11.0435 143.845C11.0435 143.915 10.9274 144.461 10.7854 145.059C9.68154 149.705 8.93099 153.679 8.85388 155.285C8.80864 156.227 8.82039 156.352 8.98637 156.691C9.50551 157.748 11.2061 158.951 13.131 159.622C13.5059 159.753 13.8242 159.868 13.8383 159.878C13.8524 159.888 13.6526 160.677 13.3942 161.632C11.71 167.854 10.629 174.114 10.1079 180.663C10.0594 181.272 10.0012 181.905 9.97847 182.069C9.94379 182.319 9.83805 184.023 9.55518 188.885C9.31448 193.022 9.28509 207.969 9.50525 214.232C9.6259 217.664 9.91269 224.04 10.0246 225.777C10.4247 231.989 10.8463 237.321 10.9591 237.595C11.0109 237.721 11.1722 237.823 11.4447 237.902L11.8529 238.021L11.9078 238.779C11.938 239.196 11.9668 240.002 11.9717 240.569L11.9807 241.601L11.7672 241.56C11.4791 241.505 11.3541 241.625 10.7645 242.519C9.60672 244.276 8.71329 246.561 7.94647 249.727C7.29161 252.431 7.22932 253.06 7.54576 253.776C7.87013 254.51 8.41219 254.927 9.24581 255.085C10.1111 255.249 13.4561 255.348 15.0558 255.257C16.8526 255.154 17.1206 255.072 17.7288 254.437C18.2171 253.927 18.5039 253.349 18.6759 252.529C18.8295 251.795 18.7736 251.222 18.3853 249.548C18.1582 248.57 18.1579 248.565 18.1579 245.006C18.1579 241.624 18.1499 241.438 17.9999 241.354C17.868 241.28 17.7723 241.334 17.4247 241.676C17.1954 241.902 17.0077 242.066 17.0077 242.041C17.0077 241.923 17.5272 238.333 17.5563 238.25C17.5756 238.195 17.9152 238.137 18.3716 238.111C18.8751 238.083 19.1919 238.025 19.2609 237.95C19.3272 237.878 19.4056 237.316 19.4673 236.47C19.694 233.361 20.4636 228.603 21.9136 221.347C22.2648 219.589 22.6483 217.711 22.7659 217.172C22.8835 216.633 23.0545 215.847 23.146 215.425C23.9775 211.59 25.0869 206.666 25.8283 203.518C26.5874 200.296 27.616 195.996 28.3814 192.847C28.9027 190.701 31.0719 182.025 31.4914 180.407C31.6737 179.704 31.9062 178.803 32.008 178.405C32.1099 178.007 32.2039 177.669 32.2167 177.655C32.2779 177.586 33.144 180.045 33.6516 181.728C35.6612 188.391 38.6767 201.934 41.7897 218.279C42.4741 221.873 43.3303 226.45 43.7103 228.546C44.4831 232.809 44.8839 235.031 44.9555 235.448C45.4294 238.209 45.7365 239.794 45.8157 239.89C45.8778 239.964 46.0988 240.006 46.4342 240.007C46.7214 240.008 47.0071 240.041 47.0693 240.08C47.1865 240.154 47.254 240.581 47.4675 242.596C47.5365 243.247 47.6176 243.966 47.6478 244.194L47.7026 244.607L47.4361 244.554C47.0954 244.485 46.9648 244.596 46.652 245.215C46.0023 246.502 45.7219 248.15 45.66 251.045C45.6084 253.455 45.6734 253.895 46.1624 254.452C46.6651 255.025 46.9445 255.106 48.6604 255.18C51.808 255.315 61.199 255.447 63.9542 255.394C66.8009 255.34 66.8097 255.339 67.2621 255.119C68.1119 254.705 68.4961 253.846 68.2516 252.907C68.0589 252.167 67.5896 251.468 66.6832 250.571C65.3339 249.235 63.5143 248.055 60.4609 246.535C56.5979 244.611 56.1251 244.436 54.7845 244.436C54.3506 244.436 53.9782 244.408 53.957 244.372C53.9359 244.337 53.9048 243.312 53.8881 242.093L53.8577 239.878L54.3153 239.822C54.5669 239.791 54.8223 239.715 54.8829 239.652C55.0525 239.475 55.2054 234.287 55.204 228.759C55.2025 223.017 55.0423 216.832 54.7474 211.122C54.6019 208.306 54.2533 202.372 54.1144 200.344C53.907 197.318 53.4031 191.045 53.0879 187.564C52.586 182.021 52.5069 181.209 51.8536 174.912C51.642 172.871 50.8803 166.187 50.5514 163.483L50.3581 161.894L51.1281 161.855C52.1615 161.803 52.7757 161.563 53.3521 160.987C54.038 160.301 54.1966 159.807 54.1885 158.382C54.1848 157.75 54.1186 156.3 54.0411 155.16C53.9637 154.02 53.9004 153.052 53.9004 153.009C53.9004 152.961 55.4135 152.93 57.6946 152.93C61.8766 152.93 61.8429 152.933 62.4065 152.393C62.5629 152.243 62.7445 152.018 62.8101 151.892C62.8758 151.767 63.2017 150.559 63.5344 149.208C63.8671 147.858 64.1946 146.557 64.2623 146.317L64.3853 145.882L64.9432 145.79C65.6721 145.669 66.4621 145.291 66.9199 144.844C67.9277 143.859 68.5997 142.175 68.7762 140.192C68.8212 139.685 68.8857 139.445 69.0274 139.255C69.2794 138.917 69.6851 138.091 69.8853 137.508C70.0149 137.131 70.0456 136.799 70.0431 135.804L70.04 134.568L69.6468 133.546C69.4305 132.984 69.0359 131.971 68.7699 131.296L68.2862 130.068L68.8468 127.802C69.1551 126.556 69.407 125.365 69.4064 125.154C69.4046 124.408 68.8585 123.604 68.1532 123.309C67.9671 123.231 67.488 123.194 66.6622 123.193C65.9929 123.192 65.4021 123.163 65.3493 123.129C65.2964 123.094 64.9943 122.549 64.6779 121.916C64.0262 120.613 62.8231 118.45 62.1737 117.414L61.7378 116.719H69.5228C74.1406 116.719 77.4833 116.685 77.7391 116.637C78.696 116.455 79.4775 115.862 79.876 115.015C80.1715 114.386 80.1887 113.306 79.9129 112.699C79.6578 112.138 79.0988 111.565 78.536 111.289L78.0553 111.053L67.6645 111.03L57.2737 111.008L56.5029 110.256C55.4775 109.257 54.5638 108.546 53.7087 108.082C52.1236 107.222 49.973 106.496 48.277 106.247C47.3832 106.117 43.5525 105.728 43.1568 105.728C42.9096 105.728 42.7531 105.66 42.5146 105.451C42.0763 105.066 41.8749 104.561 41.822 103.713L41.7778 103.005L42.885 103.018C44.7883 103.041 44.9171 102.864 45.2535 99.7635C45.3221 99.1309 45.3787 98.4126 45.3792 98.1675C45.38 97.7584 45.4104 97.69 45.7489 97.3368C46.0585 97.0136 46.1693 96.9519 46.4389 96.9519C46.8746 96.9519 47.3203 96.7255 47.4755 96.4253C47.591 96.2019 47.5868 96.0405 47.4321 94.7967C47.3377 94.0373 47.2345 93.023 47.2028 92.5427L47.145 91.6693L47.3489 91.6701C47.461 91.6705 48.032 91.8044 48.6178 91.9676C49.2036 92.1307 49.8593 92.2646 50.0749 92.265C50.8024 92.2664 51.2433 91.7925 51.62 90.6043C51.8872 89.7613 51.8834 88.377 51.6116 87.5465C51.2531 86.451 50.6329 85.7068 49.7363 85.2963L49.2709 85.0832L48.8219 85.2358C48.2717 85.4229 47.948 85.3796 47.2216 85.022C46.6194 84.7255 45.1875 83.6784 43.9876 82.6569C43.0204 81.8336 42.7804 81.6665 42.3765 81.5354C41.7089 81.319 41.2286 81.6563 40.7287 82.6927C40.5674 83.0274 40.3847 83.3433 40.3228 83.3945C40.2363 83.4664 40.0443 83.3456 39.4904 82.8712C37.9989 81.5937 37.7094 81.4218 36.7368 81.2357C36.0278 81.1001 35.786 81.1389 35.1997 81.4825C34.692 81.78 34.1848 82.3824 33.8195 83.1215C33.4115 83.947 33.3666 84.5967 33.6207 86.0034C33.8546 87.2988 33.9322 89.2213 33.7979 90.3952C33.7419 90.8852 33.5617 91.9569 33.3973 92.777C33.0538 94.4917 33.0623 94.8453 33.4564 95.2394C33.5941 95.3771 33.822 95.515 33.9627 95.546C34.1035 95.5769 34.2186 95.6422 34.2186 95.6912C34.2186 95.7401 34.048 96.9544 33.8396 98.3896C33.6311 99.8247 33.3798 101.574 33.2813 102.277C33.0717 103.77 32.8491 104.326 32.2895 104.753L31.9386 105.02L28.8397 105.074C24.1395 105.154 23.0441 105.301 20.8889 106.14C20.5165 106.285 20.1934 106.386 20.171 106.363C20.1486 106.341 20.1781 105.527 20.2365 104.555C20.4322 101.301 20.5843 98.7206 20.755 95.759C20.8483 94.1423 20.9631 92.2253 21.0103 91.4989C21.0575 90.7726 21.1731 88.8556 21.2671 87.2389C21.3612 85.6221 21.4955 83.3409 21.5654 82.1693C21.6354 80.9978 21.7122 79.6942 21.736 79.2725C21.7598 78.8507 21.8365 77.5855 21.9066 76.4608C21.9765 75.3362 22.1103 73.0932 22.2038 71.4765C22.2974 69.8598 22.433 67.5593 22.5054 66.3644C22.5776 65.1694 22.6873 63.3379 22.749 62.2945C22.8108 61.251 22.8826 60.376 22.9085 60.35C22.9344 60.3241 23.4086 60.4044 23.9622 60.5287C27.9688 61.4272 32.616 61.4765 36.6718 60.6635C41.4599 59.7036 45.9759 57.5858 49.8532 54.482C50.8915 53.6508 53.0018 51.6024 53.8943 50.5594C57.3633 46.5057 59.6805 41.7148 60.7179 36.4515C61.3893 33.0455 61.4323 29.0086 60.8353 25.4249C60.049 20.7038 58.0557 16.1051 55.0836 12.1547L54.3305 11.1536L148.839 11.155C231.827 11.1564 243.421 11.1719 243.945 11.2822C246.169 11.7511 247.885 13.2838 248.247 15.1237C248.351 15.6484 248.332 16.0844 247.949 22.0168C247.88 23.0946 247.746 25.2417 247.651 26.7881C247.556 28.3345 247.422 30.4816 247.352 31.5594C247.282 32.6372 247.205 33.8641 247.181 34.2859C247.157 34.7076 247.081 35.9345 247.011 37.0123C246.941 38.0901 246.73 41.4641 246.543 44.5101C246.356 47.5561 246.145 50.9301 246.075 52.0079C246.004 53.0857 245.793 56.4597 245.606 59.5056C245.419 62.5516 245.209 65.9256 245.14 67.0034C245.07 68.0812 244.975 69.5957 244.928 70.3689C244.702 74.0568 244.317 80.2388 244.203 81.9989C244.133 83.0767 244.038 84.5912 243.99 85.3644C243.849 87.6851 243.404 94.8067 243.264 96.9945C243.192 98.1191 242.981 101.512 242.796 104.535C242.61 107.557 242.419 110.605 242.371 111.308C242.322 112.011 242.226 113.564 242.156 114.759C242.087 115.954 241.991 117.488 241.943 118.167C241.895 118.847 241.779 120.687 241.686 122.257C241.593 123.827 241.478 125.667 241.431 126.347C241.383 127.026 241.288 128.56 241.219 129.755C241.15 130.95 241.054 132.483 241.006 133.163C240.959 133.842 240.843 135.683 240.749 137.252C240.655 138.822 240.521 140.969 240.452 142.024C240.383 143.078 240.288 144.612 240.24 145.432C240.192 146.252 240.114 147.498 240.066 148.201C240.019 148.904 239.904 150.725 239.81 152.248C239.651 154.854 239.474 157.706 239.171 162.557C238.914 166.655 238.888 166.927 238.706 167.456C238.12 169.152 236.486 170.413 234.403 170.777C233.992 170.848 233.526 170.907 233.368 170.907H233.081L233.081 163.857C233.08 156.697 232.983 151.296 232.823 149.521C232.617 147.237 231.85 144.851 230.056 140.916C229.005 138.61 228.784 138.115 228.426 137.255C228.222 136.764 228.054 136.33 228.054 136.29C228.054 136.25 228.321 135.942 228.646 135.606C232.611 131.513 235.532 123.541 236.91 113.055C237.761 106.578 237.895 99.4426 237.25 94.8644C236.494 89.4927 234.622 83.9184 230.886 75.907C230.065 74.1472 226.563 67.1252 225.245 64.5973C224.775 63.6958 224.391 62.9391 224.391 62.9158C224.391 62.8926 224.63 62.7527 224.923 62.605C227.762 61.1735 230.37 58.8506 232.181 56.1402C235.52 51.1449 236.896 45.2339 235.89 40.2115C235.544 38.4869 234.855 36.8044 233.918 35.3935C233.273 34.4223 231.861 33.0331 230.818 32.3434C229.83 31.6896 229.132 31.3558 228.078 31.0326C227.376 30.8171 227.228 30.8029 225.669 30.801C224.097 30.7992 223.91 30.817 222.218 31.1303C220.621 31.4259 220.278 31.4621 219.023 31.4672C217.5 31.4734 217.074 31.4095 215.829 30.988C214.122 30.4099 212.107 29.1009 210.597 27.5897C209.565 26.557 208.82 25.5006 207.691 23.4686C206.898 22.0398 206.661 21.6987 206.035 21.0796C204.854 19.9134 202.579 19.2023 200.747 19.4268C199.755 19.5483 198.99 19.7815 197.125 20.5313C194.047 21.7687 192.66 22.07 189.884 22.105C187.921 22.1297 187.513 22.19 186.688 22.5768C185.117 23.3141 184.033 24.83 183.7 26.7568C183.338 28.8493 184.051 30.8203 185.611 32.0363L185.895 32.2576L185.793 32.9306C185.662 33.791 185.403 34.502 184.995 35.1162C184.563 35.7665 184.605 35.9344 185.371 36.62C185.697 36.9116 185.98 37.2343 186 37.337C186.256 38.642 186.689 40.1347 186.975 40.6958C187.201 41.139 187.473 41.2267 188.859 41.3034L189.837 41.3576L190.105 42.5079C190.912 45.9751 191.007 46.4498 190.908 46.5112C190.853 46.5451 190.207 46.7672 189.472 47.0046C188.5 47.3188 187.893 47.4622 187.242 47.5317C186.75 47.5842 186.223 47.6489 186.071 47.6756C185.801 47.7229 185.794 47.7163 185.794 47.4194C185.794 47.0013 185.646 46.9461 184.771 47.0374C182.636 47.2603 180.58 48.1354 179.476 49.2922C179.258 49.5206 178.61 50.3784 178.037 51.1985C176.959 52.74 175.663 54.4741 175.284 54.8834L175.066 55.1177H172.988C170.972 55.1177 170.9 55.1236 170.627 55.3094C170.471 55.4148 170.267 55.6509 170.173 55.8338C170.013 56.1433 170.008 56.2163 170.105 56.8831C170.162 57.2773 170.228 57.7027 170.252 57.8285C170.292 58.038 170.254 58.0766 169.792 58.289C169.039 58.6355 168.472 59.1904 168.099 59.946C167.824 60.5031 167.778 60.6826 167.747 61.3331L167.711 62.0804L167.189 62.3844C165.074 63.6143 163.036 64.2331 161.096 64.234C159.267 64.2348 157.558 63.7934 155.611 62.8179C155.004 62.5138 154.425 62.2768 154.324 62.2911C154.198 62.3092 154.054 62.4829 153.859 62.8504L153.577 63.3836L153.178 63.1113C152.585 62.7079 151.699 61.8325 150.892 60.8545C149.488 59.1535 149.043 58.8976 147.277 58.7789C145.628 58.6681 144.574 58.2066 143.278 57.0292C142.512 56.3333 142.042 56.0599 141.607 56.0568C141.087 56.0532 140.724 56.5695 140.722 57.3117C140.722 57.6391 140.671 57.6511 140.361 57.3965C140.154 57.2271 140.112 57.1027 139.997 56.3106C138.724 47.558 133.233 39.8369 125.282 35.6175C123.436 34.6383 121.063 33.7422 119.08 33.2762C113.84 32.0446 108.502 32.4056 103.428 34.335C96.3229 37.037 90.3212 43.0666 87.6183 50.2186C86.3857 53.4801 85.8538 56.3797 85.8521 59.847C85.8506 63.0088 86.3418 65.6966 87.4727 68.7142C88.9199 72.5759 90.9993 75.7586 94.3659 79.2644C96.0725 81.0415 97.0113 82.1808 97.9881 83.6604C99.8058 86.4136 100.58 88.1625 101.872 92.4362C102.363 94.0616 103.134 95.4481 104.153 96.5368L104.673 97.0931L104.213 97.5478C103.36 98.3896 102.957 99.4814 103.151 100.424C103.206 100.693 103.402 101.201 103.587 101.553C103.976 102.292 103.974 102.508 103.567 103.168C103.184 103.792 103.015 104.586 103.136 105.194C103.344 106.229 104.041 107.168 105.171 107.93L105.703 108.29V108.781C105.703 110.32 107.581 111.757 110.335 112.326C112.621 112.798 115.114 112.644 117.189 111.902C118.25 111.523 118.832 111.171 119.513 110.499C120.138 109.882 120.355 109.415 120.362 108.673C120.366 108.244 120.369 108.239 120.833 107.945C121.384 107.597 122.059 106.954 122.392 106.462C123.121 105.384 123.134 104.16 122.427 103.077C122.076 102.54 122.085 102.268 122.481 101.505C122.947 100.608 123.053 100.017 122.873 99.3169C122.715 98.7002 122.413 98.1395 122.01 97.716L121.723 97.4151L122.281 96.8213C123.635 95.3783 124.43 93.8653 125.078 91.4989C125.694 89.2456 126.728 86.8115 127.928 84.7865C129.088 82.8286 130.129 81.5021 132.147 79.4102C134.691 76.7724 136.086 74.8598 137.451 72.1386C138.938 69.174 139.937 65.6168 140.178 62.4238C140.215 61.9409 140.27 61.6783 140.335 61.6783C140.39 61.6783 140.989 61.9576 141.665 62.2989L142.894 62.9194L142.867 63.4481C142.835 64.0588 143.016 64.7752 143.328 65.2695C143.646 65.7723 144.684 66.8308 145.159 67.1352C146.088 67.7317 147.553 67.921 148.843 67.6113C149.57 67.4367 150.275 67.4338 150.846 67.6032L151.287 67.7343L151.074 68.135C150.957 68.3554 150.861 68.6127 150.862 68.7068C150.864 68.9185 152.396 70.7103 153.301 71.5587C155.947 74.0406 159.295 75.652 163.428 76.4328C164.817 76.6952 168.146 76.7187 169.478 76.4756C170.503 76.2885 171.739 75.9694 172.527 75.6886C172.953 75.5366 173.113 75.5103 173.137 75.5883C173.154 75.6465 173.328 76.71 173.523 77.9518C173.718 79.1937 174.087 81.4924 174.344 83.0601L174.809 85.9106L174.596 86.809C174.035 89.1734 173.49 92.4178 173.038 96.0998C172.822 97.8561 172.823 103.433 173.04 105.813C173.655 112.562 174.798 118.172 176.517 122.884C176.888 123.899 177.071 124.357 177.587 125.557C177.622 125.641 174.551 125.668 162.777 125.685L147.921 125.708L147.502 125.914C147.271 126.028 146.942 126.26 146.771 126.432C145.597 127.606 145.817 129.693 147.208 130.571C147.975 131.055 147.117 131.032 164.618 131.037L180.724 131.042L181.278 131.768C181.968 132.673 183.522 134.251 184.333 134.869L184.944 135.335L172.099 135.378L159.253 135.421L158.766 135.66C157.864 136.102 157.251 137.075 157.251 138.062C157.251 139.049 157.864 140.021 158.766 140.464L159.253 140.703L174.51 140.725L189.767 140.747L189.872 142.344C189.931 143.222 190.001 144.161 190.028 144.43L190.078 144.918L169.383 144.941C149.681 144.962 148.672 144.97 148.347 145.116C147.483 145.504 146.972 146.073 146.726 146.92C146.363 148.166 146.97 149.474 148.177 150.046L148.688 150.288L169.582 150.288L190.477 150.288L190.516 150.48C190.538 150.585 190.617 151.362 190.692 152.205C190.767 153.049 190.85 153.921 190.878 154.143L190.928 154.547L169.425 154.569L147.921 154.591L147.486 154.821C145.504 155.866 145.526 158.656 147.524 159.637L148.007 159.873H169.478C181.287 159.873 191.063 159.854 191.203 159.831L191.457 159.788L191.558 160.64C191.614 161.109 191.742 162.202 191.843 163.069C192.39 167.78 193.61 176.638 193.79 177.206C193.832 177.338 193.962 177.449 194.149 177.512L194.442 177.61L194.466 178.476L194.49 179.342H193.049H191.607L190.596 180.251C190.04 180.751 189.259 181.455 188.861 181.814C188.463 182.174 184.437 185.795 179.915 189.861C175.393 193.927 170.987 197.891 170.125 198.671C169.263 199.451 168.507 200.127 168.445 200.174C168.353 200.244 168.33 205.067 168.32 227.439L168.307 254.618L171.278 254.67C172.912 254.699 185.272 254.747 198.745 254.777C212.217 254.807 225.353 254.856 227.935 254.885L232.63 254.939L233.473 254.177C233.937 253.758 236.215 251.709 238.534 249.623C240.854 247.537 242.963 245.639 243.22 245.405C244.143 244.57 252.216 237.306 253.104 236.513C253.602 236.067 254.458 235.301 255.005 234.809L255.999 233.914L256 206.718C256.001 185.342 255.978 179.509 255.896 179.458C255.839 179.423 250.753 179.372 244.593 179.347L233.395 179.3L233.156 178.587C232.879 177.764 232.794 177.638 232.517 177.638H232.314V175.312V172.986L232.698 172.8L233.081 172.613V172.058V171.504H233.542C235.127 171.504 236.811 170.809 238.054 169.643C238.53 169.197 238.548 169.187 238.292 169.518C237.962 169.946 237.139 170.579 236.487 170.908C235.909 171.2 234.918 171.507 234.28 171.593C234.019 171.628 235.627 171.648 237.853 171.639C241.827 171.622 241.91 171.618 242.496 171.425C244.032 170.918 245.221 170.039 245.902 168.905C246.442 168.006 246.517 167.588 246.712 164.389C246.808 162.796 246.943 160.649 247.01 159.618C247.078 158.587 247.156 157.341 247.184 156.849C247.211 156.357 247.288 155.13 247.355 154.122C247.422 153.115 247.555 151.006 247.651 149.436C247.746 147.866 247.901 145.374 247.995 143.898C248.23 140.196 248.385 137.693 248.587 134.398C248.681 132.852 248.797 131.011 248.845 130.308C248.925 129.134 249.149 125.547 249.359 122.086C249.405 121.313 249.557 118.898 249.695 116.719C249.834 114.54 249.986 112.086 250.034 111.266C250.082 110.446 250.161 109.2 250.209 108.497C250.258 107.794 250.449 104.746 250.635 101.723C250.82 98.7006 251.011 95.6525 251.06 94.9496C251.108 94.2467 251.185 93.0198 251.231 92.2232C251.311 90.846 251.758 83.6641 252.036 79.2725C252.108 78.1478 252.204 76.6142 252.25 75.8644C252.52 71.4947 252.861 66.0503 252.976 64.2769C253.201 60.8011 253.695 52.853 253.784 51.2837C253.83 50.4636 253.888 49.5817 253.912 49.324C253.936 49.0663 253.994 48.1653 254.041 47.3218C254.088 46.4783 254.184 44.9063 254.253 43.8285C254.323 42.7507 254.456 40.6228 254.549 39.0998C254.643 37.5768 254.759 35.7556 254.806 35.0527C254.854 34.3498 254.95 32.797 255.02 31.602C255.089 30.4071 255.185 28.8734 255.233 28.1939C255.281 27.5145 255.418 25.3674 255.537 23.4226C255.656 21.4779 255.809 19.0433 255.877 18.0123C256.037 15.5808 256.034 14.7065 255.865 14.1298C255.429 12.6449 254.259 11.4446 252.559 10.737C251.201 10.1714 254.983 10.2038 206.723 10.3435C182.676 10.4131 138.428 10.4704 108.392 10.471L53.7827 10.4719L52.6273 9.29812C48.2205 4.82059 43.1191 1.98856 37.0303 0.639559C34.5345 0.0865134 30.8387 -0.13944 27.9988 0.0871975ZM32.0804 13.3632C32.7175 13.5943 34.1014 14.0898 35.1558 14.4641C40.6941 16.4303 43.5049 17.4303 44.6559 17.844C46.3757 18.4621 48.8421 19.3413 51.2165 20.1825C54.9887 21.519 55.1358 21.5782 55.1358 21.7603C55.1358 21.9351 55.2812 21.8806 46.072 25.1574L43.3134 26.139L41.1729 25.3422C39.9957 24.904 38.0356 24.1757 36.8173 23.7241C35.5989 23.2723 33.7293 22.5762 32.6625 22.1771C31.5958 21.778 30.6373 21.4636 30.5325 21.4785C30.386 21.4993 30.3419 21.5619 30.3419 21.7488C30.3419 22.0204 29.8535 21.8244 38.8797 25.1747C40.7638 25.8741 42.2783 26.4684 42.2452 26.4956C42.1825 26.547 41.1443 26.9211 35.88 28.7889C34.1462 29.4041 32.3124 30.0587 31.805 30.2436C31.2976 30.4284 30.7618 30.5796 30.6143 30.5796C30.4669 30.5796 29.0992 30.1352 27.575 29.5921C26.0508 29.0489 22.6183 27.8254 19.9472 26.8732C17.2761 25.921 14.4772 24.9248 13.7274 24.6595C12.9776 24.3941 11.6165 23.9098 10.7027 23.5832C9.78889 23.2567 8.44695 22.7781 7.7206 22.5198C5.96441 21.8954 5.99968 21.9117 6.03282 21.739C6.05293 21.6336 6.39374 21.4713 7.21041 21.1781C10.1388 20.1263 10.8939 19.8568 14.409 18.6085C16.4709 17.8762 18.6755 17.0904 19.3081 16.8623C19.9408 16.6341 21.877 15.9436 23.6109 15.3279C25.3447 14.7122 27.5494 13.9253 28.51 13.5794C29.5109 13.2189 30.3987 12.9488 30.5894 12.9466C30.7831 12.9444 31.4059 13.1184 32.0804 13.3632ZM113.209 14.4698C113.077 14.5533 112.988 17.4885 112.932 23.593L112.903 26.7029H113.159H113.414L113.472 25.8509C113.504 25.3823 113.572 22.6643 113.622 19.8108C113.69 15.9667 113.688 14.5927 113.617 14.507C113.507 14.3735 113.38 14.3619 113.209 14.4698ZM209.459 20.1066C209.282 20.2095 209.264 20.4666 209.423 20.5992C209.505 20.6667 212.476 20.6999 219.882 20.7161L230.227 20.7388L230.653 20.9484C231.249 21.2416 231.729 21.7119 232.022 22.29C232.246 22.7331 232.272 22.8665 232.272 23.593C232.272 24.3535 232.254 24.4351 231.979 24.9421C231.657 25.537 231.2 25.9591 230.561 26.254L230.142 26.4473L221.098 26.4701C211.371 26.4947 211.769 26.4755 211.908 26.9133L211.963 27.0893L221.18 27.0665L230.397 27.0437L230.887 26.814C231.845 26.3653 232.59 25.4554 232.865 24.3995C233.035 23.7484 233.03 23.4128 232.841 22.6926C232.479 21.3189 231.394 20.3297 230.002 20.1037C229.26 19.9834 209.666 19.9861 209.459 20.1066ZM17.6893 28.4371C24.0102 30.6835 27.1429 31.7996 28.6378 32.3381C29.752 32.7393 30.2879 32.8904 30.5975 32.8904C30.9262 32.8905 31.6751 32.6577 33.8778 31.8703C35.4476 31.3092 38.1507 30.3458 39.8845 29.7295C41.6184 29.1133 43.2383 28.5353 43.4843 28.4453L43.9317 28.2815L43.9283 31.0281L43.9251 33.7747L43.6586 33.9451C43.512 34.0388 43.32 34.2133 43.2319 34.3328C43.0572 34.5698 43.0508 34.6406 42.6118 41.0594C42.4917 42.8167 42.3656 44.6379 42.3318 45.1065L42.2702 45.9585L41.759 46.2074C40.5594 46.7913 38.1409 47.4746 36.0372 47.824C34.1341 48.1401 32.7621 48.2467 30.5975 48.2467C28.4382 48.2467 27.055 48.1396 25.1871 47.828C20.856 47.1051 17.5089 45.675 15.5515 43.7109C14.7686 42.9254 14.4663 42.4763 14.1175 41.5809L13.8978 41.0168L13.8726 34.1656C13.8588 30.3973 13.8673 27.2628 13.8914 27.2C13.9278 27.1052 13.9903 27.1067 14.2573 27.2088C14.4345 27.2765 15.9789 27.8293 17.6893 28.4371ZM47.3381 33.6682C47.337 37.6281 47.3022 40.4875 47.2506 40.8464C47.2034 41.1744 47.052 41.6839 46.9143 41.9786C46.6725 42.4963 46.1476 43.3037 46.0902 43.2463C46.0541 43.2103 45.9376 41.6829 45.7215 38.4182C45.4725 34.6539 45.4708 34.6383 45.2953 34.3497C45.2086 34.207 45.0196 34.0206 44.8755 33.9353L44.6133 33.7805V30.9113V28.0421L45.5292 27.7202C46.0329 27.5432 46.6177 27.3302 46.8285 27.247C47.0394 27.1638 47.2408 27.0936 47.2759 27.091C47.311 27.0884 47.339 30.0482 47.3381 33.6682ZM77.3449 29.8852C77.2822 29.9263 77.2439 30.0507 77.2597 30.1618C77.282 30.318 77.4622 30.4572 78.0553 30.7761C79.8459 31.7389 84.2539 34.1324 85.012 34.5534C85.4642 34.8046 85.9134 35.0101 86.0102 35.0101C86.2436 35.0101 86.3912 34.7375 86.2527 34.5621C86.1959 34.4902 85.2677 33.9539 84.1898 33.3703C83.112 32.7867 81.2231 31.763 79.9923 31.0952C78.7614 30.4276 77.6879 29.8654 77.6066 29.8459C77.5253 29.8265 77.4075 29.8441 77.3449 29.8852ZM145.194 31.565C140.226 34.2543 139.776 34.5072 139.726 34.6364C139.669 34.7871 139.847 35.0101 140.025 35.0101C140.158 35.0101 141.194 34.4674 145.11 32.3453C148.582 30.4635 148.816 30.3261 148.816 30.1658C148.816 30 148.66 29.8128 148.521 29.8128C148.471 29.8128 146.974 30.6012 145.194 31.565ZM189.969 30.2066C191.289 30.4286 191.584 30.5467 192.073 31.0495C192.513 31.501 192.91 32.1946 193.291 33.1782C193.634 34.0633 193.963 34.2467 194.674 33.9495C195.22 33.7212 195.684 34.0019 195.887 34.6833C196.097 35.3919 195.797 35.9985 194.747 36.9855C194.064 37.6273 194.058 37.6358 194.058 38.0584C194.058 39.0826 194.562 40.8785 195.209 42.167C196.313 44.363 198.266 46.0625 200.696 46.9434L201.242 47.1411L200.98 47.3592C200.231 47.9847 198.596 48.7787 197.445 49.0761C195.677 49.5332 192.827 49.3895 191.228 48.7627C190.626 48.527 189.695 48.0163 189.552 47.8437C189.444 47.7145 189.639 47.6208 190.809 47.2382C191.287 47.0818 191.514 46.8901 191.59 46.5787C191.615 46.4767 191.532 45.9312 191.404 45.3665C191.277 44.8018 190.996 43.5556 190.78 42.5972C190.564 41.6389 190.349 40.8084 190.302 40.7516C190.243 40.6815 189.909 40.6497 189.262 40.6525C188.737 40.6547 188.143 40.6286 187.943 40.5946C187.628 40.541 187.561 40.4901 187.447 40.2209C187.272 39.81 186.764 38.0002 186.642 37.3531C186.552 36.8763 186.506 36.8042 185.95 36.2807L185.355 35.7196L185.618 35.3297C186.165 34.5197 186.388 33.6391 186.566 31.602C186.63 30.8664 186.699 30.4918 186.79 30.3911C187.158 29.9839 188.263 29.9198 189.969 30.2066ZM170.353 33.2617C169.418 33.5191 168.607 34.211 168.148 35.1425C167.872 35.7036 167.859 35.7741 167.859 36.6697C167.859 37.5115 167.882 37.6595 168.088 38.0989C168.355 38.6682 169.042 39.4288 169.566 39.736C170.369 40.2065 170.383 40.2074 177.238 40.2074C184.026 40.2074 183.845 40.2191 183.709 39.7895C183.656 39.6211 183.57 39.6186 177.205 39.5937L170.756 39.5684L170.265 39.3702C169.634 39.1157 168.987 38.4891 168.688 37.8448C168.367 37.1527 168.363 36.198 168.679 35.5174C168.952 34.9285 169.348 34.4719 169.829 34.19C170.604 33.7361 170.633 33.7342 176.951 33.7331C182.472 33.7321 182.81 33.7235 182.887 33.5807C182.938 33.4848 182.938 33.3757 182.886 33.2825C182.809 33.1455 182.398 33.1362 176.779 33.1432C172.118 33.1492 170.664 33.1759 170.353 33.2617ZM115.374 33.3088C125.862 34.2915 135.019 41.7731 138.366 52.0931C138.856 53.6063 139.406 56.0766 139.343 56.4877C139.313 56.6838 139.609 56.887 125.726 47.1417C122.188 44.6582 119.044 42.4522 118.739 42.2395C118.435 42.0267 117.285 41.2216 116.183 40.4505C113.781 38.7677 114.005 38.9062 113.792 38.9738C113.665 39.0142 113.624 39.0887 113.644 39.2487C113.665 39.4314 114.228 39.8593 116.993 41.7969C118.82 43.0778 120.795 44.463 121.381 44.8753C121.967 45.2877 126.289 48.3211 130.987 51.6165C138.019 56.5488 139.529 57.6418 139.529 57.7999C139.529 57.9834 139.492 57.9936 138.68 58.0327C138.003 58.0653 137.748 58.1157 137.423 58.2811C136.267 58.8694 136.639 60.1789 138.182 60.9506C138.514 61.1165 138.828 61.2525 138.88 61.2528C138.932 61.253 139.123 61.2943 139.304 61.3446L139.633 61.4359L139.575 62.0896C139.204 66.2426 138.134 69.7128 136.152 73.1917C134.98 75.2485 133.862 76.6928 131.742 78.8891C130.951 79.7091 129.98 80.7827 129.585 81.2747C127.146 84.315 125.455 87.6949 124.321 91.7971C123.256 95.6456 120.649 98.2457 116.78 99.3169C115.991 99.5353 115.905 99.5411 113.414 99.5457C110.658 99.5509 110.471 99.5301 109.069 99.0623C107.496 98.5376 106.219 97.7379 105.013 96.5238C103.652 95.1528 102.84 93.6616 102.216 91.3864C101.298 88.0382 99.7473 84.8716 97.6693 82.1016C96.6828 80.7867 96.1256 80.1469 94.4973 78.4588C90.4454 74.2584 87.9386 69.6045 86.881 64.3195C85.5195 57.5158 87.4067 49.7286 91.8467 43.8285C96.3149 37.891 103.292 33.9461 110.448 33.3112C111.579 33.2109 114.315 33.2095 115.374 33.3088ZM44.6804 34.6231C44.8097 34.7874 44.8573 35.0307 44.9013 35.752C44.9323 36.2577 45.015 37.4767 45.0852 38.4608C45.1554 39.4449 45.3079 41.6494 45.424 43.3599C45.5402 45.0703 45.6594 46.8053 45.689 47.2153L45.7429 47.9608H44.2462H42.7496L42.7864 47.6839C42.8066 47.5316 42.8813 46.506 42.9523 45.4047C43.0233 44.3035 43.1385 42.5973 43.2083 41.6132C43.5275 37.1084 43.6764 34.9591 43.6762 34.861C43.6759 34.6685 44.012 34.4137 44.2663 34.4137C44.4298 34.4137 44.5725 34.4858 44.6804 34.6231ZM102.057 40.0828C96.9503 42.7938 93.0181 47.7069 91.4331 53.3569C90.5465 56.5173 90.3776 60.1334 90.9663 63.3519C91.6296 66.9777 93.164 70.2936 95.5458 73.249C96.0911 73.9255 96.2172 74.0378 96.407 74.0158C96.8146 73.9685 96.7345 73.6824 96.0943 72.8994C91.7512 67.5862 90.2337 60.7328 91.9118 54.0101C92.5984 51.2592 94.0937 48.2866 95.9618 45.9585C96.771 44.95 98.4826 43.2686 99.4445 42.5372C100.353 41.8463 101.663 40.9973 102.529 40.5376C103.085 40.2428 103.232 40.1253 103.232 39.9761C103.233 39.5718 102.975 39.5952 102.057 40.0828ZM211.402 46.3485C212.767 46.7057 214.025 47.4854 215.29 48.759C216.014 49.4884 217.129 50.922 217.75 51.9227C217.953 52.2507 218.335 52.8066 218.599 53.1581C220.335 55.47 221.512 57.6398 222.368 60.1021C222.64 60.8846 223.119 61.9098 224.001 63.5953C225.363 66.1968 229.35 74.1399 230.117 75.7792C233.75 83.5425 235.584 88.7784 236.443 93.842C236.9 96.5328 236.954 97.3624 236.956 101.766C236.957 105.776 236.903 107.101 236.614 110.03C235.581 120.521 233.036 128.928 229.464 133.655C228.797 134.537 227.912 135.548 227.805 135.548C227.733 135.548 227.296 134.289 227.038 133.333C226.629 131.819 226.403 130.064 226.056 125.708C225.707 121.34 225.584 119.781 225.54 119.19C225.389 117.151 224.93 112.296 224.682 110.116C223.809 102.43 222.718 97.6354 220.118 90.0505C219.741 88.9493 219.354 87.8163 219.258 87.5328L219.084 87.0173L219.295 86.6808C219.878 85.7486 219.85 85.2634 219.069 82.7232L218.767 81.7433L219.358 81.2091C220.743 79.956 221.88 78.3021 222.681 76.3783C223.066 75.4538 223.081 75.3759 222.904 75.2288C222.642 75.012 222.474 75.2128 222.017 76.2868C220.297 80.3242 217.194 82.8511 212.633 83.9294C211.941 84.0928 211.582 84.121 210.162 84.1228C208.635 84.1248 208.426 84.1064 207.587 83.895C204.432 83.1002 201.486 81.2019 198.775 78.2159C197.997 77.3595 197.893 77.2083 197.894 76.9379C197.895 76.405 198.599 74.9714 199.288 74.0965C199.613 73.6843 199.765 73.6858 201.052 74.1132C202.427 74.5696 202.899 74.6491 203.586 74.5393C204.685 74.3638 206.105 73.7486 206.999 73.0608C208.937 71.5697 210.036 69.436 210.563 66.1435C210.81 64.5969 210.747 60.3586 210.456 58.9788C210.435 58.8765 210.347 58.7704 210.261 58.7432C210.133 58.7026 210.063 58.4602 209.877 57.4143C209.641 56.0901 209.491 55.6554 206.644 48.0243C206.386 47.3328 206.2 46.7524 206.23 46.7346C206.294 46.6969 207.23 46.4725 208.032 46.3025C208.919 46.1145 210.596 46.1374 211.402 46.3485ZM169.35 46.4122C168.496 46.7305 167.947 47.1559 167.516 47.833C167.072 48.5301 166.939 49.0558 166.98 49.9506C167.01 50.621 167.054 50.8098 167.298 51.3026C167.795 52.3069 168.753 53.0332 169.858 53.2426C170.107 53.2899 171.146 53.3285 172.167 53.3285C173.741 53.3285 174.044 53.3081 174.158 53.1946C174.319 53.0334 174.33 52.8524 174.185 52.7584C174.126 52.7205 173.101 52.6703 171.906 52.6469C169.777 52.6051 169.724 52.5998 169.252 52.3787C167.916 51.7524 167.292 50.3246 167.727 48.8921C167.89 48.3534 167.984 48.203 168.441 47.7475C169.345 46.8452 168.87 46.9024 175.868 46.8532L181.917 46.8106V46.5549V46.2993L175.825 46.2843C170.31 46.2708 169.697 46.2829 169.35 46.4122ZM205.515 46.8319C205.6 47.0501 207.347 51.7438 208.044 53.6267C208.374 54.5171 208.93 56.0124 209.279 56.9496C209.659 57.9689 209.896 58.726 209.869 58.8335C209.844 58.9325 209.878 59.5459 209.944 60.1967C210.146 62.1779 210.182 63.2846 210.083 64.5325C209.827 67.7632 209.146 69.7921 207.753 71.4765C206.689 72.7636 204.785 73.8081 203.293 73.9234C202.739 73.9662 202.579 73.9363 201.461 73.5813C199.972 73.1088 199.632 73.0506 199.322 73.2155C199.1 73.3333 199.071 73.324 198.69 73.0089C198.053 72.4829 197.981 72.3115 197.887 71.1212C197.69 68.5974 197.233 67.7113 195.777 67.0228C195.48 66.8825 195.225 66.725 195.209 66.6726C195.194 66.6202 194.945 65.1013 194.656 63.2971C193.537 56.3131 193.508 56.1603 193.232 55.8191C192.665 55.1188 192.943 55.1632 188.972 55.1363L185.431 55.1123L185.491 53.8157C185.523 53.1025 185.585 51.9823 185.628 51.3263C185.671 50.6702 185.707 49.7861 185.707 49.3616C185.708 48.8746 185.748 48.5401 185.815 48.4551C185.91 48.3358 187.141 48.1395 188.478 48.0304C188.671 48.0147 188.851 48.1014 189.199 48.3762C190.025 49.029 191.142 49.5078 192.525 49.8008C193.436 49.9939 196.203 50.0212 196.998 49.8449C198.839 49.4362 200.522 48.6179 201.876 47.4738C202.122 47.2658 202.323 47.041 202.323 46.9744C202.323 46.9077 202.333 46.8477 202.344 46.841C202.368 46.8273 204.348 46.7215 205.019 46.6981C205.367 46.6859 205.469 46.7136 205.515 46.8319ZM185.108 48.3655C185.102 49.4411 184.811 55.0217 184.758 55.0746C184.733 55.0992 182.748 55.1094 180.346 55.0972L175.98 55.0751L176.507 54.3935C176.797 54.0186 177.497 53.0601 178.063 52.2635C179.593 50.1097 179.829 49.8103 180.33 49.3836C181.357 48.508 183.016 47.8907 185.048 47.6282C185.083 47.6237 185.11 47.9555 185.108 48.3655ZM71.3882 50.1472C71.222 50.2143 71.2624 50.5857 71.4464 50.6843C71.5529 50.7412 72.9291 50.7724 75.3288 50.7724C77.7284 50.7724 79.1047 50.7412 79.2111 50.6843C79.3969 50.5848 79.4272 50.3466 79.2737 50.1931C79.197 50.1164 78.2125 50.0925 75.333 50.0976C73.2219 50.1012 71.4468 50.1236 71.3882 50.1472ZM146.788 50.1931C146.635 50.3466 146.665 50.5848 146.851 50.6843C146.957 50.7412 148.333 50.7724 150.733 50.7724C153.133 50.7724 154.509 50.7412 154.615 50.6843C154.801 50.5848 154.831 50.3466 154.678 50.1931C154.531 50.0459 146.935 50.0459 146.788 50.1931ZM111.967 53.0382C111.173 53.2159 110.303 53.6297 109.598 54.1656L109.019 54.6052L108.405 54.4289C107.53 54.1778 106.108 54.1193 105.241 54.2987C103.977 54.5605 102.759 55.3347 102.087 56.3032C101.735 56.8113 101.456 57.6646 101.351 58.5523C101.248 59.4278 101.32 59.9138 101.559 59.9599C101.858 60.0175 101.955 59.8153 101.955 59.1297C101.955 57.9044 102.366 56.8148 103.1 56.0982C103.997 55.2224 105.481 54.7089 106.811 54.8143C107.458 54.8656 108.393 55.0528 108.491 55.1504C108.52 55.1797 108.465 55.2898 108.368 55.395C107.511 56.3285 106.465 58.6915 106.176 60.3508C106.013 61.2847 106.012 61.7263 106.173 62.4857C106.346 63.3037 106.68 63.9194 107.213 64.4065C107.849 64.9885 108.444 65.1985 109.325 65.1522C110.162 65.1083 110.654 64.9037 111.24 64.3557C111.801 63.8311 112.142 63.2205 112.363 62.3453C112.924 60.1281 111.784 56.4929 110.133 55.2371L109.696 54.9047L109.972 54.6732C110.417 54.3009 111.343 53.8535 111.975 53.7051C112.859 53.498 114.324 53.5727 115.148 53.867C115.643 54.0439 116.485 54.4763 116.684 54.6556C116.701 54.6714 116.506 54.9157 116.25 55.1985C114.979 56.6029 113.9 59.5827 114.095 61.1465C114.255 62.4241 114.805 63.3923 115.708 63.9821C116.76 64.6695 118.087 64.7241 119.092 64.1213C119.91 63.6298 120.274 62.9494 120.449 61.579C120.701 59.6037 119.793 56.9716 118.292 55.3295C118.023 55.0346 117.802 54.7711 117.802 54.744C117.802 54.6685 118.559 54.306 119.038 54.1526C119.727 53.9315 120.746 53.8403 121.492 53.9333C123.569 54.1919 124.829 55.3409 125.384 57.4802C125.517 57.9942 125.558 58.0602 125.758 58.0842C126.064 58.121 126.119 57.9335 125.99 57.2982C125.454 54.6731 123.212 53.0708 120.358 53.2736C119.4 53.3418 118.76 53.5132 117.909 53.9299L117.205 54.2742L116.928 54.0625C116.54 53.7666 115.471 53.2747 114.863 53.1119C114.115 52.9119 112.694 52.8757 111.967 53.0382ZM118.418 56.5134C118.92 57.2459 119.403 58.3327 119.646 59.2751C119.83 59.9883 119.855 60.2368 119.823 61.0819C119.777 62.3245 119.583 62.8847 119.029 63.3718C118.572 63.7743 118.004 63.9355 117.276 63.8695C116.279 63.7791 115.461 63.1784 115.002 62.1997C114.797 61.7624 114.778 61.6285 114.778 60.6559C114.778 59.4365 114.914 58.8819 115.544 57.5335C115.977 56.6065 116.402 55.9462 116.885 55.448L117.237 55.0856L117.656 55.549C117.886 55.8039 118.229 56.2379 118.418 56.5134ZM110.142 56.1341C111.147 57.2548 111.859 59.3094 111.856 61.078C111.853 62.77 111.181 63.9502 109.953 64.4168C109.25 64.6838 108.578 64.6014 107.935 64.1694C106.823 63.4225 106.441 61.79 106.931 59.8787C107.313 58.3897 108.053 56.8259 108.857 55.8083L109.205 55.3684L109.466 55.52C109.61 55.6033 109.914 55.8797 110.142 56.1341ZM192.38 55.8729C192.72 56.0971 192.886 56.3668 192.959 56.815C192.995 57.0296 193.18 58.1637 193.371 59.3352C193.692 61.2984 194.328 65.2646 194.75 67.9406C194.846 68.5498 194.926 69.1674 194.926 69.3129C194.929 69.9321 194.393 70.4531 193.753 70.4537C193.562 70.4539 192.145 70.2248 190.603 69.9447C187.573 69.3938 187.496 69.3907 186.898 69.7938C186.445 70.099 186.261 70.4904 186.269 71.1357C186.282 72.3047 187.013 73.0898 189.389 74.4883C191.557 75.7639 193.336 76.333 195.157 76.333C195.973 76.333 196.098 76.3519 196.138 76.4821C196.177 76.6088 196.58 79.0576 196.997 81.7007C197.06 82.0991 197.233 83.1654 197.381 84.0704C197.633 85.6124 197.641 85.7292 197.511 85.9273C197.435 86.0436 197.276 86.1755 197.158 86.2203C197.027 86.2704 192.979 86.3016 186.632 86.3016C177.294 86.3016 176.292 86.2886 176.028 86.1633C175.419 85.8742 175.477 86.1072 174.512 80.1245C174.346 79.0936 174.038 77.1957 173.829 75.907C173.619 74.6183 173.311 72.7205 173.145 71.6895C172.879 70.0437 172.548 67.994 171.78 63.2545C171.666 62.5516 171.435 61.1138 171.266 60.0594C171.097 59.0051 170.904 57.8327 170.836 57.4541C170.649 56.4095 170.669 56.1018 170.938 55.8908C171.162 55.7142 171.168 55.7141 181.652 55.7147C191.713 55.7153 192.151 55.7217 192.38 55.8729ZM142.128 56.8943C142.268 56.9808 142.685 57.3265 143.054 57.6628C144.34 58.8332 145.496 59.3071 147.416 59.4502C148.099 59.501 148.538 59.5764 148.73 59.6759C149.143 59.8891 149.848 60.5776 150.564 61.4653C151.279 62.3525 151.87 62.9299 152.65 63.5027C152.955 63.7265 153.217 63.9226 153.234 63.9384C153.25 63.9542 152.889 64.6818 152.431 65.5554C151.692 66.9665 151.579 67.1378 151.422 67.0915C150.944 66.951 150.105 66.7935 149.838 66.7941C149.674 66.7945 149.214 66.8695 148.816 66.9608C147.427 67.2791 146.25 67.1213 145.362 66.4979C144.745 66.0649 143.818 64.9588 143.651 64.4569C143.363 63.5942 143.645 62.6531 144.461 61.7448C145.365 60.7387 146.354 60.7092 147.215 61.6625C147.648 62.1419 147.91 62.7468 147.949 63.3597C147.982 63.8727 147.973 63.9012 147.684 64.1904C147.519 64.3552 147.328 64.4899 147.259 64.4899C147.063 64.4899 146.921 64.7159 146.986 64.9219C147.037 65.0812 147.09 65.1003 147.38 65.0615C148.132 64.9605 148.607 64.3015 148.597 63.3729C148.592 62.9102 148.536 62.6971 148.288 62.18C147.88 61.3322 147.476 60.8906 146.81 60.5624C146.322 60.3221 146.202 60.2967 145.75 60.3376C145.428 60.3669 145.093 60.4663 144.839 60.6081L144.438 60.8326L143.567 60.3999C142.603 59.9206 142.16 59.5176 141.785 58.7789C141.553 58.3196 141.302 57.3218 141.367 57.1119C141.387 57.046 141.421 56.9347 141.443 56.8644C141.498 56.6901 141.818 56.7042 142.128 56.8943ZM140.52 58.8326L141.128 58.9591L141.438 59.462C141.837 60.1073 142.257 60.4619 143.147 60.9051L143.863 61.2616L143.558 61.7895C143.39 62.0798 143.241 62.3308 143.228 62.3475C143.214 62.3641 142.923 62.2234 142.58 62.0348C141.62 61.5066 140.441 61.0131 139.464 60.7306C138.975 60.5895 138.388 60.3586 138.159 60.2175C137.419 59.7625 137.18 59.1841 137.614 58.8997C138.04 58.6207 139.356 58.5904 140.52 58.8326ZM170.503 59.3624L170.601 59.9002L169.997 60.3904C169 61.1986 168.411 61.6201 168.356 61.5644C168.271 61.4799 168.48 60.5815 168.676 60.1904C168.774 59.9928 168.973 59.7048 169.117 59.5505C169.444 59.2013 170.116 58.7687 170.282 58.8008C170.362 58.8162 170.441 59.0159 170.503 59.3624ZM171.062 62.7995C171.79 67.3051 172.363 70.8463 172.677 72.7938C172.858 73.9167 172.995 74.8457 172.983 74.8583C172.89 74.9516 170.975 75.5093 170.15 75.6835C166.302 76.496 162.056 75.94 158.231 74.1226C156.443 73.2729 155.074 72.3359 153.689 71.012C152.957 70.3127 151.542 68.7461 151.542 68.635C151.542 68.6092 151.786 68.1357 152.083 67.5828C152.381 67.0298 153.038 65.7914 153.545 64.8307C154.051 63.8701 154.478 63.0685 154.494 63.0494C154.51 63.0303 155.019 63.251 155.626 63.5399C156.948 64.1699 158.028 64.5347 159.075 64.7043C160.092 64.8693 162.029 64.8664 162.989 64.6984C165.172 64.3166 167.605 63.1015 170.031 61.1808C170.383 60.9026 170.683 60.6864 170.698 60.7004C170.714 60.7144 170.877 61.659 171.062 62.7995ZM134.717 62.9776C134.698 63.0362 134.582 63.4675 134.458 63.9361C134.1 65.2991 133.684 66.3958 132.971 67.8554C131.34 71.1974 128.885 74.0338 125.777 76.1666C125.068 76.6527 124.916 76.8804 125.174 77.069C125.38 77.2195 125.729 77.0293 127.024 76.0603C128.284 75.1177 130.376 73.0508 131.242 71.8935C132.182 70.6371 133.023 69.2619 133.659 67.9447C134.499 66.2011 135.396 63.4104 135.243 63.0124C135.18 62.8469 134.769 62.8198 134.717 62.9776ZM195.744 67.7002C196.135 67.9417 196.621 68.4359 196.79 68.764C197.02 69.21 197.119 69.7243 197.25 71.1521C197.381 72.5923 197.448 72.7518 198.198 73.4206L198.662 73.8337L198.289 74.4011C198.084 74.7132 197.792 75.2531 197.64 75.6009L197.365 76.2332L196.782 75.9539C196.221 75.6852 196.169 75.6762 195.4 75.7164C194.036 75.7877 192.686 75.4341 190.775 74.5056C189.598 73.9332 188.02 72.93 187.535 72.4452C187.126 72.036 186.901 71.5553 186.901 71.088C186.901 70.7493 186.944 70.6496 187.202 70.3926C187.485 70.1089 187.526 70.0949 187.947 70.1359C188.192 70.1598 188.91 70.2765 189.543 70.3952C193.596 71.1559 193.766 71.1785 194.254 71.0245C194.717 70.8785 195.175 70.5084 195.378 70.1155C195.626 69.6365 195.623 69.1318 195.368 67.7915C195.316 67.5184 195.412 67.495 195.744 67.7002ZM197.076 76.8107C197.152 76.8398 197.211 76.9611 197.211 77.0876C197.212 77.3979 197.417 77.6977 198.248 78.6007C202.327 83.0316 206.792 85.1598 211.194 84.7701C213.322 84.5816 215.968 83.6718 217.617 82.561C217.898 82.3717 218.156 82.2157 218.189 82.2143C218.262 82.2114 218.699 83.5853 218.951 84.6136C219.113 85.2732 219.12 85.3994 219.022 85.7524C218.806 86.5238 217.784 87.6503 216.608 88.4127C214.223 89.9598 211.399 90.3707 208.783 89.5516C207.936 89.2865 207.496 89.0656 205.902 88.1055C203.349 86.5682 200.885 85.404 198.831 84.7648L198.106 84.5389L197.871 83.0985C197.742 82.3063 197.464 80.5987 197.253 79.304C197.043 78.0092 196.87 76.9069 196.87 76.8544C196.87 76.7445 196.892 76.74 197.076 76.8107ZM31.6056 80.2393C30.473 80.6315 29.7892 81.5351 29.72 82.731C29.6759 83.4918 29.8261 84.0486 30.2232 84.5967C30.4292 84.8811 30.5224 84.9438 30.7076 84.9224C31.0233 84.8857 31.0438 84.6549 30.7668 84.2552C29.9441 83.068 30.2611 81.6624 31.5071 80.9722L31.9607 80.7209H54.8376C76.6752 80.7209 77.7325 80.7279 78.1124 80.8745C78.557 81.046 79.1495 81.6312 79.3398 82.0865C79.4065 82.2462 79.4602 82.6369 79.4591 82.9547C79.4575 83.4214 79.4125 83.6139 79.2248 83.9553C78.9611 84.435 78.4152 84.8896 77.9466 85.0197C77.7348 85.0786 73.5479 85.108 65.3558 85.1083C55.924 85.1087 53.0587 85.1325 52.9802 85.211C52.8257 85.3655 52.8574 85.6031 53.0459 85.7039C53.162 85.7661 57.0323 85.7867 65.5919 85.7708L77.9701 85.7478L78.4513 85.5222C78.7159 85.3982 79.0937 85.1354 79.2907 84.9384C79.4877 84.7414 79.7505 84.3636 79.8745 84.099C80.1897 83.4268 80.1962 82.3729 79.8892 81.7433C79.6234 81.1986 78.9823 80.5565 78.4618 80.314L78.0553 80.1245L55.0506 80.1057C33.1407 80.0877 32.025 80.0941 31.6056 80.2393ZM175.718 86.7276C176.027 86.8934 176.198 86.898 181.928 86.898C187.108 86.898 187.826 86.9136 187.87 87.0269C187.897 87.0978 187.923 88.2384 187.928 89.5616C187.934 90.8849 187.971 93.1753 188.011 94.6514C188.052 96.1275 188.127 99.214 188.178 101.51C188.229 103.806 188.308 106.874 188.352 108.326C188.397 109.779 188.473 112.271 188.52 113.864C188.697 119.777 189.098 129.521 189.331 133.513C189.474 135.985 189.489 136.826 189.387 136.826C189.198 136.826 188.057 136.384 187.421 136.064C183.911 134.297 181.147 131.293 178.9 126.801C176.139 121.281 174.474 114.56 173.68 105.733C173.415 102.784 173.414 98.312 173.679 96.0998C174.132 92.3165 175.147 86.5572 175.36 86.5572C175.382 86.5572 175.543 86.6339 175.718 86.7276ZM44.7411 88.0606C45.0691 88.1475 45.6442 88.3748 46.0191 88.5657C46.558 88.8401 46.6948 88.9472 46.6721 89.0769C46.6563 89.1672 46.6233 90.0332 46.5987 91.0013C46.5634 92.3898 46.587 93.0465 46.7105 94.1112C46.7967 94.8535 46.8681 95.6334 46.8692 95.8442L46.8711 96.2276L46.3308 96.2706C45.8306 96.3105 45.7714 96.3373 45.5344 96.6327C45.2266 97.0165 45.1318 97.0242 43.7549 96.7775C42.2084 96.5003 41.2549 96.1586 40.8676 95.7429C40.7144 95.5784 40.6941 95.4456 40.6952 94.614C40.6959 94.0957 40.7516 92.896 40.8189 91.948C40.8895 90.9548 40.9199 89.7988 40.8909 89.2199L40.8403 88.2152L41.4275 88.0698C41.7504 87.99 42.1105 87.9072 42.2276 87.886C42.6732 87.805 44.1693 87.909 44.7411 88.0606ZM38.8724 89.587C39.2148 89.95 39.5213 90.8704 39.5347 91.5754L39.5437 92.0516L39.0956 92.1617C38.3233 92.3515 37.6704 92.0563 37.3622 91.3779C36.9323 90.4311 37.4213 89.2851 38.2556 89.2841C38.5246 89.2838 38.6398 89.3404 38.8724 89.587ZM52.9802 90.5788C52.8266 90.7323 52.857 90.9705 53.0427 91.0699C53.1542 91.1296 57.3909 91.1581 66.1487 91.1581C77.6833 91.1581 79.1326 91.1727 79.4824 91.2919C80.0218 91.4757 80.5989 92.1028 80.7754 92.6967C80.9429 93.2608 80.9427 93.4 80.7737 93.9756C80.6063 94.5459 79.9169 95.2695 79.4056 95.4114C79.1791 95.4743 74.7365 95.5027 65.0466 95.5029C52.4052 95.5033 51.0024 95.5167 50.8817 95.6373C50.7134 95.8057 50.7136 95.883 50.883 96.0524C51.0054 96.1748 52.3452 96.1854 65.1757 96.1649L79.3333 96.1424L79.8656 95.8966C80.4752 95.615 81.0049 95.09 81.2788 94.496C81.5377 93.9344 81.5402 92.7323 81.2835 92.1762C80.9257 91.4011 80.2942 90.8597 79.4587 90.6115C79.0527 90.4909 77.6225 90.4765 66.0432 90.4765C56.0762 90.4765 53.0588 90.5001 52.9802 90.5788ZM193.524 91.2192C193.554 91.2998 193.48 91.7537 193.359 92.2281C192.91 93.9806 192.382 94.9725 191.233 96.2187C190.735 96.7589 190.588 96.8712 190.405 96.85C190.245 96.8315 190.174 96.7672 190.154 96.6247C190.132 96.4741 190.269 96.2759 190.714 95.8153C191.809 94.679 192.324 93.7291 192.746 92.0638C192.865 91.5928 192.982 91.1773 193.005 91.1402C193.083 91.013 193.467 91.0714 193.524 91.2192ZM212.022 92.2985C213.36 94.0013 214.818 95.1869 216.692 96.098C217.601 96.5397 217.745 96.7042 217.442 96.9554C217.333 97.0461 217.227 97.0309 216.825 96.8675C214.853 96.066 212.502 94.1589 211.324 92.4057C211.152 92.1497 211.122 92.0415 211.189 91.9158C211.344 91.6263 211.579 91.7341 212.022 92.2985ZM36.4082 95.8111C36.5395 95.9084 36.7332 96.1378 36.8389 96.3209C37.024 96.6416 37.0301 96.7199 37.0093 98.4855C36.9884 100.253 36.9946 100.332 37.1856 100.719C37.445 101.246 38.1799 101.909 38.869 102.238C39.1725 102.383 39.7909 102.595 40.2432 102.71C40.6954 102.824 41.0763 102.929 41.0896 102.942C41.1028 102.956 41.1498 103.35 41.1939 103.82C41.2883 104.824 41.4996 105.344 42.0258 105.871C42.5159 106.361 42.8877 106.531 44.1571 106.844C44.7595 106.993 45.2815 107.14 45.3172 107.172C45.3962 107.242 43.7473 108.488 43.037 108.896C39.8636 110.716 36.0736 110.817 32.7337 109.17C32.2331 108.924 31.3709 108.357 30.4537 107.671C29.6424 107.065 28.947 106.538 28.9084 106.5C28.8698 106.462 29.0999 106.369 29.4196 106.295C29.7394 106.22 30.442 106.057 30.9809 105.932C32.1358 105.665 32.4852 105.504 32.9571 105.021C33.5566 104.408 33.6614 104.06 34.0421 101.425C34.7452 96.5584 34.8198 96.052 34.8682 95.8141L34.9177 95.5709L35.5436 95.6025C36.0086 95.6259 36.231 95.6796 36.4082 95.8111ZM47.442 100.803C47.296 100.949 47.3157 101.27 47.4746 101.331C47.5487 101.359 54.5575 101.382 63.0498 101.382H78.4904L78.9311 101.602C79.9198 102.095 80.3729 103.193 80.0425 104.296C79.9078 104.745 79.379 105.328 78.885 105.571L78.4813 105.77L65.3015 105.793C52.1423 105.816 52.1215 105.816 52.0667 105.989C51.9249 106.436 51.166 106.413 65.4779 106.389L78.7369 106.367L79.2724 106.076C80.2769 105.532 80.7756 104.697 80.7789 103.555C80.7806 102.985 80.7434 102.797 80.5509 102.404C80.1206 101.526 79.3917 100.967 78.4454 100.787C77.7405 100.654 47.5761 100.669 47.442 100.803ZM117.664 101.998C117.821 102.249 117.559 102.394 116.458 102.666C115.179 102.981 114.585 103.022 114.449 102.804C114.369 102.677 114.387 102.62 114.553 102.485C114.663 102.394 114.874 102.317 115.021 102.314C115.168 102.311 115.711 102.199 116.226 102.066C117.272 101.795 117.53 101.783 117.664 101.998ZM118.724 106.178C118.749 106.394 118.705 106.436 118.213 106.658C117.428 107.013 115.869 107.489 114.83 107.69C112.995 108.046 110.532 108.221 110.321 108.011C110.188 107.877 110.19 107.606 110.326 107.562C110.384 107.543 111.046 107.484 111.795 107.43C114.108 107.267 115.841 106.906 117.51 106.242C118.494 105.85 118.685 105.84 118.724 106.178ZM207.772 115.313C210.273 122.76 213.298 131.894 214.68 136.171C214.746 136.376 214.736 136.404 214.611 136.368C211.554 135.5 207.816 134.952 204.948 134.952C204.063 134.952 203.772 134.925 203.772 134.845C203.774 134.582 204.031 130.709 204.113 129.712C204.581 123.998 205.019 119.105 205.52 113.992C205.933 109.777 205.913 109.944 205.988 110.08C206.025 110.146 206.827 112.501 207.772 115.313ZM78.2418 111.84C79.0414 112.267 79.4562 112.944 79.4592 113.826C79.4625 114.798 78.9092 115.593 78.0097 115.91C77.7012 116.019 76.4923 116.037 69.4604 116.037L61.2704 116.037L61.0188 115.639C60.6465 115.049 59.5013 113.539 58.8093 112.725C58.4759 112.333 58.1322 111.92 58.0456 111.808L57.8882 111.603L67.8865 111.626L77.8849 111.649L78.2418 111.84ZM93.7635 117.613C92.8814 117.761 91.8273 118.11 91.0061 118.525C90.1982 118.934 90.0065 119.06 89.2037 119.714C88.6051 120.201 88.5896 120.208 88.3516 120.084C88.0715 119.938 87.5325 119.917 87.2967 120.043C87.1631 120.115 87.045 120.058 86.6291 119.723C85.6437 118.929 84.4022 118.366 83.21 118.173C82.4532 118.05 81.9996 118.059 81.1129 118.214C78.6545 118.642 77.2045 120.411 76.3196 124.059C75.9744 125.482 75.7617 126.934 75.4539 129.968C75.1703 132.762 74.8892 134.959 74.555 136.992C73.2882 144.7 71.1579 151.016 68.7596 154.174C68.5066 154.508 68.2996 154.818 68.2996 154.864C68.2996 155.052 68.6307 155.225 69.1526 155.309C71.0477 155.617 76.077 155.178 79.7959 154.38C80.2378 154.285 80.6126 154.208 80.6288 154.208C80.645 154.208 80.6477 154.811 80.6348 155.549L80.6113 156.891L78.1831 156.941C76.4537 156.975 75.5687 157.029 75.1083 157.125C72.9969 157.569 71.1715 158.559 69.662 160.08C67.8755 161.879 66.8341 164.104 66.5814 166.66C66.4417 168.073 66.556 168.951 67.3617 172.654C68.2254 176.624 68.2269 176.631 68.5895 178.32C68.7555 179.093 69.2581 181.413 69.7063 183.474C70.1545 185.536 70.6529 187.837 70.8138 188.587C70.9748 189.336 71.3193 190.927 71.5794 192.122C71.8395 193.317 72.2071 195.019 72.3963 195.903C72.5854 196.788 72.8725 197.915 73.034 198.408C74.4567 202.751 78.0248 206.31 82.358 207.706C84.2568 208.318 84.3933 208.333 88.6417 208.373L92.4971 208.41V228.127V247.844L85.7448 247.845C79.2962 247.846 78.9606 247.853 78.2845 248.015C75.4317 248.699 73.4969 251.166 73.4969 254.119C73.4969 254.96 73.5052 255 73.6886 255.044C73.794 255.07 83.8857 255.08 96.1144 255.067L118.348 255.044L118.399 254.831L118.449 254.618L127.732 254.575C134.57 254.544 137.06 254.507 137.186 254.434C137.403 254.307 137.776 253.906 137.9 253.665C138.309 252.869 137.472 251.346 136.086 250.362C135.224 249.751 132.564 248.476 129.174 247.05C127.333 246.275 126.113 245.8 125.964 245.798C125.621 245.794 125.625 245.703 126.064 243.625C126.3 242.506 126.493 241.58 126.493 241.565C126.493 241.551 126.724 241.54 127.007 241.54C127.625 241.54 127.979 241.401 128.338 241.017C128.663 240.67 128.642 240.731 129.759 236.811C134.069 221.686 136.171 211.805 136.901 203.241C137.063 201.34 137.041 197.283 136.861 195.938C136.402 192.504 135.529 190.776 133.335 188.965C129.905 186.132 124.661 184.131 117.291 182.845C116.476 182.703 113.316 182.239 113.162 182.239C113.137 182.239 113.116 182.182 113.116 182.112C113.116 182.043 112.953 181.883 112.754 181.758C111.617 181.043 111.212 180.75 110.538 180.16C108.906 178.729 107.821 177.127 107.284 175.358L107.225 175.166L125.06 175.188L142.894 175.21L143.381 175.449C144.036 175.77 144.511 176.324 144.724 177.011L144.891 177.553L144.6 182.473C144.44 185.179 144.249 188.391 144.175 189.609C144.101 190.827 143.888 194.431 143.703 197.618C143.517 200.804 143.306 204.389 143.234 205.584C143.162 206.779 142.951 210.364 142.766 213.551C142.581 216.737 142.39 219.958 142.342 220.708C142.294 221.457 142.216 222.78 142.168 223.647C142.029 226.178 141.501 235.153 141.404 236.64C141.355 237.39 141.258 239.039 141.189 240.304C141.119 241.569 141.024 243.199 140.977 243.925C140.929 244.652 140.815 246.607 140.722 248.27C140.63 249.934 140.536 251.534 140.513 251.825L140.473 252.356L141.385 252.31C141.887 252.284 143.093 252.235 144.064 252.201C145.035 252.166 145.85 252.117 145.875 252.092C145.933 252.034 146.056 250.696 146.173 248.867C146.222 248.094 146.319 246.713 146.389 245.8C146.459 244.886 146.612 242.758 146.729 241.071C146.967 237.654 147.133 235.301 147.327 232.636C147.583 229.101 148.047 222.556 148.132 221.261C148.18 220.535 148.259 219.442 148.307 218.833C148.41 217.533 148.854 211.283 149.03 208.652C149.098 207.644 149.193 206.321 149.241 205.712C149.289 205.103 149.481 202.419 149.668 199.748C149.855 197.077 150.067 194.086 150.139 193.102C150.21 192.118 150.42 189.166 150.606 186.542C150.791 183.917 151.003 180.946 151.076 179.939C151.567 173.142 151.608 172.452 151.535 172.065C151.494 171.844 151.438 171.627 151.411 171.583C151.381 171.534 157.433 171.503 167.236 171.502C175.967 171.501 183.161 171.468 183.224 171.429C183.287 171.389 183.325 171.265 183.309 171.153L183.28 170.95L167.191 170.928L151.102 170.907L150.74 170.61C150.541 170.447 150.19 170.227 149.959 170.121L149.54 169.927L136.273 169.885L123.006 169.842L123.415 169.416C127.125 165.551 130.454 157.835 132.285 148.853C132.432 148.133 132.54 147.443 132.526 147.319C132.501 147.1 132.48 147.092 131.874 147.068C131.427 147.05 131.261 147.014 131.292 146.94C132.022 145.183 132.234 144.61 132.415 143.895C133.331 140.283 132.878 137.094 131.248 135.675L130.864 135.342L131.02 134.742C131.327 133.563 131.144 132.672 130.477 132.086C129.813 131.503 130.505 131.536 119.506 131.562C109.634 131.586 109.578 131.587 109.197 131.765C108.788 131.955 108.317 132.386 108.134 132.737C108.017 132.961 107.96 133.183 106.893 137.581C106.526 139.097 106.209 140.354 106.19 140.373C106.17 140.392 105.814 140.276 105.397 140.115C103.895 139.536 102.252 139.156 100.806 139.053L100.041 138.999L99.9295 138.53C99.7789 137.898 99.7617 136.159 99.8984 135.402C100.008 134.792 100.012 134.786 100.313 134.73C100.479 134.698 101.003 134.697 101.477 134.727C101.981 134.759 102.466 134.746 102.647 134.695C103.206 134.539 103.345 134.304 103.946 132.499C104.482 130.885 104.647 130.498 105.276 129.37C105.617 128.758 105.598 128.603 105.108 127.986C104.463 127.177 103.86 125.751 103.525 124.246L103.382 123.601L103.603 123.419C103.841 123.223 103.999 122.878 103.999 122.557C103.999 121.971 102.244 119.989 100.98 119.148C98.8996 117.764 96.2338 117.197 93.7635 117.613ZM28.1032 120.503C28.9595 120.664 30.8296 121.013 32.2589 121.28C35.2206 121.832 35.267 121.851 35.2236 122.501C35.2037 122.8 35.1484 122.916 34.958 123.058C34.7377 123.222 34.6058 123.237 33.3817 123.237C32.647 123.237 31.7834 123.217 31.4625 123.194L30.8792 123.151L30.6512 123.79C30.1233 125.271 29.0436 126.223 27.4024 126.658C27.0003 126.764 26.5248 126.803 25.6671 126.8L24.4856 126.796L24.2187 127.183C17.8421 136.437 11.8139 143.081 8.10401 144.942C6.27633 145.86 5.00221 145.814 4.06941 144.798C3.61724 144.306 3.34221 143.712 2.83586 142.137C1.74066 138.73 1.84742 137.138 3.27516 135.583C3.73415 135.084 4.88924 134.06 5.63314 133.495C7.4298 132.128 11.4445 129.642 17.5615 126.109C19.3891 125.053 21.2283 123.956 21.6487 123.671C22.082 123.376 22.9573 122.624 23.6697 121.934C25.0708 120.576 25.3788 120.388 26.4843 120.221C26.5182 120.216 27.2467 120.343 28.1032 120.503ZM88.1982 120.762C88.3132 120.877 88.4074 121.031 88.4074 121.105C88.4074 121.337 87.0561 124.914 86.9056 125.08C86.6422 125.371 86.0823 125.239 85.9347 124.851C85.8714 124.684 85.974 124.322 86.4559 123.007C87.224 120.913 87.2771 120.787 87.4466 120.659C87.668 120.492 87.9699 120.534 88.1982 120.762ZM67.8989 123.906C68.2867 124.068 68.6979 124.567 68.7631 124.955C68.806 125.211 68.596 126.172 67.7878 129.414C67.2214 131.687 66.6369 134.045 66.489 134.654C66.3143 135.373 66.1522 135.845 66.0266 135.999C65.8232 136.25 65.8033 136.311 65.4416 137.806C65.3169 138.322 65.2058 138.753 65.1946 138.765C65.1835 138.777 64.5452 138.574 63.7763 138.314C62.1389 137.759 60.9215 137.193 59.4157 136.284C58.1034 135.492 57.6712 135.37 56.9302 135.586C56.2481 135.784 55.7786 136.267 55.5094 137.047C55.3352 137.552 55.3065 137.794 55.3086 138.743C55.3108 139.758 55.3307 139.898 55.5453 140.405C56.4483 142.539 58.5665 144.098 62.2076 145.308C63.0042 145.573 63.6692 145.802 63.6853 145.818C63.7448 145.874 62.3282 151.424 62.1982 151.644C62.1242 151.77 61.9263 151.966 61.7585 152.081L61.4533 152.29L51.947 152.316C45.3802 152.333 42.3434 152.313 42.1261 152.25C41.7384 152.138 41.2433 151.583 41.1668 151.175C41.1265 150.961 41.24 150.361 41.581 148.987C41.8393 147.945 42.8594 143.834 43.8477 139.851C44.836 135.868 46.086 130.826 46.6253 128.647C47.5597 124.873 47.7041 124.405 48.015 124.148C48.4504 123.788 48.1934 123.797 58.1419 123.794C65.9183 123.791 67.673 123.811 67.8989 123.906ZM103.011 124.825C103.373 126.292 103.905 127.439 104.801 128.686C104.852 128.757 104.735 129.042 104.445 129.551C104.149 130.07 103.822 130.871 103.407 132.098C103.073 133.082 102.737 133.935 102.66 133.993C102.562 134.067 102.142 134.1 101.297 134.1C99.8097 134.1 99.5362 134.182 99.4074 134.669C99.0983 135.836 99.0676 137.174 99.315 138.691C99.5519 140.142 99.6116 141.132 99.4893 141.581C99.3576 142.065 98.9022 142.556 98.3764 142.782C97.2056 143.286 94.3181 143.353 92.7705 142.912C92.2433 142.762 91.7147 142.322 91.454 141.816C91.1489 141.225 91.2116 140.658 91.7565 139.084C92.4794 136.997 92.6221 136.347 92.8011 134.329C92.848 133.8 92.8722 133.742 93.0795 133.666C94.0875 133.297 94.9173 132.533 95.4549 131.479C95.8801 130.646 95.8595 130.482 95.2953 130.211C94.3236 129.742 93.8366 128.592 94.1514 127.509C94.3773 126.732 94.9335 126.532 95.7219 126.945L96.0925 127.139L97.5538 126.424C98.3575 126.03 99.8394 125.298 100.847 124.798C101.854 124.297 102.701 123.885 102.728 123.881C102.755 123.878 102.882 124.303 103.011 124.825ZM85.8038 125.673L86.1069 125.852V126.727C86.1069 128.711 86.7 130.54 87.827 132.033C88.8156 133.342 89.951 133.929 91.4925 133.929H92.1563L92.1548 134.334C92.1522 134.981 91.9244 136.41 91.692 137.237C91.403 138.265 90.9765 139.406 90.8519 139.486C90.7961 139.521 90.5012 139.552 90.1966 139.555C89.471 139.56 88.5268 139.734 87.6912 140.015C87.3208 140.14 86.9909 140.212 86.9581 140.174C86.7861 139.979 85.964 137.566 85.3477 135.448C84.1661 131.387 83.9163 128.257 84.6417 126.602C84.8355 126.16 85.3037 125.495 85.4209 125.495C85.4648 125.495 85.6371 125.575 85.8038 125.673ZM178.085 126.645C178.679 127.817 179.312 128.954 179.711 129.566C179.964 129.954 180.17 130.289 180.17 130.311C180.17 130.4 148.344 130.349 148.022 130.26C147.622 130.149 147.071 129.664 146.849 129.228C146.444 128.436 146.596 127.539 147.244 126.891C147.911 126.224 146.675 126.271 163.173 126.288L177.913 126.304L178.085 126.645ZM129.612 132.303C130.069 132.511 130.394 132.868 130.508 133.29C130.639 133.774 130.392 134.932 130.071 135.335C129.877 135.58 129.714 136.136 129.092 138.677C128.681 140.354 128.288 141.85 128.219 142.002C128.047 142.379 127.852 142.353 127.484 141.904C126.864 141.147 125.907 140.954 125.033 141.41C124.692 141.587 124.569 141.701 124.551 141.857C124.534 142.002 124.858 142.616 125.607 143.856C126.839 145.894 127.087 146.383 127.088 146.774L127.089 147.051H126.589H126.088L124.983 149.117C122.772 153.251 120.682 156.596 119.607 157.722C119.261 158.084 118.881 158.147 118.585 157.893C118.486 157.807 118.114 156.963 117.716 155.923C116.882 153.738 115.874 151.444 115.036 149.82C112.71 145.312 110.786 143.057 107.732 141.256C107.343 141.026 106.971 140.806 106.906 140.767C106.806 140.707 106.809 140.612 106.924 140.146C106.999 139.843 107.294 138.637 107.578 137.465C107.862 136.294 108.213 134.856 108.356 134.27C108.64 133.11 108.874 132.654 109.303 132.42C109.559 132.28 110.037 132.265 115.502 132.224C128.871 132.125 129.224 132.127 129.612 132.303ZM208.33 135.805C210.465 136.032 212.833 136.493 214.592 137.022L214.976 137.137L215.344 138.239C215.718 139.357 216.983 143.27 217.572 145.134C217.75 145.696 218.115 146.846 218.383 147.69C221.981 159.022 225.08 169.787 225.582 172.696C225.731 173.56 225.705 173.526 226.257 173.59L226.754 173.648L226.85 174.471C226.902 174.924 227.003 175.793 227.072 176.403C227.142 177.012 227.218 177.617 227.242 177.747C227.28 177.958 227.267 177.974 227.121 177.896C226.911 177.783 226.897 177.785 226.747 177.935C226.672 178.01 226.596 178.32 226.561 178.702L226.501 179.342H213.176H199.852L199.853 179.108C199.856 178.631 199.94 178.497 200.266 178.446C200.437 178.419 200.814 178.356 201.105 178.307L201.634 178.217L201.685 177.821C201.713 177.603 201.792 177.022 201.86 176.53C202.399 172.636 203.92 160.685 204.36 156.891C204.857 152.615 204.899 151.984 204.851 149.521C204.805 147.124 204.773 146.807 204.241 143.387C204.12 142.614 203.963 141.502 203.891 140.916C203.743 139.707 203.631 136.338 203.723 135.848L203.784 135.523L205.29 135.582C206.118 135.615 207.486 135.715 208.33 135.805ZM130.769 136.081C131.468 136.587 132.039 137.952 132.215 139.542C132.304 140.343 132.298 140.638 132.173 141.653C131.996 143.081 131.71 144.263 131.303 145.249C131.135 145.654 130.9 146.226 130.781 146.52L130.563 147.055L129.146 147.031L127.728 147.008L127.678 146.539C127.616 145.976 127.543 145.828 126.286 143.737C125.744 142.836 125.3 142.064 125.3 142.022C125.3 141.98 125.453 141.899 125.641 141.843C126.159 141.688 126.575 141.846 127.012 142.364C127.694 143.173 128.433 143.11 128.823 142.211C128.898 142.038 129.29 140.544 129.695 138.893C130.1 137.241 130.447 135.889 130.468 135.889C130.488 135.889 130.624 135.975 130.769 136.081ZM186.825 136.477C187.585 136.872 188.811 137.36 189.299 137.46C189.516 137.505 189.527 137.536 189.579 138.21C189.608 138.597 189.654 139.173 189.681 139.489L189.73 140.064H174.596C157.882 140.064 159.147 140.106 158.543 139.527C157.483 138.512 157.758 136.827 159.083 136.22C159.409 136.07 160.005 136.063 172.724 136.061L186.025 136.06L186.825 136.477ZM58.8947 136.714C60.7868 137.872 61.5383 138.218 63.8679 139.005C64.9696 139.377 65.4857 139.514 65.5847 139.461C65.6827 139.409 65.8232 138.973 66.0417 138.042C66.409 136.478 66.4878 136.315 66.879 136.315C67.2271 136.315 67.6161 136.692 67.8759 137.28C68.2624 138.155 68.2763 140.126 67.9067 141.666C67.5588 143.115 66.6477 144.465 65.7131 144.915C64.6859 145.411 63.167 145.145 60.603 144.022C57.3398 142.593 55.6879 140.597 55.8944 138.333C56.0313 136.833 56.6117 136.104 57.6166 136.171C57.9727 136.194 58.207 136.294 58.8947 136.714ZM101.997 139.863C105.966 140.513 109.454 142.597 111.781 145.71C113.699 148.274 115.789 152.456 117.505 157.162C117.866 158.152 117.988 158.333 118.433 158.549C118.875 158.763 119.107 158.766 119.556 158.562C120.405 158.176 122.752 154.632 125.29 149.902C125.767 149.013 126.231 148.152 126.321 147.988L126.484 147.69L129.179 147.667L131.875 147.645L131.819 147.923C130.59 154.002 128.878 159.205 126.727 163.397C125.465 165.853 124.204 167.658 122.661 169.214C121.763 170.119 121.492 170.339 120.955 170.599C119.864 171.129 118.742 171.278 117.632 171.042C116.702 170.844 113.847 169.508 112.727 168.745C112.43 168.543 111.349 167.499 110.182 166.286C108.328 164.361 108.13 164.18 107.891 164.199C107.648 164.217 107.57 164.14 106.815 163.138C105.432 161.3 104.389 159.504 103.483 157.403C103.027 156.344 102.995 156.295 102.757 156.295C102.532 156.295 102.509 156.321 102.52 156.564C102.527 156.712 102.77 157.373 103.061 158.033C104.017 160.199 105.55 162.678 107.045 164.481C107.598 165.146 107.663 165.263 107.663 165.586C107.663 166.195 107.413 167.309 106.967 168.692C106.254 170.898 106.105 172.122 106.335 173.87C106.471 174.907 106.883 176.344 107.256 177.082C108.094 178.744 109.774 180.561 111.604 181.786L112.435 182.342L112.16 182.866C111.796 183.561 110.845 184.508 110.091 184.928C109.334 185.35 108.376 185.689 107.475 185.856C106.394 186.056 101.358 186.255 101.358 186.097C101.358 186.064 101.24 185.498 101.095 184.841C100.951 184.183 100.738 183.204 100.623 182.665C100.507 182.126 100.282 181.091 100.122 180.365C99.9624 179.638 99.6546 178.22 99.4379 177.212C99.2214 176.205 98.9688 175.035 98.8767 174.613C98.7846 174.192 98.6371 173.502 98.5489 173.08C97.9298 170.119 97.4835 168.747 96.5383 166.899C93.8521 161.646 88.4732 157.83 82.7414 157.11C82.3196 157.057 81.8117 156.994 81.6125 156.969L81.2504 156.924V155.833C81.2504 155.233 81.2735 154.573 81.302 154.366L81.3535 153.99L82.0475 153.744C84.5518 152.859 86.5271 151.199 87.4256 149.223C87.8514 148.287 87.999 147.544 88.0436 146.113C88.0906 144.609 87.9342 143.438 87.4749 141.853C87.3323 141.361 87.2154 140.935 87.215 140.905C87.2148 140.876 87.5791 140.732 88.0246 140.584C88.6927 140.362 89.8407 140.169 90.5899 140.151C90.6548 140.15 90.6721 140.333 90.6444 140.724C90.5947 141.426 90.7089 141.88 91.0711 142.418C91.4234 142.941 91.9589 143.347 92.5221 143.516C92.7661 143.59 93.512 143.711 94.1798 143.787C95.2976 143.913 95.4903 143.913 96.6081 143.786C97.2759 143.71 98.0376 143.585 98.3008 143.509C98.9112 143.331 99.5346 142.86 99.8644 142.327C100.114 141.924 100.123 141.872 100.142 140.795C100.153 140.182 100.163 139.669 100.164 139.655C100.166 139.614 101.168 139.728 101.997 139.863ZM190.256 147.455C190.339 148.475 190.414 149.385 190.422 149.479C190.437 149.649 190.378 149.649 169.818 149.673C155.285 149.69 149.089 149.67 148.825 149.605C148.231 149.459 147.754 149.078 147.491 148.539C146.971 147.477 147.377 146.294 148.429 145.804L148.859 145.604L169.482 145.603L190.106 145.602L190.256 147.455ZM190.719 155.197C190.971 155.247 190.982 155.268 191.035 155.815C191.065 156.126 191.145 156.839 191.211 157.4C191.386 158.873 191.376 159.118 191.14 159.181C191.035 159.209 181.325 159.232 169.563 159.231C148.923 159.231 148.165 159.225 147.829 159.073C146.392 158.42 146.21 156.455 147.504 155.565C147.711 155.423 148.043 155.274 148.242 155.235C148.652 155.154 190.318 155.117 190.719 155.197ZM46.5729 156.16C47.1587 156.261 47.9529 156.427 48.3377 156.527C48.9543 156.689 49.0429 156.737 49.0834 156.929C49.1314 157.157 49.7363 161.988 50.103 165.071C50.6115 169.348 51.265 175.301 51.6415 179.087C51.7603 180.281 51.8954 181.623 51.9416 182.069C52.3677 186.172 53.2417 196.77 53.5577 201.665C53.653 203.141 53.7688 204.905 53.8152 205.584C53.9479 207.532 54.3087 215.288 54.4255 218.705C54.6197 224.385 54.5463 238.713 54.3211 239.077C54.1572 239.342 49.3835 239.585 47.2593 239.435L46.2842 239.367L46.0892 238.217C45.9819 237.584 45.8184 236.645 45.7258 236.129C45.6332 235.614 45.3422 233.984 45.079 232.508C43.9714 226.296 42.3604 217.711 41.1536 211.591C37.5896 193.517 34.6257 181.429 32.7004 177.118L32.4634 176.587L32.694 175.771C32.8207 175.322 33.0286 174.571 33.156 174.102C33.4236 173.118 33.6686 172.646 34.1602 172.169C34.6503 171.693 35.1952 171.441 36.1586 171.244C37.0398 171.064 37.261 170.923 37.1092 170.64C37.0625 170.553 36.9394 170.482 36.8356 170.483C36.4586 170.487 35.1234 170.824 34.6764 171.029C34.0753 171.304 33.3677 171.982 33.0395 172.598C32.6422 173.344 31.8922 176.126 29.3681 186.217C28.3488 190.292 27.7566 192.706 26.5607 197.661C25.157 203.476 23.5847 210.378 22.2032 216.788C20.455 224.902 19.1539 232.428 18.8533 236.168L18.7543 237.4L18.4561 237.466C18.2921 237.502 17.2377 237.557 16.113 237.588C14.1138 237.642 12.6541 237.563 11.8776 237.358C11.5021 237.259 11.5242 237.346 11.3414 235.235C10.2153 222.228 9.69491 204.958 10.064 192.847C10.4383 180.568 11.4405 171.921 13.3873 164.175C13.7599 162.693 14.4522 160.143 14.4932 160.102C14.5106 160.084 14.7863 160.128 15.106 160.199C16.2311 160.449 17.321 160.551 18.7969 160.546C21.3768 160.536 23.1676 160.184 26.2947 159.07C30.2966 157.645 34.9708 156.541 38.7343 156.131C39.4138 156.057 40.1039 155.982 40.268 155.963C40.432 155.945 41.6781 155.94 43.037 155.952C45.1144 155.972 45.6775 156.005 46.5729 156.16ZM82.7414 157.741C88.4773 158.599 93.4727 162.211 96.0614 167.371C96.9408 169.124 97.2296 170.032 97.9181 173.208C98.1772 174.403 98.46 175.706 98.5466 176.104C98.7047 176.832 99.5974 180.944 100.304 184.199C100.512 185.159 100.718 186.118 100.76 186.329C101.028 187.657 101.463 189.44 101.609 189.81C102.884 193.046 105.618 195.194 108.984 195.606C109.438 195.662 111.314 195.701 113.592 195.701C117.111 195.701 117.488 195.715 118.079 195.866C120.233 196.417 121.994 198.234 122.443 200.371C122.611 201.171 122.61 202.348 122.441 203.087C122.156 204.33 121.237 205.769 120.253 206.512C119.707 206.924 118.699 207.409 118.032 207.58C117.608 207.689 115.36 207.715 102.057 207.766C90.2957 207.81 86.3254 207.799 85.5346 207.722C82.2343 207.398 79.3436 206.014 76.9902 203.629C75.8587 202.483 75.091 201.41 74.3961 200.004C73.6463 198.487 73.4043 197.646 72.557 193.613C72.4683 193.192 72.2196 192.041 72.0043 191.057C71.789 190.073 71.4267 188.405 71.1992 187.351C70.83 185.639 69.8445 181.095 69.3977 179.044C69.3058 178.622 69.0993 177.664 68.9387 176.914C68.7782 176.164 68.3344 174.132 67.9526 172.398C67.2979 169.425 67.256 169.173 67.2157 167.968C67.1674 166.522 67.2834 165.682 67.7063 164.413C68.2099 162.902 68.9545 161.718 70.1663 160.502C71.88 158.782 73.7809 157.891 76.3938 157.583C77.1758 157.49 81.8443 157.607 82.7414 157.741ZM44.782 160.216C44.5371 160.511 44.8493 162.024 45.3792 163.111C45.9726 164.328 46.8914 165.252 48.2217 165.969C48.7637 166.262 48.8935 166.301 49.0449 166.22C49.3955 166.033 49.2244 165.786 48.4474 165.359C47.2019 164.675 46.2733 163.683 45.7794 162.51C45.5671 162.006 45.2949 160.871 45.2949 160.49C45.2949 160.131 44.9889 159.967 44.782 160.216ZM22.7208 162.658C22.6756 162.767 22.521 163.146 22.3772 163.502C21.6175 165.379 19.848 167.172 17.7897 168.148C17.0016 168.522 15.8153 168.913 15.0665 169.045C14.4277 169.158 14.2812 169.237 14.2812 169.466C14.2812 169.747 14.5423 169.8 15.2251 169.659C18.7547 168.931 21.4992 166.859 22.9031 163.863C23.0962 163.451 23.2577 162.979 23.262 162.815C23.2691 162.549 23.2436 162.512 23.0364 162.488C22.8586 162.467 22.7833 162.508 22.7208 162.658ZM112.686 169.5L113.321 169.885H110.283H107.245L107.36 169.523C107.424 169.323 107.574 168.881 107.693 168.539C107.929 167.866 108.26 166.44 108.26 166.095C108.26 165.939 108.305 165.88 108.425 165.88C108.516 165.88 108.618 165.835 108.652 165.78C108.692 165.716 109.317 166.301 110.383 167.398C111.679 168.733 112.193 169.202 112.686 169.5ZM231.633 175.423V177.638H230.414C229.593 177.638 229.163 177.671 229.096 177.738C229.04 177.794 228.891 178.292 228.765 178.846C228.638 179.4 228.512 179.853 228.486 179.852C228.459 179.852 228.353 179.72 228.249 179.56C228.088 179.311 228.014 178.875 227.735 176.515L227.409 173.761L228.761 173.66C229.972 173.568 231.339 173.36 231.45 173.249C231.603 173.096 231.633 173.452 231.633 175.423ZM195.976 178.011C196.484 178.137 197.826 178.347 198.773 178.45L199.27 178.504L199.215 179.243C199.133 180.356 199.103 180.465 198.914 180.364C198.698 180.248 195.91 180.255 195.655 180.371C195.544 180.421 195.39 180.565 195.312 180.691C195.177 180.908 195.171 180.847 195.168 179.358C195.166 177.911 195.177 177.8 195.315 177.841C195.397 177.865 195.694 177.942 195.976 178.011ZM232.865 179.662C233.855 182.367 234.315 183.373 235.428 185.272C236.9 187.785 238.036 190.494 238.049 191.526C238.064 192.579 237.544 193.49 236.707 193.88C236.313 194.063 236.167 194.08 234.998 194.076C234.295 194.074 233.203 194.042 232.57 194.006C230.508 193.887 230.463 193.838 228.592 189.566C227.748 187.64 227.209 186.207 226.991 185.315C226.862 184.787 226.845 184.462 226.885 183.313C226.945 181.631 227.129 179.171 227.196 179.174C227.223 179.175 227.523 179.597 227.863 180.111C228.476 181.038 228.68 181.204 228.882 180.94C228.926 180.881 229.092 180.268 229.249 179.576L229.536 178.32H230.955H232.374L232.865 179.662ZM194.484 180.42C194.484 180.884 194.479 180.897 194.326 180.759C194.074 180.53 193.89 180.681 193.57 181.379C192.508 183.696 189.884 191.789 189.884 192.749C189.884 193.493 190.433 194.351 191.135 194.704C191.947 195.112 195.775 195.416 198.288 195.272C199.99 195.174 200.35 195.104 200.83 194.776C201.373 194.406 201.676 193.833 201.712 193.11C201.737 192.597 201.459 189.466 200.919 184.199C200.85 183.519 200.752 182.522 200.702 181.983C200.586 180.729 200.551 180.56 200.395 180.5C200.176 180.416 199.973 180.594 199.849 180.977C199.749 181.29 199.727 181.313 199.703 181.131C199.688 181.014 199.706 180.707 199.744 180.45L199.812 179.981L213.102 180.013C220.412 180.03 226.405 180.055 226.42 180.068C226.434 180.081 226.405 180.609 226.355 181.242C226.214 183.004 226.231 184.937 226.394 185.577C226.615 186.45 227.254 188.122 228.098 190.035C229.598 193.436 229.828 193.815 230.68 194.278C231.249 194.588 231.969 194.668 234.445 194.697L236.447 194.721L237.02 194.44C237.674 194.119 238.065 193.697 238.424 192.926C238.629 192.486 238.659 192.316 238.659 191.611C238.658 190.726 238.6 190.51 237.915 188.838C237.408 187.602 236.637 186.058 235.907 184.817C235.102 183.449 234.758 182.748 234.182 181.302L233.689 180.066L238.966 180.044C241.868 180.032 246.614 180.032 249.513 180.044L254.783 180.066L253.794 180.925C252.501 182.049 247.62 186.446 242.453 191.14C240.181 193.206 236.925 196.154 235.218 197.692L232.115 200.489L212.171 200.426C201.201 200.392 187.072 200.34 180.771 200.311L169.316 200.259L175.997 194.252C179.671 190.949 183.062 187.897 183.532 187.47C184.247 186.822 187.399 183.987 190.477 181.225C190.874 180.869 191.353 180.435 191.542 180.26L191.886 179.943L193.185 179.941L194.484 179.939V180.42ZM255.404 207.017V233.583L254.318 234.562C253.72 235.101 248.621 239.69 242.986 244.761L232.74 253.981L232.746 227.418L232.751 200.856L234.599 199.174C235.615 198.249 236.543 197.405 236.66 197.298C236.777 197.191 238.809 195.34 241.175 193.185C250.063 185.09 255.225 180.45 255.34 180.45C255.375 180.45 255.404 192.405 255.404 207.017ZM198.673 180.982C198.746 181.041 198.909 181.376 199.036 181.728C199.428 182.814 199.629 182.98 199.938 182.473C200.072 182.255 200.107 182.232 200.107 182.367C200.107 182.539 200.682 188.421 200.915 190.631C201.157 192.925 201.166 193.253 201.003 193.576C200.635 194.304 200.338 194.464 199.134 194.585C196.616 194.838 192.18 194.536 191.302 194.052C190.881 193.819 190.551 193.265 190.547 192.783C190.539 191.839 193.828 181.728 194.143 181.728C194.174 181.728 194.291 181.922 194.402 182.16C194.593 182.568 194.776 182.75 194.995 182.75C195.085 182.75 195.575 181.768 195.718 181.302C195.846 180.885 195.878 180.876 197.248 180.876C198.156 180.876 198.581 180.908 198.673 180.982ZM228.73 186.549C228.624 186.677 228.723 186.915 229.589 188.609C230.879 191.134 231.461 191.895 232.507 192.43C232.903 192.632 232.953 192.637 234.679 192.614L236.447 192.591V192.335V192.08L234.7 192.037C232.664 191.988 232.684 191.994 231.785 191.02C231.344 190.542 231.084 190.117 230.313 188.618C229.797 187.617 229.336 186.721 229.288 186.627C229.175 186.406 228.882 186.366 228.73 186.549ZM193.905 188.05C193.849 188.106 193.803 188.213 193.803 188.288C193.803 188.607 193.952 188.629 196.072 188.629C197.835 188.629 198.156 188.61 198.27 188.495C198.344 188.422 198.404 188.328 198.404 188.288C198.404 188.248 198.344 188.155 198.27 188.081C198.156 187.967 197.835 187.947 196.072 187.947C194.58 187.947 193.979 187.976 193.905 188.05ZM231.551 188.242C231.494 188.31 231.462 188.434 231.478 188.519C231.505 188.66 231.662 188.673 233.566 188.695C235.582 188.717 235.626 188.714 235.681 188.541C235.806 188.146 235.667 188.118 233.592 188.118C232.002 188.118 231.635 188.14 231.551 188.242ZM192.227 192.23C192.068 192.319 192.06 192.581 192.213 192.707C192.399 192.862 193.936 193.145 195.081 193.235C196.268 193.329 197.549 193.278 198.702 193.092C200.225 192.846 200.691 192.61 200.293 192.288C200.142 192.165 200.046 192.171 199.159 192.364C198.287 192.553 197.995 192.574 196.231 192.574C194.472 192.574 194.173 192.553 193.313 192.366C192.733 192.24 192.304 192.186 192.227 192.23ZM230.845 201.123L232.059 201.172V227.716V254.26L213.08 254.205C202.642 254.174 188.436 254.124 181.512 254.094L168.924 254.039V227.511V200.984L199.277 201.029C215.972 201.053 230.177 201.096 230.845 201.123ZM119.591 208.424C119.591 208.814 119.535 210.645 119.466 212.492C119.397 214.34 119.244 218.65 119.126 222.071C119.009 225.492 118.874 229.268 118.826 230.463C118.679 234.183 118.558 238.19 118.542 239.878L118.526 241.497L118.896 241.523L119.265 241.55L119.216 241.949C119.19 242.169 119.105 243.116 119.029 244.053C118.953 244.99 118.886 245.757 118.879 245.757C118.873 245.757 118.714 245.834 118.527 245.927C118.109 246.136 117.86 246.568 117.371 247.93C117.177 248.469 117.004 248.958 116.987 249.018C116.961 249.104 116.896 249.1 116.675 249.002C116.522 248.934 115.572 248.507 114.565 248.054C113.557 247.601 112.311 247.057 111.795 246.845C111.28 246.633 110.628 246.364 110.347 246.248C110.066 246.132 109.625 245.968 109.367 245.884C109.086 245.792 108.904 245.685 108.913 245.616C108.921 245.553 109.073 244.615 109.251 243.533L109.574 241.564L109.868 241.403C110.454 241.082 110.615 240.762 111.11 238.935C111.364 238.001 111.876 236.125 112.249 234.766C114.773 225.575 116.384 218.416 117.159 212.954C117.387 211.34 117.632 209.106 117.632 208.63C117.632 208.354 117.643 208.346 118.207 208.199C118.523 208.116 118.935 207.977 119.123 207.889C119.31 207.8 119.492 207.725 119.528 207.721C119.563 207.717 119.591 208.034 119.591 208.424ZM98.8232 228.397L98.8447 248.398L105.661 248.445C112.192 248.491 112.502 248.5 113.076 248.666C115.618 249.404 117.423 251.459 117.759 254L117.813 254.405H95.9404H74.0681L74.1192 253.745C74.2308 252.305 74.7748 251.147 75.8316 250.1C76.3406 249.596 76.6892 249.335 77.1606 249.105C78.4817 248.461 78.0102 248.496 85.9365 248.445L93.0509 248.398L93.0719 228.504C93.0834 217.562 93.111 208.561 93.1331 208.502C93.1642 208.42 93.8145 208.396 95.9876 208.396H98.8017L98.8232 228.397ZM100.166 208.46C100.166 208.495 100.203 208.754 100.248 209.035C100.515 210.703 100.871 214.56 100.978 216.959C101.005 217.568 101.044 218.277 101.063 218.535C101.181 220.075 101.203 228.581 101.103 234.068L100.991 240.239L101.183 240.636C101.42 241.124 101.837 241.455 102.292 241.516C102.611 241.559 102.636 241.581 102.635 241.828C102.635 242.16 102.309 245.647 102.276 245.668C102.263 245.677 102.09 245.73 101.892 245.787C101.359 245.94 101.139 246.184 100.764 247.035L100.427 247.802H99.9339H99.4411L99.4193 228.205C99.4073 217.427 99.4156 208.561 99.4379 208.502C99.4809 208.389 100.165 208.349 100.166 208.46ZM218.605 216.114C213.69 217.441 212.134 217.892 211.982 218.035C211.743 218.259 211.639 218.727 211.766 219.006C211.817 219.118 212.18 219.565 212.573 220.001C212.966 220.436 213.331 220.877 213.386 220.979C213.536 221.261 213.505 221.548 213.293 221.848C213.187 221.997 211.456 223.594 209.445 225.396C205.955 228.525 205.773 228.674 205.456 228.674C205.273 228.674 205.054 228.637 204.968 228.591C204.883 228.545 203.342 226.871 201.545 224.869C199.747 222.868 198.238 221.19 198.191 221.139C198.144 221.089 197.825 220.733 197.481 220.348C196.792 219.575 196.478 219.426 196.015 219.653C195.836 219.74 193.165 222.072 191.977 223.178C191.927 223.225 191.368 223.724 190.735 224.286C190.103 224.848 189.566 225.329 189.543 225.354C189.506 225.395 184.013 230.313 181.364 232.678C175.82 237.628 176.251 237.203 176.251 237.719C176.251 238.173 176.02 237.878 178.633 240.764C179.391 241.601 179.711 241.81 180.113 241.734C180.252 241.707 180.7 241.378 181.178 240.951C181.631 240.546 183.266 239.085 184.811 237.703C186.355 236.322 188.195 234.677 188.9 234.048C189.605 233.419 191.362 231.847 192.805 230.555C195.644 228.013 195.794 227.911 196.301 228.199C196.45 228.283 196.936 228.761 197.381 229.261C199.497 231.638 204.014 236.67 204.253 236.917C204.616 237.292 205.153 237.309 205.576 236.96C205.832 236.749 207.676 235.098 213.825 229.575C217.13 226.607 217.265 226.489 217.477 226.378C217.91 226.151 218.188 226.315 219.125 227.348C220.039 228.357 220.349 228.563 220.802 228.463C220.936 228.434 221.124 228.325 221.22 228.222C221.315 228.119 222.05 226.29 222.853 224.158C223.656 222.026 224.367 220.147 224.434 219.983C224.703 219.322 226.036 215.747 226.109 215.489C226.255 214.976 225.759 214.345 225.229 214.369C225.12 214.375 222.138 215.16 218.605 216.114ZM16.8937 238.246C16.9012 238.253 16.8755 238.451 16.8366 238.685C16.7976 238.92 16.7026 239.59 16.6254 240.176C16.4402 241.581 16.4454 241.565 16.2138 241.433C15.9501 241.282 13.7341 241.288 13.373 241.44C13.156 241.532 13.0658 241.655 12.9079 242.078C12.7339 242.543 12.7053 242.578 12.6531 242.39C12.6206 242.274 12.5903 241.278 12.5856 240.176L12.5771 238.174L14.7285 238.204C15.9117 238.22 16.8861 238.239 16.8937 238.246ZM53.219 240.879C53.2192 241.406 53.2442 242.438 53.2746 243.171L53.3298 244.504L52.543 244.534C51.778 244.563 51.7493 244.572 51.5076 244.842C51.3095 245.064 51.2591 245.2 51.2591 245.512C51.2591 245.827 51.2339 245.893 51.1297 245.853C51.0585 245.826 50.4355 245.607 49.7452 245.366C49.0548 245.125 48.4634 244.904 48.4309 244.874C48.3983 244.844 48.313 244.341 48.2413 243.755C48.0868 242.493 47.851 240.363 47.851 240.228C47.851 240.162 48.4242 240.128 49.7467 240.116C50.7894 240.107 51.9492 240.064 52.3241 240.022C52.699 239.979 53.0537 239.939 53.1122 239.933C53.1918 239.924 53.2188 240.163 53.219 240.879ZM108.882 241.603C108.901 241.639 108.77 242.53 108.591 243.584C108.412 244.639 108.264 245.549 108.262 245.608C108.26 245.691 107.673 245.714 105.618 245.714H102.977V245.445C102.977 245.171 103.203 242.562 103.284 241.902L103.328 241.54H106.087C107.604 241.54 108.862 241.568 108.882 241.603ZM125.811 241.638C125.811 241.747 125.065 245.332 124.993 245.565C124.951 245.703 124.745 245.714 122.248 245.714H119.548L119.6 245.011C119.629 244.625 119.703 243.686 119.765 242.924L119.878 241.54H122.845C125.025 241.54 125.811 241.565 125.811 241.638ZM15.8649 241.987C15.8787 242.001 15.9301 242.333 15.9792 242.724C16.1222 243.865 16.2604 243.916 16.9986 243.094L17.5156 242.519L17.5188 245.459L17.5219 248.398L17.8183 249.889C18.1411 251.513 18.1732 252.007 17.9988 252.662C17.8554 253.2 17.7445 253.414 17.3648 253.884C16.8334 254.541 16.6018 254.596 14.187 254.643C12.132 254.683 9.64251 254.565 9.07183 254.402C8.53514 254.248 7.97578 253.5 7.97663 252.939C7.97689 252.784 8.07283 252.161 8.18972 251.554C8.67887 249.013 9.62002 246.017 10.4655 244.309C10.7617 243.71 11.5724 242.392 11.6443 242.392C11.6715 242.392 11.8946 242.679 12.14 243.031C12.3854 243.382 12.6193 243.67 12.6599 243.67C12.8891 243.67 13.0167 243.502 13.2655 242.875C13.4175 242.492 13.577 242.133 13.6201 242.076C13.6631 242.02 13.8774 241.958 14.0963 241.937C14.4878 241.901 15.8159 241.938 15.8649 241.987ZM55.8546 245.172C56.8284 245.414 61.0661 247.47 63.0616 248.669C64.5469 249.562 65.6603 250.413 66.4906 251.29C67.8165 252.69 68.0399 253.775 67.1434 254.458L66.8211 254.703L59.4022 254.692C51.3357 254.681 47.5077 254.582 47.11 254.375C46.8392 254.234 46.5638 253.951 46.3925 253.638C46.2383 253.356 46.2366 249.841 46.3903 248.696C46.5435 247.554 46.8654 246.247 47.1322 245.684C47.2574 245.419 47.3685 245.203 47.3791 245.203C47.3899 245.203 48.3152 245.53 49.4353 245.93C50.5556 246.33 51.5488 246.646 51.6425 246.633C51.7916 246.612 51.8183 246.527 51.8555 245.955C51.8789 245.596 51.9219 245.278 51.9511 245.249C52.0133 245.187 53.6458 245.062 54.6191 245.045C55.0017 245.038 55.5381 245.093 55.8546 245.172ZM54.1276 246.027C54.0963 246.058 54.0708 246.167 54.0708 246.27C54.0708 246.415 54.4633 246.739 55.8336 247.726C58.5245 249.663 58.4943 249.643 58.6806 249.544C58.8972 249.428 58.8845 249.19 58.6504 248.981C58.1573 248.54 54.4786 245.97 54.3406 245.97C54.2546 245.97 54.1588 245.996 54.1276 246.027ZM110.325 246.933C111.109 247.252 111.942 247.597 112.175 247.7L112.6 247.887L106.921 247.864C103.797 247.851 101.222 247.822 101.199 247.799C101.176 247.776 101.27 247.499 101.409 247.183C101.81 246.267 101.633 246.303 105.576 246.33L108.899 246.353L110.325 246.933ZM128.154 247.306C132.028 248.946 134.577 250.136 135.509 250.738C136.27 251.23 136.852 251.844 137.146 252.466C137.438 253.083 137.444 253.133 137.265 253.479C136.997 253.997 137.304 253.979 128.666 253.979H120.78L120.91 253.728C121.498 252.59 120.166 250.733 117.973 249.634C117.762 249.529 117.576 249.43 117.559 249.416C117.503 249.366 117.995 247.977 118.316 247.279C118.491 246.898 118.706 246.544 118.793 246.492C118.905 246.426 120.03 246.404 122.531 246.418L126.109 246.44L128.154 247.306ZM11.0605 248.543C11.0043 248.599 10.9583 248.707 10.9583 248.782C10.9583 249.097 11.1154 249.122 13.0258 249.122C14.9282 249.122 15.2184 249.079 15.2184 248.796C15.2184 248.464 15.08 248.441 13.0884 248.441C11.7043 248.441 11.1341 248.47 11.0605 248.543ZM117.058 249.9C118.933 250.837 119.823 251.567 120.243 252.512C120.497 253.082 120.495 253.302 120.234 253.584C119.946 253.894 119.68 253.979 118.993 253.979H118.406L118.354 253.659C118.119 252.231 117.504 251.032 116.451 249.953C116.142 249.637 115.918 249.378 115.953 249.378C115.987 249.378 116.485 249.613 117.058 249.9ZM47.9149 252.066C47.7963 252.19 47.8499 252.512 47.9986 252.569C48.0798 252.6 48.6837 252.68 49.3405 252.747C53.6933 253.189 58.8214 253.375 62.6696 253.231C65.4213 253.128 65.572 253.1 65.4504 252.717C65.3959 252.545 65.3624 252.544 61.5436 252.591C57.3487 252.643 54.293 252.549 51.1673 252.272C48.1798 252.008 47.9828 251.996 47.9149 252.066ZM9.40335 252.409C9.26396 252.55 9.34115 252.876 9.53115 252.948C10.31 253.24 14.3132 253.402 15.8226 253.202C16.588 253.101 16.7521 253.026 16.7521 252.78C16.7521 252.543 16.5346 252.47 16.0453 252.542C15.8014 252.578 14.9692 252.633 14.196 252.663C12.8811 252.715 11.8734 252.652 9.85066 252.393C9.63979 252.366 9.43854 252.373 9.40335 252.409Z" fill="#CFCFCF"/>
</svg>
