<svg width="345" height="345" viewBox="0 0 345 345" fill="none" xmlns="http://www.w3.org/2000/svg">
<path fill-rule="evenodd" clip-rule="evenodd" d="M80.6498 46.0918C78.3422 46.2479 75.3242 46.8257 73.0175 47.553C62.8045 50.773 54.7232 58.3953 50.8961 68.4179C48.7721 73.9803 48.1428 80.4292 49.1417 86.3934C50.0286 91.6882 52.0869 96.609 55.2601 101.021C57.0689 103.535 59.8415 106.371 62.3469 108.269C66.504 111.419 70.9947 113.477 76.2342 114.633C76.3627 114.661 76.4654 114.741 76.4654 114.812C76.4654 114.882 76.3912 115.761 76.3006 116.765C76.21 117.769 76.0585 119.479 75.964 120.565C75.8694 121.652 75.7356 123.184 75.6666 123.97C75.5975 124.756 75.4643 126.288 75.3705 127.375C75.1806 129.573 74.9336 132.396 74.7416 134.562C74.6719 135.348 74.4638 137.75 74.2789 139.9C74.0941 142.05 73.8859 144.452 73.8162 145.238C73.6242 147.404 73.3773 150.227 73.1874 152.426C73.0936 153.512 72.9595 155.044 72.8893 155.83C72.8192 156.616 72.6307 158.772 72.4705 160.622C72.3103 162.471 72.141 164.419 72.094 164.951C72.0471 165.483 71.9323 166.826 71.8389 167.935C71.7455 169.045 71.6324 170.331 71.5877 170.794C71.543 171.256 71.4303 172.542 71.3373 173.652C71.2442 174.761 71.1113 176.293 71.0419 177.056C70.9216 178.378 70.7931 179.851 70.4112 184.286C70.3176 185.372 70.1655 187.112 70.0733 188.153C69.8061 191.167 69.6664 192.765 69.4854 194.878C69.2999 197.043 69.0497 199.928 68.8546 202.149C68.684 204.091 68.4259 207.047 68.2233 209.379C68.1309 210.442 67.9981 211.955 67.9283 212.741C67.7646 214.584 67.2427 220.597 67.133 221.904C67.0865 222.459 67.0096 223.329 66.9622 223.838C66.9148 224.346 66.7253 226.522 66.5411 228.672C66.3568 230.821 66.1486 233.224 66.0785 234.01C65.5499 239.928 65.4325 241.065 65.2839 241.701C64.9814 242.997 64.6966 244.753 64.6187 245.805C64.5506 246.723 64.6191 248.595 64.732 248.908C64.7525 248.965 64.6951 249.853 64.6044 250.882C64.5139 251.911 64.4397 252.761 64.4397 252.77C64.4397 252.779 64.1275 252.671 63.7459 252.53C57.5191 250.228 52.1219 250.257 48.5587 252.612C45.1275 254.879 44.0321 259.863 45.9123 264.651C47.8435 269.569 52.9343 275.01 59.0576 278.702C64.0322 281.701 70.0902 283.789 76.6149 284.752L77.8996 284.942L77.5952 285.237C77.19 285.631 76.8483 286.138 76.6175 286.687C76.4547 287.075 76.4286 287.285 76.4309 288.189C76.4332 289.12 76.4586 289.304 76.6542 289.803C77.5366 292.053 79.5855 293.441 82.4615 293.736C85.0282 293.999 88.8066 292.964 93.236 290.784C93.7874 290.512 94.2766 290.29 94.3231 290.29C94.3695 290.29 94.7698 290.53 95.2126 290.823C97.9518 292.636 100.635 293.844 102.734 294.211C103.672 294.374 105.511 294.326 106.276 294.118C110.308 293.021 111.947 288.766 109.334 286.178C109.063 285.911 108.842 285.667 108.842 285.637C108.842 285.607 108.958 285.583 109.1 285.583C109.242 285.583 109.846 285.507 110.441 285.415C111.037 285.322 112.122 285.17 112.853 285.076C118.554 284.346 124.761 282.679 129.932 280.489C135.006 278.339 139.482 275.587 143.127 272.373L144.067 271.544H158.186H172.304L172.535 272.359C173.276 274.982 174.625 277.598 176.021 279.117C178.164 281.45 181.024 282.52 184.318 282.222C187.563 281.928 189.947 280.871 191.976 278.828C193.656 277.136 194.885 274.91 195.581 272.301L195.772 271.586H222.924H250.075L251.222 276C252.965 282.706 252.944 282.633 253.188 282.887L253.403 283.112L253.313 284.24C253.263 284.86 253.204 285.397 253.182 285.433C253.159 285.469 252.968 285.499 252.756 285.499C252.374 285.499 252.359 285.509 251.184 286.658C249.871 287.941 249.273 288.434 248.147 289.159C246.99 289.905 245.538 290.565 243.732 291.169C242.637 291.534 242.044 291.775 241.946 291.894C241.221 292.776 241.919 294.63 243.427 295.83C245.065 297.133 247.119 297.744 250.565 297.955C253.996 298.164 258.102 297.64 261.545 296.553C262.771 296.166 263.324 295.437 263.326 294.207C263.328 292.696 262.915 290.088 262.449 288.671C262.185 287.867 261.7 286.892 261.432 286.624C261.196 286.387 260.691 286.352 260.406 286.552C260.229 286.675 260.219 286.668 260.134 286.351C259.923 285.568 259.708 284.396 259.657 283.754C259.61 283.163 259.623 283.036 259.747 282.899C260.093 282.517 260.909 277.852 261.307 273.982C261.404 273.034 261.504 272.098 261.528 271.901L261.571 271.544L264.53 271.539C266.158 271.536 267.668 271.505 267.886 271.469C268.119 271.43 268.315 271.437 268.362 271.484C268.41 271.532 269.141 271.547 270.194 271.523C272.163 271.478 272.953 271.328 274.181 270.766C275.592 270.12 277.104 268.864 277.959 267.628C278.407 266.979 279.137 265.533 279.137 265.293C279.137 265.069 279.259 265.133 279.56 265.513C279.717 265.709 280.467 266.598 281.229 267.489C282.368 268.822 282.669 269.125 282.924 269.201C283.196 269.283 283.295 269.395 283.714 270.104C284.225 270.968 284.815 272.145 285.1 272.87L285.275 273.314L285.044 273.402C284.4 273.646 284.343 273.898 284.481 275.882C284.654 278.361 284.467 280.299 283.836 282.599C283.564 283.587 283.386 284.063 282.537 286.054C282.239 286.752 281.996 287.411 281.996 287.518C281.996 287.816 282.37 288.386 282.726 288.631C284.486 289.841 287.382 289.495 290.034 287.758C293.956 285.188 298.063 279.939 300.565 274.3C301.282 272.683 301.186 272.323 299.73 271.165C296.984 268.982 294.016 267.425 292.326 267.281C291.804 267.237 291.752 267.248 291.547 267.453C291.426 267.574 291.304 267.787 291.276 267.927C291.248 268.067 291.2 268.182 291.168 268.182C291.048 268.182 290.008 267.401 289.597 267.003C289.182 266.6 289.168 266.57 289.16 266.102C289.141 265.001 288.459 260.422 287.916 257.758C286.619 251.385 284.642 245.489 282.286 240.96C281.569 239.584 281.59 239.721 281.784 237.677C281.909 236.361 282.098 234.216 282.415 230.521C282.508 229.434 282.64 227.921 282.708 227.158C282.776 226.396 282.91 224.863 283.006 223.754C283.102 222.644 283.253 220.904 283.342 219.887C283.431 218.87 283.581 217.148 283.675 216.062C283.77 214.975 283.903 213.443 283.972 212.657C284.143 210.715 284.401 207.76 284.603 205.428C284.696 204.364 284.829 202.851 284.898 202.065C285.113 199.653 285.605 193.971 285.695 192.86C285.742 192.282 285.818 191.412 285.864 190.927C285.91 190.441 286.099 188.285 286.284 186.135C286.468 183.985 286.677 181.602 286.746 180.839C286.816 180.076 287.025 177.693 287.209 175.543C287.772 168.995 287.671 169.746 288.133 168.692C289.041 166.621 289.556 164.456 289.747 161.909C289.904 159.808 289.756 158.479 289.101 156.115C288.936 155.521 288.958 155.15 289.526 148.937C289.655 147.522 289.871 145.049 290.153 141.749C290.246 140.663 290.377 139.15 290.445 138.387C290.513 137.624 290.647 136.092 290.743 134.982C290.838 133.873 290.99 132.133 291.079 131.115C291.168 130.098 291.318 128.377 291.412 127.29C291.506 126.204 291.64 124.672 291.709 123.886C291.88 121.944 292.138 118.988 292.34 116.656C292.433 115.593 292.566 114.08 292.635 113.294C292.705 112.508 292.894 110.352 293.054 108.502C293.214 106.653 293.403 104.478 293.474 103.669C293.545 102.859 293.642 101.743 293.689 101.189C293.736 100.634 293.903 98.7046 294.06 96.9014C294.217 95.0982 294.371 93.3014 294.402 92.9084C294.432 92.5154 294.47 92.0527 294.486 91.8803C294.527 91.4307 294.308 89.9301 294.113 89.3213C293.094 86.1447 290.23 84.1657 286.65 84.1657C285.796 84.1657 285.774 84.1706 285.679 84.3791C285.613 84.5243 285.54 84.5754 285.45 84.539C285.377 84.5095 284.977 84.414 284.561 84.3267C283.822 84.1717 281.844 84.1679 200.86 84.1668L117.917 84.1657L117.984 83.0939C118.131 80.7378 118.026 77.8813 117.709 75.6753C116.087 64.3649 108.835 54.4555 98.5406 49.4823C92.911 46.7627 87.0765 45.657 80.6498 46.0918ZM87.5708 49.6875C89.7225 50.009 91.0611 50.317 92.9573 50.9269C106.418 55.2569 115.319 68.1873 114.555 82.3011C114.178 89.2648 111.742 95.4347 107.212 100.894C106.416 101.854 104.454 103.804 103.418 104.666C95.0704 111.613 83.8522 113.77 73.5641 110.407C63.9636 107.269 56.408 99.5795 53.4174 89.9026C51.99 85.284 51.6633 80.036 52.5057 75.2549C54.875 61.8062 65.8256 51.3568 79.3247 49.6635C80.9028 49.4656 80.9328 49.4644 83.7818 49.4917C85.9128 49.5121 86.6537 49.5505 87.5708 49.6875ZM81.6373 50.4601C80.2357 50.5286 78.9754 50.6894 77.3738 51.0043C75.8739 51.2991 75.6722 51.3735 75.6409 51.6432C75.602 51.9786 75.7953 51.9959 76.8735 51.7542C80.735 50.8885 85.3405 50.8286 89.1003 51.5952C89.9663 51.7717 90.2074 51.7414 90.2409 51.4519C90.2627 51.2641 90.2228 51.2149 89.9886 51.1404C89.6376 51.0287 88.5514 50.8321 87.3558 50.664C86.5304 50.5479 83.6526 50.3609 83.109 50.388C82.9934 50.3938 82.3311 50.4262 81.6373 50.4601ZM169.139 50.9268C162.443 51.1995 157.167 51.7397 151.058 52.7782C148.176 53.2683 143.691 54.1795 143.385 54.3372C143.206 54.4293 143.193 54.6857 143.36 54.8241C143.489 54.9314 143.426 54.9415 145.718 54.4469C151.871 53.1196 158.907 52.156 165.691 51.7118C167.875 51.5688 174.668 51.5173 177.212 51.6245C188.047 52.081 198.009 54.0901 206.792 57.5901C211.901 59.626 216.864 62.3247 220.056 64.8023C220.378 65.0523 220.696 65.2461 220.762 65.233C220.964 65.1932 221.081 64.9367 220.975 64.768C220.77 64.4425 218.194 62.6447 216.378 61.5594C211.06 58.381 204.502 55.7153 197.564 53.9109C191.733 52.3946 185.513 51.4554 178.558 51.0413C177.133 50.9564 170.417 50.8748 169.139 50.9268ZM82.8562 51.9588C82.2187 52.1675 81.8682 52.4759 81.6023 53.0621C81.267 53.8014 81.4361 54.6625 82.0265 55.2224C82.3283 55.5087 82.8246 55.7521 83.1063 55.7521C83.2722 55.7521 83.2778 55.8049 83.2962 57.5595C83.3067 58.5535 83.3161 59.7152 83.3172 60.141L83.3192 60.9152L83.0366 60.9729C82.8812 61.0047 82.6971 61.0876 82.6276 61.1571C82.3896 61.395 81.5147 65.3188 81.1806 67.6472C80.7015 70.9858 80.765 74.3338 81.351 76.6305L81.5196 77.2915L81.0089 77.8232C80.6922 78.1528 80.395 78.5725 80.2268 78.9275C79.9699 79.4695 79.9554 79.552 79.9554 80.4669C79.9554 81.4119 79.9625 81.448 80.2681 82.0729C81.6576 84.9141 85.6086 84.9443 87.0199 82.1245C87.1815 81.8014 87.3138 81.4897 87.3138 81.4317C87.3138 81.3737 87.4461 81.3014 87.6078 81.2711C88.2022 81.1597 90.4261 80.5219 91.9391 80.0291C96.7055 78.4764 101.348 76.4629 108.145 73.0014C108.915 72.6089 109.582 72.2122 109.679 72.0885C109.925 71.7768 109.902 71.4401 109.62 71.2168C109.42 71.0581 109.319 71.0397 108.872 71.0806L108.355 71.1279L108.249 70.8586C108.191 70.7105 107.921 70.093 107.648 69.4862L107.152 68.3831L107.401 68.1346C108.204 67.3314 107.638 66.0002 106.54 66.1121C106.349 66.1316 106.131 66.1752 106.056 66.2091C105.949 66.2567 105.807 66.1119 105.43 65.5719C103.468 62.7646 101.081 60.385 98.4277 58.5917C97.9032 58.2372 97.8184 58.1471 97.8645 57.993C98.0746 57.2897 97.9295 56.7916 97.4139 56.4473C96.9265 56.1218 96.1783 56.2499 95.8377 56.7173L95.6704 56.9468L95.0872 56.6539C92.514 55.3613 88.9602 54.3383 86.2626 54.1135C85.3226 54.0353 85.2955 54.0236 85.2955 53.6972C85.2955 53.1072 84.8467 52.4231 84.2651 52.1265C83.8926 51.9366 83.1823 51.8521 82.8562 51.9588ZM83.9331 52.6758C84.2913 52.8621 84.5197 53.1563 84.6319 53.5761C84.7273 53.9326 84.7191 53.9973 84.532 54.3747C84.3769 54.6875 84.239 54.8304 83.9532 54.9745C83.4884 55.2088 83.2615 55.2118 82.8023 54.9896C81.89 54.5481 81.8258 53.3256 82.6845 52.7471C83.0118 52.5266 83.5835 52.494 83.9331 52.6758ZM96.2 53.4544C96.1691 53.4852 96.1439 53.5966 96.1439 53.702C96.1439 53.8596 96.3041 53.979 97.0479 54.3757C99.7419 55.8125 101.786 57.3021 103.953 59.4089C108.927 64.2427 112.018 70.5278 112.843 77.4826C113.04 79.1466 113.038 82.1197 112.838 83.9001C112.705 85.0781 112.7 85.2843 112.802 85.3488C113.162 85.5763 113.282 85.3842 113.44 84.3301C113.65 82.9282 113.649 78.5159 113.437 76.9782C112.709 71.6922 110.956 67.2114 107.982 63.0349C105.63 59.7326 102.118 56.5342 98.6247 54.5139C97.0399 53.5973 96.3559 53.2985 96.2 53.4544ZM215.288 54.5793C214.682 54.6794 214.067 54.9052 214.012 55.048C213.954 55.1981 214.097 55.4999 214.225 55.4999C214.274 55.4999 214.579 55.4197 214.901 55.3217C215.59 55.1127 216.211 55.1379 216.554 55.3889C216.678 55.4794 216.917 55.8374 217.085 56.1843C217.678 57.4086 218.346 57.7215 219.857 57.4823C221.219 57.2666 221.6 57.3132 222.06 57.7517C222.324 58.0038 222.502 58.553 222.584 59.3669C222.713 60.663 223.055 61.4624 223.658 61.8768C224.375 62.3697 225.01 62.4175 226.535 62.0931C229.021 61.5643 229.662 61.9037 230.023 63.9386C230.241 65.1653 230.325 65.4229 230.626 65.7876C231.332 66.6424 232.664 66.6462 234.336 65.7981C235.381 65.2686 235.503 65.175 235.474 64.9263C235.441 64.6373 235.16 64.5936 234.793 64.8203C234.205 65.1837 233.32 65.5723 232.77 65.7088C232.052 65.8873 231.624 65.8254 231.238 65.4873C230.924 65.2117 230.835 64.9614 230.655 63.8463C230.44 62.5182 230.119 61.9315 229.367 61.4894C229.008 61.2787 228.899 61.2584 228.132 61.2591C227.543 61.2597 227.057 61.3175 226.507 61.4523C225.555 61.6857 224.688 61.7059 224.263 61.5045C223.646 61.2118 223.384 60.6468 223.209 59.2315C223.019 57.6974 222.623 57.0809 221.639 56.7932C221.213 56.6684 221.069 56.6636 220.48 56.7547C218.477 57.0648 218.232 56.9912 217.681 55.916C217.252 55.078 217.157 54.9646 216.705 54.7544C216.272 54.5525 215.802 54.4944 215.288 54.5793ZM69.3557 56.4082C68.7432 56.7934 68.5852 57.5817 69.009 58.1371C69.6113 58.9265 70.9366 58.6194 71.1189 57.6483C71.19 57.2695 70.9389 56.6673 70.6239 56.4609C70.2851 56.2391 69.6654 56.2133 69.3557 56.4082ZM169.265 56.6496C160.29 56.8803 150.666 58.319 141.135 60.8545C137.621 61.7894 133.445 63.0669 133.243 63.2689C133.09 63.4219 133.188 63.676 133.417 63.7211C133.487 63.7349 134.523 63.4451 135.721 63.0774C146.114 59.8843 155.235 58.1546 165.355 57.4582C168.384 57.2497 175.562 57.2507 178.474 57.46C186.638 58.0467 193.411 59.3704 200.297 61.7245C204.148 63.0413 208.21 64.8804 211.022 66.5804C211.649 66.9591 212.203 67.2689 212.253 67.2689C212.405 67.2689 212.55 67.0342 212.498 66.8712C212.395 66.5465 209.213 64.7478 206.719 63.604C199.302 60.2034 190.817 57.9941 181.754 57.1042C177.51 56.6875 173.487 56.5411 169.265 56.6496ZM70.3637 57.1159C70.5412 57.3692 70.5283 57.6291 70.3292 57.8092C69.8282 58.2623 69.089 57.5815 69.5405 57.0828C69.7405 56.8618 70.1987 56.8803 70.3637 57.1159ZM97.1674 57.0681C97.252 57.1446 97.3212 57.309 97.3212 57.4334C97.3212 57.9104 96.6796 58.1405 96.3802 57.7708C96.1936 57.5404 96.1877 57.3602 96.3589 57.1159C96.5177 56.8892 96.9419 56.8641 97.1674 57.0681ZM61.1289 60.1281C59.2569 62.1173 57.368 64.8718 56.1348 67.4109C55.5968 68.5185 55.5402 68.7892 55.8231 68.8977C55.8907 68.9237 55.9934 68.9244 56.0511 68.8994C56.109 68.8743 56.4753 68.2115 56.8654 67.4264C58.1274 64.8857 59.892 62.339 61.6719 60.4895C62.1816 59.9598 62.3115 59.6076 62.0361 59.502C61.8092 59.4149 61.7829 59.433 61.1289 60.1281ZM83.8118 62.7504C84.7172 65.6151 85.2078 67.6614 85.6006 70.2111C85.8136 71.5942 85.8139 75.1455 85.601 76.2185C85.5188 76.6328 85.4354 76.998 85.4156 77.03C85.3958 77.0621 85.181 77.0087 84.9381 76.9115C84.3529 76.6773 82.9827 76.6583 82.4863 76.8775C82.3059 76.9572 82.1433 77.0077 82.1252 76.9896C82.075 76.9395 81.7894 75.6832 81.7307 75.2549C81.239 71.6649 81.5415 67.9682 82.7351 62.9816C83.0929 61.4871 83.0685 61.5525 83.2684 61.5525C83.4065 61.5525 83.4942 61.7459 83.8118 62.7504ZM59.5032 66.2517C58.7541 66.7221 58.803 67.934 59.5859 68.3054C60.8394 68.9 61.9096 67.3458 60.9076 66.3861C60.5729 66.0656 59.9018 66.0014 59.5032 66.2517ZM60.3456 66.7771C60.5827 66.9018 60.6525 67.0116 60.6541 67.2622C60.656 67.559 60.4227 67.7733 60.0977 67.7733C59.5356 67.7733 59.3897 67.0466 59.9 66.7885C60.155 66.6595 60.1236 66.6603 60.3456 66.7771ZM106.939 66.8547C107.347 67.1755 107.135 67.7733 106.614 67.7733C106.101 67.7733 105.903 67.2572 106.274 66.8868C106.525 66.635 106.652 66.6289 106.939 66.8547ZM109.022 71.7965C108.743 72.0111 103.771 74.4873 101.656 75.4649C98.0647 77.1249 95.7282 78.0728 92.6118 79.1341C91.1258 79.6401 88.2798 80.4883 87.7079 80.5956L87.3979 80.6538L87.3961 80.203C87.3942 79.7046 87.0995 78.7728 86.8196 78.3799C86.7214 78.2421 86.641 78.1094 86.641 78.0853C86.641 77.8317 92.8907 75.5443 96.0598 74.6381C98.1057 74.053 102.113 73.0531 103.712 72.7285C103.921 72.6863 105.188 72.4268 106.53 72.1519C107.871 71.877 109.025 71.6502 109.095 71.648C109.178 71.6453 109.154 71.6955 109.022 71.7965ZM242.297 73.1791C240.008 73.826 239.152 76.5444 240.654 78.3942C240.914 78.7134 241.18 78.9163 241.665 79.1639C242.287 79.4816 242.364 79.4999 243.049 79.4949C243.647 79.4906 243.859 79.4507 244.258 79.2682C244.93 78.9606 245.589 78.3138 245.887 77.6694C246.102 77.2037 246.129 77.0542 246.129 76.3057C246.129 75.5555 246.103 75.4084 245.885 74.937C245.271 73.609 243.627 72.8032 242.297 73.1791ZM243.897 73.9009C244.544 74.1467 244.952 74.5195 245.262 75.1481C245.625 75.8858 245.644 76.6556 245.317 77.3565C244.882 78.2893 244.166 78.7866 243.164 78.852C242.605 78.8885 242.507 78.869 242.011 78.6251C240.061 77.6655 240.044 74.9676 241.981 73.9997C242.604 73.6888 243.251 73.6555 243.897 73.9009ZM84.9818 77.6268C85.8825 78.047 86.5541 78.9358 86.7446 79.96C86.9896 81.2771 86.2276 82.7244 84.9818 83.3079C84.5559 83.5075 84.3938 83.5352 83.6556 83.5352C82.9035 83.5352 82.7637 83.5102 82.332 83.2983C81.0565 82.6722 80.2839 81.1525 80.5871 79.8663C80.847 78.7641 81.5271 77.9603 82.5624 77.5318C83.1896 77.2722 84.3166 77.3164 84.9818 77.6268ZM55.946 78.8308C54.3888 79.314 54.1082 81.4666 55.491 82.3209C56.4511 82.9141 57.7498 82.5488 58.2502 81.5449C58.7984 80.4455 58.2428 79.1729 57.0594 78.8169C56.5945 78.677 56.4349 78.6789 55.946 78.8308ZM109.593 78.8318C109.176 78.9601 108.677 79.3901 108.445 79.8194C108.216 80.2456 108.243 81.18 108.496 81.5881C108.923 82.275 109.468 82.5895 110.23 82.5895C111.345 82.5895 112.122 81.7984 112.122 80.6643C112.122 79.78 111.604 79.0809 110.763 78.8313C110.241 78.6764 110.097 78.6765 109.593 78.8318ZM57.1217 79.5214C58.0324 79.9787 58.0342 81.3412 57.1247 81.8244C56.4497 82.183 55.727 81.923 55.364 81.1909C55.1768 80.8137 55.1687 80.749 55.2641 80.3925C55.4927 79.5375 56.3517 79.1347 57.1217 79.5214ZM110.925 79.5987C111.342 79.9098 111.491 80.1948 111.491 80.6771C111.491 81.0005 111.443 81.1924 111.318 81.3592C110.877 81.9503 110.222 82.1296 109.622 81.8238C108.693 81.3497 108.688 79.9829 109.614 79.5108C109.97 79.3294 110.623 79.3731 110.925 79.5987ZM284.534 84.9655C285.758 85.2185 286.877 85.7938 287.771 86.6297C288.491 87.3018 288.92 87.8889 289.313 88.7365C289.989 90.1969 290.08 91.1106 289.826 93.9171C289.597 96.4554 289.48 97.7907 288.895 104.509C288.801 105.596 288.667 107.128 288.598 107.914C288.435 109.772 288.274 111.625 288.01 114.681C287.893 116.045 287.741 117.785 287.672 118.548C287.604 119.311 287.396 121.694 287.211 123.844C287.025 125.994 286.817 128.396 286.747 129.182C286.555 131.348 286.308 134.171 286.118 136.369C286.024 137.456 285.891 138.988 285.822 139.774C285.602 142.284 285.373 144.927 285.192 147.046C285.095 148.178 284.989 149.317 284.957 149.577L284.897 150.048L284.214 149.656C283.599 149.303 283.111 149.092 281.323 148.41C279.821 147.837 278.357 146.96 277.326 146.016C276.681 145.425 276.348 144.829 275.836 143.347C275.348 141.936 275.042 141.188 274.704 140.581C274.137 139.561 272.732 138.288 271.063 137.279C267.242 134.969 262.627 134.303 259.668 135.633C257.453 136.629 255.896 138.427 255.217 140.771C255.029 141.419 255.001 141.676 255 142.747C254.999 144.913 254.694 145.714 252.047 150.5C250.781 152.79 250.612 153.169 250.564 153.848C250.542 154.159 250.566 154.611 250.618 154.853C250.715 155.305 251.707 157.592 252.31 158.756L252.651 159.411L251.871 159.78C251.413 159.996 250.899 160.173 250.628 160.207C249.91 160.298 248.957 160.626 248.35 160.992C247.53 161.486 246.074 161.762 243.974 161.819C243.112 161.843 242.043 161.835 241.598 161.802L240.789 161.741V161.423C240.789 161.135 240.854 160.35 241.252 155.83C241.498 153.04 241.712 150.592 241.88 148.643C241.974 147.556 242.106 146.043 242.174 145.28C242.242 144.517 242.376 142.985 242.472 141.876C242.71 139.119 242.951 136.357 243.102 134.646C243.172 133.86 243.38 131.458 243.564 129.308C243.748 127.158 243.955 124.775 244.024 124.012C244.093 123.249 244.225 121.755 244.318 120.691C244.411 119.628 244.525 118.323 244.572 117.791C244.618 117.26 244.657 116.758 244.657 116.678C244.657 116.538 245.518 116.53 261.193 116.509L277.728 116.488L277.848 116.309C277.952 116.152 277.95 116.113 277.831 115.994C277.707 115.869 276.279 115.858 261.218 115.858C252.156 115.858 244.742 115.829 244.742 115.795C244.742 115.76 244.78 115.316 244.825 114.807C245.046 112.34 245.348 108.895 245.501 107.115C245.594 106.029 245.709 104.705 245.756 104.173C245.803 103.641 245.933 102.147 246.045 100.852C246.157 99.5578 246.29 98.0319 246.34 97.4613C246.409 96.6771 246.407 96.3952 246.333 96.3055C246.184 96.1261 245.924 96.1632 245.84 96.376C245.799 96.48 245.685 97.5298 245.587 98.7088C245.416 100.762 245.224 102.98 244.95 106.064C244.675 109.164 244.226 114.343 244.17 115.059L244.111 115.816L223.016 115.837L201.921 115.858L201.97 115.459C201.998 115.239 202.115 113.943 202.231 112.579C202.346 111.215 202.498 109.456 202.568 108.67C202.707 107.114 203.036 103.337 203.243 100.936C203.315 100.104 203.429 98.8397 203.496 98.1265C203.67 96.2807 203.662 95.96 203.441 95.8897C203.334 95.8559 203.219 95.8788 203.151 95.947C203.025 96.0755 202.994 96.3963 201.979 108.124C201.861 109.488 201.711 111.19 201.645 111.907C201.579 112.623 201.479 113.806 201.422 114.534L201.32 115.858H181.067H160.814L160.814 115.585C160.815 115.344 160.944 113.775 161.229 110.562C161.276 110.03 161.391 108.706 161.484 107.62C161.577 106.533 161.749 104.566 161.865 103.248C162.406 97.136 162.397 97.3227 162.171 97.2018C161.791 96.9987 161.76 97.1386 161.489 100.264C161.127 104.452 160.916 106.866 160.772 108.46C160.704 109.223 160.572 110.736 160.479 111.823C160.386 112.909 160.266 114.262 160.214 114.828L160.118 115.858H140.932H121.746L121.85 114.618C121.963 113.282 122.115 111.536 122.381 108.544C122.473 107.504 122.625 105.764 122.719 104.677C122.812 103.591 122.963 101.87 123.053 100.852C123.349 97.5186 123.356 97.3116 123.162 97.2079C122.799 97.0138 122.728 97.2104 122.589 98.7928C122.391 101.052 122.061 104.852 121.962 106.022C121.913 106.6 121.779 108.132 121.664 109.427C121.435 112.029 121.121 115.696 121.121 115.795C121.121 115.829 113.498 115.858 104.182 115.858C94.8658 115.858 87.1836 115.881 87.1104 115.909C86.9537 115.969 86.9342 116.285 87.0783 116.429C87.1561 116.507 91.0533 116.53 104.108 116.53C116.879 116.53 121.036 116.554 121.036 116.628C121.036 116.711 120.7 120.582 120.237 125.819C120.024 128.231 119.787 130.937 119.608 133.007C119.515 134.093 119.381 135.625 119.312 136.411C119.242 137.197 119.109 138.729 119.016 139.816C118.859 141.638 118.718 143.248 118.389 147.003C118.201 149.136 117.94 152.141 117.752 154.317C117.661 155.38 117.53 156.875 117.461 157.638C117.336 159.03 117.148 161.189 116.833 164.867C116.739 165.954 116.608 167.467 116.54 168.23C116.472 168.992 116.338 170.525 116.242 171.634C116.146 172.744 115.995 174.484 115.906 175.501C115.816 176.518 115.666 178.24 115.572 179.326C115.477 180.413 115.343 181.945 115.274 182.731C115.09 184.831 114.842 187.675 114.647 189.918C114.553 191.005 114.419 192.537 114.349 193.323C114.205 194.944 113.701 200.737 113.512 202.948C112.943 209.579 112.718 212.048 112.676 212.09C112.658 212.108 112.27 212.009 111.815 211.869C111.102 211.651 109.916 211.347 109.284 211.221C109.175 211.199 109.095 211.121 109.095 211.038C109.095 210.875 109.527 205.629 109.724 203.41C109.872 201.739 110.31 196.509 110.485 194.331C110.552 193.499 110.63 192.619 110.659 192.376C110.717 191.897 110.621 191.683 110.349 191.683C110.105 191.683 110.048 191.895 109.944 193.197C109.847 194.41 109.756 195.489 109.433 199.249C109.278 201.05 108.986 204.542 108.598 209.232C108.517 210.214 108.434 211.032 108.415 211.049C108.396 211.066 107.812 211.012 107.118 210.929C106.425 210.845 105.024 210.713 104.007 210.636C102.989 210.558 102.146 210.485 102.133 210.474C102.107 210.451 102.423 205.794 102.499 205.082L102.544 204.652L103.234 204.604C104.149 204.539 104.499 204.426 104.901 204.063C105.313 203.691 105.474 203.392 105.616 202.738C105.834 201.727 105.707 199.17 105.389 198.187C105.318 197.969 105.34 197.842 105.517 197.441C105.874 196.635 105.833 196.472 105.091 195.733C104.739 195.382 104.364 194.98 104.257 194.839C104.028 194.537 102.943 192.757 102.975 192.736C102.988 192.728 103.138 192.637 103.31 192.534C103.711 192.293 104.079 191.825 104.355 191.207C104.949 189.875 104.547 187.735 103.479 186.548C102.765 185.754 101.89 185.533 100.735 185.857C100.209 186.005 100.063 186.125 98.985 187.29C98.5123 187.802 98.2819 187.864 96.6064 187.934C96.0051 187.959 95.2928 188.021 95.0234 188.071C93.714 188.318 92.0021 189.349 90.7778 190.629C90.1489 191.287 89.9367 191.58 89.6307 192.211C89.1721 193.158 89.0845 193.525 89.0818 194.507C89.0774 196.189 89.856 197.957 91.5218 200.048C92.7203 201.552 94.6188 203.305 95.3524 203.586L95.6963 203.717L95.6328 204.11C95.5654 204.528 95.1845 206.015 94.8495 207.169C94.39 208.751 93.9329 210.229 93.8605 210.367C93.8021 210.478 93.6761 210.514 93.3447 210.515C92.5047 210.517 89.9318 210.76 88.8997 210.935C86.9519 211.264 85.4548 211.679 83.7135 212.372C81.4351 213.279 79.3515 214.472 77.547 215.905L76.8205 216.482H75.9702H75.1199V216.191C75.1199 216.03 75.2535 214.319 75.4169 212.387C75.5802 210.455 75.7686 208.194 75.8355 207.361C75.9024 206.529 75.9961 205.432 76.0436 204.924C76.1333 203.963 76.5501 198.983 76.761 196.349C76.8277 195.517 76.9212 194.42 76.9688 193.911C77.0164 193.403 77.1505 191.795 77.2668 190.338C77.383 188.882 77.4979 187.568 77.5221 187.418L77.5661 187.145L84.9827 187.123C92.0452 187.103 92.4007 187.095 92.4284 186.951C92.5073 186.541 92.7859 186.556 84.6524 186.556H77.0499L76.9788 186.745C76.9397 186.849 76.8645 187.501 76.8114 188.195C76.7584 188.888 76.6594 190.08 76.5914 190.843C76.5233 191.606 76.3898 193.176 76.2947 194.331C76.1123 196.548 75.8814 199.295 75.6657 201.813C75.5142 203.581 74.8924 211.022 74.8192 211.943C74.7916 212.29 74.7555 212.668 74.7389 212.783C74.6633 213.311 74.4892 215.831 74.4892 216.398V217.029L75.3194 217.053L76.1495 217.077L75.2752 217.978C73.323 219.988 71.942 222.034 70.8923 224.468C70.2057 226.061 68.2831 231.455 67.2968 234.556C66.5685 236.846 66.4708 237.134 66.464 237.015C66.458 236.911 66.7671 233.285 67.0035 230.689C67.0729 229.926 67.2257 228.186 67.343 226.822C67.6321 223.462 67.9526 219.787 68.2231 216.734C68.3152 215.694 68.4665 213.954 68.5591 212.868C68.6519 211.781 68.7845 210.249 68.8539 209.463C69.0001 207.807 69.2518 204.911 69.4892 202.149C69.5807 201.086 69.7116 199.611 69.78 198.871C69.8484 198.131 69.9434 197.034 69.9911 196.433C70.0388 195.832 70.1142 194.962 70.1587 194.5C70.2032 194.037 70.3168 192.751 70.4112 191.641C70.5822 189.632 70.8001 187.13 71.0411 184.412C71.1108 183.626 71.3187 181.224 71.5032 179.074C71.6877 176.924 71.8955 174.522 71.9649 173.736C72.0345 172.95 72.1483 171.664 72.2179 170.878C72.3616 169.255 72.5436 167.168 72.7237 165.077C72.7914 164.291 72.9049 162.986 72.9759 162.177C73.0468 161.368 73.236 159.193 73.3964 157.343C73.5568 155.494 73.7455 153.338 73.8157 152.552C73.8859 151.766 74.0946 149.364 74.2793 147.214C74.464 145.064 74.6712 142.68 74.7397 141.918C74.9309 139.786 75.1862 136.869 75.3726 134.688C75.5493 132.619 75.6809 131.112 75.9599 127.963C76.052 126.923 76.2033 125.183 76.296 124.096C76.4738 122.012 76.609 120.47 76.8854 117.371C76.9782 116.331 77.0541 115.332 77.0541 115.153V114.826L77.4535 114.877C77.6732 114.905 78.2693 114.984 78.7781 115.053C82.1614 115.51 85.8363 115.437 89.3741 114.843C92.1789 114.371 95.4805 113.327 98.1509 112.068L99.0279 111.655H108.345C113.995 111.655 117.681 111.624 117.711 111.576C117.737 111.533 117.871 109.822 118.007 107.773C118.143 105.723 118.294 103.517 118.342 102.87C118.576 99.703 118.621 98.5439 118.514 98.4151C118.424 98.3074 118.027 98.2884 115.854 98.2884C114.449 98.2884 113.299 98.2744 113.299 98.2572C113.299 98.24 113.5 97.8712 113.744 97.4376C115.671 94.0214 117.138 89.7131 117.675 85.889C117.727 85.5191 117.789 85.1314 117.814 85.0274L117.859 84.8382H200.889C274.697 84.8382 283.987 84.8523 284.534 84.9655ZM288.37 84.9608C291.283 85.5734 293.366 87.8128 293.781 90.7798C293.884 91.5167 293.846 92.3107 293.556 95.4303C293.434 96.7491 293.238 98.9784 292.928 102.576C292.735 104.815 292.478 107.759 292.297 109.805C292.23 110.568 292.1 112.062 292.008 113.126C291.694 116.756 291.498 119.009 291.371 120.439C291.134 123.105 290.501 130.4 290.323 132.502C290.274 133.08 290.179 134.159 290.112 134.898C290.045 135.638 289.912 137.151 289.817 138.261C289.721 139.37 289.587 140.903 289.519 141.665C289.451 142.428 289.244 144.812 289.06 146.961C288.875 149.111 288.667 151.514 288.598 152.3C288.528 153.086 288.462 153.861 288.45 154.023C288.429 154.314 288.426 154.311 288.079 153.682C287.595 152.807 286.789 151.735 286.105 151.06L285.531 150.494L285.654 149.001C285.722 148.18 285.816 147.092 285.864 146.583C285.946 145.7 286.071 144.274 286.45 139.9C286.544 138.814 286.679 137.281 286.749 136.495C286.819 135.709 287.027 133.307 287.21 131.157C287.394 129.007 287.602 126.624 287.672 125.861C287.743 125.099 287.951 122.715 288.135 120.565C288.32 118.415 288.527 116.032 288.595 115.269C288.664 114.506 288.872 112.123 289.058 109.973C289.244 107.823 289.453 105.421 289.522 104.635C289.664 103.013 289.802 101.428 290.11 97.8681C290.228 96.5042 290.381 94.7971 290.449 94.0746C290.714 91.2796 290.583 89.9296 289.908 88.4894C289.21 87.0016 288.319 86.0318 286.823 85.131L286.337 84.8382H287.062C287.461 84.8382 288.05 84.8934 288.37 84.9608ZM59.5723 93.0521C58.782 93.4413 58.7708 94.727 59.5542 95.1319C60.3838 95.5608 61.4202 94.8589 61.2858 93.9592C61.1581 93.1041 60.3431 92.6726 59.5723 93.0521ZM106.07 93.0556C105.297 93.4454 105.243 94.5779 105.974 95.0699C106.497 95.4217 107.275 95.2583 107.626 94.723C107.798 94.4604 107.814 93.8642 107.657 93.5386C107.387 92.9778 106.662 92.757 106.07 93.0556ZM110.376 93.0134C110.329 93.0713 110.119 93.4632 109.908 93.8845C109.441 94.8182 108.682 96.1429 108.236 96.7997C107.841 97.383 107.832 97.658 108.21 97.658C108.437 97.658 108.514 97.5727 109.042 96.7333C109.363 96.2247 109.923 95.2314 110.287 94.5259C110.838 93.4595 110.935 93.215 110.86 93.0758C110.759 92.8874 110.504 92.8546 110.376 93.0134ZM60.5301 93.7499C60.7249 93.9651 60.657 94.3304 60.3845 94.5329C60.192 94.6759 60.1216 94.6874 59.9417 94.6054C59.6435 94.4697 59.5071 94.1468 59.632 93.8726C59.8012 93.5014 60.2497 93.4402 60.5301 93.7499ZM107.046 93.7974C107.22 94.0624 107.163 94.3294 106.89 94.5327C106.697 94.6759 106.627 94.6874 106.447 94.6054C106.149 94.4697 106.012 94.1468 106.137 93.8726C106.317 93.4783 106.81 93.4375 107.046 93.7974ZM210.745 98.1542C210.66 98.2393 210.598 98.7254 210.525 99.8985C210.469 100.793 210.387 102.017 210.342 102.618C210.298 103.219 210.204 104.6 210.135 105.686C210.065 106.773 209.951 108.471 209.882 109.459C209.788 110.801 209.78 111.286 209.851 111.372C209.931 111.468 212.198 111.486 223.791 111.485C231.78 111.484 237.685 111.452 237.754 111.409C237.839 111.355 237.892 111.039 237.942 110.296C238.091 108.054 238.36 104.069 238.44 102.912C238.486 102.242 238.56 101.069 238.605 100.306C238.649 99.5431 238.702 98.7939 238.723 98.6412C238.751 98.4417 238.715 98.3174 238.598 98.1998C238.437 98.0391 238.194 98.0363 224.648 98.0363C212.93 98.0363 210.845 98.0539 210.745 98.1542ZM128.702 98.363C128.615 98.4175 128.53 99.3013 128.35 101.998C128.219 103.957 128.049 106.449 127.972 107.535C127.896 108.622 127.827 109.984 127.819 110.562L127.806 111.613L141.781 111.634C155.037 111.654 155.759 111.648 155.801 111.508C155.825 111.427 155.904 110.415 155.975 109.259C156.047 108.103 156.144 106.646 156.191 106.022C156.528 101.548 156.691 98.5142 156.601 98.405C156.519 98.3065 154.358 98.2886 142.66 98.2897C135.045 98.2905 128.764 98.3234 128.702 98.363ZM168.06 98.3618C167.98 98.4126 167.915 98.9173 167.832 100.147C167.641 102.935 167.468 105.479 167.284 108.209C167.188 109.619 167.122 110.962 167.136 111.193L167.163 111.613L181.142 111.634L195.121 111.655L195.164 111.466C195.187 111.362 195.302 109.801 195.418 107.998C195.535 106.195 195.668 104.209 195.714 103.584C195.978 100.008 196.048 98.514 195.956 98.4028C195.877 98.3072 193.59 98.2887 182.017 98.2897C174.402 98.2905 168.122 98.3229 168.06 98.3618ZM251.986 98.3995C251.898 98.5061 251.798 99.5497 251.643 101.987C251.603 102.611 251.446 104.977 251.294 107.244C251.141 109.511 251.042 111.431 251.072 111.51C251.124 111.646 251.975 111.655 265.093 111.655C276.19 111.655 279.065 111.633 279.093 111.55C279.113 111.492 279.207 110.272 279.302 108.838C279.737 102.316 279.813 101.189 279.905 99.9095C279.983 98.8158 279.982 98.5209 279.896 98.4174C279.8 98.3025 278.283 98.2884 265.934 98.2884C254.554 98.2884 252.062 98.3083 251.986 98.3995ZM238.046 99.1921C238.009 99.6868 237.815 102.632 237.505 107.409C237.409 108.889 237.312 110.26 237.289 110.457L237.246 110.814H223.838C216.464 110.814 210.43 110.795 210.43 110.772C210.43 110.736 210.697 106.786 211.014 102.113C211.058 101.466 211.118 100.501 211.147 99.9697C211.175 99.438 211.218 98.9368 211.241 98.8559C211.28 98.7166 211.993 98.7088 224.682 98.7088H238.082L238.046 99.1921ZM117.925 99.3645C117.925 99.5864 117.887 100.258 117.841 100.857C117.795 101.455 117.7 102.815 117.631 103.879C117.275 109.334 117.159 111.019 117.136 111.042C117.122 111.056 113.311 111.057 108.667 111.046L100.223 111.024L100.937 110.596C105.607 107.799 109.319 104.287 112.278 99.8646L112.883 98.961H115.404H117.925V99.3645ZM156.019 99.1501C156.019 99.3122 155.878 101.376 155.731 103.374C155.707 103.698 155.609 105.173 155.513 106.653C155.417 108.132 155.312 109.721 155.28 110.183L155.221 111.024L141.854 111.045C134.503 111.057 128.463 111.038 128.433 111.003C128.402 110.969 128.445 109.975 128.528 108.796C128.677 106.659 128.734 105.801 128.98 101.903C129.052 100.77 129.132 99.6451 129.158 99.4023L129.206 98.961H142.613H156.02L156.019 99.1501ZM195.377 99.0676C195.377 99.1662 195.151 102.543 194.83 107.241C194.757 108.305 194.671 109.591 194.638 110.099L194.578 111.024L181.143 111.045L167.708 111.067L167.751 110.625C167.807 110.056 168.202 104.257 168.381 101.357C168.427 100.617 168.489 99.7754 168.517 99.4864L168.57 98.961H181.973C192.748 98.961 195.377 98.9819 195.377 99.0676ZM279.272 99.6965C279.242 100.101 279.181 101.018 279.136 101.735C279.062 102.905 278.938 104.797 278.622 109.532L278.52 111.066H265.135C257.773 111.066 251.733 111.05 251.712 111.029C251.692 111.009 251.721 110.337 251.777 109.537C251.88 108.069 252.05 105.515 252.271 102.113C252.337 101.096 252.416 99.9708 252.446 99.6125L252.5 98.961H265.913H279.326L279.272 99.6965ZM60.4241 99.8572C60.3663 99.8806 60.319 100.011 60.319 100.146C60.319 100.354 60.5622 100.636 61.8538 101.931C63.4366 103.517 64.7572 104.634 66.288 105.68C67.2522 106.339 67.5714 106.42 67.6183 106.019C67.64 105.833 67.5413 105.737 66.8614 105.285C65.2999 104.248 64.0557 103.205 62.35 101.506C61.4088 100.569 60.6141 99.8046 60.584 99.8082C60.5539 99.8118 60.482 99.834 60.4241 99.8572ZM69.3557 102.9C68.791 103.245 68.6176 103.843 68.9141 104.425C69.1558 104.899 69.5483 105.122 70.0519 105.071C70.5359 105.022 70.8153 104.818 71.0128 104.372C71.4694 103.34 70.3153 102.316 69.3557 102.9ZM96.169 103.329C95.8282 103.537 95.6393 103.899 95.6393 104.345C95.6393 104.795 95.8361 105.12 96.2496 105.352C96.8743 105.703 97.606 105.416 97.8738 104.715C98.062 104.223 97.9464 103.792 97.5275 103.424C97.2858 103.212 97.1583 103.164 96.8347 103.164C96.5899 103.165 96.3352 103.228 96.169 103.329ZM70.273 103.507C70.6925 103.836 70.4789 104.425 69.9397 104.425C69.6332 104.425 69.4014 104.184 69.4014 103.866C69.4014 103.679 69.7565 103.332 69.948 103.332C70.0049 103.332 70.1512 103.411 70.273 103.507ZM97.153 103.921C97.4952 104.263 97.275 104.845 96.8036 104.845C96.5243 104.845 96.228 104.584 96.228 104.337C96.228 104.243 96.3209 104.072 96.4344 103.959C96.6846 103.709 96.9281 103.696 97.153 103.921ZM82.9829 105.594C81.7074 105.917 81.0877 107.182 81.6319 108.35C82.0914 109.337 83.2816 109.729 84.276 109.222C85.717 108.487 85.5918 106.285 84.0761 105.705C83.71 105.565 83.272 105.521 82.9829 105.594ZM83.992 106.381C84.2257 106.511 84.3905 106.694 84.532 106.979C84.7191 107.357 84.7273 107.421 84.6319 107.778C84.4578 108.429 83.9903 108.796 83.3359 108.796C82.3611 108.796 81.7446 107.667 82.2622 106.83C82.635 106.227 83.3732 106.036 83.992 106.381ZM160.024 117.098C159.996 117.41 159.916 118.308 159.846 119.094C159.699 120.733 159.176 126.756 159.05 128.257C159.003 128.812 158.926 129.682 158.879 130.191C158.832 130.699 158.642 132.874 158.459 135.024C158.275 137.174 158.067 139.558 157.996 140.32C157.926 141.083 157.718 143.466 157.533 145.616C157.349 147.766 157.14 150.168 157.07 150.954C157 151.74 156.792 154.124 156.608 156.251C156.425 158.377 156.217 160.761 156.148 161.547C156.078 162.333 155.945 163.846 155.853 164.909C155.65 167.241 155.392 170.197 155.221 172.139C155.035 174.264 154.781 177.184 154.59 179.41C154.497 180.497 154.345 182.237 154.253 183.277C153.981 186.352 153.845 187.91 153.665 190.002C153.412 192.961 153.175 195.679 153.036 197.232C152.967 197.995 152.834 199.527 152.74 200.636C152.645 201.746 152.532 203.032 152.488 203.494C152.443 203.957 152.331 205.243 152.237 206.353C152.144 207.462 152.029 208.805 151.982 209.337C151.935 209.869 151.765 211.817 151.605 213.666C151.444 215.516 151.256 217.672 151.185 218.458C151.115 219.244 150.906 221.646 150.722 223.796C150.537 225.946 150.329 228.329 150.259 229.092C150.189 229.855 149.981 232.238 149.796 234.388C149.612 236.538 149.404 238.94 149.334 239.726C149.117 242.157 148.802 245.781 148.65 247.586C148.571 248.534 148.499 249.319 148.491 249.332C148.483 249.344 148.14 249.272 147.728 249.172C146.605 248.898 144.828 248.915 143.406 249.215C142.24 249.46 140.693 249.919 139.411 250.401C137.418 251.15 134.007 252.784 131.41 254.234C130.754 254.6 130.198 254.899 130.174 254.899C130.15 254.899 130.299 254.537 130.506 254.094C131.015 253.006 131.746 250.785 131.984 249.603C132.15 248.779 132.178 248.384 132.177 246.913C132.175 244.916 132.179 244.934 131.171 241.912C130.345 239.434 128.385 234.13 126.714 229.848C125.819 227.556 124.806 224.974 124.257 223.586C122.767 219.819 120.8 217.195 117.744 214.899C116.757 214.157 115.09 213.177 114.066 212.737L113.295 212.405L113.339 212.111C113.364 211.949 113.441 211.136 113.511 210.304C113.581 209.471 113.734 207.712 113.851 206.395C113.967 205.077 114.117 203.356 114.184 202.57C114.424 199.762 114.562 198.178 114.686 196.811C114.756 196.048 114.889 194.535 114.982 193.449C115.168 191.273 115.419 188.381 115.612 186.177C115.681 185.391 115.814 183.859 115.907 182.773C116 181.686 116.134 180.173 116.203 179.41C116.273 178.647 116.348 177.796 116.371 177.519C116.393 177.241 116.468 176.371 116.537 175.585C116.606 174.799 116.74 173.267 116.833 172.181C117.02 170.018 117.265 167.218 117.462 164.993C117.532 164.207 117.74 161.805 117.925 159.655C118.11 157.505 118.318 155.103 118.387 154.317C118.457 153.531 118.59 152.018 118.682 150.954C119.102 146.136 119.195 145.067 119.31 143.767C119.378 143.004 119.511 141.472 119.607 140.362C119.796 138.184 120.037 135.411 120.237 133.133C120.377 131.54 120.509 130.023 120.825 126.366C120.943 125.002 121.095 123.281 121.161 122.541C121.227 121.801 121.362 120.231 121.46 119.052C121.557 117.873 121.654 116.823 121.675 116.719L121.712 116.53H140.893H160.074L160.024 117.098ZM201.21 116.888C201.192 117.084 201.104 118.096 201.015 119.136C200.926 120.177 200.768 122.002 200.663 123.192L200.474 125.357L188.402 125.358L176.329 125.359L175.908 125.555C175.401 125.791 174.978 126.249 174.869 126.68C174.824 126.854 174.727 127.715 174.653 128.593C174.578 129.472 174.461 130.796 174.392 131.536C174.257 132.979 173.587 140.528 173.384 142.884C173.316 143.67 173.204 144.938 173.135 145.7C172.881 148.499 172.672 150.832 172.506 152.72C172.413 153.783 172.205 156.11 172.045 157.89C171.647 162.293 171.617 162.836 171.744 163.22C171.943 163.825 172.555 164.358 173.386 164.652C173.778 164.791 174.593 164.804 185.428 164.845L197.05 164.89L197.015 165.109C196.995 165.23 196.94 165.802 196.892 166.38C196.844 166.958 196.748 168.074 196.679 168.86C196.61 169.646 196.402 172.048 196.217 174.198C196.033 176.348 195.825 178.75 195.755 179.536C195.686 180.322 195.553 181.835 195.46 182.899C195.173 186.205 194.96 188.642 194.829 190.128C194.76 190.914 194.627 192.446 194.534 193.533C194.44 194.619 194.289 196.359 194.197 197.4C193.729 202.724 193.531 205.004 193.275 207.992C193.182 209.078 193.05 210.592 192.982 211.354C192.813 213.246 192.555 216.201 192.348 218.626C192.253 219.736 192.103 221.438 192.015 222.409C191.927 223.38 191.829 224.506 191.798 224.912C191.749 225.541 191.72 225.644 191.604 225.608C190.982 225.416 190.063 225.303 189.129 225.303C188.537 225.304 188.017 225.326 187.973 225.353C187.824 225.446 187.891 225.234 188.153 224.79C188.297 224.547 188.676 223.826 188.995 223.189C189.343 222.495 189.625 222.03 189.698 222.03C189.879 222.03 189.995 221.755 189.995 221.325C189.995 221.115 190.07 220.753 190.162 220.52C190.45 219.791 190.977 217.996 191.212 216.947C191.901 213.873 192.027 209.776 191.543 206.142C191.391 205.002 191.392 204.963 191.766 200.678C191.857 199.638 191.988 198.125 192.057 197.316C192.267 194.853 192.512 191.995 192.688 189.96C192.78 188.897 192.911 187.365 192.98 186.556C193.108 185.036 193.33 182.445 193.612 179.158C193.701 178.118 193.839 176.541 193.917 175.653C194.035 174.33 194.041 174.016 193.952 173.909C193.854 173.791 192.069 173.778 176.115 173.778C156.316 173.778 158.123 173.717 158.123 174.383C158.123 174.57 158.067 175.314 157.999 176.037C157.931 176.759 157.797 178.277 157.701 179.41C157.47 182.147 157.225 185.004 157.067 186.808C156.997 187.617 156.789 190.038 156.607 192.188C156.282 196.004 156.197 196.999 155.855 200.972C155.763 202.036 155.611 203.814 155.517 204.924C155.423 206.033 155.29 207.584 155.221 208.37C155.151 209.156 155.019 210.688 154.927 211.775C154.602 215.609 154.419 217.723 154.24 219.736C154.091 221.4 154.078 221.794 154.167 221.9C154.262 222.015 154.891 222.031 159.541 222.034L164.808 222.038L165.145 222.558C165.902 223.729 167.239 225.257 168.413 226.294L168.991 226.805L168.277 227.139C167.259 227.616 166.593 228.089 165.775 228.918C164.939 229.765 164.357 230.69 163.986 231.758C163.751 232.433 163.729 232.594 163.722 233.631C163.714 234.885 163.852 235.508 164.363 236.529C164.891 237.581 165.969 238.812 166.959 239.491C167.719 240.012 169.055 240.591 169.833 240.736C170.006 240.769 170.148 240.82 170.147 240.849C170.146 240.879 169.91 240.993 169.621 241.103C168.508 241.527 167.158 242.456 166.432 243.297C164.044 246.064 164.76 249.219 168.424 252.083C170.482 253.69 172.42 254.606 174.78 255.083C175.651 255.26 175.965 255.278 178.139 255.278H180.537L180.51 255.572C180.494 255.734 180.429 256.299 180.363 256.827C180.239 257.835 180.27 258.01 180.576 258.01C180.841 258.01 180.904 257.809 181.048 256.492C181.126 255.778 181.197 255.184 181.206 255.172C181.262 255.098 183.211 254.811 183.262 254.87C183.296 254.909 183.428 255.234 183.556 255.591L183.787 256.24L183.639 256.868C183.48 257.544 183.533 257.758 183.861 257.758C184.063 257.758 184.077 257.729 184.306 256.847C184.519 256.028 184.664 255.804 185.374 255.198C186.42 254.305 187.609 253.964 188.613 254.269C189.312 254.481 189.269 254.048 188.941 257.574C188.836 258.705 188.828 259.056 188.906 259.15C189.056 259.331 189.315 259.296 189.407 259.082C189.451 258.978 189.561 258.01 189.651 256.93C189.741 255.851 189.829 254.953 189.848 254.935C189.866 254.916 190.226 255.162 190.647 255.481C191.926 256.451 192.733 256.874 193.9 257.188C194.875 257.45 196.848 257.447 197.971 257.183C200.428 256.603 202.175 255.372 202.852 253.743C203.004 253.379 203.064 253.047 203.095 252.393L203.136 251.525L203.44 251.813C204.31 252.638 205.643 253.408 206.688 253.689C207.474 253.9 208.902 253.936 209.799 253.767C210.552 253.626 211.605 253.24 212.241 252.873C213.646 252.062 214.922 250.711 215.709 249.202C216.376 247.922 216.485 247.516 216.485 246.307C216.484 243.683 215.686 241.534 214.094 239.863C212.805 238.512 211.216 237.787 209.327 237.69C208.557 237.65 207.292 237.753 206.951 237.884C206.894 237.906 206.751 237.687 206.61 237.364C206.091 236.174 205.017 234.884 203.927 234.143C203.304 233.719 202.358 233.312 201.541 233.118C200.506 232.871 198.986 232.923 198.068 233.235C197.721 233.353 197.416 233.425 197.389 233.394C197.363 233.362 197.278 232.997 197.201 232.581C196.9 230.954 196.171 229.259 195.307 228.177C194.729 227.453 193.824 226.699 192.953 226.217L192.337 225.875L192.383 225.487C192.409 225.274 192.45 224.853 192.475 224.552C192.54 223.758 192.833 220.369 192.98 218.71C193.05 217.924 193.258 215.522 193.442 213.372C193.627 211.222 193.835 208.839 193.905 208.076C193.974 207.313 194.183 204.93 194.367 202.78C194.552 200.63 194.741 198.455 194.788 197.946C194.836 197.438 194.912 196.568 194.959 196.013C195.078 194.594 195.602 188.562 195.755 186.85C195.825 186.064 196.034 183.662 196.218 181.512C196.403 179.362 196.611 176.979 196.681 176.216C196.751 175.453 196.959 173.07 197.144 170.92C197.329 168.77 197.525 166.528 197.58 165.939L197.68 164.867L203.193 164.867C206.225 164.867 210.494 164.892 212.68 164.923L216.653 164.979V165.223C216.653 165.892 217.512 167.773 218.479 169.221C222.106 174.653 229.115 179.171 237.495 181.477L238.363 181.716L238.315 182.265C238.289 182.567 238.21 183.458 238.14 184.244C238.011 185.705 237.807 188.04 237.508 191.473C237.416 192.537 237.283 194.05 237.213 194.836C237.144 195.622 236.936 198.005 236.753 200.132C236.569 202.259 236.362 204.642 236.291 205.428C236.221 206.214 236.012 208.616 235.828 210.766C235.643 212.916 235.435 215.299 235.365 216.062C235.296 216.825 235.087 219.208 234.902 221.358C234.717 223.508 234.51 225.891 234.442 226.654C234.374 227.417 234.24 228.949 234.144 230.059C233.906 232.815 233.665 235.577 233.514 237.288C233.444 238.074 233.236 240.476 233.052 242.626C232.868 244.776 232.66 247.159 232.591 247.922C232.469 249.258 232.317 250.985 231.961 255.11C231.869 256.173 231.749 257.561 231.694 258.194C231.613 259.126 231.615 259.371 231.703 259.476C231.838 259.64 231.992 259.643 232.123 259.485C232.179 259.418 232.278 258.768 232.344 258.035C232.563 255.6 232.713 253.88 233.052 249.94C233.237 247.79 233.445 245.388 233.515 244.602C233.584 243.816 233.717 242.303 233.81 241.239C234.036 238.642 234.288 235.749 234.44 234.01C234.509 233.224 234.641 231.71 234.733 230.647C234.936 228.315 235.194 225.36 235.364 223.418C235.56 221.196 235.81 218.311 235.995 216.146C236.176 214.033 236.316 212.435 236.583 209.421C236.675 208.381 236.827 206.641 236.92 205.554C237.014 204.467 237.165 202.727 237.258 201.687C237.522 198.701 237.664 197.085 237.846 194.962C238.164 191.246 238.357 189.035 238.474 187.732C238.539 187.016 238.679 185.418 238.785 184.181C239.006 181.605 238.883 181.829 239.934 182.095C242.27 182.685 246.195 183.286 249.571 183.572C250.4 183.642 251.084 183.708 251.091 183.719C251.097 183.73 251.072 184.231 251.034 184.832C250.854 187.697 250.093 191.645 248.508 197.933C247.864 200.489 247.766 200.964 247.864 201.062C248.035 201.233 250.151 202.145 251.591 202.669C252.282 202.92 252.906 203.161 252.978 203.203C253.058 203.249 250.587 203.28 246.694 203.282C241.639 203.284 240.271 203.307 240.242 203.389C240.222 203.447 240.148 204.194 240.077 205.05C240.006 205.905 239.93 206.813 239.908 207.067C239.885 207.321 239.79 208.494 239.697 209.673C239.604 210.852 239.47 212.517 239.4 213.372C239.329 214.227 239.253 215.173 239.231 215.474C239.209 215.774 239.134 216.682 239.065 217.491C238.997 218.3 238.864 219.927 238.771 221.106C238.678 222.285 238.545 223.93 238.476 224.763C238.407 225.595 238.274 227.221 238.181 228.377C238.088 229.533 237.954 231.178 237.883 232.032C237.76 233.498 237.761 233.591 237.899 233.692C238.011 233.774 238.734 233.799 240.973 233.799C243.705 233.799 243.9 233.809 243.9 233.947C243.9 234.028 243.862 234.321 243.815 234.598C243.63 235.711 243.396 238.397 243.397 239.409C243.398 240.929 243.622 242.745 244.204 245.947C244.593 248.086 244.749 248.854 245.719 253.428C246.218 255.777 247.583 261.538 248.951 267.068C249.457 269.114 249.871 270.826 249.871 270.872C249.871 270.927 240.762 270.956 222.918 270.956H195.966V270.766C195.966 270.662 196.004 270.444 196.05 270.283C196.278 269.488 196.488 266.926 196.491 264.903C196.494 262.862 196.298 260.172 196.122 259.838C196.048 259.699 195.37 259.691 183.683 259.691H171.321L171.239 259.907C171.134 260.185 171.136 262.736 171.244 264.357C171.39 266.561 171.739 269.256 172 270.199C172.045 270.361 172.082 270.597 172.082 270.725L172.082 270.956H158.417C150.901 270.956 144.751 270.931 144.751 270.901C144.751 270.871 145.083 270.502 145.488 270.081C148.579 266.872 151.192 262.693 152.308 259.175C152.78 257.689 152.864 257.156 152.864 255.656C152.864 254.18 152.784 253.729 152.344 252.726C151.818 251.527 150.739 250.42 149.474 249.777L149.108 249.592L149.158 249.03C149.4 246.302 149.476 245.437 149.629 243.677C149.872 240.875 150.111 238.136 150.261 236.447C150.33 235.661 150.538 233.259 150.723 231.109C150.907 228.959 151.115 226.557 151.185 225.771C151.426 223.053 151.644 220.551 151.815 218.542C151.909 217.432 152.023 216.146 152.067 215.684C152.112 215.221 152.187 214.351 152.235 213.75C152.283 213.149 152.377 212.052 152.446 211.312C152.514 210.573 152.646 209.078 152.739 207.992C152.833 206.905 152.965 205.373 153.034 204.587C153.198 202.732 153.453 199.796 153.666 197.316C153.902 194.583 154.151 191.732 154.298 190.086C154.366 189.323 154.498 187.81 154.591 186.724C154.684 185.637 154.835 183.897 154.928 182.857C155.273 178.96 155.356 178.012 155.683 174.198C155.868 172.048 156.076 169.646 156.145 168.86C156.267 167.489 156.4 165.965 156.773 161.673C156.868 160.586 157.002 159.054 157.072 158.268C157.141 157.482 157.275 155.95 157.368 154.863C157.536 152.909 157.752 150.447 157.997 147.676C158.067 146.89 158.275 144.488 158.46 142.338C158.644 140.188 158.852 137.786 158.922 137C158.991 136.214 159.124 134.701 159.217 133.637C159.626 128.933 159.729 127.751 159.848 126.408C159.917 125.622 159.995 124.714 160.02 124.39C160.046 124.067 160.118 123.253 160.182 122.583C160.245 121.913 160.378 120.362 160.478 119.136C160.577 117.911 160.675 116.823 160.696 116.719L160.733 116.53H180.988H201.243L201.21 116.888ZM244.039 116.677C244.016 116.758 243.976 117.108 243.949 117.455C243.873 118.438 243.244 125.744 243.102 127.29C243.032 128.053 242.824 130.437 242.639 132.587C242.454 134.736 242.247 137.12 242.179 137.883C242.11 138.645 241.977 140.177 241.882 141.287C241.721 143.178 241.55 145.128 241.251 148.517C241.181 149.303 240.973 151.705 240.789 153.855C240.495 157.275 240.339 159.038 240.151 161.069L240.101 161.601L239.751 161.545C238.711 161.379 236.748 160.813 235.344 160.273C234.675 160.016 234.566 159.947 234.566 159.781C234.566 159.611 234.995 154.75 235.364 150.744C235.435 149.981 235.643 147.636 235.827 145.532C236.011 143.429 236.218 141.083 236.288 140.32C236.358 139.558 236.493 138.063 236.586 137C236.68 135.936 236.812 134.461 236.878 133.721C236.945 132.982 237.076 131.506 237.17 130.443C237.263 129.379 237.363 128.253 237.391 127.94C237.437 127.434 237.417 127.319 237.219 126.914C236.969 126.402 236.677 126.124 236.046 125.798C235.633 125.584 235.546 125.573 233.767 125.515C232.749 125.482 225.89 125.452 218.524 125.448C206.904 125.442 205.132 125.425 205.132 125.32C205.132 125.074 205.304 123.037 205.348 122.772L205.392 122.499H221.686H237.98L237.875 123.693C237.764 124.938 237.79 125.105 238.098 125.105C238.179 125.105 238.284 125.058 238.331 125C238.43 124.877 238.632 122.697 238.589 122.205L238.56 121.868L221.718 121.847L204.876 121.826L204.804 122.015C204.764 122.119 204.68 122.904 204.617 123.76L204.501 125.315L202.797 125.338L201.093 125.361L201.136 125.044C201.16 124.869 201.256 123.8 201.35 122.667C201.444 121.534 201.575 120.021 201.643 119.304C201.71 118.588 201.79 117.67 201.82 117.266L201.876 116.53H222.978C243.035 116.53 244.078 116.538 244.039 116.677ZM83.3265 121.853C83.1943 121.949 83.141 122.388 82.8959 125.404C82.742 127.297 82.556 129.583 82.4824 130.485C82.4088 131.387 82.1987 133.978 82.0156 136.243C81.8325 138.509 81.6242 141.062 81.5527 141.918C81.4812 142.773 81.3504 144.381 81.2618 145.49C81.1733 146.6 81.0177 148.517 80.916 149.75C80.8144 150.983 80.7541 152.052 80.7822 152.125C80.8281 152.244 81.6149 152.257 88.7434 152.257C95.9893 152.257 96.6581 152.246 96.7065 152.12C96.7356 152.044 96.7208 151.921 96.6737 151.847C96.5961 151.724 95.8779 151.709 89.0076 151.69L81.4271 151.668L81.4267 151.437C81.4264 151.31 81.4832 150.545 81.5527 149.736C81.6223 148.926 81.831 146.373 82.0167 144.061C82.2023 141.749 82.4103 139.196 82.4789 138.387C82.5476 137.578 82.6243 136.632 82.6494 136.285C82.6746 135.939 82.7488 135.031 82.8144 134.268C82.8799 133.505 83.0114 131.878 83.1066 130.653C83.2017 129.428 83.3167 128.009 83.3623 127.501C83.4078 126.992 83.502 125.819 83.5715 124.895C83.6411 123.97 83.7204 123.034 83.7477 122.814L83.7976 122.415H86.8562C89.9142 122.415 89.9149 122.415 90.0131 122.231C90.0968 122.075 90.0833 122.025 89.9226 121.895C89.7479 121.754 89.5036 121.742 86.6057 121.742C84.1563 121.742 83.4448 121.766 83.3265 121.853ZM99.9912 121.832C99.8213 121.932 99.7987 122.168 99.945 122.314C100.022 122.391 101.875 122.415 107.773 122.415H115.499L115.451 122.94C115.377 123.753 115.169 126.273 114.98 128.636C114.886 129.815 114.733 131.706 114.641 132.839C114.549 133.971 114.416 135.598 114.347 136.453C113.601 145.603 113.642 144.824 113.898 144.905C114.249 145.016 114.312 144.812 114.44 143.17C114.506 142.319 114.616 140.961 114.685 140.152C114.754 139.343 114.888 137.698 114.983 136.495C115.077 135.293 115.211 133.648 115.279 132.839C115.348 132.03 115.423 131.103 115.446 130.779C115.469 130.455 115.544 129.529 115.612 128.72C115.681 127.91 115.812 126.284 115.905 125.105C115.997 123.926 116.092 122.753 116.116 122.499C116.139 122.245 116.122 121.98 116.077 121.91C116.007 121.8 115.01 121.782 108.068 121.765C102.756 121.752 100.09 121.774 99.9912 121.832ZM163.271 121.931C163.224 121.989 163.16 122.377 163.13 122.793C163.099 123.209 163.039 123.909 162.996 124.348C162.953 124.787 162.862 125.847 162.793 126.702C162.725 127.557 162.515 130.073 162.327 132.292C162.139 134.512 161.931 137.008 161.864 137.841C161.797 138.673 161.703 139.77 161.656 140.278C161.608 140.787 161.476 142.338 161.361 143.725C160.84 150.028 160.73 151.317 160.681 151.693C160.591 152.386 160.289 152.342 165.103 152.342C169.684 152.342 169.652 152.344 169.519 151.925C169.465 151.755 169.422 151.753 165.438 151.753C163.224 151.753 161.395 151.725 161.374 151.69C161.353 151.655 161.406 150.795 161.493 149.778C161.579 148.76 161.709 147.209 161.781 146.331C161.853 145.452 161.967 144.11 162.035 143.347C162.103 142.584 162.31 140.125 162.495 137.883C162.68 135.64 162.887 133.181 162.954 132.418C163.022 131.656 163.238 129.112 163.434 126.765L163.791 122.5L174.172 122.478C183.953 122.458 184.558 122.448 184.645 122.31C184.713 122.202 184.713 122.123 184.645 122.015C184.558 121.877 183.943 121.867 173.955 121.847C165.541 121.83 163.34 121.847 163.271 121.931ZM247.369 122.352C247.323 122.41 247.222 123.232 247.144 124.18C246.79 128.492 246.668 129.998 246.508 131.998C246.413 133.177 246.28 134.804 246.211 135.613C246.142 136.422 246.067 137.349 246.043 137.672C246.02 137.996 245.946 138.923 245.878 139.732C245.81 140.541 245.677 142.187 245.583 143.389C245.489 144.591 245.356 146.217 245.289 147.003C245.221 147.789 245.127 148.962 245.079 149.609C245.03 150.257 244.952 151.178 244.904 151.656C244.84 152.305 244.843 152.556 244.916 152.644C245.038 152.79 245.282 152.797 245.393 152.657C245.439 152.599 245.539 151.776 245.616 150.828C245.75 149.158 245.959 146.592 246.214 143.473C246.282 142.641 246.489 140.068 246.675 137.756C246.86 135.445 247.068 132.891 247.136 132.082C247.205 131.273 247.341 129.609 247.439 128.383C247.537 127.158 247.68 125.418 247.756 124.516L247.895 122.877L263.726 122.855L279.557 122.834V123.123C279.557 123.282 279.463 124.559 279.348 125.961C279.116 128.798 278.998 130.242 278.598 135.15C278.447 137 278.339 138.559 278.359 138.615C278.412 138.764 278.707 138.836 278.834 138.73C278.957 138.628 278.987 138.322 279.475 132.25C279.659 129.962 279.865 127.427 279.933 126.618C280.247 122.855 280.269 122.407 280.141 122.326C280.069 122.28 273.378 122.249 263.736 122.248C250.809 122.247 247.436 122.268 247.369 122.352ZM221.699 126.104L235.281 126.157L235.723 126.356C236.208 126.575 236.633 126.998 236.724 127.355C236.757 127.481 236.718 128.322 236.638 129.224C236.301 133.042 235.508 141.959 235.366 143.515C235.297 144.278 235.089 146.623 234.904 148.727C234.719 150.83 234.508 153.195 234.436 153.981C234.363 154.767 234.141 157.237 233.943 159.471C233.542 163.973 233.58 163.801 232.921 164.147C232.604 164.313 232.439 164.322 229.116 164.346C225.754 164.37 225.635 164.366 225.368 164.201C225.217 164.108 224.544 163.469 223.873 162.782C222.784 161.666 222.61 161.521 222.252 161.431C222.032 161.375 221.789 161.347 221.712 161.367C221.119 161.527 221.123 161.528 221.019 161.148C220.881 160.645 220.904 160.361 221.125 159.804L221.318 159.319L224.893 159.318C226.86 159.317 228.553 159.294 228.655 159.267C228.758 159.239 228.86 159.154 228.883 159.079C228.906 159.003 229.004 158.001 229.101 156.853C229.236 155.246 229.254 154.738 229.178 154.646C229.094 154.546 228.12 154.527 222.866 154.527C217.952 154.527 216.653 154.505 216.653 154.422C216.653 154.335 216.527 154.057 216.082 153.161C216.065 153.127 219.041 153.098 222.696 153.098C228.953 153.098 229.343 153.09 229.381 152.951C229.451 152.7 229.511 152.109 229.649 150.338C229.751 149.022 229.759 148.602 229.683 148.51C229.54 148.338 178.714 148.329 178.571 148.5C178.477 148.614 178.238 151.088 178.201 152.342L178.179 153.056L195.608 153.077C205.194 153.089 213.037 153.125 213.037 153.158C213.037 153.191 212.933 153.512 212.806 153.872L212.575 154.527L195.366 154.527C181.237 154.527 178.142 154.547 178.066 154.638C177.98 154.741 177.633 158.097 177.633 158.82C177.633 159.055 177.678 159.169 177.795 159.232C177.906 159.291 183.55 159.319 195.44 159.319H212.922L213.072 159.632C213.43 160.385 214.234 161.371 215.581 162.712C216.534 163.661 216.977 164.157 216.92 164.214C216.864 164.27 209.722 164.272 195.321 164.219C177.651 164.153 173.75 164.119 173.489 164.026C173.065 163.875 172.509 163.388 172.364 163.041C172.268 162.813 172.263 162.584 172.333 161.817C172.555 159.411 172.697 157.825 173.007 154.275C173.191 152.171 173.399 149.826 173.47 149.063C173.54 148.3 173.73 146.182 173.892 144.355C174.053 142.529 174.26 140.203 174.352 139.186C174.443 138.168 174.669 135.615 174.855 133.511C175.372 127.643 175.456 126.849 175.588 126.591C175.663 126.444 175.877 126.273 176.146 126.145L176.582 125.937L192.35 125.994C201.022 126.026 214.229 126.075 221.699 126.104ZM188.622 130.422C188.419 130.571 188.05 134.767 188.223 134.975C188.323 135.096 189.913 135.108 205.384 135.108C218.924 135.108 222.453 135.087 222.52 135.003C222.567 134.946 222.667 134.161 222.741 133.259C222.816 132.357 222.899 131.389 222.924 131.106C222.962 130.698 222.943 130.564 222.834 130.454C222.707 130.328 221.328 130.317 205.731 130.317C192.291 130.317 188.736 130.339 188.622 130.422ZM222.26 131.473C222.233 131.738 222.166 132.514 222.11 133.196L222.009 134.436H205.413H188.818L188.82 134.121C188.821 133.947 188.877 133.257 188.944 132.587C189.01 131.916 189.066 131.282 189.067 131.178L189.07 130.989H205.69H222.309L222.26 131.473ZM179.591 136.222C179.547 136.28 179.466 136.857 179.41 137.504C179.163 140.377 179.152 140.604 179.244 140.715C179.365 140.861 230.317 140.88 230.407 140.734C230.438 140.684 230.533 139.823 230.618 138.82C230.818 136.461 230.824 136.338 230.75 136.218C230.657 136.067 179.707 136.071 179.591 136.222ZM230.106 137.021C230.101 137.637 229.882 140.043 229.823 140.139C229.752 140.254 179.942 140.283 179.871 140.169C179.83 140.102 180.058 137.017 180.119 136.811C180.144 136.727 185.219 136.706 205.13 136.706H230.109L230.106 137.021ZM179.081 142.359C178.977 142.486 178.615 146.625 178.691 146.822C178.74 146.951 180.593 146.961 204.295 146.961C219.389 146.961 229.866 146.93 229.893 146.886C229.919 146.844 230.024 145.82 230.126 144.611C230.288 142.694 230.296 142.401 230.189 142.334C230.115 142.287 220.004 142.256 204.617 142.255C184.358 142.254 179.149 142.275 179.081 142.359ZM229.577 142.977C229.63 143.116 229.376 146.182 229.301 146.304C229.277 146.342 218.015 146.373 204.274 146.373H179.291L179.341 145.888C179.369 145.621 179.433 144.874 179.483 144.228C179.532 143.581 179.589 143.005 179.609 142.947C179.638 142.864 184.709 142.842 204.586 142.842C227.361 142.842 229.53 142.854 229.577 142.977ZM260.295 143.897C261.115 144.09 261.847 144.487 262.302 144.985C262.944 145.687 263.494 146.853 263.666 147.878C263.777 148.539 263.985 148.727 264.607 148.727C265.381 148.727 265.64 148.927 265.811 149.661C265.839 149.782 265.819 150.041 265.766 150.236C265.62 150.779 265.085 151.254 264.063 151.747C263.583 151.978 263.122 152.243 263.038 152.335C262.823 152.573 262.577 154.33 262.514 156.082C262.407 159.062 263.067 161.944 264.311 163.925C264.556 164.314 264.756 164.648 264.756 164.666C264.756 164.746 263.108 164.688 262.23 164.578C260.082 164.307 258.117 163.803 257.101 163.262C256.625 163.008 256.094 162.582 256.094 162.454C256.094 162.416 256.434 162.083 256.85 161.713C257.266 161.344 257.666 160.916 257.74 160.763C257.899 160.432 257.92 160.149 258.067 156.419C258.143 154.463 258.152 153.527 258.093 153.455C258.045 153.396 257.794 153.287 257.534 153.212C256.901 153.029 255.761 152.492 255.527 152.265C255.288 152.035 255.286 151.774 255.514 150.601C255.752 149.372 255.711 148.991 255.269 148.311C255.075 148.012 254.917 147.729 254.918 147.68C254.918 147.632 255.052 147.501 255.215 147.39C255.759 147.02 256.38 146.253 256.793 145.443C257.015 145.007 257.261 144.573 257.339 144.48C257.556 144.221 257.96 143.959 258.284 143.866C258.725 143.739 259.688 143.754 260.295 143.897ZM229.071 149.63C229.043 149.943 228.976 150.718 228.922 151.354L228.823 152.51H222.159C215.699 152.51 215.483 152.505 215.128 152.343C214.659 152.131 214.251 152.13 213.836 152.342C213.509 152.508 213.34 152.51 196.158 152.51H178.81L178.811 152.321C178.812 152.217 178.868 151.507 178.936 150.744C179.004 149.981 179.061 149.291 179.061 149.21C179.062 149.07 180.311 149.063 204.092 149.063H229.121L229.071 149.63ZM120.619 151.354C120.577 151.458 120.462 152.545 120.363 153.771C120.105 156.989 120.054 157.607 119.773 160.906C119.509 164.009 119.512 164.11 119.866 164.11C120.108 164.11 120.166 163.901 120.27 162.639C120.323 161.992 120.517 159.666 120.701 157.469C120.884 155.273 121.056 153.193 121.082 152.846C121.108 152.499 121.146 152.13 121.168 152.026L121.208 151.837H125.573C129.429 151.837 129.954 151.822 130.071 151.705C130.143 151.632 130.203 151.526 130.203 151.47C130.203 151.172 130.084 151.165 125.349 151.165H120.696L120.619 151.354ZM145.441 151.266C145.289 151.417 145.319 151.652 145.503 151.75C145.609 151.807 147.138 151.837 149.886 151.837H154.108L154.055 152.321C154.026 152.586 153.85 154.62 153.664 156.839C153.478 159.058 153.288 161.305 153.242 161.831C153.154 162.837 153.193 163.018 153.497 163.018C153.737 163.018 153.808 162.846 153.862 162.135C153.911 161.492 154.087 159.409 154.555 153.912C154.721 151.969 154.747 151.377 154.669 151.285C154.586 151.183 153.862 151.165 150.056 151.165C146.657 151.165 145.517 151.19 145.441 151.266ZM215.017 153.016C215.543 153.341 216.011 154.265 216.319 155.588C216.576 156.69 217.093 157.573 217.768 158.065C218.081 158.293 218.178 158.321 218.554 158.291C219.15 158.243 219.683 157.906 220.196 157.254C220.652 156.674 220.83 156.602 221.186 156.851C221.362 156.974 221.379 157.036 221.337 157.418C221.309 157.673 221.099 158.28 220.822 158.908C220.259 160.182 220.195 160.541 220.398 161.29C220.48 161.594 220.532 161.857 220.513 161.875C220.369 162.01 217.664 163.606 217.58 163.606C217.323 163.606 215.332 161.671 214.509 160.622C213.4 159.208 213.006 158.144 213 156.545C212.995 155.112 213.348 153.793 213.919 153.114C214.192 152.79 214.593 152.754 215.017 153.016ZM212.376 156.218C212.35 157.106 212.405 157.682 212.59 158.457L212.635 158.646H195.458H178.28L178.336 157.869C178.366 157.441 178.434 156.666 178.487 156.145L178.582 155.2H195.494H212.406L212.376 156.218ZM228.563 155.683C228.488 156.365 228.346 158.139 228.344 158.415L228.343 158.646H225.011H221.679L221.738 158.457C222.159 157.101 222.071 156.57 221.365 156.21C220.715 155.878 220.381 156.008 219.676 156.87C219.218 157.429 218.645 157.778 218.341 157.681C217.889 157.538 217.083 156.281 216.952 155.515L216.898 155.2H222.757H228.617L228.563 155.683ZM253.092 160.213C253.24 160.289 253.445 160.417 253.548 160.497C253.696 160.612 253.993 160.655 254.982 160.702C255.668 160.735 256.357 160.788 256.513 160.82L256.796 160.878L256.109 161.507C255.316 162.231 255.245 162.455 255.653 162.948C256.02 163.392 256.174 163.502 256.977 163.898C258.186 164.493 260.081 164.964 262.399 165.245C264.186 165.461 265.211 165.381 265.474 165.006C265.65 164.754 265.635 164.696 265.266 164.201C264.944 163.771 264.351 162.701 264.171 162.229C264.089 162.013 264.096 162.001 264.273 162.051C264.866 162.219 266.289 162.844 267.077 163.282C271.519 165.751 274.55 170.292 275.938 176.557C276.655 179.792 276.905 182.214 277.033 187.144C277.182 192.887 277.679 198.09 278.532 202.844L278.687 203.707L278.272 203.83C276.56 204.338 274.153 204.791 271.996 205.011C270.047 205.209 265.397 205.147 263.45 204.898C258.613 204.277 253.746 202.993 249.913 201.325C249.543 201.164 249.064 200.956 248.847 200.861L248.454 200.69L248.743 199.612C250.346 193.618 251.415 188.276 251.652 185.066L251.753 183.702L252.347 183.74C252.673 183.761 253.855 183.798 254.973 183.823C256.755 183.862 257.022 183.851 257.138 183.734C257.212 183.661 257.272 183.555 257.272 183.498C257.272 183.229 257.068 183.193 255.552 183.191C249.145 183.183 242.577 182.297 237.173 180.712C233.015 179.492 229.002 177.646 225.788 175.474C223.781 174.119 221.364 171.943 220.072 170.331C218.467 168.328 217.108 165.664 217.311 164.92C217.415 164.54 217.693 164.331 219.663 163.154C222.159 161.662 221.904 161.66 223.354 163.178C224.519 164.398 225.35 165.101 226.645 165.962C231.306 169.06 237.874 170.169 246.255 169.273C247.7 169.118 249.001 168.93 249.116 168.859C249.249 168.777 249.211 168.397 249.064 168.341C248.99 168.312 248.488 168.351 247.95 168.427C245.272 168.805 243.389 168.917 240.368 168.876C238.049 168.844 237.229 168.802 236.278 168.664C233.599 168.277 231.627 167.741 229.591 166.845C228.702 166.454 227.034 165.512 226.619 165.167L226.366 164.957L229.468 164.954C231.445 164.952 232.68 164.918 232.874 164.86C233.343 164.72 233.832 164.348 234.032 163.981C234.176 163.716 234.24 163.348 234.348 162.184C234.422 161.378 234.496 160.705 234.513 160.688C234.53 160.671 234.805 160.756 235.123 160.877C239.396 162.501 243.182 162.9 247.009 162.128C248.079 161.912 248.174 161.878 248.745 161.497C249.148 161.228 249.981 160.954 250.727 160.844C251.07 160.793 251.56 160.631 251.988 160.426C252.373 160.241 252.719 160.087 252.756 160.083C252.793 160.079 252.944 160.138 253.092 160.213ZM286.922 171.487C286.891 171.845 286.811 172.763 286.743 173.526C286.675 174.289 286.468 176.672 286.284 178.822C285.846 183.929 285.764 184.802 285.723 184.761C285.704 184.742 285.617 184.429 285.529 184.065C285.442 183.701 285.235 182.93 285.07 182.352C284.567 180.596 284.425 179.695 284.425 178.275C284.425 176.276 284.891 174.287 285.715 172.773C286.061 172.137 286.888 170.836 286.946 170.836C286.963 170.836 286.952 171.129 286.922 171.487ZM118.898 172.397C118.825 172.469 118.765 172.63 118.764 172.754C118.763 172.878 118.67 174.057 118.557 175.375C118.173 179.861 118.063 181.397 118.117 181.538C118.168 181.67 119.043 181.68 130.772 181.68C140.46 181.68 143.395 181.657 143.473 181.579C143.625 181.427 143.595 181.192 143.411 181.094C143.301 181.035 139.281 181.007 130.995 181.007H118.741L118.797 180.188C118.856 179.307 119.099 176.438 119.321 173.994C119.452 172.55 119.451 172.482 119.306 172.376C119.111 172.233 119.059 172.236 118.898 172.397ZM193.359 174.629C193.359 174.727 193.302 175.437 193.233 176.205C193.164 176.974 193.051 178.265 192.982 179.074C192.912 179.883 192.78 181.415 192.689 182.478C192.597 183.542 192.445 185.32 192.35 186.429C192.256 187.539 192.103 189.317 192.011 190.38C191.919 191.444 191.787 192.976 191.718 193.785C191.649 194.594 191.441 197.009 191.256 199.152C191.071 201.295 190.918 203.073 190.916 203.103C190.914 203.134 190.768 202.799 190.591 202.36C189.919 200.692 189.242 199.665 187.981 198.405C185.906 196.331 183.512 195.266 180.21 194.949C178.013 194.738 174.915 195.16 172.937 195.94C169.405 197.332 166.412 199.978 164.439 203.452C161.439 208.738 161.245 215.052 163.918 220.428C164.153 220.9 164.346 221.322 164.346 221.365C164.346 221.411 162.423 221.442 159.552 221.442H154.759V221.241C154.759 221.13 154.796 220.667 154.842 220.211C154.888 219.755 154.982 218.683 155.052 217.827C155.121 216.972 155.255 215.383 155.349 214.297C155.443 213.21 155.651 210.77 155.811 208.875C155.971 206.979 156.141 205.012 156.188 204.503C156.235 203.995 156.347 202.708 156.438 201.645C156.765 197.792 156.948 195.649 157.072 194.247C157.141 193.461 157.349 191.04 157.533 188.867C157.718 186.694 157.925 184.273 157.993 183.487C158.062 182.701 158.253 180.431 158.419 178.443C158.586 176.455 158.739 174.744 158.76 174.639L158.799 174.45H176.079H193.359V174.629ZM285.405 188.888C285.379 189.154 285.282 190.261 285.189 191.347C284.995 193.619 284.738 196.572 284.559 198.577C284.491 199.34 284.359 200.853 284.266 201.939C284.011 204.927 283.812 207.207 283.344 212.531C283.252 213.572 283.101 215.312 283.007 216.398C282.914 217.485 282.78 219.017 282.71 219.803C282.64 220.589 282.451 222.745 282.291 224.594C282.13 226.444 281.941 228.619 281.87 229.428C281.799 230.237 281.703 231.353 281.656 231.908C281.391 235.04 281.059 238.631 281.032 238.657C280.986 238.704 280.451 237.72 279.988 236.736C279.476 235.65 279.033 234.53 278.662 233.384L278.379 232.506L278.551 230.526C278.646 229.437 278.778 227.921 278.846 227.158C278.913 226.396 279.043 224.901 279.134 223.838C279.225 222.774 279.395 220.826 279.512 219.509C279.628 218.191 279.762 216.64 279.809 216.062C279.856 215.484 279.932 214.614 279.979 214.128C280.026 213.643 280.215 211.487 280.399 209.337C280.583 207.187 280.79 204.804 280.858 204.041C280.926 203.278 281.079 201.538 281.197 200.174C281.315 198.81 281.466 197.089 281.532 196.349C281.598 195.609 281.678 194.646 281.71 194.209L281.768 193.415L282.595 192.624C283.836 191.437 284.728 190.174 285.202 188.932C285.312 188.643 285.413 188.407 285.427 188.406C285.441 188.406 285.431 188.623 285.405 188.888ZM102.587 193.386C102.685 193.536 102.909 193.905 103.086 194.205C103.566 195.02 103.966 195.533 104.585 196.126C104.892 196.42 105.142 196.67 105.142 196.683C105.142 196.696 105.048 196.92 104.932 197.182C104.681 197.75 104.677 197.886 104.884 198.891C105.112 199.993 105.178 201.166 105.064 202.095C104.907 203.385 104.586 203.783 103.571 203.946C102.623 204.099 101.467 203.836 100.571 203.263C100.257 203.064 100.13 203.023 100.024 203.089C99.7728 203.246 99.8136 203.505 100.127 203.744C100.45 203.99 101.483 204.455 101.715 204.459C101.901 204.462 101.903 204.641 101.735 206.857C101.453 210.562 101.435 210.963 101.547 211.075C101.605 211.132 102.248 211.269 102.977 211.379C103.705 211.489 104.322 211.6 104.348 211.626C104.451 211.728 104.136 212.257 103.774 212.59C103.095 213.213 101.757 213.77 100.006 214.159C97.0783 214.808 94.611 214.531 92.7561 213.345C92.2535 213.024 91.5186 212.359 91.5186 212.226C91.5186 212.181 92.0719 212.016 92.7482 211.859C93.4245 211.703 94.0449 211.516 94.1269 211.444C94.3779 211.223 96.1243 205.241 96.2759 204.083C96.3215 203.735 96.3757 203.634 96.5917 203.494C97.2181 203.09 97.4045 202.386 97.0511 201.757C96.8377 201.378 96.5165 201.156 95.9757 201.015C94.8403 200.719 94.1178 199.784 94.1027 198.589C94.0923 197.765 94.3745 197.316 94.9024 197.316C95.3357 197.316 96.1879 198.04 96.7958 198.924C97.0973 199.363 97.4045 199.494 97.688 199.306C97.8587 199.193 97.8678 199.121 97.8678 197.894C97.8678 196.677 97.8807 196.574 98.0866 196.135C98.5043 195.245 98.9067 194.926 101.148 193.708C101.749 193.381 102.279 193.114 102.325 193.114C102.371 193.114 102.489 193.236 102.587 193.386ZM281.036 194.647C281.005 195.074 280.925 196.011 280.859 196.727C280.793 197.444 280.662 198.938 280.566 200.048C280.245 203.797 280.06 205.926 279.933 207.319C279.819 208.571 279.506 212.182 279.177 216.02C278.905 219.198 278.796 220.453 278.678 221.736C278.61 222.476 278.473 224.027 278.374 225.183C277.943 230.231 277.911 230.51 277.808 230.143C277.649 229.577 277.38 227.683 277.289 226.486C277.07 223.607 277.244 221.211 277.913 217.911C278.068 217.148 278.246 216.127 278.308 215.642C278.472 214.369 278.451 211.106 278.27 209.65C278.115 208.406 277.728 206.384 277.461 205.428C277.37 205.104 277.323 204.814 277.355 204.784C277.402 204.738 279.152 204.209 279.255 204.209C279.386 204.209 279.354 203.76 279.14 202.586C278.774 200.568 278.253 196.719 278.195 195.596L278.169 195.096L278.692 194.938C278.98 194.852 279.604 194.581 280.08 194.336C280.556 194.091 280.978 193.886 281.019 193.88C281.06 193.874 281.068 194.211 281.036 194.647ZM181.225 195.718C186.303 196.546 189.579 199.771 190.714 205.056C191.138 207.032 191.311 211.576 191.052 213.957C190.811 216.182 190.221 218.616 189.434 220.639C189.014 221.717 187.924 223.948 187.361 224.88C186.902 225.64 186.788 225.997 186.968 226.108C187.014 226.136 187.437 226.096 187.908 226.017C191.089 225.485 194.142 226.99 195.602 229.809C196.07 230.713 196.426 231.757 196.64 232.85L196.817 233.757L196.496 234.006C195.399 234.857 194.491 236.101 194.056 237.346C193.82 238.022 193.613 239.224 193.612 239.923L193.611 240.372L193.006 239.813C191.613 238.523 189.826 238.125 188.244 238.752C186.931 239.273 185.739 240.375 184.516 242.197C182.984 244.48 182.382 246.494 182.389 249.309C182.393 250.824 182.529 251.963 182.875 253.365C183.043 254.05 183.051 254.146 182.935 254.179C182.683 254.251 181.314 254.488 181.295 254.463C181.285 254.449 181.326 253.775 181.386 252.966C182.226 241.682 181.103 228.417 178.145 214.675C177.61 212.188 176.788 208.816 176.624 208.433C176.531 208.217 176.273 208.184 176.119 208.371C176.033 208.474 176.093 208.811 176.442 210.199C178.655 218.983 180.122 228.324 180.803 237.961C181.022 241.062 181.019 249.653 180.798 252.504C180.712 253.613 180.629 254.534 180.614 254.551C180.599 254.567 179.973 254.619 179.222 254.666C175.534 254.896 172.605 254.183 169.973 252.415C166.648 250.181 165.269 247.972 165.814 245.749C166.171 244.293 167.493 242.866 169.352 241.931C170.11 241.55 171.491 241.121 172.356 240.998C173.089 240.894 173.303 240.745 173.124 240.462C173.043 240.334 172.915 240.318 172.157 240.341C168.993 240.437 166.101 238.738 164.849 236.049C164.475 235.244 164.338 234.61 164.336 233.673C164.334 232.121 164.918 230.752 166.129 229.469C167.041 228.503 167.991 227.886 169.307 227.407C169.838 227.214 169.942 227.144 169.963 226.97C169.984 226.802 169.875 226.673 169.375 226.272C166.111 223.655 163.767 219.751 162.966 215.6C161.484 207.925 165.694 199.746 172.671 196.745C173.904 196.214 175.654 195.769 177.128 195.609C178.107 195.503 180.259 195.56 181.225 195.718ZM56.2193 202.624C55.7915 203.185 55.4414 203.714 55.4414 203.798C55.4414 204.021 55.7513 204.167 55.9225 204.026C55.9961 203.965 56.3967 203.464 56.8125 202.914C57.6062 201.863 57.6635 201.672 57.199 201.624C57.0307 201.607 56.868 201.773 56.2193 202.624ZM51.4505 202.389C51.1638 202.598 51.3414 202.835 52.3719 203.616C53.3829 204.383 53.6118 204.476 53.7881 204.195C53.9074 204.005 53.8148 203.905 52.7774 203.112C51.694 202.284 51.6363 202.253 51.4505 202.389ZM253.432 205.197C250.708 210.862 250.303 211.738 249.428 213.876C247.062 219.651 245.251 225.913 244.267 231.719L244.028 233.127H241.222H238.415L238.466 232.686C238.495 232.443 238.556 231.734 238.604 231.109C238.685 230.026 238.792 228.701 239.067 225.351C239.232 223.33 239.455 220.579 239.862 215.516C240.238 210.852 240.376 209.156 240.622 206.192C240.714 205.087 240.789 204.113 240.789 204.027C240.789 203.878 241.036 203.873 247.429 203.873H254.069L253.432 205.197ZM55.7787 205.847C55.7216 205.916 55.6948 206.024 55.7191 206.087C55.7605 206.195 57.2212 207.359 57.7335 207.693C57.9245 207.817 57.988 207.825 58.0952 207.736C58.373 207.505 58.1966 207.265 57.1755 206.485C56.626 206.066 56.1103 205.722 56.0295 205.722C55.9486 205.722 55.8358 205.778 55.7787 205.847ZM53.3999 206.332C53.2422 206.528 52.8613 207.022 52.5533 207.43C52.0846 208.05 52.0076 208.197 52.0805 208.334C52.2745 208.696 52.5105 208.534 53.318 207.485C54.0909 206.48 54.2442 206.133 53.9629 206.025C53.7387 205.939 53.6963 205.962 53.3999 206.332ZM272.327 209.55C272.566 209.837 272.234 213.427 271.781 215.454C271.173 218.173 270.25 220.289 268.583 222.787C267.574 224.3 267.172 225.022 266.663 226.237C265.186 229.761 264.3 234.237 263.701 241.202L263.646 241.838L264.418 243.378C266.721 247.979 269.613 252.514 274.174 258.682L275.324 260.238L275.174 261.961C274.983 264.157 274.799 264.959 274.22 266.131C273.053 268.487 271.025 270.101 268.456 270.717C267.83 270.868 267.376 270.894 264.778 270.932C263.148 270.955 261.766 270.956 261.705 270.932C261.619 270.9 261.61 270.719 261.659 270.103C261.845 267.811 262.031 263.425 262.19 257.59C262.355 251.527 262.472 248.117 262.575 246.325C262.797 242.476 262.962 240.512 263.069 240.44C263.104 240.417 263.196 239.755 263.275 238.969C263.942 232.324 265.083 227.648 266.834 224.386C267.044 223.995 267.586 223.125 268.039 222.453C270.395 218.956 271.453 215.665 271.738 210.952C271.82 209.585 271.86 209.426 272.125 209.422C272.177 209.421 272.268 209.479 272.327 209.55ZM196.399 211.297C196.348 211.358 196.25 212.049 196.182 212.831C195.709 218.224 195.727 217.9 195.889 218.001C196.284 218.252 196.373 218.023 196.512 216.389C196.58 215.585 196.693 214.284 196.763 213.498C196.833 212.712 196.89 212.022 196.89 211.964C196.891 211.88 200.47 211.859 214.507 211.859H232.123L232.085 212.09C232.064 212.217 231.989 213.002 231.918 213.834C231.848 214.667 231.733 215.991 231.665 216.777C231.493 218.733 231.237 221.681 231.033 224.048C230.797 226.781 230.548 229.631 230.401 231.278C230.333 232.04 230.201 233.554 230.108 234.64C229.9 237.073 229.641 240.029 229.476 241.87C229.408 242.632 229.2 245.016 229.016 247.166C228.831 249.316 228.623 251.718 228.553 252.504C228.483 253.29 228.351 254.822 228.258 255.908C228.166 256.995 228.069 258.082 228.043 258.325L227.994 258.766H223.759C220.022 258.766 219.509 258.782 219.392 258.898C219.236 259.055 219.235 259.066 219.347 259.276C219.432 259.434 219.571 259.439 223.92 259.439C227.654 259.439 228.422 259.419 228.503 259.322C228.611 259.192 228.613 259.18 228.848 256.455C229.016 254.5 229.248 251.84 229.478 249.225C229.678 246.941 229.926 244.084 230.108 241.954C230.201 240.867 230.333 239.354 230.401 238.591C230.55 236.928 230.8 234.06 231.033 231.362C231.347 227.718 231.538 225.529 231.665 224.132C231.734 223.369 231.942 220.986 232.127 218.836C232.312 216.686 232.523 214.265 232.596 213.456C232.67 212.647 232.717 211.815 232.702 211.607L232.674 211.228L214.582 211.207C199.661 211.19 196.475 211.205 196.399 211.297ZM120.658 230.983C121.601 231.455 122.271 232.339 122.465 233.37C122.579 233.979 122.581 261.806 122.466 262.507C122.287 263.603 121.611 264.506 120.616 264.978L120.153 265.197H97.994H75.8347L75.3523 264.971C74.4029 264.526 73.6957 263.57 73.5191 262.492C73.4113 261.834 73.4113 234.094 73.5191 233.436C73.7306 232.145 74.706 231.058 75.9137 230.767C76.0553 230.733 86.0671 230.711 98.1622 230.718L120.153 230.731L120.658 230.983ZM201.642 233.796C202.949 234.172 204.245 235.018 205.035 236.01C205.517 236.617 206.076 237.616 206.234 238.158C206.293 238.36 206.391 238.543 206.451 238.567C206.512 238.59 206.911 238.542 207.339 238.461C210.204 237.917 212.717 238.883 214.35 241.158C215.277 242.45 215.896 244.517 215.896 246.32C215.896 247.108 215.785 247.546 215.346 248.488C214.161 251.026 211.997 252.752 209.463 253.177C207.311 253.539 205.248 252.782 203.569 251.015C202.932 250.345 202.611 249.91 202.228 249.198C201.975 248.728 201.78 248.563 201.571 248.644C201.319 248.74 201.351 248.962 201.714 249.635C202.3 250.72 202.465 251.281 202.47 252.215C202.474 252.969 202.455 253.06 202.175 253.645C201.66 254.72 200.834 255.45 199.443 256.058C198.365 256.529 197.65 256.676 196.218 256.724C195.088 256.761 194.816 256.743 194.175 256.59C193.154 256.347 192.32 255.917 191.088 255C189.653 253.932 189.012 253.622 188.133 253.571C187.093 253.511 186.175 253.778 185.385 254.371C185.232 254.486 185.091 254.565 185.073 254.546C185.026 254.5 185.699 253.02 186.084 252.324C189.024 247.013 194.189 243.976 199.96 244.165C202.057 244.233 204.056 244.656 205.879 245.416C206.324 245.602 206.792 245.796 206.919 245.847C207.107 245.924 207.175 245.916 207.285 245.806C207.541 245.55 207.359 245.352 206.538 244.993C202.874 243.391 198.732 243.081 195.078 244.137C190.783 245.377 187.258 248.456 185.123 252.832C184.805 253.484 184.457 254.272 184.348 254.584C184.24 254.896 184.129 255.152 184.101 255.152C183.952 255.152 183.33 252.693 183.147 251.386C182.825 249.074 183.056 246.795 183.814 244.811C184.514 242.98 186.387 240.529 187.682 239.75C189.152 238.866 190.628 238.884 191.985 239.803C192.464 240.127 193.243 240.917 193.669 241.512C194.049 242.042 194.255 242.149 194.447 241.918C194.523 241.826 194.522 241.715 194.439 241.435C194.376 241.218 194.331 240.579 194.329 239.852C194.326 238.821 194.356 238.529 194.521 237.961C194.841 236.855 195.319 236.043 196.134 235.226C197.066 234.291 197.938 233.835 199.245 233.597C199.685 233.517 201.074 233.632 201.642 233.796ZM147.863 249.854C149.027 250.182 149.841 250.649 150.646 251.45C151.458 252.259 151.843 252.943 152.112 254.059C152.31 254.877 152.309 256.443 152.111 257.414C151.223 261.765 147.927 266.996 143.38 271.27C141.386 273.144 138.193 275.485 135.576 276.992C129.182 280.675 120.756 283.428 112.753 284.447C112.198 284.518 111.1 284.668 110.314 284.781C107.759 285.149 107.971 285.153 107.178 284.715C106.798 284.505 106.415 284.31 106.327 284.282C106.239 284.254 106.127 284.184 106.079 284.126C106.012 284.045 106.476 283.89 108.153 283.434C110.207 282.877 110.315 282.837 110.339 282.639C110.373 282.347 107.004 277.062 106.76 277.025C106.591 276.999 106.256 277.113 101.435 278.844C98.9834 279.723 98.8471 279.762 98.5198 279.675C98.0628 279.553 97.6261 279.686 97.2153 280.074C97.0421 280.237 96.8685 280.371 96.8296 280.371C96.7906 280.371 96.0342 280.123 95.1486 279.82C93.355 279.207 93.1489 279.191 92.658 279.622L92.3874 279.859L91.7478 278.986C91.3961 278.505 91.0036 278.043 90.8757 277.959C90.723 277.859 90.4685 277.803 90.1347 277.796C89.6531 277.785 89.5428 277.738 88.0353 276.892C87.1602 276.401 86.4175 276 86.3848 276C86.2384 276 86.0997 276.326 85.7181 277.569C85.4935 278.301 85.1552 279.396 84.9663 280.003C84.7773 280.61 84.6227 281.162 84.6227 281.231C84.6227 281.3 84.9134 281.549 85.2686 281.783C85.9063 282.204 85.9113 282.21 85.668 282.269C82.7702 282.968 80.1201 283.753 79.0986 284.215C78.6764 284.406 78.2124 284.373 75.7927 283.978C68.2818 282.751 61.6341 280.052 56.2203 276.031C53.0652 273.688 49.9029 270.379 48.1284 267.563C46.1482 264.421 45.3177 261.346 45.718 258.637C46.2526 255.019 48.3641 252.724 51.9886 251.823C55.5333 250.942 60.1064 251.661 65.5098 253.951L66.7901 254.493L67.059 254.97C68.052 256.728 69.8456 259.042 71.611 260.84C72.5133 261.76 72.855 262.162 72.835 262.282C72.812 262.42 72.2621 262.049 69.6536 260.139C64.8448 256.616 62.5468 254.984 62.396 254.984C62.2345 254.984 62.0662 255.26 62.1309 255.419C62.1558 255.48 62.7125 255.908 63.3678 256.371C64.6769 257.294 71.8455 262.519 72.6187 263.113C72.885 263.317 73.164 263.605 73.2387 263.753C73.4737 264.216 73.9534 264.796 74.3413 265.086L74.7151 265.365L73.593 265.416C72.2913 265.475 71.8921 265.608 71.3323 266.167C70.1342 267.365 70.4477 269.387 71.9547 270.181L72.3868 270.409L77.4369 270.451L82.487 270.493L84.532 272.089C85.6568 272.966 86.5944 273.73 86.6157 273.785C86.6371 273.841 86.5917 274.194 86.5149 274.57C86.4381 274.947 86.3961 275.309 86.4214 275.375C86.4863 275.544 86.872 275.525 86.9635 275.348C87.0885 275.106 87.3477 273.687 87.2928 273.544C87.2511 273.435 86.1925 272.575 83.778 270.686L83.4874 270.459L97.174 270.455C104.702 270.453 110.861 270.468 110.861 270.488C110.861 270.518 108.189 272.602 105.457 274.703C105.192 274.907 104.974 275.129 104.974 275.195C104.974 275.261 105.154 275.524 105.373 275.781C105.787 276.263 106.038 276.363 106.237 276.123C106.327 276.016 106.3 275.933 106.079 275.625L105.813 275.255L106.172 274.969C106.641 274.594 108.767 272.95 110.579 271.561L112.021 270.456L117.475 270.433L122.928 270.409L123.32 270.179C123.835 269.877 124.355 269.275 124.52 268.792C124.691 268.289 124.682 267.478 124.498 267.027C124.097 266.04 123.261 265.494 122.031 265.414L121.279 265.365L121.656 265.071C122.269 264.592 123.522 263.522 124.269 262.841C125.928 261.327 128.023 258.68 129.236 256.568L129.557 256.008L130.94 255.231C132.857 254.153 133.811 253.649 135.394 252.878C139.231 251.009 141.953 250.05 144.541 249.656C144.68 249.634 145.342 249.63 146.013 249.647C146.928 249.669 147.389 249.721 147.863 249.854ZM65.5313 251.789C65.6378 252.09 65.8497 252.609 66.0021 252.944L66.2793 253.552L65.9692 253.42C65.7986 253.348 65.5144 253.23 65.3375 253.158C65.0779 253.052 65.0242 252.993 65.0583 252.849C65.0817 252.752 65.1274 252.319 65.1599 251.889C65.1924 251.458 65.2458 251.136 65.2783 251.174C65.3109 251.212 65.4247 251.489 65.5313 251.789ZM195.701 261.33C195.876 262.886 195.867 266.681 195.684 268.221C194.77 275.923 191.588 280.144 185.75 281.397C185.052 281.547 184.632 281.578 183.309 281.576C181.848 281.575 181.64 281.556 180.872 281.351C179.868 281.083 178.557 280.453 177.788 279.87C175.336 278.008 173.533 274.518 172.597 269.821C172.112 267.391 171.917 265.481 171.855 262.57L171.807 260.279L183.697 260.3L195.587 260.322L195.701 261.33ZM276.133 261.231C276.203 261.338 276.815 262.119 277.492 262.966L278.723 264.507L278.546 265.053C277.652 267.82 275.144 270.103 272.339 270.701C271.636 270.852 270.054 271.014 270.054 270.935C270.054 270.914 270.332 270.76 270.671 270.593C272.452 269.713 273.998 268.111 274.896 266.216C275.459 265.027 275.648 264.125 275.818 261.814C275.849 261.386 275.904 261.036 275.94 261.036C275.976 261.036 276.063 261.124 276.133 261.231ZM122.868 266.211C123.466 266.46 123.919 267.059 124.029 267.745C124.133 268.4 123.707 269.215 123.06 269.595L122.676 269.821H97.6576H72.6391L72.3027 269.639C71.6143 269.268 71.2515 268.678 71.2515 267.929C71.2515 267.194 71.6297 266.579 72.2818 266.257L72.6391 266.08L97.5972 266.08C119.971 266.08 122.588 266.094 122.868 266.211ZM289.263 267.574C289.548 267.84 290.109 268.266 290.51 268.519L291.238 268.98L291.239 270.199C291.241 271.879 291.027 272.459 290.205 273.003C289.658 273.364 289.179 273.423 287.473 273.341L285.944 273.267L285.583 272.38C285.269 271.609 284.438 269.995 284.053 269.407C283.928 269.216 283.931 269.214 284.346 269.164C285.465 269.032 287.092 268.333 288.093 267.556C288.417 267.304 288.696 267.096 288.713 267.094C288.73 267.091 288.977 267.307 289.263 267.574ZM293.551 268.218C294.744 268.619 297.385 270.066 297.385 270.319C297.385 270.439 296.876 271.811 296.464 272.802C295.785 274.433 294.377 276.792 293.226 278.227C292.412 279.242 291.494 280.203 291.338 280.203C291.145 280.203 290.981 280.012 290.712 279.475C290.408 278.869 290.124 278.662 289.666 278.713C289.468 278.736 289.235 278.817 289.149 278.895C289.063 278.973 288.85 279.422 288.676 279.893C287.734 282.435 286.148 284.314 283.907 285.541L283.337 285.853L283.52 285.403C284.925 281.955 285.373 279.217 285.11 275.672C285.026 274.528 285.025 274.207 285.108 274.107C285.195 274.002 285.562 273.982 287.385 273.982C289.938 273.982 290.205 273.924 290.962 273.208C291.717 272.495 291.782 272.252 291.834 269.964C291.868 268.491 291.906 267.99 291.987 267.939C292.14 267.845 292.778 267.959 293.551 268.218ZM298.59 271.096C300.491 272.535 300.554 272.63 300.196 273.535C299.85 274.41 298.977 276.167 298.26 277.429C295.594 282.125 291.776 286.237 288.578 287.858C288.219 288.04 287.603 288.293 287.21 288.419C286.573 288.623 286.366 288.648 285.318 288.65C284.157 288.651 284.133 288.647 283.577 288.376C283.046 288.116 282.669 287.755 282.669 287.506C282.669 287.445 282.729 287.238 282.803 287.045C282.922 286.732 282.996 286.669 283.482 286.462C284.628 285.976 286.269 284.792 287.042 283.894C288.057 282.717 288.561 281.887 289.144 280.438C289.692 279.077 289.778 279.035 290.223 279.921C290.629 280.727 291.112 281.004 291.69 280.763C292.017 280.626 293.182 279.358 294.119 278.119C295.489 276.306 296.693 274.091 297.554 271.796C297.936 270.778 297.967 270.703 298.02 270.703C298.048 270.703 298.305 270.88 298.59 271.096ZM88.1547 277.684C88.6867 277.975 89.1325 278.221 89.1455 278.23C89.1585 278.239 88.8665 278.677 88.4964 279.204C88.1265 279.73 87.6059 280.582 87.3394 281.097L86.8551 282.033L86.413 281.75C86.1698 281.595 85.821 281.373 85.6379 281.257L85.3052 281.047L85.4622 280.562C85.5487 280.295 85.811 279.447 86.0452 278.676C86.2793 277.906 86.5094 277.175 86.5564 277.052L86.6419 276.827L86.9148 276.991C87.0649 277.081 87.6228 277.393 88.1547 277.684ZM108.123 280.106C108.898 281.324 109.5 282.349 109.461 282.383C109.421 282.418 108.783 282.609 108.043 282.808C107.303 283.007 106.452 283.237 106.151 283.319C102.212 284.392 101.218 284.657 101.14 284.658C101.089 284.658 101 284.441 100.942 284.175C100.789 283.479 100.313 282.234 99.7989 281.186L99.3534 280.277L99.5777 280.189C99.7011 280.14 100.162 279.976 100.601 279.825C101.04 279.674 102.081 279.303 102.914 279.001C106.57 277.676 106.526 277.69 106.622 277.793C106.672 277.847 107.348 278.888 108.123 280.106ZM94.9207 280.413C95.6513 280.667 96.2699 280.875 96.2952 280.875C96.3206 280.875 96.2502 280.972 96.1386 281.091L95.9358 281.307L95.7782 281.112C95.5016 280.77 95.1988 280.624 94.7652 280.624C94.4241 280.623 90.026 281.35 89.3631 281.516C89.2535 281.543 89.1639 281.542 89.1639 281.514C89.1639 281.424 90.2056 280.398 90.3988 280.298C90.7632 280.109 91.1952 280.186 91.7532 280.54C92.4491 280.981 92.5594 280.973 92.8181 280.463C93.1464 279.815 93.1992 279.814 94.9207 280.413ZM95.1261 281.359C95.2242 281.44 95.3528 281.676 95.4121 281.884C95.5469 282.357 95.6936 282.389 96.4178 282.099C97.0342 281.853 97.4535 281.826 97.7252 282.016C97.8292 282.089 98.1971 282.548 98.5429 283.036C99.0943 283.814 99.1713 283.968 99.1713 284.291C99.1713 284.631 99.1254 284.709 98.5826 285.294C98.2589 285.644 97.994 285.969 97.994 286.017C97.994 286.065 98.0886 286.217 98.2042 286.355C98.5044 286.711 98.4809 287.036 98.1346 287.312C97.6878 287.668 95.0553 289.156 93.4528 289.958C90.3649 291.503 87.966 292.405 85.5976 292.912C84.3783 293.173 82.2653 293.173 81.3009 292.912C78.4706 292.146 76.7289 289.98 77.0604 287.64C77.2113 286.576 77.9563 285.551 78.9737 285.009C80.9733 283.944 85.901 282.729 93.663 281.389C94.8505 281.184 94.9133 281.183 95.1261 281.359ZM140.839 282.865C140.543 283.161 140.742 283.333 143.196 284.899C146.565 287.049 149.637 288.612 153.497 290.143C160.063 292.747 166.908 294.272 174.984 294.93C176.999 295.095 184.164 295.072 185.905 294.896C186.638 294.821 187.275 294.724 187.32 294.679C187.365 294.634 187.39 294.508 187.374 294.398C187.348 294.216 187.306 294.199 186.883 294.2C186.629 294.201 185.664 294.257 184.739 294.324C181.346 294.569 176.011 294.428 172.06 293.987C160.757 292.725 150.807 289.259 142.523 283.698C141.042 282.704 141.014 282.69 140.839 282.865ZM258.997 283.712C259.071 284.441 259.343 285.886 259.542 286.609L259.698 287.173L258.884 287.863C257.961 288.644 257.563 288.857 257.015 288.859C256.296 288.863 255.881 288.565 254.749 287.237C253.838 286.168 253.738 286.019 253.778 285.793C253.894 285.147 253.987 284.229 253.989 283.712L253.992 283.145H256.466H258.94L258.997 283.712ZM153.094 283.582C152.758 283.917 153.049 284.099 155.221 284.911C162.152 287.5 170.355 289.259 178.516 289.907C181.766 290.165 183.857 290.228 187.556 290.179C194.387 290.089 199.989 289.462 206.478 288.059C208.927 287.529 209.859 287.288 209.938 287.163C210.042 286.999 210.024 286.876 209.878 286.755C209.769 286.665 209.463 286.713 208.049 287.043C205.898 287.546 205.885 287.549 204.628 287.799C195.414 289.632 185.491 290.055 175.92 289.024C168.48 288.223 160.513 286.344 154.709 284.023C153.964 283.725 153.318 283.481 153.274 283.481C153.23 283.481 153.149 283.527 153.094 283.582ZM88.9654 283.86C88.8528 283.972 88.8602 284.062 89.0322 284.679C89.6781 286.997 90.2022 288.749 90.2762 288.84C90.3233 288.898 90.4316 288.945 90.5168 288.945C90.8763 288.945 90.844 288.709 90.1561 286.297C89.7869 285.003 89.4458 283.896 89.3981 283.838C89.2822 283.698 89.1193 283.706 88.9654 283.86ZM106.012 284.833C107.985 285.82 108.864 286.444 109.358 287.207C109.779 287.859 109.936 288.399 109.934 289.192C109.928 291.133 108.361 292.891 106.097 293.495C105.315 293.704 103.585 293.745 102.705 293.575C101.313 293.307 99.2457 292.47 97.4536 291.448C96.177 290.721 95.0239 289.947 95.1027 289.871C95.1435 289.831 95.6309 289.546 96.1859 289.238C97.5603 288.473 98.4118 287.948 98.6858 287.698C98.9778 287.431 99.1163 287.013 99.0474 286.605L98.9934 286.286L100.071 285.995C101.022 285.738 101.146 285.684 101.13 285.532C101.115 285.38 101.255 285.322 102.392 285.007C103.095 284.812 103.916 284.582 104.217 284.497C104.518 284.411 104.814 284.337 104.876 284.331C104.938 284.326 105.449 284.552 106.012 284.833ZM79.9328 285.015C79.5519 285.485 79.3705 287.327 79.6119 288.274C79.9923 289.767 81.0675 291.195 82.517 292.131C83.12 292.521 83.133 292.524 83.3096 292.347C83.5032 292.154 83.3766 291.942 82.8567 291.588C80.5658 290.031 79.6178 287.791 80.3412 285.645C80.4711 285.26 80.487 285.12 80.4112 285.028C80.2898 284.882 80.0463 284.875 79.9328 285.015ZM253.046 286.238C253.127 286.321 253.682 286.965 254.28 287.669C255.251 288.813 255.424 288.978 255.91 289.217C256.356 289.436 256.554 289.484 257.01 289.484C257.821 289.483 258.285 289.233 259.625 288.075C260.249 287.537 260.821 287.096 260.897 287.096C261.311 287.096 262.25 289.781 262.447 291.526L262.502 292.014L261.167 292.498C258.605 293.428 256.489 293.825 253.975 293.849C252.861 293.86 252.46 293.836 252.379 293.755C252.291 293.668 252.313 293.531 252.495 293.024C252.752 292.309 252.711 291.92 252.353 291.686C252.044 291.483 251.756 291.519 250.72 291.888C250.2 292.074 249.408 292.286 248.961 292.36C247.524 292.596 245.561 292.397 244.376 291.894L244.039 291.751L244.832 291.477C247.31 290.621 249.488 289.238 251.549 287.212C252.176 286.596 252.736 286.091 252.794 286.09C252.851 286.088 252.965 286.155 253.046 286.238ZM243.777 292.337C246.2 293.352 248.759 293.366 251.243 292.378C252.094 292.04 252.156 292.094 251.856 292.906C251.593 293.613 251.617 293.858 251.983 294.209L252.236 294.452L253.624 294.478C255.634 294.517 257.64 294.253 259.628 293.688C260.319 293.491 260.805 293.323 261.997 292.87L262.559 292.656L262.603 292.881C262.627 293.005 262.671 293.43 262.701 293.825C262.763 294.651 262.652 295.027 262.214 295.479C261.867 295.838 260.626 296.235 258.353 296.717C256.037 297.207 254.993 297.306 252.142 297.305C249.79 297.304 249.372 297.283 248.421 297.118C247.115 296.892 246.419 296.703 245.549 296.341C243.835 295.628 242.486 294.26 242.327 293.075C242.259 292.569 242.351 292.324 242.662 292.188C243.038 292.024 243.027 292.022 243.777 292.337Z" fill="#181818"/>
</svg>
