<svg width="28" height="21" viewBox="0 0 28 21" fill="none" xmlns="http://www.w3.org/2000/svg">
<path d="M26 16.6667V14H2V16.6667C2 17.3739 2.28095 18.0522 2.78105 18.5523C3.28115 19.0524 3.95942 19.3333 4.66667 19.3333H23.3333C24.0406 19.3333 24.7189 19.0524 25.219 18.5523C25.719 18.0522 26 17.3739 26 16.6667Z" fill="#EE2024"/>
<path d="M26 14H2V4.66667C2 3.95942 2.28095 3.28115 2.78105 2.78105C3.28115 2.28095 3.95942 2 4.66667 2H23.3333C24.0406 2 24.7189 2.28095 25.219 2.78105C25.719 3.28115 26 3.95942 26 4.66667V14Z" fill="#EEEEEE"/>
<path d="M2 7.33325H26V13.9999H2V7.33325Z" fill="#0A4EA2"/>
<path d="M9.89139 15.3934C9.13873 14.9627 7.46606 13.8747 6.85473 12.4014C6.23806 10.9167 6.37539 8.78604 6.53406 6.3187L6.57406 5.6947H14.5494L14.5901 6.3187C14.7487 8.78537 14.8861 10.9154 14.2694 12.4007C13.6574 13.8747 11.9854 14.9634 11.2321 15.3934L10.5627 15.7747L9.89139 15.3934Z" fill="white"/>
<path d="M13.9239 6.36133H7.19855C7.03988 8.83266 6.91721 10.8147 7.46988 12.1453C8.15055 13.7853 10.4805 14.9587 10.5572 14.996V15L10.5605 14.998L10.5639 15V14.996C10.6405 14.958 12.9705 13.7853 13.6519 12.1453C14.2052 10.8147 14.0832 8.83199 13.9239 6.36133Z" fill="#EE2024"/>
<path d="M12.5768 9.40592C12.5768 9.40592 11.6428 9.49459 10.8221 9.51592C10.8087 9.23029 10.8094 8.94416 10.8241 8.65859C11.4728 8.69859 11.9208 8.82259 11.9208 8.82259C12.0855 8.82259 12.2188 8.68926 12.2188 8.52459V8.12059C12.2188 7.95592 12.0855 7.82259 11.9208 7.82259C11.9208 7.82259 11.4281 7.90659 10.8755 7.94192C10.9228 7.42059 10.9795 6.98526 10.9795 6.98526C10.9795 6.82059 10.8461 6.68726 10.6815 6.68726H10.2781C10.1135 6.68726 9.98014 6.82059 9.98014 6.98526C9.98014 6.98526 10.0415 7.42926 10.0935 7.94726C9.73953 7.92674 9.38713 7.88511 9.03814 7.82259C8.87348 7.82259 8.74014 7.95592 8.74014 8.12059V8.52459C8.74014 8.68926 8.87348 8.82259 9.03814 8.82259C9.03814 8.82259 9.46414 8.68526 10.1515 8.65259C10.1608 8.80592 10.1675 8.95459 10.1675 9.08326C10.1675 9.19059 10.1635 9.34192 10.1568 9.51592C9.32881 9.49392 8.36148 9.40659 8.36148 9.40659C8.19681 9.40659 8.06348 9.53992 8.06348 9.70459V10.1086C8.06348 10.2733 8.19681 10.4066 8.36148 10.4066C8.36148 10.4066 9.24081 10.3346 10.1181 10.3213C10.0628 11.3419 9.98014 12.5359 9.98014 12.5359C9.98014 12.7006 10.1135 12.8339 10.2781 12.8339H10.6815C10.8461 12.8339 10.9795 12.7006 10.9795 12.5359C10.9795 12.5359 10.9055 11.3539 10.8561 10.3246C11.7041 10.3446 12.5768 10.4066 12.5768 10.4066C12.7415 10.4066 12.8748 10.2733 12.8748 10.1086V9.70459C12.8748 9.53992 12.7415 9.40592 12.5768 9.40592Z" fill="white"/>
<path d="M13.3862 12.6433C13.0475 11.9193 12.1162 11.7146 11.6742 12.5993C11.3822 11.5366 10.5535 11.5366 10.5535 11.5366C10.5535 11.5366 9.72421 11.5366 9.43287 12.5993C8.99421 11.722 8.07287 11.9166 7.72754 12.6266C8.60354 14.0093 10.4895 14.9626 10.5589 14.9966V15L10.5622 14.998L10.5655 15V14.996C10.6342 14.962 12.5055 14.0166 13.3862 12.6433Z" fill="#0A4EA2"/>
</svg>
