<svg width="375" height="48" viewBox="0 0 375 48" fill="none" xmlns="http://www.w3.org/2000/svg">
<rect width="375" height="48" fill="white"/>
<circle cx="27" cy="24" r="11.5" stroke="#181818"/>
<path d="M28.2715 19.0127V29H26.624V20.9678L24.1836 21.7949V20.4346L28.0732 19.0127H28.2715Z" fill="#181818"/>
<rect x="43" y="23.5" width="48" height="1" fill="#B4B4B4"/>
<circle cx="107" cy="24" r="11.5" stroke="#B4B4B4"/>
<path d="M110.445 27.6875V29H103.773V27.8721L107.014 24.3379C107.369 23.9368 107.649 23.5905 107.854 23.2988C108.06 23.0072 108.203 22.7451 108.285 22.5127C108.372 22.2757 108.415 22.0456 108.415 21.8223C108.415 21.5078 108.356 21.2321 108.237 20.9951C108.123 20.7536 107.955 20.5645 107.731 20.4277C107.508 20.2865 107.237 20.2158 106.918 20.2158C106.549 20.2158 106.239 20.2956 105.988 20.4551C105.738 20.6146 105.549 20.8356 105.421 21.1182C105.293 21.3962 105.229 21.7152 105.229 22.0752H103.582C103.582 21.4964 103.714 20.9678 103.979 20.4893C104.243 20.0062 104.626 19.6234 105.127 19.3408C105.628 19.0537 106.232 18.9102 106.938 18.9102C107.604 18.9102 108.169 19.0218 108.634 19.2451C109.099 19.4684 109.452 19.7852 109.693 20.1953C109.939 20.6055 110.062 21.0908 110.062 21.6514C110.062 21.9613 110.012 22.2689 109.912 22.5742C109.812 22.8796 109.668 23.1849 109.481 23.4902C109.299 23.791 109.083 24.0941 108.832 24.3994C108.581 24.7002 108.306 25.0055 108.005 25.3154L105.852 27.6875H110.445Z" fill="#B4B4B4"/>
<rect x="123" y="23.5" width="48" height="1" fill="#B4B4B4"/>
<circle cx="187" cy="24" r="11.5" stroke="#B4B4B4"/>
<path d="M185.708 23.2783H186.692C187.075 23.2783 187.392 23.2122 187.643 23.0801C187.898 22.9479 188.087 22.7656 188.21 22.5332C188.333 22.3008 188.395 22.0342 188.395 21.7334C188.395 21.4189 188.338 21.1501 188.224 20.9268C188.114 20.6989 187.946 20.5234 187.718 20.4004C187.494 20.2773 187.21 20.2158 186.863 20.2158C186.572 20.2158 186.307 20.2751 186.07 20.3936C185.838 20.5075 185.653 20.6715 185.517 20.8857C185.38 21.0954 185.312 21.346 185.312 21.6377H183.657C183.657 21.109 183.796 20.6396 184.074 20.2295C184.352 19.8193 184.73 19.498 185.209 19.2656C185.692 19.0286 186.234 18.9102 186.836 18.9102C187.479 18.9102 188.039 19.0173 188.518 19.2314C189.001 19.4411 189.377 19.7555 189.646 20.1748C189.914 20.5941 190.049 21.1136 190.049 21.7334C190.049 22.016 189.983 22.3031 189.851 22.5947C189.718 22.8864 189.522 23.153 189.263 23.3945C189.003 23.6315 188.679 23.8252 188.292 23.9756C187.905 24.1214 187.456 24.1943 186.945 24.1943H185.708V23.2783ZM185.708 24.5635V23.6611H186.945C187.529 23.6611 188.025 23.7295 188.436 23.8662C188.85 24.0029 189.188 24.1921 189.447 24.4336C189.707 24.6706 189.896 24.9417 190.015 25.2471C190.138 25.5524 190.199 25.876 190.199 26.2178C190.199 26.6826 190.115 27.0973 189.946 27.4619C189.782 27.8219 189.548 28.1273 189.242 28.3779C188.937 28.6286 188.579 28.8177 188.169 28.9453C187.763 29.0729 187.321 29.1367 186.843 29.1367C186.414 29.1367 186.004 29.0775 185.612 28.959C185.22 28.8405 184.869 28.665 184.56 28.4326C184.25 28.1956 184.004 27.9017 183.821 27.5508C183.644 27.1953 183.555 26.7852 183.555 26.3203H185.202C185.202 26.6165 185.271 26.8786 185.407 27.1064C185.549 27.3298 185.744 27.5052 185.995 27.6328C186.25 27.7604 186.542 27.8242 186.87 27.8242C187.216 27.8242 187.515 27.7627 187.766 27.6396C188.016 27.5166 188.208 27.3343 188.34 27.0928C188.477 26.8512 188.545 26.5596 188.545 26.2178C188.545 25.8304 188.47 25.516 188.319 25.2744C188.169 25.0329 187.955 24.8551 187.677 24.7412C187.399 24.6227 187.071 24.5635 186.692 24.5635H185.708Z" fill="#B4B4B4"/>
<rect x="203" y="23.5" width="48" height="1" fill="#B4B4B4"/>
<circle cx="267" cy="24" r="11.5" stroke="#B4B4B4"/>
<path d="M270.63 25.4521V26.7646H263.452L263.397 25.7734L267.69 19.0469H269.01L267.581 21.4941L265.113 25.4521H270.63ZM269.386 19.0469V29H267.738V19.0469H269.386Z" fill="#B4B4B4"/>
<rect x="283" y="23.5" width="48" height="1" fill="#B4B4B4"/>
<circle cx="347" cy="24" r="11.5" stroke="#B4B4B4"/>
<path d="M345.503 24.3721L344.19 24.0508L344.73 19.0469H350.097V20.4414H346.098L345.824 22.8818C345.979 22.7907 346.193 22.7018 346.467 22.6152C346.74 22.5241 347.052 22.4785 347.403 22.4785C347.873 22.4785 348.292 22.556 348.661 22.7109C349.035 22.8613 349.352 23.0824 349.611 23.374C349.871 23.6611 350.069 24.012 350.206 24.4268C350.343 24.8369 350.411 25.2995 350.411 25.8145C350.411 26.2747 350.343 26.7054 350.206 27.1064C350.074 27.5075 349.873 27.8607 349.604 28.166C349.336 28.4714 348.996 28.7106 348.586 28.8838C348.18 29.0524 347.7 29.1367 347.144 29.1367C346.729 29.1367 346.33 29.0775 345.947 28.959C345.569 28.8359 345.229 28.6559 344.929 28.4189C344.628 28.1774 344.386 27.8812 344.204 27.5303C344.022 27.1748 343.917 26.7669 343.89 26.3066H345.503C345.544 26.6302 345.633 26.9059 345.77 27.1338C345.911 27.3571 346.098 27.528 346.33 27.6465C346.562 27.765 346.831 27.8242 347.137 27.8242C347.415 27.8242 347.654 27.7764 347.854 27.6807C348.055 27.5804 348.221 27.4391 348.354 27.2568C348.49 27.07 348.59 26.8512 348.654 26.6006C348.723 26.3499 348.757 26.0719 348.757 25.7666C348.757 25.4749 348.718 25.2083 348.641 24.9668C348.568 24.7253 348.456 24.5156 348.306 24.3379C348.16 24.1602 347.975 24.0234 347.752 23.9277C347.529 23.8275 347.271 23.7773 346.979 23.7773C346.588 23.7773 346.287 23.8343 346.077 23.9482C345.872 24.0622 345.681 24.2035 345.503 24.3721Z" fill="#B4B4B4"/>
</svg>
