<svg width="375" height="48" viewBox="0 0 375 48" fill="none" xmlns="http://www.w3.org/2000/svg">
<rect width="375" height="48" fill="white"/>
<circle cx="27" cy="24" r="12" fill="#181818"/>
<path fill-rule="evenodd" clip-rule="evenodd" d="M32.3659 20.2344C32.5159 20.3844 32.6002 20.5878 32.6002 20.8C32.6002 21.0121 32.5159 21.2155 32.3659 21.3656L25.9659 27.7656C25.8159 27.9155 25.6125 27.9998 25.4003 27.9998C25.1882 27.9998 24.9847 27.9155 24.8347 27.7656L21.6347 24.5656C21.489 24.4147 21.4084 24.2126 21.4102 24.0028C21.412 23.7931 21.4961 23.5924 21.6445 23.4441C21.7928 23.2958 21.9934 23.2116 22.2032 23.2098C22.413 23.208 22.615 23.2886 22.7659 23.4344L25.4003 26.0688L31.2347 20.2344C31.3847 20.0844 31.5882 20.0001 31.8003 20.0001C32.0125 20.0001 32.2159 20.0844 32.3659 20.2344Z" fill="white"/>
<rect x="43" y="23.5" width="48" height="1" fill="#181818"/>
<circle cx="107" cy="24" r="12" fill="#181818"/>
<path fill-rule="evenodd" clip-rule="evenodd" d="M112.366 20.2344C112.516 20.3844 112.6 20.5878 112.6 20.8C112.6 21.0121 112.516 21.2155 112.366 21.3656L105.966 27.7656C105.816 27.9155 105.612 27.9998 105.4 27.9998C105.188 27.9998 104.985 27.9155 104.835 27.7656L101.635 24.5656C101.489 24.4147 101.408 24.2126 101.41 24.0028C101.412 23.7931 101.496 23.5924 101.644 23.4441C101.793 23.2958 101.993 23.2116 102.203 23.2098C102.413 23.208 102.615 23.2886 102.766 23.4344L105.4 26.0688L111.235 20.2344C111.385 20.0844 111.588 20.0001 111.8 20.0001C112.012 20.0001 112.216 20.0844 112.366 20.2344Z" fill="white"/>
<rect x="123" y="23.5" width="48" height="1" fill="#181818"/>
<circle cx="187" cy="24" r="12" fill="#181818"/>
<path fill-rule="evenodd" clip-rule="evenodd" d="M192.366 20.2344C192.516 20.3844 192.6 20.5878 192.6 20.8C192.6 21.0121 192.516 21.2155 192.366 21.3656L185.966 27.7656C185.816 27.9155 185.612 27.9998 185.4 27.9998C185.188 27.9998 184.985 27.9155 184.835 27.7656L181.635 24.5656C181.489 24.4147 181.408 24.2126 181.41 24.0028C181.412 23.7931 181.496 23.5924 181.644 23.4441C181.793 23.2958 181.993 23.2116 182.203 23.2098C182.413 23.208 182.615 23.2886 182.766 23.4344L185.4 26.0688L191.235 20.2344C191.385 20.0844 191.588 20.0001 191.8 20.0001C192.012 20.0001 192.216 20.0844 192.366 20.2344Z" fill="white"/>
<rect x="203" y="23.5" width="48" height="1" fill="#181818"/>
<circle cx="267" cy="24" r="12" fill="#181818"/>
<path fill-rule="evenodd" clip-rule="evenodd" d="M272.366 20.2344C272.516 20.3844 272.6 20.5878 272.6 20.8C272.6 21.0121 272.516 21.2155 272.366 21.3656L265.966 27.7656C265.816 27.9155 265.612 27.9998 265.4 27.9998C265.188 27.9998 264.985 27.9155 264.835 27.7656L261.635 24.5656C261.489 24.4147 261.408 24.2126 261.41 24.0028C261.412 23.7931 261.496 23.5924 261.644 23.4441C261.793 23.2958 261.993 23.2116 262.203 23.2098C262.413 23.208 262.615 23.2886 262.766 23.4344L265.4 26.0688L271.235 20.2344C271.385 20.0844 271.588 20.0001 271.8 20.0001C272.012 20.0001 272.216 20.0844 272.366 20.2344Z" fill="white"/>
<rect x="283" y="23.5" width="48" height="1" fill="#181818"/>
<circle cx="347" cy="24" r="11.5" stroke="#181818"/>
<path d="M345.503 24.3721L344.19 24.0508L344.73 19.0469H350.097V20.4414H346.098L345.824 22.8818C345.979 22.7907 346.193 22.7018 346.467 22.6152C346.74 22.5241 347.052 22.4785 347.403 22.4785C347.873 22.4785 348.292 22.556 348.661 22.7109C349.035 22.8613 349.352 23.0824 349.611 23.374C349.871 23.6611 350.069 24.012 350.206 24.4268C350.343 24.8369 350.411 25.2995 350.411 25.8145C350.411 26.2747 350.343 26.7054 350.206 27.1064C350.074 27.5075 349.873 27.8607 349.604 28.166C349.336 28.4714 348.996 28.7106 348.586 28.8838C348.18 29.0524 347.7 29.1367 347.144 29.1367C346.729 29.1367 346.33 29.0775 345.947 28.959C345.569 28.8359 345.229 28.6559 344.929 28.4189C344.628 28.1774 344.386 27.8812 344.204 27.5303C344.022 27.1748 343.917 26.7669 343.89 26.3066H345.503C345.544 26.6302 345.633 26.9059 345.77 27.1338C345.911 27.3571 346.098 27.528 346.33 27.6465C346.562 27.765 346.831 27.8242 347.137 27.8242C347.415 27.8242 347.654 27.7764 347.854 27.6807C348.055 27.5804 348.221 27.4391 348.354 27.2568C348.49 27.07 348.59 26.8512 348.654 26.6006C348.723 26.3499 348.757 26.0719 348.757 25.7666C348.757 25.4749 348.718 25.2083 348.641 24.9668C348.568 24.7253 348.456 24.5156 348.306 24.3379C348.16 24.1602 347.975 24.0234 347.752 23.9277C347.529 23.8275 347.271 23.7773 346.979 23.7773C346.588 23.7773 346.287 23.8343 346.077 23.9482C345.872 24.0622 345.681 24.2035 345.503 24.3721Z" fill="#181818"/>
</svg>
