<svg width="345" height="345" viewBox="0 0 345 345" fill="none" xmlns="http://www.w3.org/2000/svg">
<path fill-rule="evenodd" clip-rule="evenodd" d="M57.1533 47.0483C53.3854 47.0965 53.0624 47.1123 52.4221 47.2804C49.0554 48.1641 46.6253 50.8567 46.0706 54.3182C45.9585 55.0177 45.9655 55.3366 46.1971 60.0592C46.509 66.4234 46.801 72.5465 46.9177 75.1783C46.9641 76.2206 47.039 77.7557 47.0842 78.5895C47.1294 79.4234 47.2053 81.0343 47.2525 82.1692C47.2999 83.3042 47.3761 84.9151 47.422 85.7489C47.4679 86.5828 47.5825 88.9707 47.6766 91.0553C47.7708 93.14 47.9035 95.9448 47.9717 97.2882C48.0398 98.6317 48.1336 100.622 48.1801 101.71C48.2266 102.799 48.3032 104.41 48.3502 105.29C48.3973 106.17 48.5116 108.52 48.6044 110.512C48.8461 115.706 49.0869 120.801 49.2352 123.862C49.4868 129.058 49.9495 138.843 50.0317 140.708C50.0777 141.75 50.1552 143.361 50.2038 144.288C50.2997 146.114 50.8225 157.173 50.9584 160.249C51.0045 161.291 51.0822 162.902 51.1312 163.829C51.2217 165.538 51.8435 178.717 51.9321 180.801C51.9587 181.426 51.9953 182.127 52.0136 182.359C52.0319 182.591 52.0692 183.292 52.0964 183.917C52.1771 185.768 52.7998 198.985 52.9397 201.816C53.0106 203.252 53.2188 207.649 53.4023 211.586C53.5857 215.524 53.7757 219.504 53.8244 220.43C53.873 221.357 53.9505 222.968 53.9965 224.01C54.0875 226.074 54.5872 236.627 54.7922 240.814C54.8624 242.25 54.9773 244.676 55.0474 246.204C55.1176 247.733 55.1941 249.325 55.2174 249.742C55.2409 250.159 55.3351 252.149 55.4269 254.164C55.5187 256.179 55.632 258.548 55.6787 259.428C55.7254 260.308 55.8016 261.919 55.8482 263.008C55.8948 264.097 55.9893 266.105 56.0583 267.472C56.1273 268.839 56.2592 271.605 56.3514 273.621C56.4437 275.636 56.5408 277.739 56.5673 278.295C56.619 279.385 56.7852 280.486 56.9996 281.159C57.3146 282.149 58.0641 283.418 58.8757 284.336C59.6587 285.222 61.2208 286.202 62.461 286.587C63.909 287.035 61.8294 287.012 100.426 287.012C132.965 287.013 136.21 287.001 136.311 286.88C136.392 286.783 136.398 286.708 136.333 286.606C136.251 286.475 133.951 286.462 103.692 286.423L71.1387 286.38L70.4226 286.188C69.5004 285.942 68.1812 285.293 67.4317 284.717C65.7968 283.46 64.6183 281.396 64.3606 279.339C64.3119 278.95 64.1952 277.097 64.1013 275.221C63.9317 271.834 63.7202 267.826 63.4723 263.303C63.3216 260.553 63.08 256.035 62.8416 251.511C62.7488 249.75 62.6158 247.268 62.546 245.994C62.4762 244.72 62.3428 242.237 62.2496 240.477C61.8529 232.984 61.738 230.835 61.6193 228.685C61.5503 227.434 61.4744 225.994 61.4507 225.484C61.427 224.974 61.3515 223.496 61.2827 222.199C61.214 220.902 61.1001 218.666 61.0297 217.23C60.8943 214.471 60.8889 214.358 60.6884 210.197C60.4958 206.2 59.9855 195.402 59.8943 193.393C59.85 192.42 59.7749 190.847 59.7272 189.898C59.6796 188.948 59.5644 186.503 59.4714 184.465C59.3784 182.426 59.2896 180.56 59.274 180.317C59.2585 180.073 59.2677 179.874 59.2948 179.874C59.3217 179.874 59.5217 180.115 59.7392 180.408C60.9754 182.078 62.9737 183.944 64.6283 184.973C65.107 185.271 65.0783 185.122 65.1967 187.918C65.2438 189.03 65.3209 190.679 65.3682 191.582C65.4154 192.485 65.6043 196.314 65.7881 200.089C65.9718 203.865 66.1612 207.655 66.2092 208.512C66.2571 209.369 66.3345 210.923 66.3812 211.965C66.4279 213.008 66.5029 214.543 66.5478 215.377C66.5927 216.21 66.6682 217.708 66.7155 218.704C66.858 221.699 67.0453 225.47 67.1362 227.169C67.1832 228.049 67.2598 229.603 67.3065 230.622C67.3531 231.641 67.447 233.536 67.515 234.833C67.5831 236.131 67.716 238.803 67.8103 240.772C67.9047 242.74 68.0379 245.431 68.1064 246.752C68.1748 248.072 68.2504 249.588 68.2742 250.121C68.298 250.654 68.3736 252.17 68.442 253.49C68.5105 254.81 68.6436 257.501 68.738 259.47C68.8323 261.439 68.965 264.092 69.0329 265.366C69.1007 266.64 69.1956 268.573 69.2438 269.662C69.3925 273.02 69.4893 274.242 69.6593 274.906C70.3708 277.688 72.3943 279.794 75.201 280.674L75.9409 280.906L124.378 280.949L172.814 280.991L172.962 281.677C174.197 287.414 178.749 292.109 184.58 293.656C186.098 294.059 186.772 294.126 189.34 294.126C191.5 294.127 191.901 294.105 192.8 293.94C199.609 292.692 204.616 287.703 205.913 280.872C206.096 279.913 206.099 279.745 206.128 271.252C206.154 263.365 206.145 262.595 206.02 262.471C205.902 262.353 205.621 262.334 203.951 262.334C202.889 262.334 202.02 262.313 202.02 262.287C202.02 262.262 202.242 261.854 202.514 261.382C204.682 257.62 206.585 253.896 207.452 251.721C210.064 245.167 210.936 238.284 210.147 230.454C209.734 226.357 208.995 222.455 207.37 215.798C206.155 210.817 205.701 208.781 205.345 206.71C205.119 205.397 205.028 205.132 204.703 204.838C204.388 204.553 204.128 204.449 203.713 204.445C203.221 204.439 202.682 204.711 202.456 205.077C202.311 205.314 201.812 206.697 201.051 208.975C198.721 215.953 197.003 222.454 196.122 227.63C196.024 228.208 195.93 228.694 195.915 228.709C195.9 228.725 195.726 228.252 195.529 227.658C195.098 226.359 194.162 223.996 193.628 222.858C191.144 217.563 189.862 213.113 189.24 207.628C189.048 205.936 189.022 200.398 189.197 198.784C189.602 195.068 190.277 191.905 191.357 188.676C191.558 188.074 192.77 184.963 194.049 181.763C195.328 178.563 196.374 175.834 196.373 175.699C196.37 175.342 196.102 174.806 195.799 174.551C195.246 174.085 194.425 174.04 193.94 174.447C193.806 174.561 193 175.418 192.15 176.353C191.299 177.288 189.926 178.794 189.098 179.7C185.459 183.682 183.394 186.458 181.121 190.424L180.553 191.414L180.504 190.845C180.477 190.532 180.434 189.746 180.408 189.097C180.382 188.449 180.324 187.274 180.28 186.486C180.236 185.699 180.161 184.183 180.114 183.117C180.067 182.052 179.972 180.138 179.904 178.864C179.837 177.59 179.704 174.936 179.61 172.968C179.515 170.999 179.383 168.308 179.315 166.987C179.247 165.667 179.171 164.151 179.148 163.618C179.124 163.085 179.047 161.55 178.977 160.207C178.847 157.704 178.555 151.687 178.471 149.805C178.446 149.226 178.405 148.578 178.379 148.366L178.334 147.98L179.077 147.445C193.448 137.109 199.963 118.972 195.49 101.752C194.991 99.8332 194.553 98.5299 193.763 96.6144C192.775 94.2161 192.784 94.299 193.301 92.4872C194.109 89.6598 194.477 86.494 194.35 83.4748C194.249 81.0738 193.936 79.642 193.186 78.1513C192.183 76.1576 190.98 75.4212 189.349 75.8034C188.487 76.0054 187.827 76.3902 187.104 77.1127C186.067 78.1477 185.523 79.4475 185.331 81.35C185.225 82.4012 185.268 83.2923 185.512 85.1075C185.709 86.573 185.717 87.1967 185.545 87.858C185.227 89.0799 184.796 89.0387 183.886 87.699C182.843 86.1631 180.815 84.7147 179.643 84.6685C178.882 84.6385 178.811 85.1134 179.462 85.8676C180.069 86.5703 180.817 87.7872 182.146 90.2336C183.436 92.608 183.687 92.917 184.859 93.5822L185.601 94.0033L185.55 95.0983C185.257 101.355 183.382 106.899 179.935 111.703C178.951 113.074 176.876 115.515 176.778 115.416C176.766 115.404 176.716 114.599 176.668 113.627C176.503 110.271 176.324 106.713 176.196 104.195C176.076 101.848 175.674 93.7289 175.48 89.7498C175.433 88.8001 175.338 86.905 175.269 85.5384C175.199 84.1718 174.992 79.9646 174.807 76.189C174.623 72.4135 174.416 68.2442 174.346 66.9239C174.277 65.6036 174.198 63.898 174.17 63.1336C174.111 61.542 173.959 60.4155 173.7 59.659C172.835 57.131 170.932 55.2912 168.345 54.4799L167.604 54.2475L148.184 54.2054L128.765 54.1633L129.247 53.9373C130.267 53.4593 131.208 52.699 131.861 51.8255C132.111 51.4898 132.799 50.4099 133.389 49.4254L134.462 47.6355H152.869C172.594 47.6355 171.714 47.6183 172.951 48.0296C174.882 48.672 176.645 50.2209 177.585 52.0997C178.169 53.2677 178.402 54.2566 178.471 55.8622C178.525 57.1005 178.727 62.1407 178.852 65.3656C178.898 66.5701 178.973 68.4084 179.018 69.4507C179.063 70.4931 179.119 71.8955 179.144 72.5672C179.255 75.6056 179.293 76.1133 179.416 76.2362C179.572 76.3924 179.65 76.3891 179.821 76.2183C179.93 76.1091 179.95 75.978 179.913 75.6077C179.888 75.3483 179.846 74.5676 179.82 73.8727C179.714 71.0106 179.432 63.9106 179.317 61.1963C179.249 59.5981 179.17 57.5703 179.143 56.6901C179.068 54.3101 178.85 53.2004 178.197 51.8891C177.568 50.6255 176.632 49.5039 175.481 48.6354C174.817 48.1345 173.469 47.5031 172.49 47.2348L171.648 47.0038L116.423 47.0001C86.0487 46.9982 59.3775 47.0198 57.1533 47.0483ZM97.8579 47.9099C97.9574 48.0601 98.464 48.8653 98.9838 49.6991C99.5036 50.533 100.093 51.4462 100.293 51.7285C100.914 52.6027 101.938 53.4358 103.007 53.9366L103.49 54.1633L84.4921 54.2071C66.9752 54.2475 65.4546 54.2621 64.9885 54.3935C63.4397 54.8307 62.2656 55.5321 61.1969 56.6587C60.1888 57.7214 59.5667 58.8282 59.2145 60.1857C58.8871 61.4476 58.8844 61.3019 59.4301 71.8934C59.4981 73.2136 59.5916 75.1277 59.6377 76.1469C59.684 77.1661 59.7615 78.7201 59.8101 79.6003C59.8587 80.4804 60.0479 84.2707 60.2305 88.0231C60.4131 91.7755 60.621 95.9827 60.6925 97.3725C60.764 98.7622 60.972 102.951 61.1547 106.68C61.3375 110.409 61.5454 114.597 61.6167 115.987C61.688 117.377 61.8971 121.584 62.0811 125.336C62.2653 129.089 62.4736 133.296 62.544 134.686C62.6144 136.075 62.7496 138.75 62.8443 140.629L63.0166 144.045L62.3913 144.967C60.8535 147.233 59.4092 149.942 58.4483 152.362C58.2619 152.832 58.0801 153.246 58.0443 153.283C57.9799 153.35 57.9503 152.872 57.7847 149.089C57.738 148.023 57.6441 146.052 57.5759 144.709C57.5078 143.365 57.3743 140.561 57.2792 138.476C57.1842 136.391 57.0729 134.079 57.032 133.338C56.9777 132.355 56.9836 131.959 57.0537 131.874C57.1605 131.745 57.154 130.951 57.0261 128.537C56.982 127.703 56.9065 126.092 56.8584 124.957C56.8103 123.822 56.7151 121.738 56.6471 120.325C56.579 118.912 56.4471 116.031 56.3541 113.923C56.261 111.816 56.1467 109.352 56.1001 108.449C56.0535 107.545 55.9771 105.877 55.9303 104.742C55.8548 102.912 55.7888 101.502 55.6346 98.4253C55.6102 97.9389 55.5157 95.8353 55.4245 93.7507C55.3335 91.666 55.2213 89.2213 55.1754 88.3179C55.1295 87.4146 55.0528 85.7658 55.0051 84.654C54.9574 83.5422 54.8623 81.4575 54.7939 80.0214C54.7254 78.5853 54.5934 75.6857 54.5004 73.5779C54.4074 71.4701 54.2936 69.0064 54.2475 68.1031C54.2013 67.1997 54.1248 65.5699 54.0775 64.4812C54.03 63.3926 53.9531 61.7059 53.9064 60.7331C53.6293 54.9537 53.6302 54.8798 53.9976 53.5408C54.6126 51.2996 56.2942 49.3199 58.4068 48.3499C58.9935 48.0804 60.0192 47.7631 60.5233 47.6949C60.6623 47.6761 69.0788 47.6553 79.2266 47.6488L97.6771 47.6367L97.8579 47.9099ZM224.851 47.8966C216.633 48.4307 209.215 50.9573 203.947 55.0161C198.248 59.4071 195.13 65.552 194.593 73.4516C194.481 75.0989 194.555 78.9323 194.702 79.11C194.938 79.3937 195.142 79.1995 195.687 78.1721C196.454 76.7256 197.146 75.7496 198.018 74.8835C199.106 73.8034 200.065 73.2964 201.354 73.1192C202.285 72.9914 203.716 73.5242 204.836 74.4158C205.462 74.9136 207.005 76.4971 208.083 77.748C211.585 81.811 213.749 83.8274 216.332 85.4331C219.726 87.5434 223.838 88.8385 228.453 89.2504C229.113 89.3094 229.654 89.3795 229.654 89.4063C229.655 89.4331 229.765 89.9316 229.9 90.514C230.3 92.2457 230.73 93.4336 231.513 94.972C234.123 100.097 239.083 103.676 245.683 105.198C250.476 106.302 254.109 106.003 260.236 103.998C264.489 102.606 265.908 102.351 267.596 102.674C270.731 103.274 273.029 106.189 274.007 110.807C274.352 112.433 274.327 112.362 274.567 112.39C274.826 112.421 275.127 112.017 276.121 110.302C278.502 106.197 280.014 101.627 280.549 96.9164C280.701 95.5784 280.72 95.0389 280.682 93.2032C280.636 90.9896 280.541 90.0598 280.16 88.1351C279.412 84.3476 277.627 80.2953 275.237 76.9557C270.867 70.8508 264.522 66.6087 257.708 65.2378L256.571 65.009L256.548 64.682C256.385 62.3044 255.645 59.9731 254.475 58.1437C250.86 52.4942 241.966 48.5676 231.254 47.8919C229.675 47.7924 226.419 47.7947 224.851 47.8966ZM231.296 48.5254C237.092 48.9139 242.279 50.2006 246.449 52.2848C248.756 53.4375 250.545 54.6921 252.064 56.2228C254.354 58.5314 255.591 61.1476 255.824 64.1754L255.88 64.9133L255.13 64.8447C253.987 64.7401 250.28 64.7671 249.283 64.8873C244.373 65.4792 240.469 66.9505 237.194 69.4426C233.483 72.2663 230.756 76.7803 229.786 81.706C229.43 83.5139 229.296 86.2605 229.484 87.8916C229.529 88.2825 229.55 88.6174 229.532 88.6359C229.513 88.6542 228.993 88.6253 228.375 88.5717C223.666 88.1625 219.476 86.7737 216.047 84.4847C213.715 82.9283 211.91 81.2094 208.751 77.5367C207.346 75.9032 205.506 74.052 204.842 73.6047C203.577 72.7527 202.607 72.4401 201.43 72.5054C199.164 72.631 197.361 74.0785 195.389 77.354L195.22 77.6345L195.164 76.7223C195.038 74.6907 195.356 71.2244 195.883 68.8713C197.902 59.8684 204.226 53.6124 214.531 50.4248C219.585 48.8613 225.801 48.1572 231.296 48.5254ZM167.966 55.0206C170.765 55.844 172.812 58.0452 173.327 60.7854C173.391 61.1272 173.468 61.8807 173.497 62.4598C173.644 65.3937 174.217 77.1373 174.261 78.1263C174.289 78.7517 174.326 79.4339 174.344 79.6424C174.362 79.8508 174.399 80.5141 174.426 81.1164C174.541 83.6472 175.144 95.8997 175.227 97.3725C175.276 98.2527 175.354 99.8067 175.4 100.826C175.504 103.1 176.044 114.067 176.11 115.23L176.158 116.074L175.714 116.499C173.517 118.605 170.019 121.036 167.056 122.517C165.878 123.106 164.736 123.61 164.578 123.61C164.521 123.61 164.252 123.297 163.981 122.915C161.741 119.759 158.735 116.39 155.851 113.803C149.927 108.489 143.262 104.673 135.631 102.227C133.952 101.689 131.232 100.994 129.797 100.737C129.445 100.674 129.399 100.547 129.647 100.322C129.739 100.24 129.836 100.103 129.863 100.019C129.893 99.923 129.398 98.7132 128.548 96.8079C127.799 95.1264 127.134 93.649 127.07 93.5248L126.955 93.299L127.439 93.2025C128.607 92.9693 129.298 92.7709 129.797 92.5251C131.478 91.6977 133.071 89.4928 133.711 87.1061C133.989 86.0662 133.97 84.6378 133.665 83.7142C133.14 82.1231 131.928 80.9579 130.073 80.2615C129.029 79.8696 127.955 79.6967 126.912 79.7525C126.011 79.8006 125.543 79.9314 124.467 80.4349C123.49 80.8927 122.789 81.0791 121.857 81.1299C120.773 81.1887 120.093 81.0459 118.848 80.4975C117.402 79.8608 117.14 79.7993 115.655 79.7493C113.675 79.6827 112.224 79.9053 110.82 80.4911C109.384 81.0901 108.291 82.2125 107.913 83.4748C107.858 83.6601 107.784 84.6645 107.749 85.7068C107.69 87.4658 107.67 87.643 107.465 88.173C107.072 89.1921 106.382 90.0655 105.511 90.6451C105.279 90.7998 104.669 91.1104 104.156 91.3355C102.659 91.9918 102.071 92.4935 101.474 93.6259C100.982 94.5586 100.802 95.4131 100.799 96.825C100.795 98.5406 101.1 99.8617 101.912 101.649C102.076 102.009 102.194 102.315 102.176 102.329C102.157 102.343 101.668 102.518 101.089 102.717C92.0286 105.831 83.6209 111.573 77.2985 118.964C72.2135 124.908 68.4143 131.922 66.2601 139.343C65.9682 140.349 65.9429 140.398 65.3888 141.028C65.0748 141.385 64.558 142.01 64.2403 142.418C63.9225 142.825 63.6515 143.147 63.6381 143.134C63.5974 143.092 62.9631 130.782 62.6734 124.41C62.6271 123.391 62.5497 121.856 62.5015 120.999C62.4532 120.142 62.2645 116.37 62.0819 112.618C61.8994 108.865 61.6907 104.639 61.6182 103.226C61.4277 99.5142 60.9209 89.2656 60.8207 87.0966C60.7736 86.0774 60.6954 84.5234 60.6469 83.6432C60.5497 81.8811 60.0285 71.3315 59.8937 68.3979C59.8468 67.3787 59.7877 66.2416 59.7623 65.871C59.6332 63.9902 59.5801 61.8916 59.6468 61.2966C59.9914 58.2164 62.355 55.6378 65.4519 54.963C66.145 54.8121 67.7933 54.8075 116.76 54.8233L167.351 54.8396L167.966 55.0206ZM69.1575 58.3621C66.6528 59.0253 64.6169 61.0815 63.8494 63.7232C63.4948 64.9437 63.5204 65.8717 64.395 83.5169C64.4626 84.8835 64.5985 87.821 64.6968 90.0446C64.7951 92.2682 64.9096 94.1729 64.9513 94.2771C65.0357 94.4882 65.2961 94.5279 65.4422 94.352C65.5378 94.2367 65.5083 93.2263 65.2831 88.9075C65.236 88.0042 65.1224 85.5973 65.0305 83.559C64.9387 81.5207 64.8256 79.1328 64.7791 78.2526C64.7327 77.3724 64.6555 75.7805 64.6076 74.715C64.5597 73.6495 64.483 72.0197 64.4372 71.0932C64.1441 65.1563 64.1442 65.127 64.4559 63.9759C65.1369 61.4617 66.9338 59.6265 69.3694 58.9578C69.948 58.7989 70.8487 58.7958 116.76 58.7958H163.56L164.189 58.9932C166.126 59.6015 167.507 60.7775 168.408 62.5861C169.017 63.8103 169.149 64.4377 169.247 66.587C169.292 67.583 169.367 69.118 169.414 69.9982C169.461 70.8784 169.537 72.4893 169.582 73.5779C169.628 74.6666 169.704 76.2774 169.751 77.1576C169.799 78.0378 169.914 80.4447 170.007 82.5061C170.101 84.5676 170.233 87.3724 170.301 88.7391C170.368 90.1057 170.443 91.6597 170.467 92.1924C170.491 92.7252 170.568 94.3739 170.639 95.8564C170.71 97.3388 170.819 99.598 170.88 100.877C170.941 102.156 171.018 103.246 171.051 103.299C171.134 103.434 171.397 103.418 171.52 103.27C171.601 103.173 171.603 102.734 171.527 101.228C171.475 100.173 171.319 96.9219 171.182 94.0033C170.791 85.6934 170.77 85.2344 170.634 82.4219C170.563 80.9627 170.356 76.5659 170.174 72.6514C169.798 64.5929 169.807 64.7232 169.585 63.8538C168.885 61.1189 166.684 58.9228 164.012 58.2931C163.538 58.1814 158.013 58.1669 116.675 58.1694L69.8749 58.1722L69.1575 58.3621ZM212.066 64.2001C211.913 64.2619 211.935 64.7059 212.094 64.767C212.287 64.8408 242.652 64.8276 242.76 64.7537C242.926 64.6399 242.96 64.4043 242.829 64.2731C242.714 64.1585 241.026 64.1451 227.436 64.151C219.04 64.1546 212.124 64.1768 212.066 64.2001ZM255.518 65.5309C263.117 66.4456 270.065 70.7142 274.786 77.3682C275.261 78.0381 276.412 79.8501 276.412 79.9288C276.412 79.9482 276.566 80.2361 276.754 80.5685C277.145 81.2585 277.997 83.1499 278.362 84.1403C280.953 91.1677 280.626 98.748 277.404 106.301C276.652 108.065 275.091 111.013 274.822 111.179C274.781 111.204 274.703 110.989 274.647 110.7C274.445 109.643 273.823 107.742 273.4 106.89C272.09 104.25 270.176 102.579 267.891 102.083C267.55 102.008 266.872 101.946 266.386 101.944C264.878 101.937 263.644 102.216 260.193 103.343C255.576 104.851 253.547 105.221 250.336 105.137C248.146 105.081 246.826 104.878 244.671 104.268C239.486 102.8 235.397 99.9762 232.918 96.1512C231.029 93.238 230.04 89.7204 230.04 85.9174C230.039 83.463 230.349 81.5183 231.098 79.2633C232.873 73.9193 236.544 69.8197 241.554 67.588C244.401 66.3196 247.311 65.6417 251.053 65.3752C251.909 65.3142 254.455 65.403 255.518 65.5309ZM218.986 69.6564C218.96 69.7231 218.953 69.8463 218.969 69.9302C218.997 70.0756 219.352 70.0834 226.85 70.1039L234.702 70.1254L234.795 69.9511C235.026 69.5205 235.301 69.535 226.86 69.535C220.121 69.535 219.026 69.5518 218.986 69.6564ZM190.983 76.5328C191.531 76.781 192.09 77.4246 192.568 78.3607C193.481 80.1435 193.711 81.4154 193.716 84.6961C193.72 86.7115 193.695 87.171 193.527 88.2337C193.21 90.2396 193.001 91.2545 192.694 92.2767C192.52 92.857 192.385 93.5154 192.358 93.9191C192.304 94.7134 192.35 94.8725 193.3 97.1675C194.63 100.383 195.487 103.787 196.01 107.943C196.138 108.959 196.163 109.759 196.16 112.702C196.155 116.045 196.143 116.33 195.932 117.882C195.402 121.784 194.541 125.1 193.184 128.468C192.755 129.534 191.952 131.336 191.864 131.43C191.818 131.48 190.654 131.272 189.722 131.048C186.795 130.343 183.808 128.833 181.21 126.742C180.034 125.796 178.08 123.812 177.062 122.53C175.929 121.102 174.338 118.734 174.399 118.566C174.415 118.523 174.769 118.193 175.186 117.832C181.082 112.735 184.806 106.004 185.877 98.5096C186.069 97.1686 186.197 95.3643 186.166 94.4295L186.139 93.5922L185.38 93.1661C184.34 92.5811 183.894 92.1068 183.238 90.8849C182.94 90.3301 182.583 89.6677 182.446 89.4129C181.645 87.927 180.598 86.2289 180.14 85.6752C180.03 85.542 179.957 85.4149 179.98 85.3928C180.053 85.3194 180.971 85.7862 181.495 86.163C182.144 86.6308 182.825 87.3339 183.429 88.1618C184.241 89.2727 184.812 89.5986 185.396 89.2841C186.197 88.8527 186.478 87.1776 186.121 84.9596C185.914 83.6761 185.916 81.1854 186.124 80.2741C186.351 79.2826 186.928 78.1408 187.484 77.5847C188.559 76.5102 189.986 76.0813 190.983 76.5328ZM240.133 82.9643C240.107 83.0311 240.099 83.1545 240.115 83.2383C240.143 83.3845 240.725 83.3905 254.676 83.3905H269.208V83.1379V82.8852L254.694 82.8639C242.104 82.8454 240.173 82.8587 240.133 82.9643ZM249.287 86.6714C249.231 86.7387 249.198 86.8619 249.214 86.9452C249.242 87.089 249.51 87.0966 254.583 87.0966C259.474 87.0966 259.93 87.0848 260.011 86.9563C260.075 86.8544 260.069 86.7793 259.989 86.6825C259.89 86.5634 259.316 86.5491 254.633 86.5491C250.151 86.5491 249.374 86.5669 249.287 86.6714ZM125.493 91.5407C125.64 91.8761 126.535 93.8817 127.482 95.9978L129.205 99.8453L128.519 100.677L127.833 101.508L127.899 102.388C127.935 102.872 127.943 103.666 127.916 104.153C127.753 107.124 127.105 108.727 125.927 109.077C125.707 109.142 124.985 109.301 124.324 109.43C123.338 109.622 122.892 109.664 121.857 109.665C120.689 109.665 120.542 109.647 119.92 109.43C119.549 109.3 119.019 109.057 118.74 108.889C118.17 108.546 117.177 107.63 116.914 107.205C116.777 106.983 116.693 106.929 116.518 106.949C115.659 107.048 117.229 108.841 118.895 109.664C119.847 110.134 120.489 110.292 121.709 110.359C122.231 110.387 122.658 110.434 122.659 110.462C122.661 110.537 122.833 111.629 123.491 115.729C123.838 117.897 124.129 119.472 124.192 119.532C124.251 119.589 125.722 120.056 127.459 120.571C129.197 121.087 130.704 121.544 130.808 121.588C131.182 121.747 131.041 121.974 130.429 122.2C128.49 122.915 125.923 123.555 123.457 123.937C121.422 124.253 120.321 124.325 117.56 124.326C114.26 124.326 112.673 124.19 109.514 123.64C107.35 123.263 103.909 122.442 103.916 122.304C103.919 122.221 104.911 121.924 109.135 120.742C110.34 120.404 111.392 120.072 111.473 120.003C111.554 119.934 111.62 119.781 111.62 119.664C111.62 119.547 111.695 118.974 111.785 118.393C111.876 117.811 112.029 116.804 112.125 116.155C112.221 115.507 112.354 114.616 112.42 114.176C113.621 106.19 113.968 103.694 113.89 103.6C113.843 103.543 113.46 103.485 112.974 103.461C111.999 103.414 111.393 103.175 110.938 102.657C110.33 101.964 109.904 100.516 110.097 99.7984C110.291 99.0786 110.869 98.9335 112.147 99.2837C112.794 99.461 112.825 99.4623 112.932 99.3158C113.027 99.1861 113.012 99.0803 112.833 98.6049C112.388 97.4288 112.256 96.0735 112.496 95.1699C112.753 94.2062 113.441 93.3515 114.364 92.8515C115.77 92.0893 117.126 91.9517 119.615 92.3181C120.986 92.5198 121.238 92.5353 121.797 92.4523C122.879 92.2912 124.184 91.7322 124.935 91.107C125.049 91.0121 125.161 90.9339 125.184 90.933C125.208 90.932 125.346 91.2055 125.493 91.5407ZM65.3173 101.302C65.2484 101.414 65.2504 101.526 65.3658 103.984C65.4127 104.98 65.508 107.046 65.5779 108.575C65.6477 110.104 65.7227 111.639 65.7446 111.986C65.7665 112.334 65.8621 114.418 65.957 116.619C66.156 121.23 66.1928 121.661 66.3981 121.789C66.5099 121.859 66.5767 121.847 66.6843 121.74C66.8367 121.588 66.83 121.321 66.5073 114.681C66.4386 113.269 66.3245 110.9 66.2538 109.417C65.9115 102.246 65.8627 101.42 65.7755 101.315C65.6622 101.179 65.3983 101.171 65.3173 101.302ZM129.954 101.41C142.034 103.889 152.913 110.4 160.858 119.904C162.042 121.32 163.917 123.832 163.842 123.901C163.72 124.014 161.577 124.611 160.527 124.826C159.301 125.076 157.61 125.221 155.893 125.223C152.842 125.226 150.467 124.914 144.899 123.777C137.672 122.301 135.664 121.932 132.725 121.541C131.983 121.443 131.575 121.349 131.461 121.252C131.176 121.009 131.29 121.046 126.575 119.649C125.601 119.361 124.776 119.098 124.74 119.065C124.672 119.004 124.576 118.463 124.049 115.187C123.881 114.144 123.633 112.612 123.498 111.78C123.362 110.949 123.26 110.264 123.27 110.258C123.28 110.252 123.876 110.14 124.595 110.01C126.281 109.705 126.669 109.559 127.143 109.052C128.116 108.012 128.578 106.072 128.545 103.162C128.528 101.654 128.532 101.619 128.724 101.414C128.832 101.299 128.928 101.205 128.937 101.205C128.945 101.205 129.403 101.297 129.954 101.41ZM102.988 103.493C103.552 104.318 104.599 105.405 105.42 106.017C106.295 106.671 107.592 107.302 108.503 107.519C109.531 107.763 110.98 107.749 111.999 107.485C112.417 107.377 112.767 107.297 112.778 107.306C112.795 107.321 112.083 112.189 111.415 116.619C111.3 117.383 111.159 118.343 111.1 118.752C111.029 119.255 110.953 119.517 110.865 119.562C110.746 119.623 109.992 119.84 106.355 120.862C105.613 121.07 104.685 121.283 104.291 121.335C99.5555 121.962 93.7718 123.681 87.3566 126.369C86.5921 126.689 85.3978 127.17 84.7028 127.437C82.9702 128.102 79.2121 129.972 77.3471 131.097C73.9 133.176 71.1982 135.221 68.3118 137.938C67.5729 138.633 66.9683 139.185 66.9683 139.164C66.9683 139.143 67.1919 138.449 67.4652 137.622C69.6597 130.98 73.167 124.782 77.8044 119.351C79.1391 117.788 82.1419 114.777 83.6337 113.506C89.2088 108.754 95 105.47 102.1 103.033C102.309 102.961 102.501 102.9 102.528 102.896C102.554 102.892 102.762 103.161 102.988 103.493ZM174.041 119.336C174.152 119.532 174.508 120.091 174.832 120.577C178.945 126.751 184.451 130.714 190.541 131.885C191.062 131.985 191.488 132.099 191.488 132.137C191.488 132.175 191.219 132.688 190.889 133.278C188.03 138.384 184.037 142.936 179.314 146.472C174.028 150.432 167.834 153.089 161.159 154.263C158.603 154.712 157.417 154.804 154.04 154.81C151.856 154.814 150.562 154.781 149.969 154.706C149.325 154.624 149.07 154.619 148.986 154.689C148.575 155.03 147.226 161.175 146.804 164.629C146.446 167.553 146.339 171.963 146.567 174.357C147.032 179.233 147.954 182.54 150.281 187.687C151.562 190.519 152.055 192.003 152.059 193.039C152.062 193.929 151.56 195.132 150.956 195.682C150.256 196.32 149.058 196.786 147.499 197.029C146.284 197.218 142.626 197.232 136.642 197.071C126.357 196.794 118.546 197.58 107.492 200.005C102.546 201.089 100.39 201.471 98.5152 201.593C95.3048 201.801 93.2518 201.151 91.6059 199.405C90.6492 198.39 90.1097 196.578 89.5525 192.509C89.2801 190.52 89.0302 188.085 88.849 185.654C88.8313 185.416 88.8491 185.406 89.8841 185.056C93.5996 183.8 96.834 182.164 99.2959 180.295C99.8759 179.855 100.393 179.471 100.446 179.441C100.499 179.411 100.85 179.346 101.228 179.298C102.565 179.126 103.838 178.462 105.288 177.182C105.899 176.642 107.479 174.963 108.714 173.539L109.051 173.151L110.399 173.059C112.473 172.918 116.098 172.642 117.223 172.539C118.303 172.44 118.598 172.333 118.896 171.933C119.062 171.711 119.07 171.608 119.049 169.87C119.036 168.863 118.991 166.808 118.948 165.303C118.905 163.797 118.827 160.708 118.774 158.438C118.664 153.725 118.678 153.81 117.984 153.503C117.648 153.355 117.53 153.348 116.578 153.426C114.76 153.574 111.405 153.834 108.882 154.021C106.125 154.225 105.978 154.263 105.65 154.85C105.456 155.198 105.454 155.229 105.552 156.009C105.607 156.449 105.64 156.822 105.625 156.836C105.609 156.85 105.331 156.806 105.007 156.737C103.676 156.455 102.396 156.714 101.608 157.425C100.097 158.79 100.5 161.989 102.568 165.05C102.834 165.444 103.053 165.807 103.054 165.858C103.055 165.949 98.6091 171.243 98.3831 171.419C98.125 171.621 94.6105 172.499 92.7064 172.837C91.641 173.026 89.7231 173.217 88.8612 173.219L88.1332 173.22L88.0902 167.682C88.0421 161.492 87.9396 159.707 87.5926 159.012C87.155 158.136 86.3246 157.622 85.3529 157.625C84.6906 157.627 84.2949 157.755 83.3363 158.277C80.7736 159.674 79.2484 161.749 78.2664 165.173C77.8037 166.787 77.3442 169.645 77.5006 169.937C77.6303 170.18 77.6158 170.188 77.0572 170.189C75.5536 170.194 73.9284 170.944 73.021 172.054C72.0942 173.188 70.5927 175.64 69.7544 177.39C68.7178 179.553 67.7455 182.323 67.168 184.76C67.0856 185.107 66.9908 185.425 66.9571 185.465C66.9235 185.506 66.5622 185.359 66.1542 185.138C61.0668 182.388 57.4592 177.18 56.3816 171.03C56.1626 169.781 56.1626 165.081 56.3816 163.281C56.9898 158.283 58.0934 154.405 60.0731 150.31C62.1494 146.016 64.6539 142.507 68.1017 139.063C70.7777 136.389 73.5983 134.168 76.994 132.06C79.6039 130.44 82.5829 128.934 85.073 127.975C86.0259 127.608 86.6776 127.345 88.6204 126.542C91.4631 125.367 95.3038 124.026 97.7193 123.366C99.52 122.874 102.652 122.178 103.063 122.178C103.128 122.178 103.207 122.291 103.237 122.429C103.268 122.568 103.383 122.752 103.493 122.839C103.89 123.151 108.611 124.193 111.325 124.567C113.754 124.902 115.135 124.996 117.56 124.993C121.571 124.987 124.881 124.53 128.514 123.481C130.52 122.901 131.216 122.626 131.483 122.305L131.714 122.028L132.261 122.108C136.007 122.655 138.545 123.11 142.919 124.02C148.074 125.093 150.297 125.483 152.65 125.729C154.036 125.874 157.739 125.875 158.884 125.73C162.632 125.257 165.93 124.055 169.678 121.796C170.934 121.039 172.945 119.678 173.459 119.237C173.621 119.098 173.773 118.983 173.796 118.981C173.819 118.98 173.929 119.139 174.041 119.336ZM205.499 120.089C205.161 120.252 205.029 120.687 205.085 121.452C205.112 121.828 205.143 122.448 205.154 122.829L205.173 123.523L204.781 123.772C204.284 124.087 203.669 124.864 203.444 125.463C202.83 127.095 203.408 129.166 205.285 132.062C205.631 132.595 205.663 132.692 205.704 133.326C205.786 134.566 205.987 134.728 207.457 134.728H208.437L209.332 135.338C209.824 135.674 210.473 136.18 210.773 136.463L211.319 136.976L210.926 137.126C210.71 137.208 210.513 137.341 210.488 137.42C210.446 137.552 210.666 138.523 211.378 141.34C211.776 142.918 212.288 144.873 212.567 145.888C212.707 146.398 212.842 146.89 212.866 146.983C212.89 147.076 213.192 148.137 213.537 149.341C217.104 161.804 220.539 169.634 223.22 171.413C224.437 172.221 226.452 172.282 228.429 171.57C230.794 170.718 233.6 168.624 236.298 165.698C236.546 165.429 236.762 165.222 236.777 165.238C236.793 165.253 236.772 166.99 236.729 169.096C236.467 182.159 235.4 192.987 233.559 201.264C233.216 202.805 233.189 202.996 233.308 203.082C233.386 203.14 234.018 203.204 234.854 203.239C236.316 203.301 237.55 203.407 237.619 203.476C237.658 203.516 237.822 208.325 238.161 219.335C238.254 222.393 238.369 226.05 238.415 227.463C238.462 228.876 238.538 231.378 238.584 233.023C238.711 237.475 238.823 239.789 238.958 240.729C239.3 243.112 240.022 245.517 241.031 247.636C241.604 248.839 242.214 249.849 243.692 252.038C246.497 256.194 248.999 259.53 251.484 262.427C252.462 263.567 254.421 265.648 254.471 265.599C254.494 265.575 254.615 263.24 254.759 260.018C254.807 258.952 254.883 257.341 254.929 256.438C254.975 255.535 255.089 253.09 255.181 251.005C255.546 242.771 255.577 242.307 255.767 242.205C255.868 242.151 255.964 242.161 256.068 242.237C256.215 242.344 256.215 242.465 256.077 245.498C255.998 247.23 255.896 249.348 255.851 250.205C255.806 251.062 255.713 253.052 255.645 254.627C255.577 256.202 255.481 258.268 255.433 259.218C255.163 264.52 255.104 266.242 255.188 266.344C255.25 266.418 255.185 268.531 254.97 273.384L254.664 280.317L254.406 280.991C254.003 282.048 253.053 283.96 252.585 284.658C251.952 285.602 251.449 286.025 249.145 287.548C246.58 289.243 245.524 290.03 244.495 291.013C242.801 292.63 242.291 293.604 242.291 295.218C242.291 296.976 242.75 298.086 243.752 298.75C244.955 299.548 246.882 299.656 249.929 299.097C252.932 298.546 255.281 297.724 257.513 296.444C260.311 294.839 262.397 293.033 262.856 291.818C263.115 291.133 263.087 290.423 262.735 288.698C262.357 286.844 262.173 285.056 262.173 283.23V281.807L262.7 281.752C264.411 281.571 265.866 281.192 267.28 280.56C267.341 280.533 267.394 280.706 267.431 281.049C267.462 281.341 267.566 281.82 267.662 282.113C268.073 283.372 269.857 284.671 272.617 285.72C274.232 286.333 275.099 286.204 275.928 285.226C277.239 283.681 278.938 280.714 279.27 279.39C279.584 278.141 279.199 275.356 278.27 272.162C277.792 270.516 277.59 269.319 277.293 266.377C277.138 264.837 277.068 264.575 276.717 264.201C276.339 263.798 276.033 263.665 275.494 263.667C275.015 263.67 272.797 263.869 271.569 264.02C271.2 264.066 270.81 264.103 270.702 264.103H270.507L270.556 263.155C270.582 262.634 270.679 260.578 270.769 258.586C270.86 256.594 270.953 254.793 270.976 254.585C270.999 254.377 271.058 253.524 271.107 252.69C271.296 249.474 271.599 245.835 272.118 240.561C272.891 232.705 273.031 230.075 273.099 222.138C273.157 215.358 273.06 211.288 272.701 205.575L272.609 204.112L273.207 203.551L273.804 202.99L273.76 202.403C273.735 202.08 273.674 201.266 273.625 200.595C273.575 199.923 273.466 198.975 273.381 198.489C273.297 198.002 273.243 197.589 273.26 197.57C273.278 197.551 273.795 197.599 274.41 197.675C275.024 197.752 276.044 197.839 276.676 197.869L277.826 197.924L278.729 200.544C280.4 205.39 282.006 209.683 282.419 210.407L282.611 210.744H283.239H283.866L285.011 213.481C287.264 218.867 287.558 219.435 288.563 220.344C289.569 221.254 290.606 221.566 291.101 221.108C291.485 220.752 291.388 220.402 290.454 218.764C289.724 217.484 289.505 217.04 289.571 216.975C289.666 216.879 290.317 217.176 290.833 217.55C291.126 217.762 291.871 218.41 292.489 218.991C293.98 220.39 295.324 221.262 296.811 221.792C298.276 222.315 299.327 221.944 299.327 220.905C299.327 220.059 298.352 218.268 296.912 216.472C295.566 214.792 294.368 213.842 292.39 212.888C291.077 212.255 290.475 211.732 289.676 210.532C289.377 210.084 289.133 209.696 289.133 209.669C289.133 209.642 289.332 209.556 289.575 209.478C290.303 209.242 290.267 209.369 290.299 206.968C290.321 205.285 290.29 204.438 290.148 202.913C289.945 200.725 289.415 196.987 289.168 196.007C289.126 195.836 289.208 195.768 289.925 195.385C294.519 192.932 297.971 188.602 299.607 183.243C300.455 180.467 300.8 178.069 300.797 174.989C300.79 168.738 298.924 162.929 295.615 158.859C295.076 158.197 293.413 156.545 292.082 155.349C288.444 152.084 285.826 150.377 282.225 148.923C279.112 147.665 276.84 146.232 275.532 144.699C273.12 141.873 272.071 137.536 272.132 130.643C272.148 128.883 272.077 128.428 271.608 127.258C270.509 124.513 267.59 122.512 263.816 121.915C262.948 121.778 260.64 121.778 259.772 121.915C255.627 122.572 253.234 124.446 251.909 128.074C251.37 129.549 250.943 131.598 250.548 134.601C249.911 139.447 249.545 141.005 248.67 142.59L248.399 143.082L245.998 143.114C240.889 143.182 239.409 143.408 237.362 144.433C235.219 145.505 233.968 146.661 231.181 150.142C229.022 152.838 228.218 153.524 227.204 153.533C226.772 153.537 226.649 153.5 226.281 153.251C225.615 152.8 224.642 151.513 223.6 149.703C221.906 146.76 219.429 141.413 217.521 136.581C217.182 135.724 216.867 134.973 216.82 134.912C216.77 134.848 216.611 134.813 216.439 134.828L216.144 134.854L215.999 134.307C215.792 133.524 215.541 132.847 215.28 132.368L215.053 131.952L215.887 131.086C217.608 129.299 218.674 127.53 219.129 125.71C219.388 124.673 219.339 123.503 219.007 122.824C218.445 121.677 217.234 121.325 215.478 121.797L215.247 121.859V121.185C215.247 120.557 215.23 120.493 215.002 120.249L214.758 119.988L210.221 119.994C207.205 119.997 205.622 120.029 205.499 120.089ZM217.271 122.262C218.23 122.444 218.655 123.079 218.652 124.326C218.649 126.173 217.512 128.469 215.65 130.389L214.831 131.232L214.828 130.783C214.826 130.412 215.106 124.213 215.182 122.944C215.203 122.593 215.223 122.566 215.542 122.456C215.727 122.392 216.068 122.308 216.3 122.268C216.532 122.229 216.744 122.193 216.773 122.188C216.801 122.182 217.025 122.216 217.271 122.262ZM205.97 124.844C207.238 125.858 208.091 127.103 208.282 128.22C208.468 129.303 208.076 130.599 207.21 131.764C206.836 132.267 206.798 132.294 206.502 132.269C206.213 132.245 206.154 132.189 205.708 131.527C205.143 130.688 204.394 129.206 204.113 128.369C203.839 127.551 203.828 126.113 204.092 125.547C204.286 125.131 205.009 124.283 205.169 124.283C205.224 124.283 205.585 124.536 205.97 124.844ZM261.879 127.232C262.812 127.32 264.721 127.645 264.879 127.743C264.954 127.789 264.93 128.029 264.778 128.718C264.514 129.913 264.491 131.949 264.732 132.748C265.222 134.372 266.349 135.582 267.494 135.711C268.13 135.783 268.389 135.934 268.452 136.267C268.55 136.787 268.071 137.821 267.566 138.18C267.206 138.437 266.444 138.5 265.89 138.319C265.336 138.137 265.244 138.144 264.925 138.387C264.777 138.5 264.334 138.748 263.941 138.938C263.548 139.128 263.134 139.329 263.022 139.385C262.54 139.625 262.188 142.147 262.418 143.719C262.599 144.956 263.125 146.276 263.939 147.535C264.331 148.141 264.375 148.51 264.109 148.946C263.89 149.306 263.588 149.426 262.496 149.588C259.782 149.991 256.512 149.421 253.832 148.078C252.83 147.577 252.086 147.061 251.931 146.76C251.619 146.158 251.875 145.594 252.645 145.183C254.401 144.247 255.855 142.071 255.855 140.377C255.855 139.802 255.683 139.42 255.189 138.898C254.838 138.527 254.761 138.381 254.644 137.865C254.124 135.579 255.282 131.048 257.014 128.592C257.861 127.392 259.307 126.987 261.879 127.232ZM215.187 133.801C215.305 134.149 215.427 134.604 215.457 134.813L215.513 135.193L213.758 135.93C212.793 136.336 211.976 136.667 211.943 136.666C211.91 136.666 211.702 136.471 211.48 136.233C211.258 135.996 210.739 135.56 210.326 135.265L209.576 134.728L211.758 134.727C213.771 134.727 213.962 134.714 214.209 134.564C214.569 134.344 214.626 134.212 214.698 133.425C214.754 132.811 214.768 132.771 214.866 132.961C214.925 133.076 215.07 133.454 215.187 133.801ZM216.863 136.665C218.716 141.329 221.174 146.694 222.708 149.426C223.811 151.389 224.894 152.921 225.613 153.536C226.189 154.029 226.495 154.143 227.252 154.142C227.841 154.142 227.985 154.11 228.389 153.889C229.099 153.503 230.134 152.453 231.581 150.651C234.335 147.223 235.651 145.995 237.626 145.01C239.655 143.999 240.829 143.823 245.708 143.798C248.977 143.781 249.418 143.823 251.642 144.356L252.443 144.548L252.041 144.785C251.343 145.196 251.033 145.971 251.26 146.736C251.455 147.391 252.088 147.92 253.569 148.662C256.025 149.894 259.176 150.533 261.701 150.311C263.672 150.138 264.356 149.885 264.716 149.194C264.948 148.749 264.967 148.031 264.758 147.636C264.578 147.298 264.615 147.297 265.487 147.608C268.161 148.561 270.582 150.121 272.734 152.276C274.926 154.472 276.651 156.946 278.263 160.207C279.595 162.902 280.084 164.234 280.757 166.987C281.192 168.768 281.671 170.46 282.726 173.936C285.576 183.327 286.973 188.512 288.116 193.94C289.25 199.326 289.85 204.586 289.683 207.691L289.623 208.82L288.725 209.044C287.032 209.467 283.084 210.251 283.022 210.176C282.783 209.887 281.355 206.137 279.934 202.069C277.591 195.36 271.689 177.689 269.917 172.083C269.652 171.242 269.419 170.891 269.205 171.01C268.82 171.226 267.305 173.438 266.812 174.506C265.938 176.396 265.594 177.912 265.594 179.874C265.594 182.507 266.167 184.314 267.841 186.965C271.377 192.563 272.697 196.195 273.051 201.293L273.149 202.707L272.948 202.924C272.624 203.273 271.447 204.168 270.715 204.622C268.251 206.15 265.497 207.07 262.212 207.462C260.778 207.633 257.94 207.656 256.402 207.509C252.558 207.141 248.568 206.127 244.271 204.425C241.312 203.254 239.289 202.857 234.805 202.569L233.933 202.512L233.98 202.29C234.006 202.168 234.14 201.576 234.277 200.974C235.584 195.245 236.617 186.392 237.105 176.758C237.402 170.892 237.505 164.258 237.303 164.056C237.104 163.857 236.931 163.965 236.35 164.646C236.026 165.026 235.261 165.837 234.649 166.449C231.448 169.648 228.23 171.451 225.722 171.451C225.099 171.451 224.126 171.225 223.703 170.982C220.594 169.197 216.274 158.128 211.878 140.683L211.14 137.753L211.445 137.601C211.613 137.517 212.111 137.303 212.551 137.125C212.991 136.947 213.996 136.525 214.783 136.188C215.571 135.851 216.267 135.583 216.33 135.594C216.393 135.604 216.633 136.086 216.863 136.665ZM194.201 146.368C194.033 146.537 194.078 146.624 194.669 147.267C195.131 147.769 195.277 147.88 195.448 147.855C195.595 147.834 195.667 147.764 195.687 147.624C195.709 147.47 195.583 147.29 195.142 146.845C194.569 146.268 194.392 146.178 194.201 146.368ZM199.47 146.881C199.035 147.28 198.9 147.458 198.901 147.63C198.902 147.786 198.958 147.874 199.082 147.913C199.228 147.959 199.38 147.852 199.892 147.34C200.403 146.829 200.511 146.677 200.465 146.531C200.367 146.223 200.074 146.326 199.47 146.881ZM177.841 150.148C177.888 151.094 177.983 152.968 178.051 154.311C178.119 155.654 178.214 157.587 178.262 158.607C178.31 159.626 178.386 161.142 178.432 161.976C178.477 162.81 178.59 165.084 178.683 167.029C178.775 168.975 178.89 171.268 178.936 172.125C178.983 172.982 179.059 174.517 179.104 175.537C179.15 176.556 179.244 178.47 179.314 179.79C179.383 181.11 179.516 183.764 179.608 185.686C179.7 187.609 179.817 189.94 179.867 190.866L179.959 192.551L179.414 193.688C174.069 204.844 172.702 217.478 175.534 229.527C175.862 230.919 176.27 232.348 176.955 234.497C177.294 235.562 177.667 236.737 177.784 237.108C177.9 237.478 178.025 237.857 178.061 237.949C178.097 238.041 177.731 237.762 177.249 237.329C175.254 235.539 173.154 234.209 170.713 233.191C170.254 232.999 168.267 232.347 166.298 231.74C162.222 230.485 162.011 230.448 161.396 230.88C160.9 231.228 160.641 231.717 160.641 232.305C160.641 233.094 160.775 233.242 163.17 235.097C165.419 236.84 166.719 238.015 167.585 239.087C169.361 241.284 170.514 243.897 171.005 246.836C171.055 247.137 171.136 248.066 171.183 248.9C171.323 251.348 171.609 252.851 172.267 254.605C172.753 255.897 173.187 256.714 174.809 259.386C175.61 260.706 176.339 261.91 176.429 262.06L176.593 262.334H174.747C173.397 262.334 172.863 262.363 172.757 262.44C172.621 262.539 172.613 263.107 172.635 271.453L172.659 280.36L124.468 280.338L76.2779 280.317L75.6039 280.126C74.1726 279.721 73.0434 279.033 72.0329 277.951C71.1158 276.969 70.4704 275.738 70.2102 274.474C70.1428 274.147 69.9714 271.432 69.7972 267.935C69.6334 264.646 69.441 260.818 69.3697 259.428C69.2984 258.038 69.0907 253.831 68.9082 250.079C68.7255 246.326 68.5363 242.536 68.4877 241.656C68.439 240.776 68.3609 239.203 68.3141 238.16C68.2671 237.118 68.1921 235.583 68.1472 234.749C68.1022 233.915 68.0268 232.418 67.9794 231.422C67.8316 228.314 67.6479 224.624 67.558 222.957C67.5106 222.077 67.4153 220.144 67.3464 218.662C67.2775 217.179 67.183 215.284 67.1365 214.45C67.09 213.616 66.9758 211.323 66.8828 209.354C66.7898 207.385 66.6586 204.732 66.591 203.458C66.5235 202.184 66.4462 200.649 66.4193 200.047C66.3923 199.445 66.3159 197.891 66.2494 196.594C66.183 195.297 66.0531 192.643 65.9609 190.698C65.8686 188.752 65.7736 186.828 65.7498 186.423C65.7259 186.018 65.7197 185.686 65.7359 185.686C65.752 185.686 66.1023 185.842 66.5142 186.033C67.68 186.574 68.2443 186.765 68.5405 186.72C68.6869 186.698 69.0661 186.738 69.383 186.809C70.373 187.031 72.3501 187.284 73.6468 187.354C74.8048 187.418 74.9004 187.436 75.0247 187.613C75.3354 188.056 76.9997 190.097 77.781 190.992C79.354 192.795 82.0739 195.437 83.9867 197.02C96.1994 207.126 111.881 211.458 127.543 209.051C134.891 207.923 141.991 205.269 148.311 201.289C151.997 198.969 154.663 196.822 157.96 193.524C160.637 190.845 162.13 189.093 164.03 186.402C169.741 178.314 173.016 169.333 173.934 159.238C174.087 157.564 174.145 152.642 174.028 151.321L173.964 150.605L175.123 149.955C175.76 149.598 176.604 149.1 176.998 148.849C177.392 148.598 177.723 148.4 177.734 148.41C177.745 148.42 177.793 149.202 177.841 150.148ZM182.648 149.25C182.572 149.342 182.579 149.934 182.68 151.798C182.751 153.134 182.848 155.061 182.895 156.08C182.941 157.099 183.019 158.615 183.066 159.449C183.114 160.283 183.302 163.978 183.485 167.661C183.668 171.344 183.879 175.589 183.954 177.095C184.028 178.6 184.123 179.917 184.165 180.022C184.248 180.233 184.508 180.273 184.654 180.097C184.724 180.012 184.706 179.162 184.582 176.791C184.49 175.036 184.339 172.064 184.246 170.188C184.152 168.312 184.017 165.64 183.946 164.25C183.667 158.809 183.488 155.28 183.344 152.382C183.192 149.313 183.165 149.131 182.857 149.131C182.797 149.131 182.703 149.185 182.648 149.25ZM173.404 151.805C173.499 153.242 173.462 156.777 173.333 158.607C172.273 173.583 164.969 187.518 153.197 197.022C151.693 198.236 150.587 199.025 150.563 198.9C150.55 198.836 150.47 198.374 150.385 197.873L150.23 196.963L150.691 196.668C151.623 196.072 152.329 195.104 152.559 194.107C152.684 193.562 152.669 192.442 152.527 191.777C152.317 190.79 151.871 189.626 150.84 187.371C148.968 183.278 148.065 180.412 147.507 176.8C146.96 173.263 146.945 168.275 147.47 164.395C147.853 161.568 148.655 157.681 149.261 155.714C149.4 155.263 149.4 155.263 149.698 155.313C149.862 155.34 150.89 155.404 151.983 155.454C158.937 155.778 166.297 154.321 172.238 151.447C172.747 151.201 173.206 150.995 173.257 150.991C173.315 150.987 173.37 151.29 173.404 151.805ZM194.666 151.596C194.241 151.992 194.1 152.18 194.1 152.348C194.1 152.504 194.156 152.59 194.28 152.63C194.426 152.676 194.578 152.569 195.089 152.057C195.601 151.545 195.709 151.394 195.662 151.248C195.562 150.932 195.267 151.035 194.666 151.596ZM198.919 151.169C198.729 151.359 198.819 151.536 199.396 152.11C199.841 152.551 200.021 152.677 200.176 152.655C200.555 152.601 200.466 152.319 199.867 151.672C199.315 151.076 199.117 150.971 198.919 151.169ZM105.176 157.431C105.451 157.503 105.697 157.596 105.723 157.638C105.749 157.68 105.839 158.276 105.924 158.961C106.008 159.646 106.184 161.06 106.314 162.102C106.444 163.144 106.525 164.021 106.495 164.05C106.464 164.079 105.889 164.277 105.217 164.489C104.322 164.772 103.935 164.936 103.767 165.105C103.641 165.232 103.523 165.319 103.506 165.298C103.489 165.278 103.322 165.033 103.136 164.755C101.341 162.076 100.827 159.248 101.914 158.042C102.409 157.493 102.913 157.303 103.873 157.302C104.328 157.301 104.893 157.357 105.176 157.431ZM86.1825 158.459C86.9187 158.832 87.1049 159.179 87.2434 160.434C87.3693 161.575 87.5151 167.013 87.5212 170.799L87.5251 173.22L87.2092 173.218C86.2655 173.21 84.2044 172.866 83.1442 172.54C81.5809 172.059 79.686 171.082 78.6493 170.222L78.1313 169.792L78.155 169.253C78.168 168.957 78.2567 168.259 78.352 167.703C79.1396 163.111 80.6605 160.521 83.5217 158.9C84.7985 158.176 85.4212 158.073 86.1825 158.459ZM114.659 162.755C114.958 162.906 115.203 163.113 115.369 163.352C115.598 163.681 115.625 163.791 115.65 164.489C115.684 165.449 115.513 166.309 115.123 167.128C114.665 168.094 113.989 168.668 112.168 169.64C111.751 169.862 111.239 170.159 111.031 170.3C110.431 170.704 109.424 171.716 108.125 173.22C104.634 177.262 102.956 178.539 100.963 178.673C100.302 178.717 100.278 178.726 99.7412 179.158C96.9181 181.428 93.5891 183.162 89.3316 184.58C85.1849 185.962 81.0828 186.671 76.7412 186.756C73.5278 186.82 71.2198 186.607 68.7379 186.017C67.7669 185.786 67.6423 185.736 67.6423 185.581C67.6423 185.314 68.4307 182.492 68.8248 181.348C69.832 178.424 71.2904 175.54 72.8926 173.304C73.6369 172.266 73.9902 171.908 74.6771 171.496C75.429 171.045 76.1106 170.862 77.0375 170.862C78.0457 170.862 78.5975 171.033 79.7117 171.691C82.3068 173.225 84.75 173.84 88.2412 173.84C89.9417 173.84 91.1753 173.739 92.7486 173.469C95.2337 173.043 98.5462 172.178 98.8476 171.877C98.9373 171.787 100.208 170.301 101.672 168.574L104.333 165.435L106.734 164.664C108.055 164.241 109.66 163.678 110.301 163.414C111.332 162.99 112.145 162.705 112.673 162.582C112.766 162.56 113.148 162.538 113.522 162.533C114.108 162.525 114.265 162.555 114.659 162.755ZM195.267 174.941C195.522 175.072 195.701 175.389 195.701 175.709C195.701 175.822 194.683 178.464 193.438 181.58C191.175 187.246 190.828 188.169 190.28 189.982C187.119 200.444 187.959 212.244 192.563 222.073C193.666 224.428 194.261 225.899 194.951 227.978C196.619 233.006 197.333 238.187 197.127 243.762C197.056 245.658 196.992 246.282 196.335 251.469C196.127 253.113 195.747 256.145 195.49 258.207C195.233 260.268 195.004 262.04 194.981 262.145L194.939 262.334H192.209H189.478L189.419 262.145C189.387 262.04 189.153 261.424 188.9 260.776C188.646 260.127 188.269 259.161 188.06 258.628C187.852 258.095 187.48 257.148 187.234 256.522C186.657 255.057 185.569 252.276 183.527 247.047C182.189 243.619 181.229 241.882 179.385 239.55C179.129 239.226 178.327 236.863 177 232.522C174.763 225.199 174.162 217.144 175.279 209.447C176.427 201.542 179.304 194.038 183.721 187.431C185.406 184.91 186.864 183.099 189.802 179.874C191.581 177.922 192.485 176.928 193.629 175.665C193.902 175.363 194.206 175.05 194.303 174.97C194.518 174.792 194.955 174.779 195.267 174.941ZM190.157 182.127C188.906 183.979 187.078 187.644 185.886 190.693C184.079 195.308 183.018 199.589 182.502 204.343C182.295 206.25 182.296 210.811 182.504 212.639C182.953 216.591 183.794 220.022 186.097 227.295C188.579 235.134 189.725 240.878 190.056 247.131C190.211 250.072 190.139 253.955 189.878 256.72C189.797 257.582 189.801 257.735 189.911 257.845C190.078 258.012 190.381 257.914 190.432 257.675C190.669 256.558 190.814 249.271 190.654 246.541C190.436 242.824 189.904 239.222 189.002 235.339C188.388 232.7 187.918 231.047 186.152 225.316C184.099 218.652 183.468 215.922 183.096 212.092C182.954 210.632 182.898 206.806 183.004 205.901C183.034 205.646 183.1 204.964 183.15 204.385C183.703 197.983 186.195 190.296 189.74 184.056C190.105 183.414 190.537 182.688 190.7 182.442C190.95 182.066 190.982 181.967 190.903 181.819C190.739 181.513 190.507 181.608 190.157 182.127ZM241.886 185.029C241.831 185.085 241.785 185.176 241.785 185.231C241.785 185.332 242.549 186.92 244.818 191.54C246.509 194.983 247.824 197.667 249.101 200.279C249.797 201.704 250.247 202.532 250.325 202.532C250.558 202.532 250.716 202.429 250.716 202.278C250.716 202.194 250.199 201.071 249.568 199.781C247.468 195.489 246.534 193.585 245.197 190.866C244.468 189.384 243.517 187.441 243.084 186.549C242.285 184.901 242.165 184.75 241.886 185.029ZM88.1989 185.707C88.1988 185.765 88.2381 186.229 88.2863 186.739C88.9909 194.188 89.5559 197.323 90.4918 198.978C91.2559 200.329 92.9185 201.507 94.7463 201.991C95.4302 202.172 95.8261 202.218 97.0663 202.256L98.5617 202.303V203.639C98.5617 204.561 98.5328 204.974 98.4683 204.974C98.4169 204.974 97.9714 204.799 97.4784 204.585C92.4492 202.4 87.8265 199.487 83.4812 195.764C82.3521 194.796 79.0251 191.47 78.0423 190.326C76.8214 188.905 75.7329 187.498 75.8407 187.481C75.8958 187.472 76.756 187.423 77.7522 187.372C79.8933 187.264 81.6818 187.049 83.8182 186.646C85.2036 186.384 87.9308 185.73 88.0235 185.637C88.0961 185.564 88.1991 185.606 88.1989 185.707ZM240.669 190.831C240.588 190.878 240.521 190.966 240.521 191.027C240.521 191.125 241.015 192.357 242.179 195.162C242.946 197.011 242.878 196.888 243.135 196.888C243.587 196.888 243.585 196.881 242.227 193.604C242.045 193.163 241.733 192.405 241.534 191.919C241.2 191.103 240.992 190.736 240.866 190.742C240.839 190.744 240.75 190.784 240.669 190.831ZM204.112 205.178C204.424 205.339 204.511 205.548 204.675 206.533C205.037 208.702 205.55 211.025 206.727 215.84C208.396 222.661 209.106 226.448 209.576 231.043C209.789 233.121 209.789 238.505 209.577 240.393C209.093 244.697 208.233 248.126 206.685 251.92C205.863 253.936 203.767 257.955 201.507 261.85L201.226 262.334H198.41H195.594L195.644 261.966C195.753 261.172 197.321 248.736 197.473 247.468C198.119 242.045 197.832 236.718 196.616 231.549C196.324 230.309 196.326 230.216 196.674 228.157C197.717 222.004 199.869 214.11 202.603 206.409C202.792 205.878 202.946 205.432 202.946 205.418C202.946 205.404 203.07 205.318 203.22 205.226C203.544 205.029 203.797 205.015 204.112 205.178ZM288.873 210.468C289.391 211.34 290.118 212.213 290.679 212.637C290.932 212.828 291.607 213.213 292.179 213.493C293.592 214.185 294.459 214.778 295.347 215.66C296.835 217.138 298.493 219.662 298.7 220.763C298.866 221.649 297.555 221.589 295.797 220.63C294.592 219.972 294.018 219.548 292.78 218.399C291.349 217.071 290.594 216.535 289.958 216.395C289.387 216.269 289.161 216.308 288.995 216.562C288.752 216.933 288.916 217.352 290.175 219.588C290.848 220.782 290.802 220.932 289.896 220.51C289.225 220.198 288.253 219.178 287.814 218.325C287.423 217.564 284.654 211.074 284.569 210.716C284.549 210.633 284.916 210.526 285.932 210.316C286.696 210.158 287.53 209.976 287.785 209.911C288.04 209.846 288.302 209.798 288.368 209.805C288.433 209.812 288.661 210.11 288.873 210.468ZM203.026 212.065C203.024 212.08 203.011 216.28 202.997 221.399C202.982 227.1 202.936 231.326 202.877 232.307C202.823 233.187 202.741 234.627 202.693 235.507C202.493 239.166 202.129 242.982 201.668 246.252C201.521 247.297 201.424 248.217 201.454 248.295C201.522 248.472 201.9 248.482 201.966 248.308C202.034 248.133 202.247 246.79 202.441 245.32C203.358 238.378 203.782 229.144 203.667 218.577C203.633 215.52 203.581 212.81 203.55 212.555C203.498 212.128 203.476 212.09 203.262 212.065C203.135 212.05 203.029 212.05 203.026 212.065ZM177.177 215.651C177.047 215.894 177.935 218.627 178.822 220.712C179.272 221.77 180.21 223.667 180.713 224.534C181.404 225.727 182.628 227.463 182.778 227.463C182.913 227.463 183.148 227.271 183.148 227.16C183.148 227.09 182.886 226.664 182.567 226.216C180.726 223.632 179.038 220.049 177.925 216.366C177.688 215.581 177.646 215.503 177.46 215.503C177.348 215.503 177.221 215.569 177.177 215.651ZM141.908 218.961C141.213 219.069 140.412 219.337 139.76 219.679C137.357 220.94 135.916 223.731 136.301 226.379C136.786 229.706 139.5 232.09 142.808 232.095C145.738 232.099 148.181 230.349 149.133 227.564C149.452 226.634 149.54 225.165 149.336 224.206C148.885 222.089 147.385 220.253 145.436 219.433C144.371 218.985 142.964 218.796 141.908 218.961ZM106.06 219.604C103.439 220.045 101.462 221.78 100.655 224.35C100.389 225.196 100.371 227.036 100.62 227.885C101.449 230.706 103.792 232.58 106.695 232.744C110.717 232.972 114.012 229.476 113.563 225.456C113.289 223.008 111.804 221.019 109.53 220.053C108.545 219.634 107.039 219.44 106.06 219.604ZM123.468 219.684C121.108 220.19 119.323 221.766 118.497 224.075C118.244 224.782 118.234 224.862 118.234 226.158C118.234 227.454 118.244 227.534 118.497 228.241C119.019 229.699 119.881 230.825 121.09 231.63C124.521 233.912 129.052 232.625 130.784 228.876C131.971 226.309 131.326 223.195 129.21 221.274C127.659 219.867 125.458 219.257 123.468 219.684ZM144.257 219.712C146.381 220.255 147.965 221.787 148.613 223.926C148.762 224.418 148.805 224.762 148.805 225.484C148.805 226.602 148.658 227.232 148.166 228.221C147.882 228.793 147.657 229.092 147.048 229.705C146.421 230.336 146.159 230.533 145.571 230.817C144.53 231.321 143.93 231.461 142.835 231.456C141.754 231.451 141.104 231.302 140.197 230.852C137.759 229.639 136.457 226.921 137.021 224.221C137.461 222.115 139.288 220.243 141.415 219.721C142.307 219.501 143.421 219.498 144.257 219.712ZM108.414 220.353C110.319 220.814 112.069 222.427 112.689 224.294C112.893 224.907 112.917 225.102 112.917 226.158C112.917 227.214 112.893 227.409 112.689 228.022C112.117 229.744 110.669 231.209 108.95 231.802C105.798 232.891 102.366 231.172 101.336 227.988C101.103 227.267 101.071 227.052 101.069 226.2C101.067 225.667 101.111 225.061 101.166 224.852C101.75 222.643 103.265 221.051 105.386 220.417C106.177 220.181 107.579 220.152 108.414 220.353ZM126.238 220.38C127.448 220.702 128.268 221.196 129.164 222.146C129.824 222.845 130.398 223.942 130.611 224.911C131.417 228.568 128.533 232.126 124.763 232.126C122.155 232.126 119.904 230.461 119.049 227.899C118.862 227.336 118.834 227.112 118.837 226.158C118.839 225.219 118.87 224.971 119.052 224.418C119.6 222.753 120.858 221.336 122.372 220.679C123.461 220.207 125.108 220.079 126.238 220.38ZM166.06 232.343C170.33 233.646 171.367 234.056 173.347 235.225C175.858 236.708 178.155 238.839 179.915 241.319C181.237 243.181 181.75 244.255 183.68 249.194C183.888 249.727 184.27 250.703 184.53 251.363C185.595 254.074 185.988 255.077 186.897 257.407C187.421 258.75 188.062 260.391 188.321 261.052C188.58 261.714 188.793 262.273 188.793 262.295C188.793 262.316 186.217 262.334 183.07 262.334H177.347L176.975 261.723C176.77 261.387 176.174 260.412 175.651 259.554C173.717 256.386 173.308 255.624 172.811 254.252C172.185 252.524 171.962 251.252 171.771 248.31C171.526 244.537 170.232 241.264 167.868 238.435C166.936 237.32 166.131 236.6 163.681 234.691C162.399 233.694 161.401 232.855 161.343 232.729C161.053 232.092 161.549 231.254 162.217 231.254C162.369 231.254 164.098 231.744 166.06 232.343ZM166.265 234.166C166.237 234.24 166.214 234.331 166.214 234.37C166.214 234.409 166.659 234.732 167.204 235.09C170.879 237.502 174.166 240.938 176.479 244.788C178.99 248.967 180.347 253.558 180.604 258.745C180.653 259.728 180.686 259.931 180.81 260.008C180.918 260.076 180.997 260.076 181.105 260.006C181.234 259.923 181.249 259.787 181.23 258.912C181.133 254.611 180.026 250.26 178.011 246.254C175.742 241.745 171.911 237.449 167.619 234.602C166.754 234.028 166.366 233.903 166.265 234.166ZM72.068 242.065C71.9305 242.165 71.9271 242.313 72.0145 244.357C72.066 245.558 72.1471 247.261 72.1948 248.142C72.2861 249.827 72.8085 260.872 72.9496 264.103C73.0312 265.97 73.164 268.682 73.2425 270.083C73.4206 273.261 75.5838 276.057 78.5977 277.003L79.2266 277.2H88.157H97.0874L97.1138 276.972C97.1346 276.791 97.0992 276.733 96.9453 276.697C96.8381 276.672 92.8644 276.642 88.1149 276.63C80.1321 276.61 79.4411 276.597 78.9738 276.459C76.5967 275.757 74.8545 273.988 74.1444 271.557C74.0497 271.233 73.9501 270.797 73.9231 270.588C73.8961 270.38 73.7236 267.007 73.5399 263.092C73.3562 259.178 73.1485 254.8 73.0783 253.364C73.0082 251.928 72.8739 249.047 72.7798 246.962C72.5676 242.258 72.5578 242.141 72.3652 242.038C72.2629 241.983 72.1683 241.991 72.068 242.065ZM205.451 271.62C205.422 280.056 205.418 280.25 205.241 281.058C204.719 283.445 203.803 285.505 202.457 287.324C201.76 288.266 200.072 289.942 199.184 290.573C197.111 292.047 194.729 293.02 192.358 293.363C191.087 293.546 187.627 293.551 186.412 293.371C179.831 292.395 174.751 287.514 173.439 280.906C173.258 279.997 173.254 279.821 173.227 271.494L173.199 263.008H189.339H205.48L205.451 271.62ZM275.993 264.399C276.4 264.609 276.5 264.931 276.674 266.579C277.008 269.752 277.107 270.325 277.681 272.399C278.173 274.178 278.429 275.316 278.608 276.527C278.898 278.487 278.813 279.173 278.097 280.654C277.498 281.894 276.006 284.202 275.329 284.939C275.041 285.252 274.516 285.493 274.117 285.495C273.834 285.497 273.126 285.279 273.126 285.19C273.126 285.17 273.347 284.823 273.618 284.42C274.874 282.548 275.661 281.049 276.052 279.784C276.258 279.122 276.278 278.932 276.276 277.748C276.273 276.684 276.231 276.228 276.047 275.285C275.923 274.648 275.536 272.052 275.187 269.515C274.839 266.979 274.532 264.782 274.505 264.635C274.46 264.383 274.473 264.365 274.739 264.333C275.362 264.257 275.758 264.278 275.993 264.399ZM274.124 266.44C274.277 267.54 274.572 269.691 274.779 271.22C274.986 272.749 275.246 274.492 275.357 275.095C275.668 276.788 275.762 277.64 275.702 278.245C275.587 279.412 275.148 280.66 274.378 282.009C273.937 282.782 272.561 284.882 272.452 284.949C272.419 284.97 271.897 284.743 271.294 284.445C270.055 283.833 268.947 283.045 268.583 282.516C268.246 282.026 268.057 281.328 268.088 280.682L268.113 280.15L268.525 279.881C269.114 279.496 269.566 279.037 269.858 278.525C270.095 278.109 270.128 278.084 270.376 278.127C271.8 278.375 272.83 278.49 272.969 278.415C273.148 278.32 273.176 278.061 273.021 277.938C272.963 277.893 272.328 277.772 271.61 277.669C270.892 277.567 270.302 277.476 270.299 277.468C270.295 277.46 270.309 277.005 270.328 276.458L270.364 275.464L270.839 275.522C271.101 275.553 271.738 275.644 272.255 275.723C273.271 275.878 273.463 275.846 273.463 275.517C273.463 275.27 273.445 275.265 272.031 275.054C271.405 274.961 270.77 274.864 270.619 274.839L270.346 274.792L270.348 272.459C270.35 269.803 270.484 264.863 270.556 264.791C270.603 264.744 272.968 264.476 273.549 264.452L273.847 264.44L274.124 266.44ZM175.851 268.015C175.825 268.081 175.817 268.204 175.833 268.288C175.861 268.434 176.414 268.442 189.299 268.462C201.688 268.482 202.744 268.473 202.838 268.345C202.909 268.249 202.914 268.159 202.856 268.05C202.775 267.898 202.353 267.893 189.335 267.893C177.71 267.893 175.891 267.909 175.851 268.015ZM223.901 268.157C223.778 268.226 223.756 268.373 223.756 269.116C223.756 269.916 223.771 270.001 223.93 270.086C224.262 270.264 224.346 270.068 224.346 269.107C224.346 268.359 224.325 268.225 224.196 268.156C224.101 268.105 223.993 268.106 223.901 268.157ZM219.813 272.29C219.661 272.442 219.691 272.677 219.875 272.775C219.965 272.823 220.36 272.863 220.754 272.863C221.473 272.863 221.734 272.765 221.734 272.494C221.734 272.254 221.519 272.189 220.723 272.189C220.206 272.189 219.878 272.225 219.813 272.29ZM226.484 272.31C226.459 272.377 226.451 272.5 226.467 272.584C226.492 272.717 226.605 272.739 227.378 272.761C228.125 272.781 228.277 272.763 228.364 272.644C228.436 272.545 228.442 272.455 228.383 272.346C228.31 272.208 228.191 272.189 227.415 272.189C226.723 272.189 226.521 272.215 226.484 272.31ZM223.816 274.936C223.783 274.969 223.756 275.387 223.756 275.864C223.756 276.634 223.774 276.741 223.918 276.818C224.008 276.866 224.141 276.882 224.216 276.853C224.331 276.809 224.347 276.661 224.327 275.864C224.304 274.93 224.303 274.926 224.09 274.901C223.972 274.888 223.849 274.903 223.816 274.936ZM103.951 276.827C103.713 277.271 101.676 277.244 133.767 277.221L163.476 277.2L163.504 276.999C163.52 276.889 163.482 276.766 163.42 276.727C163.358 276.688 149.973 276.655 133.675 276.654L104.044 276.653L103.951 276.827ZM256.141 281.159C257.608 281.506 259.028 281.713 260.286 281.765L261.473 281.815L261.531 283.55C261.562 284.505 261.658 285.892 261.743 286.632L261.899 287.978L261.552 288.389C261.361 288.616 260.788 289.18 260.278 289.642C256.713 292.878 252.589 294.925 247.851 295.812C247.022 295.968 245.273 296.159 243.92 296.243L242.981 296.301L242.92 295.734C242.774 294.371 243.11 293.461 244.256 292.125C244.748 291.551 245.958 290.52 247.111 289.694L247.93 289.107L248.457 289.67C249.073 290.328 249.695 290.77 250.662 291.233C251.353 291.565 251.582 291.588 251.678 291.337C251.762 291.119 251.625 291.002 250.798 290.579C250.357 290.353 249.766 289.992 249.486 289.777C248.921 289.342 248.466 288.803 248.579 288.702C248.746 288.551 250.209 287.603 250.275 287.603C250.315 287.603 250.458 287.72 250.595 287.864C251.232 288.536 252.761 289.31 254.066 289.62C254.557 289.737 254.76 289.661 254.76 289.359C254.76 289.18 254.67 289.136 253.696 288.835C252.702 288.528 251.755 288.039 251.268 287.582C250.905 287.242 250.862 287.17 250.979 287.099C251.305 286.902 252.129 286.245 252.389 285.975L252.672 285.681L253.189 286.1C254.016 286.77 255.554 287.436 256.88 287.696C257.264 287.772 257.398 287.77 257.497 287.687C257.795 287.44 257.553 287.144 256.985 287.058C256.446 286.978 254.996 286.467 254.385 286.143C254.11 285.997 253.699 285.706 253.472 285.497L253.059 285.118L253.419 284.528C253.782 283.933 254.567 282.326 254.93 281.433C255.039 281.167 255.155 280.949 255.189 280.949C255.222 280.949 255.651 281.043 256.141 281.159ZM147.521 286.573C147.47 286.668 147.47 286.776 147.522 286.868C147.598 287.004 148.297 287.013 158.97 287.013C169.772 287.013 170.34 287.006 170.416 286.863C170.467 286.769 170.466 286.661 170.415 286.569C170.339 286.432 169.64 286.423 158.967 286.423C148.165 286.423 147.597 286.431 147.521 286.573ZM262.263 289.555C262.593 291.01 262.425 291.69 261.489 292.692C259.541 294.777 255.92 296.874 252.602 297.837C250.503 298.446 248.537 298.759 246.798 298.761C245.256 298.763 244.814 298.677 244.123 298.243C243.666 297.956 243.097 297.128 243.251 296.974C243.278 296.947 243.936 296.876 244.712 296.815C246.475 296.678 247.285 296.573 248.567 296.318C253.347 295.367 258.063 292.83 261.454 289.385C261.777 289.057 262.055 288.804 262.073 288.821C262.09 288.839 262.176 289.169 262.263 289.555Z" fill="#181818"/>
</svg>
